<svg xmlns="http://www.w3.org/2000/svg" xml:space="preserve" style="fill-rule:evenodd;clip-rule:evenodd;stroke-linejoin:round;stroke-miterlimit:2" viewBox="0 0 100 100">
  <g id="レイヤー1">
    <path d="M.014 33.233c.011-1.49.027-2.98.05-4.47.047-4.05-.001-8.185.945-12.148a20.178 20.178 0 0 1 .375-1.384 22.625 22.625 0 0 1 .469-1.356 22.514 22.514 0 0 1 .874-1.965 22.613 22.613 0 0 1 .693-1.256 19.23 19.23 0 0 1 .777-1.205 19.942 19.942 0 0 1 1.314-1.702 20.303 20.303 0 0 1 .971-1.056C12.498.579 19.713.089 27.839.063l8.619-.028c.533.004 1.067.011 1.6.021C39.279.04 40.5.028 41.721.019l22.895.025 7.439.018c3.948.012 8.019.032 11.863 1.043.223.058.446.119.667.185a19.41 19.41 0 0 1 1.314.433 20.976 20.976 0 0 1 3.732 1.807 20.631 20.631 0 0 1 1.156.762 22.149 22.149 0 0 1 1.102.837c.18.145.356.294.53.445a18.833 18.833 0 0 1 1.015.942c5.389 5.35 6.363 11.639 6.529 18.67.015 3.161.017 6.322.005 9.483 0 .842.016 1.727.027 2.618v2.583c-.008.422-.023.837-.046 1.241.023.362.038.727.047 1.093v2.149c-.013.869-.035 1.737-.034 2.595l.002 12.205.002 12.328c-.001 1.518.005 3.037-.016 4.554-.082 2.437-.296 4.867-.845 7.223a21.359 21.359 0 0 1-1.423 4.183 20.325 20.325 0 0 1-1.032 1.957 19.92 19.92 0 0 1-.8 1.24 23.284 23.284 0 0 1-.885 1.181 19.692 19.692 0 0 1-.966 1.115c-.167.181-.337.358-.511.532-5.78 5.805-12.429 6.388-20.214 6.504-.895.014-1.79.021-2.685.026-1.422-.006-2.844-.016-4.263-.016H43.147l-15.407-.003c-.513.003-1.025.003-1.538.001-3.237-.031-6.521-.179-9.643-.947a22.52 22.52 0 0 1-1.353-.373 19.996 19.996 0 0 1-1.326-.462 21.542 21.542 0 0 1-1.923-.856 21.607 21.607 0 0 1-2.413-1.432 20.433 20.433 0 0 1-1.672-1.278 19.381 19.381 0 0 1-1.041-.942C.846 87.829.159 81.03.083 73.061L.014 40.99v-7.757Zm8.319 19.892h12.5a3.126 3.126 0 0 0 3.032-2.367l4.414-17.656 6.125 44.408a3.126 3.126 0 0 0 5.924.904l14.455-30.717 9.384 12.511a3.123 3.123 0 0 0 5.1-.141l6.803-10.205 5.866 2.933c.434.217.912.33 1.397.33h8.334c1.724 0 3.125-1.4 3.125-3.125a3.127 3.127 0 0 0-3.125-3.125h-7.596l-7.673-3.837A3.125 3.125 0 0 0 72.4 44.1l-5.883 8.825-9.85-13.133a3.124 3.124 0 0 0-5.328.544L39.157 66.224 32.262 16.24a3.125 3.125 0 0 0-6.127-.331l-7.742 30.966H8.333A3.127 3.127 0 0 0 5.208 50a3.127 3.127 0 0 0 3.125 3.125Z"/>
  </g>
</svg>
