<svg
    xmlns="http://www.w3.org/2000/svg"
    xml:space="preserve"
    style="fill-rule:evenodd;clip-rule:evenodd;stroke-linejoin:round;stroke-miterlimit:2"
    viewBox="0 0 100 100"
><path
        d="M20,0C8.954,0 0,8.954 0,20L0,80C0,91.046 8.954,100 20,100L80,100C91.046,100 100,91.046 100,80L100,20C100,8.954 91.046,0 80,0L20,0Z"
        fill="#000000"
    />
    <g transform="scale(3.8) translate(-2.5, -3)">
        <path
            d="M8 21.7957V9.20796C8 9.12233 8.0351 9.0734 8.11701 9.0734C9.32624 9.0734 10.5349 9 11.7445 9C13.7071 9 15.8323 9.68403 16.5772 11.7769C16.7527 12.2907 16.8463 12.8167 16.8463 13.3672C16.8463 14.4192 16.6123 15.2877 16.1442 15.9728C14.8368 17.8864 12.5706 17.8567 10.5392 17.8567V21.7834C10.5551 21.8997 10.4579 21.9547 10.3637 21.9547H8.14042C8.04681 21.9547 8 21.9058 8 21.7957ZM10.5509 11.4344V15.5446C11.3564 15.6048 12.1992 15.6113 12.9731 15.3489C13.8275 15.0977 14.2954 14.3439 14.2954 13.4406C14.3192 12.6709 13.9077 11.9323 13.2072 11.6546C12.4426 11.3305 11.3763 11.3111 10.5509 11.4344Z M18.4325 12.2119H20.4861C20.5993 12.213 20.701 12.2947 20.7309 12.4089C20.8814 12.7582 20.9 13.1795 20.9005 13.5566C21.2527 13.1279 21.6773 12.7708 22.1533 12.5029C22.6638 12.201 23.2425 12.0479 23.8289 12.0598C23.9263 12.0452 24.0124 12.1353 23.9985 12.237V14.6201C23.9985 14.7122 23.9355 14.758 23.8101 14.758C22.9409 14.6953 21.5877 14.91 20.9561 15.6246V21.821C20.9561 21.9392 20.9059 21.9983 20.8054 21.9983H18.6021C18.4939 22.0145 18.3984 21.9127 18.4137 21.8013V15.0731C18.4137 14.1716 18.4324 13.2429 18.3007 12.3498C18.2804 12.2676 18.3556 12.1912 18.4325 12.2119Z"
            fill="white"
        />
    </g>
</svg>
