<svg xmlns="http://www.w3.org/2000/svg" xml:space="preserve" style="fill-rule:evenodd;clip-rule:evenodd;stroke-linejoin:round;stroke-miterlimit:2" viewBox="0 0 100 100">
  <g id="レイヤー1">
    <path d="m37.433.032 2.995-.014 24.188.026 7.439.018c3.948.012 8.019.032 11.863 1.043.223.058.446.119.667.185a19.41 19.41 0 0 1 1.314.433 20.976 20.976 0 0 1 3.732 1.807 20.631 20.631 0 0 1 1.156.762 22.149 22.149 0 0 1 1.102.837c.18.145.356.294.53.445a18.833 18.833 0 0 1 1.015.942c6.012 5.969 6.53 13.107 6.559 21.141l.006 32.213-.001 10.378c-.001 4.315.093 8.783-.893 13.01a21.359 21.359 0 0 1-1.423 4.183 20.325 20.325 0 0 1-1.032 1.957 19.92 19.92 0 0 1-.8 1.24 23.284 23.284 0 0 1-.885 1.181 19.692 19.692 0 0 1-.966 1.115c-.167.181-.337.358-.511.532-5.78 5.805-12.429 6.388-20.214 6.504-3.558.053-7.12.02-10.678.019l-25.444.001-8.286-.002c-4.078-.007-8.324.023-12.307-.957a22.52 22.52 0 0 1-1.353-.373 19.996 19.996 0 0 1-1.326-.462 21.542 21.542 0 0 1-1.923-.856 21.607 21.607 0 0 1-2.413-1.432 20.433 20.433 0 0 1-1.672-1.278 19.381 19.381 0 0 1-1.041-.942C.846 87.829.159 81.03.083 73.061L.013 40.99c-.028-4.076-.011-8.151.051-12.227.047-4.05-.001-8.185.945-12.148a20.178 20.178 0 0 1 .375-1.384 22.625 22.625 0 0 1 .469-1.356 22.514 22.514 0 0 1 .874-1.965 22.613 22.613 0 0 1 .693-1.256 19.23 19.23 0 0 1 .777-1.205 19.942 19.942 0 0 1 1.314-1.702 20.303 20.303 0 0 1 .971-1.056C12.498.579 19.713.089 27.839.063l9.594-.031Zm10.035 20.007c-1.383.099-2.626.643-3.543 1.708-1.75 2.034-1.792 5.346-1.583 7.896.323 3.946 1.585 7.77 3.136 11.389-.528 1.82-1.244 3.628-1.916 5.401a119.912 119.912 0 0 1-4.976 11.52c-.499.984-.98 2.093-1.605 2.997-1.323.652-2.727 1.172-4.066 1.801-3.889 1.826-10.947 5.519-12.422 9.835-.413 1.211-.387 2.481.186 3.637.64 1.292 1.827 2.176 3.178 2.624 2.097.695 4.263.293 6.197-.685 4.561-2.309 8.363-7.634 11.027-11.846.747-1.182 1.421-2.524 2.201-3.657.311-.109.622-.223.936-.321a105.307 105.307 0 0 1 14.31-3.685c4.564 3.877 10.66 7.29 16.861 6.793 1.645-.132 3.415-.622 4.524-1.925.832-.977 1.196-2.267 1.081-3.538a5.087 5.087 0 0 0-1.887-3.549c-3.838-3.124-11.323-2.737-15.968-2.236-1.148.131-2.293.281-3.436.449-3.287-3.207-6.088-7.005-8.342-11 1.731-5.557 4.491-14.81 1.598-20.281-.767-1.451-1.957-2.59-3.551-3.064-.642-.19-1.273-.245-1.94-.263Zm-.095 3.081c.182.003.36.015.536.063.429.117.758.459.967.838 1.455 2.642-.696 10.448-1.518 13.267-.434-.385-1.308-3.987-1.471-4.741-.496-2.307-1.067-6.649.27-8.628.31-.46.677-.694 1.216-.799ZM35.202 65.097l.076.035c-.234.629-.91 1.469-1.295 2.036-1.662 2.442-5.676 8.045-8.676 8.547-.566.094-.984-.004-1.451-.329-.153-.169-.305-.335-.405-.543-.205-.428-.167-.906-.011-1.342 1.2-3.34 8.662-6.965 11.762-8.404ZM49.788 48.31c.376.361 1.462 2.147 1.894 2.743a53.74 53.74 0 0 0 3.605 4.42 96.283 96.283 0 0 0-5.088 1.196c-1.493.341-2.971.811-4.44 1.242 1.519-3.152 2.722-6.365 4.029-9.601Zm16.598 8.668c1.187-.091 2.415-.064 3.605-.019 1.485.057 3.823.134 4.878 1.33.378.43.541.97.483 1.538a2.274 2.274 0 0 1-.904 1.595c-.945.723-2.158.744-3.282.574-3.404-.674-6.551-2.454-9.259-4.572 1.487-.212 2.98-.36 4.479-.446Z"/>
  </g>
</svg>
