<svg xmlns="http://www.w3.org/2000/svg" xml:space="preserve" style="fill-rule:evenodd;clip-rule:evenodd;stroke-linejoin:round;stroke-miterlimit:2" viewBox="0 0 100 100">
  <g id="レイヤー1">
    <path d="M97.681 87.441a21.335 21.335 0 0 1-.664 1.317 21.197 21.197 0 0 1-2.525 3.627c-.161.186-.325.369-.493.549-.167.181-.337.358-.511.532-5.78 5.805-12.429 6.388-20.214 6.504-3.558.053-7.12.02-10.678.019l-25.444.001-8.286-.002c-4.078-.007-8.324.023-12.307-.957a22.52 22.52 0 0 1-1.353-.373 19.996 19.996 0 0 1-1.326-.462 21.542 21.542 0 0 1-1.923-.856 21.607 21.607 0 0 1-2.413-1.432 20.433 20.433 0 0 1-1.672-1.278 19.381 19.381 0 0 1-1.041-.942C.846 87.829.159 81.03.083 73.061L.013 40.99c-.028-4.076-.011-8.151.051-12.227.047-4.05-.001-8.185.945-12.148a20.178 20.178 0 0 1 .375-1.384 22.625 22.625 0 0 1 .469-1.356 22.514 22.514 0 0 1 .874-1.965 22.613 22.613 0 0 1 .693-1.256 19.23 19.23 0 0 1 .777-1.205 19.942 19.942 0 0 1 1.314-1.702 20.303 20.303 0 0 1 .971-1.056c.008-.009.016-.019.025-.027C12.761.341 20.292.078 28.675.066l10.452-.03L43.056.02l16.307.018 5.94.014 6.644.011.108-.001c1.293.004 2.6.01 3.908.05 2.773.086 5.551.335 8.211 1.068a21.28 21.28 0 0 1 4.422 1.761 19.197 19.197 0 0 1 1.179.683c.193.12.385.242.573.369-.044-.03-.088-.062-.133-.091.193.127.383.258.571.391a20.485 20.485 0 0 1 2.648 2.223c2.207 2.191 3.673 4.541 4.647 7.034 1.506 3.863 1.827 8.09 1.887 12.682.012 1.359.021 2.718.025 4.077l.001 4.378-.002 26.915-.003 9.454c-.011 4.215.037 8.55-1.004 12.665a20.436 20.436 0 0 1-.872 2.706c-.087.221-.177.44-.273.657.047-.106.095-.211.14-.318-.095.227-.196.452-.299.675ZM45.91 39.454c-1.192.23-1.991.795-2.658 1.794-.85 1.269-1.571 2.666-2.334 3.991-.559.97-1.518 2.359-1.85 3.399a4.112 4.112 0 0 0-.159.734 4.142 4.142 0 0 0 .048 1.247c.059.289.152.557.28.821.607 1.254 1.396 2.462 2.092 3.671.689 1.196 1.339 2.529 2.162 3.632.222.297.495.539.804.744.427.283.903.493 1.409.583 1.184.208 2.541.083 3.745.081 1.568-.001 3.164.056 4.728-.033 1.135-.247 2.024-.798 2.655-1.786.796-1.248 1.504-2.571 2.243-3.854.629-1.09 1.605-2.484 1.957-3.679a3.452 3.452 0 0 0 .046-1.796 4.161 4.161 0 0 0-.331-.918c-.521-1.055-1.196-2.06-1.778-3.084-.74-1.3-1.472-2.841-2.375-4.02a4.26 4.26 0 0 0-1.157-1.059 3.393 3.393 0 0 0-.579-.284 3.331 3.331 0 0 0-.624-.163c-1.218-.186-2.581-.055-3.816-.056-1.482 0-3.034-.107-4.508.035Zm-9.576 13.738L22.863 76.499l-5.105 8.819c-.869 1.501-1.819 2.996-2.615 4.536 1.818 1.132 3.704 1.97 5.809 2.415 2.576.545 5.267.385 7.886.385l9.18-.002 21.16.001-17.849-30.896c-.549-.95-4.618-8.24-4.995-8.565Zm4.49-39.55-8.1 14.015c-1.636 2.832-3.303 5.65-4.906 8.5l13.113.003c4.309 0 8.622.042 12.93-.003l-9.659-16.732-2.294-3.981c-.318-.551-.657-1.347-1.084-1.802Zm-14.921 25.83L11.08 65.141l-2.449 4.22c-.371.641-1.036 1.551-1.219 2.244-.162.609-.075 1.387-.067 2.015.026 2.16.039 4.186.601 6.297.813 3.047 2.412 5.592 4.59 7.835 1.12-1.94 2.212-3.903 3.364-5.823l16.233-28.107 5.322-9.213c.984-1.704 2.002-3.397 2.945-5.125l-9.749-.006c-1.58 0-3.168.033-4.748-.006Zm18.55-32.128c-.564.978-1.119 1.962-1.696 2.933l13.889 24.047c2.344 4.058 4.734 8.095 7.028 12.181 2.39-4.117 4.696-8.298 7.154-12.373l13.9-24.08c-2.027-1.213-4.106-2.085-6.451-2.47-1.83-.301-3.683-.241-5.53-.239l-5.963.001H44.453Zm42.898 4.823-17.887 30.97-6.361 11.01c-1.155 1.999-2.348 3.984-3.461 6.007l5.376-.002 27.636-.001.001-25.099.003-7.052c.001-2.38.112-4.798-.406-7.138-.679-3.069-2.228-6.049-4.453-8.282-.141-.141-.281-.305-.448-.413ZM46.177 63.486c.999 1.82 2.073 3.606 3.113 5.403l5.344 9.253 5.703 9.874c.893 1.544 1.762 3.109 2.682 4.636l8.744.002c1.749 0 3.521.063 5.264-.09 4.091-.359 7.62-2.145 10.58-4.947 2.868-3.041 4.653-6.621 4.979-10.825.126-1.621.072-3.266.071-4.892v-8.424l-30.608-.003H51.818c-1.879.001-3.763-.032-5.641.013Z"/>
  </g>
</svg>
