<svg xmlns="http://www.w3.org/2000/svg" xml:space="preserve" style="fill-rule:evenodd;clip-rule:evenodd;stroke-linejoin:round;stroke-miterlimit:2" viewBox="0 0 100 100">
  <g id="レイヤー1">
    <path d="M97.016 88.758a22.475 22.475 0 0 1-.755 1.267 23.284 23.284 0 0 1-1.296 1.794 19.692 19.692 0 0 1-.966 1.115c-.167.181-.337.358-.511.532-5.78 5.805-12.429 6.388-20.214 6.504-3.558.053-7.12.02-10.678.019l-25.444.001-8.286-.002c-4.078-.007-8.324.023-12.307-.957a22.52 22.52 0 0 1-1.353-.373 19.996 19.996 0 0 1-1.326-.462 21.542 21.542 0 0 1-1.923-.856 21.607 21.607 0 0 1-2.413-1.432 20.433 20.433 0 0 1-1.672-1.278 19.381 19.381 0 0 1-1.041-.942C.846 87.829.159 81.03.083 73.061L.013 40.99c-.028-4.076-.011-8.151.051-12.227.047-4.05-.001-8.185.945-12.148a20.178 20.178 0 0 1 .375-1.384 22.625 22.625 0 0 1 .469-1.356 22.514 22.514 0 0 1 .874-1.965 22.613 22.613 0 0 1 .693-1.256 19.23 19.23 0 0 1 .777-1.205 19.942 19.942 0 0 1 1.314-1.702 20.303 20.303 0 0 1 .971-1.056C12.498.579 19.713.089 27.839.063l9.594-.031 2.995-.014 24.188.026 7.439.018c3.948.012 8.019.032 11.863 1.043.223.058.446.119.667.185a19.41 19.41 0 0 1 1.314.433 20.976 20.976 0 0 1 3.732 1.807 20.631 20.631 0 0 1 1.156.762 22.149 22.149 0 0 1 1.102.837c.18.145.356.294.53.445a18.833 18.833 0 0 1 1.015.942c6.012 5.969 6.53 13.107 6.559 21.141l.006 32.213-.001 10.378c-.001 4.315.093 8.783-.893 13.01l-.012.053a22.096 22.096 0 0 1-1.734 4.794c-.11.22-.225.437-.343.653Zm-64.501-25.27c.588 1.116 1.25 2.201 1.881 3.292l3.292 5.697 11.649 20.182 17.478-.001 5.523.002c2.462.001 4.884.071 7.295-.529 3.057-.76 5.734-2.325 7.987-4.517 2.837-2.994 4.624-6.557 4.962-10.71.141-1.721.08-3.466.08-5.192v-8.229l-39.597-.003H39.441c-2.302 0-4.627-.068-6.926.008ZM44.442 7.339 17.154 54.604l-7.062 12.232c-.485.84-.958 1.69-1.45 2.526-.401.683-.956 1.419-1.21 2.164-.263.775-.076 4.96.039 5.934a17.038 17.038 0 0 0 2.273 6.744 21.538 21.538 0 0 0 .447.715 16.41 16.41 0 0 0 .995 1.36 14.087 14.087 0 0 0 .547.642c.093.105.188.209.285.311a13.963 13.963 0 0 0 .592.6 16.585 16.585 0 0 0 2.64 2.091 16.428 16.428 0 0 0 2.004 1.106 17.5 17.5 0 0 0 2.713 1c.466.129.936.238 1.41.327 2.533.463 5.185.303 7.75.303h10.589l5.774.001-11.758-20.376-4.098-7.101c-.675-1.168-1.315-2.391-2.048-3.522L58.95 7.342l-14.508-.003Zm-.858 33.289c-1.711 2.862-3.348 5.774-5.015 8.662-.776 1.345-2.266 3.607-2.721 5.012-.253.781-.254 1.622-.052 2.416a4.145 4.145 0 0 0 .133.433 4.864 4.864 0 0 0 .279.62 5.507 5.507 0 0 0 .236.386c.043.063.087.124.132.185a4.918 4.918 0 0 0 .615.664 4.041 4.041 0 0 0 .353.284 5.537 5.537 0 0 0 .38.246c.483.28 1.007.457 1.557.546.899.146 1.871.079 2.781.079l4.675-.005 7.958.002-8.625-14.952c-.436-.754-2.368-4.293-2.686-4.578Zm19.207-33.29L51.318 27.215l-3.827 6.629c-.655 1.135-1.352 2.261-1.966 3.418 4.402 7.63 8.732 15.315 13.222 22.894l16.71-.002c5.732 0 11.471-.065 17.202.003l.003-25.17v-6.993c.001-2.381.107-4.787-.409-7.129-.043-.2-.09-.398-.141-.596a15.736 15.736 0 0 0-.345-1.176 18.815 18.815 0 0 0-.429-1.149 17.364 17.364 0 0 0-1.098-2.189 17.43 17.43 0 0 0-1.023-1.528 19.546 19.546 0 0 0-.771-.953 17.709 17.709 0 0 0-1.922-1.894l-.284-.235a20.71 20.71 0 0 0-.584-.45 20.552 20.552 0 0 0-.603-.425 14.847 14.847 0 0 0-.62-.399 20.361 20.361 0 0 0-.638-.372 16.678 16.678 0 0 0-1.657-.805 16.346 16.346 0 0 0-.686-.271 14.344 14.344 0 0 0-.697-.242 15.794 15.794 0 0 0-.707-.211 14.32 14.32 0 0 0-.715-.18 15.453 15.453 0 0 0-1.086-.213 21.239 21.239 0 0 0-.73-.102 14.7 14.7 0 0 0-.367-.039c-1.895-.18-3.831-.101-5.734-.101l-8.625.003Z"/>
  </g>
</svg>
