<svg xmlns="http://www.w3.org/2000/svg" xml:space="preserve" style="fill-rule:evenodd;clip-rule:evenodd;stroke-linejoin:round;stroke-miterlimit:2" viewBox="0 0 100 100">
  <g id="レイヤー1">
    <path d="m37.433.032 2.995-.014 24.188.026 7.439.018c3.948.012 8.019.032 11.863 1.043.223.058.446.119.667.185a19.41 19.41 0 0 1 1.314.433 20.976 20.976 0 0 1 3.732 1.807 20.631 20.631 0 0 1 1.156.762 22.149 22.149 0 0 1 1.102.837c.18.145.356.294.53.445a18.833 18.833 0 0 1 1.015.942c6.012 5.969 6.53 13.107 6.559 21.141l.006 32.213-.001 10.378c-.001 4.315.093 8.783-.893 13.01a21.359 21.359 0 0 1-1.423 4.183 20.325 20.325 0 0 1-1.032 1.957 19.92 19.92 0 0 1-.8 1.24 23.284 23.284 0 0 1-.885 1.181 19.692 19.692 0 0 1-.966 1.115c-.167.181-.337.358-.511.532-5.78 5.805-12.429 6.388-20.214 6.504-3.558.053-7.12.02-10.678.019l-25.444.001-8.286-.002c-4.078-.007-8.324.023-12.307-.957a22.52 22.52 0 0 1-1.353-.373 19.996 19.996 0 0 1-1.326-.462 21.542 21.542 0 0 1-1.923-.856 21.607 21.607 0 0 1-2.413-1.432 20.433 20.433 0 0 1-1.672-1.278 19.381 19.381 0 0 1-1.041-.942C.846 87.829.159 81.03.083 73.061L.013 40.99c-.028-4.076-.011-8.151.051-12.227.047-4.05-.001-8.185.945-12.148a20.178 20.178 0 0 1 .375-1.384 22.625 22.625 0 0 1 .469-1.356 22.514 22.514 0 0 1 .874-1.965 22.613 22.613 0 0 1 .693-1.256 19.23 19.23 0 0 1 .777-1.205 19.942 19.942 0 0 1 1.314-1.702 20.303 20.303 0 0 1 .971-1.056C12.498.579 19.713.089 27.839.063l9.594-.031Zm7.138 7.309-3.822 6.627 26.569 46.01 11.565 20.021c1.931 3.345 3.793 6.76 5.808 10.052.77-.544 1.54-1.071 2.24-1.706 3.094-2.605 4.694-6 5.586-9.864L65.168 31.126l-9.067-15.701c-1.555-2.694-3.084-5.408-4.67-8.083l-6.86-.001Zm10.692.002 26.741 46.28 7.453 12.901 2.199 3.814c.354.614.685 1.319 1.115 1.876l.005-34.139v-9.216c.003-2.592.163-5.272-.368-7.823a18.2 18.2 0 0 0-.296-1.204 15.593 15.593 0 0 0-.382-1.18 17.676 17.676 0 0 0-.466-1.149 17.968 17.968 0 0 0-.548-1.112 17.803 17.803 0 0 0-1.331-2.091 16.4 16.4 0 0 0-1.188-1.431c-.141-.151-.284-.3-.43-.447-2.067-2.077-4.733-3.684-7.571-4.447-2.447-.658-4.834-.635-7.339-.635h-4.756l-12.838.003ZM20.44 49.127l-9.9 17.16c-.573.995-2.833 4.59-3.03 5.404-.132.543-.058 1.231-.055 1.789.011 2.193.039 4.335.614 6.467a18.994 18.994 0 0 0 .525 1.613 16.9 16.9 0 0 0 .682 1.554 19.175 19.175 0 0 0 .397.75 19.383 19.383 0 0 0 .664 1.085 21.631 21.631 0 0 0 .487.696 16.652 16.652 0 0 0 .792.996 21.2 21.2 0 0 0 .568.63 16.983 16.983 0 0 0 1.881 1.713 17.6 17.6 0 0 0 1.385.98 16.63 16.63 0 0 0 .727.438c3.746 2.14 6.912 2.257 11.081 2.253l5.42-.002h12.949L26.685 59.842c-.546-.945-5.946-10.481-6.245-10.715Zm18.369-31.788c-2.355 4.045-4.648 8.13-7.032 12.158l36.057 63.155h6.892c2.443.001 4.644-.322 6.968-1.114L50.765 37.97l-8.596-14.888-2.234-3.869c-.345-.598-.68-1.35-1.126-1.874Zm-9.173 15.892a666.411 666.411 0 0 0-3.39 5.842c-.832 1.44-2.016 3.149-2.486 4.717a6.716 6.716 0 0 0-.289 1.805 6.354 6.354 0 0 0 .039.916 6.858 6.858 0 0 0 .161.901c.348 1.385 1.164 2.588 1.878 3.804.472.805.926 1.622 1.393 2.43l4.474 7.736 18.062 31.271h8.38l6.121.001c-2.921-5.201-5.961-10.343-8.945-15.509L38.566 48.631l-6.493-11.25-1.628-2.819c-.24-.416-.49-.98-.809-1.331Z"/>
  </g>
</svg>
