<svg xmlns="http://www.w3.org/2000/svg" xml:space="preserve" style="fill-rule:evenodd;clip-rule:evenodd;stroke-linejoin:round;stroke-miterlimit:2" viewBox="0 0 100 100"><path d="m37.433.032 2.995-.014 24.188.026 7.439.018c3.948.012 8.019.032 11.863 1.043l.667.185.66.206.654.227.646.25.637.27.628.291.618.312.607.332.596.352.584.372.572.39.558.41.544.427.53.445.515.462.5.48c6.012 5.969 6.53 13.107 6.56 21.14l.005 32.214-.001 10.378c0 4.315.093 8.783-.893 13.01a20.762 20.762 0 0 1-.851 2.823 21.083 21.083 0 0 1-4.255 6.853c-.167.18-.337.358-.511.532-5.78 5.805-12.43 6.388-20.214 6.504-3.558.053-7.12.02-10.678.02H37.152l-8.286-.002c-4.078-.007-8.324.023-12.307-.957l-.68-.175-.673-.198-.667-.22-.659-.242-.65-.264-.641-.285-.632-.307-.62-.328-.61-.348-.598-.368-.585-.388-.571-.407-.558-.426-.543-.445-.528-.462-.513-.48C.846 87.83.16 81.03.083 73.061l-.07-32.07a555.75 555.75 0 0 1 .05-12.228c.048-4.05 0-8.185.946-12.148l.176-.695.2-.69.222-.681.246-.674.27-.665.29-.655.314-.645.336-.634.357-.622.378-.609.399-.596.418-.583.439-.567.457-.552.476-.537.495-.52C12.498.58 19.712.09 27.839.064l9.594-.031ZM24.996 33.256c1.34 6.245 6.896 10.933 13.538 10.933 7.642 0 13.846-6.204 13.846-13.845a13.8 13.8 0 0 0-3.921-9.65 13.805 13.805 0 0 0-9.925-4.196c-7.641 0-13.845 6.204-13.845 13.846 0 .999.106 1.973.307 2.912Zm13.538-14.675c6.492 0 11.762 5.27 11.762 11.763 0 6.491-5.27 11.762-11.762 11.762-6.491 0-11.762-5.27-11.762-11.762 0-6.492 5.27-11.763 11.762-11.763ZM30.277 65.73c-.806 2.298-1.702 4.852-2.51 7.16 2.208.666 5.58 1.692 5.89 1.639 1.92.545 5.833 1.08 7.884 1.284 12.9 1.282 28.069-.082 39.41-6.78 1.752-1.036 3.627-2.543 5.002-4.032.342-.37 1.51-1.558 1.865-2.18.563-.987.964-2.111 1.182-3.217.544-2.773-.164-5.353-1.751-7.652-.552-1.084-2.612-2.893-4.12-4.116-1.629-1.32-3.626-2.517-5.656-3.812-.119-1.615-.234-3.389-.495-5-.637-3.767-2.6-7.587-5.113-10.44-5.001-5.675-12.689-7.738-20.01-7.88l-.656-.017a15.854 15.854 0 0 1 3.264 9.658c0 5.237-2.533 9.888-6.44 12.792-1.142.884-2.406 1.624-3.737 2.065a15.875 15.875 0 0 1-5.752 1.071c-1.082 0-2.139-.108-3.16-.314-.548 1.655-1.305 3.971-1.745 5.32l.344.665c.126.36.2.763.217 1.202.067 1.744-1.04 4.367-1.54 5.812l-.026.075c1.026.367 2.052.677 3.152.994.69.198 2.67.733 3.027.798 7.546 1.356 16.492 1.345 23.962-.34 4.357-.982 9.42-3.126 12.524-6.397.872-.92 1.474-1.866 2.138-2.926.231.553.327.896.441 1.48.253 1.297.273 5.051-.192 6.176-1.332 3.219-5.408 5.885-8.605 7.153-8.724 3.461-19.607 3.585-28.823 2.43-.873-.109-1.853-.221-2.719-.397-.469-.095-2.346-.537-2.639-.61a28.82 28.82 0 0 1-2.922-.9 40.11 40.11 0 0 1-1.691-.764Zm-4.95-11.07c.31-.984.52-1.75.775-2.356.48-1.147 1.094-1.904 2.211-2.484l.647-.237.022-.005 1.86-5.284a16.003 16.003 0 0 1-7.1-8.032l-.06.165c-.913 2.45-.83 5.143-1.149 7.685l-3.238 2.104c-.37.244-1.05.657-1.383.912-.506.226-1.2.816-1.64 1.166-3.492 2.788-6.235 7.078-5.053 11.726.316.77.552 1.453.967 2.19 1.807 3.202 4.776 5.569 7.94 7.373 1.004-2.86 2.198-6.26 3.171-9.038-.43-.577-.798-1.176-.945-1.6-.64-1.851-.554-6.161.19-7.879.369.517.705 1.117 1.093 1.652.46.635 1.052 1.325 1.691 1.943Zm-.31 6.65c-1 2.853-2.22 6.329-3.229 9.2l-.473 1.355-1.517 4.299c-.367 1.024-.813 2.09-1.01 3.158-.147.792.216 1.503.86 1.951.243.256.684.375 1.018.484 2.061-.004 2.335-.797 2.923-2.556l.39-1.139 1.985-5.7c1.949-5.566 4.423-12.601 4.914-14.018.633-1.828 2.513-5.742.613-6.556 0 0 1.233-3.775 2.073-6.307a15.766 15.766 0 0 1-1.02-.374l-2.208 6.268c-.257-.103-.919-.016-1.159.11-1.375.713-1.45 1.92-2.29 4.443-.5 1.624-1.238 3.652-1.87 5.381Zm5.407-7.98a6.124 6.124 0 0 1-.114.921c-.296 1.246-.902 2.61-1.204 3.48-.778 2.245-6.53 18.588-7.295 20.875-.16.479-.442 1.16-.442 1.16s-.262.217-.512.075c-.236-.134-.246-.368-.246-.368l.952-2.677.003-.01s6.476-18.393 7.1-20.266c.333-.998.544-1.79.765-2.423.134-.387.22-.686.501-.883l.024-.003c.119.024.24.037.36.039l.108.08Z"/></svg>