<svg xmlns="http://www.w3.org/2000/svg" xml:space="preserve" style="fill-rule:evenodd;clip-rule:evenodd;stroke-linejoin:round;stroke-miterlimit:2" viewBox="0 0 100 100">
  <g id="レイヤー1">
    <path d="m37.433.032 2.995-.014 24.188.026 7.439.018c3.948.012 8.019.032 11.863 1.043.223.058.446.119.667.185a19.41 19.41 0 0 1 1.314.433 20.976 20.976 0 0 1 3.732 1.807 20.631 20.631 0 0 1 1.156.762 22.149 22.149 0 0 1 1.102.837c.18.145.356.294.53.445a18.833 18.833 0 0 1 1.015.942c6.012 5.969 6.53 13.107 6.559 21.141l.006 32.213-.001 10.378c-.001 4.315.093 8.783-.893 13.01a21.359 21.359 0 0 1-1.423 4.183 20.325 20.325 0 0 1-1.032 1.957 19.92 19.92 0 0 1-.8 1.24 23.284 23.284 0 0 1-.885 1.181 19.692 19.692 0 0 1-.966 1.115c-.167.181-.337.358-.511.532-5.78 5.805-12.429 6.388-20.214 6.504-3.558.053-7.12.02-10.678.019l-25.444.001-8.286-.002c-4.078-.007-8.324.023-12.307-.957a22.52 22.52 0 0 1-1.353-.373 19.996 19.996 0 0 1-1.326-.462 21.542 21.542 0 0 1-1.923-.856 21.607 21.607 0 0 1-2.413-1.432 20.433 20.433 0 0 1-1.672-1.278 19.381 19.381 0 0 1-1.041-.942C.846 87.829.159 81.03.083 73.061L.013 40.99c-.028-4.076-.011-8.151.051-12.227.047-4.05-.001-8.185.945-12.148a20.178 20.178 0 0 1 .375-1.384 22.625 22.625 0 0 1 .469-1.356 22.514 22.514 0 0 1 .874-1.965 22.613 22.613 0 0 1 .693-1.256 19.23 19.23 0 0 1 .777-1.205 19.942 19.942 0 0 1 1.314-1.702 20.303 20.303 0 0 1 .971-1.056C12.498.579 19.713.089 27.839.063l9.594-.031Zm-10.12 57.981c-.569-.921-1.201-1.551-2.282-1.812-.693-.166-1.536-.165-2.243-.078-1.543.167-3.123.879-4.378 1.776-.055-.299-.126-1.114-.375-1.286-.349-.24-1.51-.189-1.917-.065-.094.029-.235.085-.293.168a.473.473 0 0 0-.054.173c-.068.442 0 .97.005 1.421.01.857-.004 1.714-.003 2.571l.001 5.578c-.002 1.051-.031 2.109-.007 3.159.005.194.01.408.069.594.034.106.077.164.18.213.277.132 1.976.121 2.257.018a.578.578 0 0 0 .231-.169c.214-.748.091-3.433.09-4.373-.001-2.135.035-4.277-.006-6.41 1.301-.805 3.367-1.511 4.905-1.12.451.114.848.362 1.076.777.205.373.31.81.36 1.23.104.877.034 1.825.033 2.708l-.002 5.154c-.001.55-.108 1.424.048 1.927.048.155.167.239.315.286.287.09 1.995.103 2.232-.044a.419.419 0 0 0 .214-.322c.095-.755.013-1.62.012-2.387 0-2.721.072-5.463-.011-8.183 1.319-.807 3.33-1.537 4.896-1.153.457.112.886.368 1.117.79.203.371.295.829.34 1.246.098.909.041 1.867.041 2.782l-.003 5.011c0 .55-.109 1.44.036 1.947.045.155.139.235.289.285.346.117 1.92.164 2.229.012a.41.41 0 0 0 .221-.265c.089-.265.062-10.084-.015-10.772-.068-.608-.239-1.19-.563-1.712-.479-.772-1.245-1.282-2.126-1.488-2.162-.503-4.583.321-6.397 1.47a20.4 20.4 0 0 0-.522.343Zm-7.324-29.038c-1.325.101-2.744.397-3.647 1.461-.357.42-.899 1.308-.826 1.887.011.089.035.113.108.157.428.259 1.834.348 2.349.308.349-.155.379-.692.587-.982.41-.568 1.367-.753 1.999-.527.322.115.606.34.743.658.205.473.15 1.074.146 1.582-1.85.162-4.21.253-5.497 1.791-.693.829-.85 1.84-.755 2.893.048.53.229 1.004.518 1.45a3.01 3.01 0 0 0 2.036 1.206c1.221.176 2.434-.091 3.415-.845a7.31 7.31 0 0 0 .706-.634c.262.371.928 1.404 1.39 1.458.279.032 1.701-1.236 1.935-1.488.062-.066.107-.132.151-.211-.046-.558-.764-1.144-.877-1.841-.056-.343-.015-.755-.014-1.105l.007-2.335c.004-1.4.119-2.936-1.058-3.939-.874-.746-2.298-1.008-3.416-.944Zm.57 6.248c.287-.042.598-.033.888-.044 0 .513.027 1.047-.044 1.556-.09.644-.365 1.363-.906 1.757a1.629 1.629 0 0 1-1.194.279 1.355 1.355 0 0 1-.461-.204 1.426 1.426 0 0 1-.448-.554 1.694 1.694 0 0 1-.093-.272 1.394 1.394 0 0 1-.026-.141c-.074-.517.045-1.066.363-1.484.467-.615 1.198-.795 1.921-.893Zm37.475 6.349c-.815.087-2.849.488-3.361 1.19a.472.472 0 0 0-.105.326c.094.082.137.097.264.092 1.051-.039 3.681-.615 4.458.068.196.173.269.424.272.679.008.813-.384 1.909-.695 2.667-.151.381-.575 1.158-.435 1.538.056.039.073.071.146.058.525-.094 1.247-1.168 1.506-1.605.565-.952 1.393-3.203 1.104-4.306-.052-.197-.199-.313-.372-.403-.723-.377-1.984-.395-2.782-.304ZM69.278 50.9c-.497.043-.925.182-1.267.57-.347.394-.467.937-.417 1.451.047.479.256.927.641 1.226.43.333.898.357 1.417.355.547-.108.97-.26 1.292-.753.282-.432.359-.982.25-1.482a1.728 1.728 0 0 0-.771-1.113c-.361-.22-.731-.254-1.145-.254Zm11.783-21.936c-.886.212-1.503.61-1.979 1.397-.171.282-.308.585-.445.884.012-.398.129-1.622-.047-1.912-.439-.27-1.953-.259-2.46-.125a.714.714 0 0 0-.313.16 1.24 1.24 0 0 0-.06.424c-.028 1.117.028 2.243.022 3.362-.013 2.44-.056 4.898-.007 7.337.002.087.014.18.056.258.069.128.174.152.307.177.481.088 2.206.125 2.586-.139.078-.054.088-.164.099-.253.064-.542.004-1.148-.003-1.696-.011-.9-.001-1.8-.002-2.699-.003-1.06-.056-2.147.172-3.188.185-.484.43-.99.939-1.204.329-.138.757-.172 1.086-.015.345.164.553.514.666.866.309.958.161 2.329.157 3.348l-.003 3.186c0 .484-.073 1.109.043 1.571.027.104.08.155.176.2.291.135 2.344.078 2.657-.047.114-.13.128-.296.142-.461.096-1.07-.003-2.206-.005-3.286-.004-1.67.069-3.359-.034-5.025-.057-.918-.324-1.829-1.039-2.456-.781-.686-1.726-.738-2.711-.664Zm-12.87 27.731c-.156.113-.25.176-.284.378-.082.505-.032 1.079-.031 1.593l.005 3.031-.002 5.684c-.001.937-.031 1.885.002 2.82.007.224.023.444.086.661.14.173.34.206.552.232.647.08 1.447.05 2.095-.013.217-.178.275-.313.304-.589.061-.568.018-1.17.012-1.742a183.94 183.94 0 0 1-.005-2.877l.005-5.476c.001-.94.036-1.896-.006-2.834-.009-.221-.02-.608-.158-.784-.511-.222-1.965-.096-2.575-.084ZM49.955 67.562c-1.359.846-3.229 1.635-4.862 1.247-.476-.114-.941-.345-1.21-.769-.243-.382-.376-.871-.434-1.317-.12-.916-.049-1.902-.048-2.825l.001-4.99c0-.533.106-1.383-.033-1.875-.051-.182-.127-.265-.313-.309-.564-.133-1.589-.07-2.187-.026-.107.109-.215.203-.238.362-.106.734-.021 2.167-.021 2.973l.006 6.547c.009 1.266.171 2.538 1.12 3.468.832.816 2.007 1.071 3.139 1.051 1.901-.035 3.738-.771 5.245-1.911.061.302.138 1.198.397 1.363.371.238 1.406.217 1.831.097.127-.035.265-.089.321-.218.147-.342.063-9.026.063-9.859.002-.562.117-3.476-.143-3.768-.152-.171-1.716-.154-2.01-.133-.238.017-.404.061-.567.239-.165.768-.064 2.524-.064 3.392l.007 7.261ZM68.349 28.97c-1.272.235-2.268.82-3.003 1.902-1.091 1.607-1.303 3.906-.936 5.774.273 1.389.967 2.778 2.168 3.583.987.663 2.058.793 3.218.678 1.266-.236 2.308-.891 3.043-1.955 1.119-1.622 1.305-3.762.952-5.657-.264-1.416-.939-2.796-2.155-3.625-.971-.663-2.136-.831-3.287-.7Zm.643 2.146c.306.001.618.052.883.213.444.27.625.843.735 1.324.289 1.255.362 4.306-.362 5.402-.269.406-.54.556-1.006.659-.281.017-.559-.022-.801-.174-.496-.312-.713-.898-.84-1.443-.294-1.266-.383-4.255.35-5.372.24-.366.626-.534 1.041-.609ZM25.057 42.123c-.11.136-.171.183-.198.358.162.401.716.751 1.05 1.011a26.903 26.903 0 0 0 2.99 2.053 27.204 27.204 0 0 0 3.235 1.637 29.745 29.745 0 0 0 1.946.73 29.818 29.818 0 0 0 1.325.407 31.505 31.505 0 0 0 1.344.341 26.315 26.315 0 0 0 1.358.276 30.46 30.46 0 0 0 2.058.287 32.045 32.045 0 0 0 1.382.108 26.747 26.747 0 0 0 1.386.04 26.685 26.685 0 0 0 1.385-.028 31.719 31.719 0 0 0 1.383-.096 31.516 31.516 0 0 0 1.376-.163 31.452 31.452 0 0 0 1.367-.231 26.36 26.36 0 0 0 1.354-.297 26.415 26.415 0 0 0 1.337-.362 29.847 29.847 0 0 0 1.319-.428 31.697 31.697 0 0 0 1.295-.492 22.292 22.292 0 0 0 3.218-1.629c.358-.223 1.144-.608 1.225-1.046.024-.129-.032-.219-.11-.315a.538.538 0 0 0-.427-.203c-.535.005-1.695.578-2.261.77-.654.218-1.313.422-1.976.614a35.388 35.388 0 0 1-1.814.46 36.397 36.397 0 0 1-2.761.516 36.178 36.178 0 0 1-2.791.305 36.338 36.338 0 0 1-1.87.085c-.312.007-.624.009-.936.007a36.522 36.522 0 0 1-4.668-.32 38.161 38.161 0 0 1-8.815-2.248 36.075 36.075 0 0 1-2.286-.991c-.531-.251-1.931-1.1-2.42-1.156Zm30.097-12.58c-.31.35-.219 1.341-.197 1.816a.666.666 0 0 0 .119.394c.528.266 3.273.124 4.008.129-1.054 1.312-1.979 2.771-2.947 4.151-.382.544-1.228 1.564-1.454 2.129-.223.556-.195 1.582-.136 2.182.021.219.064.397.21.565.254.093.542-.092.774-.2 1.894-.874 4.143-.906 6.1-.201.097.035.192.074.286.115.238.119.551.332.826.262a.373.373 0 0 0 .255-.206c.17-.314.044-1.578.038-2.017-.518-.718-1.728-.998-2.56-1.134-.606-.099-1.229-.092-1.842-.1l2.762-3.906c.434-.614 1.073-1.33 1.354-2.018.157-.385.146-1.095.073-1.504a.781.781 0 0 0-.185-.406c-.215-.127-6.795-.086-7.484-.051Zm-7.177-.567c-1.392.106-2.74.406-3.687 1.513-.321.374-.83 1.262-.788 1.753a.37.37 0 0 0 .139.275c.232.166 2.103.335 2.395.228.392-.143.209-1.259 1.535-1.523.325-.065.677-.052.99.061.319.117.585.342.729.654.209.455.163 1.088.161 1.578-1.841.172-4.214.244-5.496 1.78-.668.799-.878 1.825-.777 2.845.059.588.234 1.096.576 1.582a3.054 3.054 0 0 0 2.119 1.154c1.256.136 2.418-.157 3.4-.957.205-.168.396-.345.581-.534.295.398.835 1.323 1.343 1.387.478.061 1.618-1.058 1.966-1.378a2.81 2.81 0 0 0 .241-.259c-.239-.616-.776-1.024-.902-1.703-.184-.994-.063-2.949-.06-4.048.004-1.691-.11-3.21-1.88-3.975-.744-.321-1.775-.507-2.585-.433Zm.577 6.246c.289-.042.602-.03.894-.039.008.381.009.768-.016 1.148-.05.75-.258 1.587-.858 2.09-.354.296-.803.406-1.256.358a1.508 1.508 0 0 1-.486-.212c-.327-.231-.533-.618-.585-1.01l-.011-.097-.005-.097-.001-.096a3.02 3.02 0 0 1 .013-.194c.003-.032.008-.064.013-.096l.019-.095c.006-.032.014-.063.022-.094a2.05 2.05 0 0 1 .028-.093c.01-.031.02-.062.032-.092l.036-.09.041-.088a2.297 2.297 0 0 1 .095-.169l.053-.081.058-.078c.473-.601 1.196-.779 1.914-.875Zm10.938 20.9c-1.256.135-2.543.664-3.359 1.663-.648.794-.885 1.82-.771 2.83a3.613 3.613 0 0 0 1.407 2.517c1.089.853 2.59 1.247 3.875 1.727.562.21 1.184.418 1.653.805.309.257.508.59.562.99.065.477-.06 1.053-.366 1.432-.476.588-1.256.794-1.98.847-1.239.092-2.532-.107-3.731-.413-.391-.099-.819-.305-1.216-.324-.087-.004-.206-.001-.264.07-.234.288-.179 1.06-.12 1.414.038.225.088.35.281.482 1.069.727 3.579.967 4.834.935 1.552-.081 3.127-.456 4.201-1.664.764-.859 1.044-1.917.969-3.054a3.285 3.285 0 0 0-1.146-2.319c-1.125-.967-2.765-1.413-4.133-1.936-.576-.22-1.217-.451-1.696-.851a1.545 1.545 0 0 1-.571-1.04c-.053-.487.08-.949.406-1.318.471-.533 1.335-.658 2.012-.685a10.218 10.218 0 0 1 2.691.274c.38.089.784.25 1.169.289.122.012.25.004.335-.091.223-.25.195-.82.161-1.141-.025-.248-.062-.507-.271-.669-.224-.175-.53-.249-.798-.334-1.351-.433-2.723-.558-4.134-.436Zm20.484.001c-1.72.167-3.323.88-4.432 2.233-1.462 1.783-1.765 4.351-1.525 6.578.196 1.825.835 3.595 2.31 4.77 1.624 1.292 3.89 1.564 5.894 1.322.85-.103 1.887-.292 2.571-.843.071-.553.161-1.294-.05-1.823-.029-.007-.058-.016-.088-.022-.48-.106-1.272.246-1.765.335-1.718.312-3.984.183-5.091-1.373-1.039-1.461-1.018-3.901-.724-5.586.175-1.003.59-1.987 1.446-2.591 1.266-.894 3.133-.871 4.599-.616.417.072.992.371 1.402.244.157-.118.206-.237.229-.426.043-.357.075-1.194-.161-1.463-.543-.62-2.817-.792-3.636-.779-.323.006-.658.008-.979.04ZM32.325 28.928c-.847.047-1.547.258-2.134.919-.319.359-.519.789-.702 1.227.005-.418.162-1.452-.126-1.748-.267-.273-1.668-.209-2.07-.175-.158.013-.386.033-.499.156-.033.035-.031.041-.041.084a2.835 2.835 0 0 0-.071.629c-.05 2.231.009 4.475.004 6.708l-.007 2.346c-.001.491-.041 1.019.044 1.505.015.085.051.273.13.317.141.078 2.296.101 2.502.033.116-.038.148-.066.195-.176.17-.399.097-1.061.096-1.492l-.01-3.383c-.002-1.002-.119-2.173.169-3.137.127-.425.39-.816.801-1.009a1.261 1.261 0 0 1 .357-.104 1.02 1.02 0 0 1 .248-.006 1.169 1.169 0 0 1 .36.09c.359.15.598.457.73.815.303.817.175 5.326.167 6.458-.004.521-.074 1.141.021 1.649.018.102.041.162.133.212.285.155 2.268.188 2.574.057.097-.042.143-.1.209-.179.013-1.571.014-3.143.005-4.714-.001-.951-.067-1.969.1-2.907.065-.364.158-.718.426-.987a1.64 1.64 0 0 1 .38-.274 1.62 1.62 0 0 1 .446-.145 1.597 1.597 0 0 1 .312-.018c.292.014.605.119.806.34.207.228.295.561.336.859.164 1.171-.182 7.432.111 7.906.079.128.3.162.435.174.32.027 2.154.047 2.31-.128.117-.13.125-.37.136-.535.034-.506.007-1.028.006-1.536l-.007-2.901.008-2.682c.001-.536.037-1.101-.041-1.632-.122-.827-.429-1.504-1.117-2.023-.683-.516-1.604-.683-2.439-.555a3.908 3.908 0 0 0-.298.058 3.981 3.981 0 0 0-.29.088 4.098 4.098 0 0 0-.279.117 2.129 2.129 0 0 0-.267.144 2.74 2.74 0 0 0-.369.264 2.7 2.7 0 0 0-.424.432c-.031.04-.062.08-.091.121a4.516 4.516 0 0 0-.435.765c-.248-.719-.789-1.428-1.485-1.759-.445-.211-.872-.253-1.355-.268Z"/>
  </g>
</svg>
