<svg xmlns="http://www.w3.org/2000/svg" xml:space="preserve" style="fill-rule:evenodd;clip-rule:evenodd;stroke-linejoin:round;stroke-miterlimit:2" viewBox="0 0 100 100">
  <g id="レイヤー1">
    <path d="m37.433.032 2.995-.014 24.188.026 7.439.018c3.948.012 8.019.032 11.863 1.043.223.058.446.119.667.185a19.41 19.41 0 0 1 1.314.433 20.976 20.976 0 0 1 3.732 1.807 20.631 20.631 0 0 1 1.156.762 22.149 22.149 0 0 1 1.102.837c.18.145.356.294.53.445a18.833 18.833 0 0 1 1.015.942c6.012 5.969 6.53 13.107 6.559 21.141l.006 32.213-.001 10.378c-.001 4.315.093 8.783-.893 13.01a21.359 21.359 0 0 1-1.423 4.183 20.325 20.325 0 0 1-1.032 1.957 19.92 19.92 0 0 1-.8 1.24 23.284 23.284 0 0 1-.885 1.181 19.692 19.692 0 0 1-.966 1.115c-.167.181-.337.358-.511.532-5.78 5.805-12.429 6.388-20.214 6.504-3.558.053-7.12.02-10.678.019l-25.444.001-8.286-.002c-4.078-.007-8.324.023-12.307-.957a22.52 22.52 0 0 1-1.353-.373 19.996 19.996 0 0 1-1.326-.462 21.542 21.542 0 0 1-1.923-.856 21.607 21.607 0 0 1-2.413-1.432 20.433 20.433 0 0 1-1.672-1.278 19.381 19.381 0 0 1-1.041-.942C.846 87.829.159 81.03.083 73.061L.013 40.99c-.028-4.076-.011-8.151.051-12.227.047-4.05-.001-8.185.945-12.148a20.178 20.178 0 0 1 .375-1.384 22.625 22.625 0 0 1 .469-1.356 22.514 22.514 0 0 1 .874-1.965 22.613 22.613 0 0 1 .693-1.256 19.23 19.23 0 0 1 .777-1.205 19.942 19.942 0 0 1 1.314-1.702 20.303 20.303 0 0 1 .971-1.056C12.498.579 19.713.089 27.839.063l9.594-.031Zm11.95 17.193c-.632.078-1.198.18-1.775.463-1.637.802-3.236 1.835-4.807 2.765l-6.47 3.751-9.753 5.644c-1.765 1.019-3.595 1.974-5.303 3.082a3.808 3.808 0 0 0-.943.865c-.605.765-1.146 1.753-1.307 2.725-.216 1.305-.076 3.501-.076 4.91v9.791l.004 9.45c-.001 1.568-.139 3.395.055 4.923.157 1.237.991 2.752 1.979 3.52.468.364 1.051.656 1.563.959 1.209.711 2.425 1.411 3.647 2.098l10.465 6.053 8.053 4.683c1.071.611 2.168 1.367 3.305 1.83.896.366 2.122.4 3.067.257 1.27-.191 6.196-3.279 7.567-4.078l11.977-6.917c1.738-.993 3.443-2.124 5.239-3.007-1.525-1.011-3.158-1.893-4.746-2.802l-5.388-3.112-7.962-4.619c-1.499-.867-2.868-1.661-4.518-2.62-.49.372-1.513.978-2.323 1.445-.337.194-.83.352-1.234.134-.667-.36-5.395-2.997-5.815-3.424-.269-.274-.335-.577-.352-1.145-.038-1.221-.066-6.216.008-7.457.017-.285.054-.753.188-1.003.134-.248.407-.456.636-.614.831-.575 3.929-2.334 4.584-2.671.211-.109.428-.201.66-.252a1.887 1.887 0 0 1 1.064.091c.894.324 4.225 2.32 4.971 2.831.452.31.765.702.769 1.251.012 1.356.033 1.999.03 2.95 2.709 1.678 5.525 3.221 8.29 4.806l11.946 6.934c1.445.845 2.931 1.632 4.351 2.516.075-6.308.016-12.623.015-18.931v-5.411c.001-1.101.093-2.293-.094-3.379-.191-1.104-.785-2.226-1.576-3.022-.716-.719-1.745-1.215-2.618-1.721l-3.654-2.09-9.692-5.621-6.674-3.872c-1.416-.834-3.171-1.956-4.638-2.629-.62-.285-1.393-.35-2.07-.346-.211.001-.434-.005-.645.016Z"/>
  </g>
</svg>
