<svg xmlns="http://www.w3.org/2000/svg" viewBox="0 0 100 100" width="100" height="100">
  <defs>
    <mask id="logo-mask">
      <!-- ロゴ部分を黒く描画 (ここが透明になる) -->
      <!-- 元の座標系を維持しつつ、位置合わせのtransformを適用 -->
      <g transform="translate(7.5 10.899999999999999) scale(0.34)">
          <!-- potraceのtransformとpathをそのまま利用 -->
          <g transform="translate(0.000000,230.000000) scale(0.100000,-0.100000)" fill="black" stroke="none">
            <path d="M1147 2290 c-69 -18 -142 -63 -207 -129 -138 -139 -220 -329 -365
                -841 -189 -667 -283 -883 -478 -1098 -109 -119 -125 -176 -60 -211 66 -34 158
                -2 289 103 133 107 242 247 394 506 210 360 328 451 559 437 212 -12 302 -89
                506 -432 149 -249 200 -321 309 -430 178 -177 316 -235 387 -164 40 40 20 97
                -70 193 -190 205 -287 423 -457 1026 -172 608 -257 803 -411 940 -101 90 -268
                132 -396 100z" />
          </g>
      </g>
    </mask>
  </defs>
  
  <!-- 背景の黒い角丸四角形、マスクを適用 -->
  <!-- 角丸半径 rx=20% 程度 -->
  <rect x="0" y="0" width="100" height="100" rx="22" ry="22" fill="black" mask="url(#logo-mask)" />
</svg>