<svg xmlns="http://www.w3.org/2000/svg" xml:space="preserve" style="fill-rule:evenodd;clip-rule:evenodd;stroke-linejoin:round;stroke-miterlimit:2" viewBox="0 0 100 100">
  <g id="レイヤー1">
    <path d="m37.433.032 2.995-.014 24.188.026 7.439.018c3.948.012 8.019.032 11.863 1.043.223.058.446.119.667.185a19.41 19.41 0 0 1 1.314.433 20.976 20.976 0 0 1 3.732 1.807 20.631 20.631 0 0 1 1.156.762 22.149 22.149 0 0 1 1.102.837c.18.145.356.294.53.445a18.833 18.833 0 0 1 1.015.942c6.012 5.969 6.53 13.107 6.559 21.141l.006 32.213-.001 10.378c-.001 4.315.093 8.783-.893 13.01a21.359 21.359 0 0 1-1.423 4.183 20.325 20.325 0 0 1-1.032 1.957 19.92 19.92 0 0 1-.8 1.24 23.284 23.284 0 0 1-.885 1.181 19.692 19.692 0 0 1-.966 1.115c-.167.181-.337.358-.511.532-5.78 5.805-12.429 6.388-20.214 6.504-3.558.053-7.12.02-10.678.019l-25.444.001-8.286-.002c-4.078-.007-8.324.023-12.307-.957a22.52 22.52 0 0 1-1.353-.373 19.996 19.996 0 0 1-1.326-.462 21.542 21.542 0 0 1-1.923-.856 21.607 21.607 0 0 1-2.413-1.432 20.433 20.433 0 0 1-1.672-1.278 19.381 19.381 0 0 1-1.041-.942C.846 87.829.159 81.03.083 73.061L.013 40.99c-.028-4.076-.011-8.151.051-12.227.047-4.05-.001-8.185.945-12.148a20.178 20.178 0 0 1 .375-1.384 22.625 22.625 0 0 1 .469-1.356 22.514 22.514 0 0 1 .874-1.965 22.613 22.613 0 0 1 .693-1.256 19.23 19.23 0 0 1 .777-1.205 19.942 19.942 0 0 1 1.314-1.702 20.303 20.303 0 0 1 .971-1.056C12.498.579 19.713.089 27.839.063l9.594-.031Zm2.719 27.548c-1.707 1.649-3.368 3.353-5.046 5.031l-9.162 9.164-5.457 5.457c-.909.908-1.907 1.798-2.749 2.766l16.524 16.527 4.152 4.162c.464.465 1.232 1.373 1.739 1.7 1.511-1.396 2.939-2.912 4.394-4.367l8.21-8.212 6.497-6.497c1.098-1.097 2.28-2.165 3.306-3.325-1.757-1.844-3.6-3.614-5.401-5.414L47.146 34.56l-4.851-4.852c-.616-.617-1.479-1.634-2.143-2.128Zm19.196-.001-3.146 3.134c-.594.595-1.244 1.179-1.79 1.817l11.366 11.361c2.03 2.03 4.031 4.107 6.108 6.087L60 61.87l-3.568 3.568c-.674.673-1.378 1.333-2.017 2.038.702.704 4.543 4.692 4.938 4.906 1.475-1.327 2.85-2.817 4.255-4.223l8.035-8.038 6.712-6.71c1.127-1.126 2.366-2.234 3.41-3.433L66.023 34.24l-4.631-4.636c-.647-.647-1.323-1.469-2.044-2.025Z"/>
  </g>
</svg>
