<svg xmlns="http://www.w3.org/2000/svg" xml:space="preserve" style="fill-rule:evenodd;clip-rule:evenodd;stroke-linejoin:round;stroke-miterlimit:2" viewBox="0 0 100 100">
  <g id="レイヤー1">
    <path d="m37.433.032 2.995-.014 24.188.026 7.439.018c3.948.012 8.019.032 11.863 1.043.223.058.446.119.667.185a19.41 19.41 0 0 1 1.314.433 20.976 20.976 0 0 1 3.732 1.807 20.631 20.631 0 0 1 1.156.762 22.149 22.149 0 0 1 1.102.837c.18.145.356.294.53.445a18.833 18.833 0 0 1 1.015.942c6.012 5.969 6.53 13.107 6.559 21.141l.006 32.213-.001 10.378c-.001 4.315.093 8.783-.893 13.01a21.359 21.359 0 0 1-1.423 4.183 20.325 20.325 0 0 1-1.032 1.957 19.92 19.92 0 0 1-.8 1.24 23.284 23.284 0 0 1-.885 1.181 19.692 19.692 0 0 1-.966 1.115c-.167.181-.337.358-.511.532-5.78 5.805-12.429 6.388-20.214 6.504-3.558.053-7.12.02-10.678.019l-25.444.001-8.286-.002c-4.078-.007-8.324.023-12.307-.957a22.52 22.52 0 0 1-1.353-.373 19.996 19.996 0 0 1-1.326-.462 21.542 21.542 0 0 1-1.923-.856 21.607 21.607 0 0 1-2.413-1.432 20.433 20.433 0 0 1-1.672-1.278 19.381 19.381 0 0 1-1.041-.942C.846 87.829.159 81.03.083 73.061L.013 40.99c-.028-4.076-.011-8.151.051-12.227.047-4.05-.001-8.185.945-12.148a20.178 20.178 0 0 1 .375-1.384 22.625 22.625 0 0 1 .469-1.356 22.514 22.514 0 0 1 .874-1.965 22.613 22.613 0 0 1 .693-1.256 19.23 19.23 0 0 1 .777-1.205 19.942 19.942 0 0 1 1.314-1.702 20.303 20.303 0 0 1 .971-1.056C12.498.579 19.713.089 27.839.063l9.594-.031Zm17.191 51.229-.825.456c-.272.156-.596.391-.885.497-.359.206-.717.424-1.084.616-.474.312-.984.582-1.484.85-.287.166-.587.322-.864.503l-.286.176c.784.005 13.239-.575 14.234-.603.205-.4.811-1.478.906-1.625 0 0 5.07-9.242 5.56-10.205l-1.083.592c-.048.032-.125.091-.177.114-.219.129-.437.267-.66.388-.538.313-1.083.619-1.614.944-.219.128-.441.279-.672.385l-.52.247c-.28-.567-.884-1.448-1.023-1.691l-.156-.237c-.3-.572-.657-1.124-.979-1.684-.135-.19-.239-.405-.352-.61-.187-.325-.389-.643-.585-.962a7.77 7.77 0 0 0-.511-.722c-.819-.865-1.679-1.145-2.816-1.397-1.425-.317-14.272-.111-15.906-.078-1.073.022-1.723-.042-2.714.357-.796.49-1.416.992-2.016 1.709-.331.389-.513.847-.802 1.257-.59 1.212-5.102 9.287-5.102 9.287l11.559 6.353c.268-.14 6.722-11.914 6.722-11.914l4.135 6.997Zm12.134 31.046c.276-.287.483-.584.7-.916.348-.521.645-1.074 1.016-1.58.176-.339 1.922-3.091 2.349-3.736.283-.411 4.248-6.742 4.657-7.294.112-.152.994-1.679 1.092-2.295.104-.652.111-.698.11-1.072a5.576 5.576 0 0 0-.165-1.161 12.539 12.539 0 0 0-.482-1.536l-.145-.276-.406-.725c-.266-.329-5.183-9.009-5.283-9.112l-11.474 6.635c.28.444 6.725 11.813 6.725 11.813s-5.948-.001-7.976-.034l.014-6.352-6.822 12.64 6.775 11.584.128-5.424c1.197.008 2.394.025 3.591.048 1.439.026 2.85.172 4.231-.298.284-.13.533-.288.791-.46.192-.149.384-.299.574-.449ZM34.376 70.646l4.046-7.036s5.16 3.137 5.386 3.201c0 0-6.997-11.424-7.405-12.079 0 0-11.982-.141-13.658-.094.939.585 3.871 2.315 4.823 2.936-.253.448-3.28 5.613-3.505 6.045-.093.425-.187.846-.19 1.283l.04.611c.179 1.23 7.815 15.529 7.815 15.529.804 1.227 1.822 1.971 2.209 2.151 2.413 1.119 4.605.723 7.167.779.334-.003 6.242-.03 6.908-.021l.002-13.324-13.638.019ZM8.656 22.183H66.45c.41-.003.82-.005 1.204 0h24.435c-.085-1.88-.57-3.576-1.476-5.23a18.045 18.045 0 0 0-.612-.867 8.93 8.93 0 0 0-.464-.566 10.334 10.334 0 0 0-2.845-2.268 12.417 12.417 0 0 0-.324-.169 9.999 9.999 0 0 0-1.006-.436c-3.003-1.111-7.376-1.309-10.61-1.648L62.895 9.755c-2.173-.225-4.371-.385-6.534-.682-1.58-2.617-3.691-4.346-6.693-5.081-1.275-.311-2.593-.328-3.896-.232-2.086.154-4.151.526-6.215.853l-8.389 1.329-8.08 1.278c-2.003.316-4.023.592-5.994 1.08-1.301.322-2.561.746-3.713 1.446a13.165 13.165 0 0 0-.586.378 9.614 9.614 0 0 0-.827.641 11.385 11.385 0 0 0-.512.474 8.17 8.17 0 0 0-.243.25 9.604 9.604 0 0 0-.884 1.078 9.16 9.16 0 0 0-.384.583 9.898 9.898 0 0 0-.343.608c-.241.468-.407.961-.634 1.432-.757 2.643-.521 4.353-.312 6.993Z"/>
  </g>
</svg>
