<svg xmlns="http://www.w3.org/2000/svg" xml:space="preserve" style="fill-rule:evenodd;clip-rule:evenodd;stroke-linejoin:round;stroke-miterlimit:2" viewBox="0 0 100 100">
  <path d="m37.433.032 2.995-.014 24.188.026 7.439.018c3.948.012 8.019.032 11.863 1.043.223.058.446.119.667.185a19.41 19.41 0 0 1 1.314.433 20.976 20.976 0 0 1 3.732 1.807 20.631 20.631 0 0 1 1.156.762 22.149 22.149 0 0 1 1.102.837c.18.145.356.294.53.445a18.833 18.833 0 0 1 1.015.942c6.012 5.969 6.53 13.107 6.559 21.141l.006 32.213-.001 10.378c-.001 4.315.093 8.783-.893 13.01a21.359 21.359 0 0 1-1.423 4.183 20.325 20.325 0 0 1-1.032 1.957 19.92 19.92 0 0 1-.8 1.24 23.284 23.284 0 0 1-.885 1.181 19.692 19.692 0 0 1-.966 1.115c-.167.181-.337.358-.511.532-5.78 5.805-12.429 6.388-20.214 6.504-3.558.053-7.12.02-10.678.019l-25.444.001-8.286-.002c-4.078-.007-8.324.023-12.307-.957a22.52 22.52 0 0 1-1.353-.373 19.996 19.996 0 0 1-1.326-.462 21.542 21.542 0 0 1-1.923-.856 21.607 21.607 0 0 1-2.413-1.432 20.433 20.433 0 0 1-1.672-1.278 19.381 19.381 0 0 1-1.041-.942C.846 87.829.159 81.03.083 73.061L.013 40.99c-.028-4.076-.011-8.151.051-12.227.047-4.05-.001-8.185.945-12.148a20.178 20.178 0 0 1 .375-1.384 22.625 22.625 0 0 1 .469-1.356 22.514 22.514 0 0 1 .874-1.965 22.613 22.613 0 0 1 .693-1.256 19.23 19.23 0 0 1 .777-1.205 19.942 19.942 0 0 1 1.314-1.702 20.303 20.303 0 0 1 .971-1.056C12.498.579 19.713.089 27.839.063l9.594-.031Zm-8.159 77.317a631.302 631.302 0 0 0 3.734-6.424 10.235 10.235 0 0 0-1.041-1.072c-1.736-1.373-3.688-2.085-5.92-1.835a7.604 7.604 0 0 0-1.766.422 254.278 254.278 0 0 0-2.522 4.391c-.418.731-.81 1.448-1.05 2.261-.324.999-.172 2.18.31 3.105a3.863 3.863 0 0 0 .217.37 5.037 5.037 0 0 0 .252.346 4.273 4.273 0 0 0 .601.609 4.26 4.26 0 0 0 .9.578 4.89 4.89 0 0 0 .395.166 4.875 4.875 0 0 0 .412.126 5.006 5.006 0 0 0 .425.085 5.25 5.25 0 0 0 .431.042 5.237 5.237 0 0 0 .434-.001 3.925 3.925 0 0 0 .431-.044c.071-.011.142-.024.213-.038.071-.014.141-.031.211-.048a4.933 4.933 0 0 0 .414-.129 4.413 4.413 0 0 0 .591-.268c1.022-.56 1.833-1.603 2.328-2.642ZM14.756 62.537c.206 1.158.767 2.157 1.739 2.844.683.483 1.451.725 2.28.797 1.137.099 2.296.072 3.437.072h4.835l15.348-.001 11.737-.002 3.247-.001c.669.005 1.361.065 2.026-.01.167-.108.201-.276.266-.461.303-1.096.394-2.245.098-3.353-.125-1.027-.859-2.156-1.555-2.891-1.018-1.075-2.563-1.906-4.063-1.954-.842-.199-3.103-.06-4.081-.059l-9.324-.002 13.433-23.248 3.565-6.186c.717-1.244 1.551-2.514 2.081-3.848a4.467 4.467 0 0 0-.048-3.48c-.315-.601-.668-1.139-1.224-1.544-.731-.696-1.863-.999-2.852-.971-1.187.034-2.247.549-3.052 1.414-1.051 1.129-1.855 2.852-2.642 4.196L48.756 21.7c-.864-1.476-1.725-2.859-3.482-3.324a3.841 3.841 0 0 0-.414-.088 5.041 5.041 0 0 0-.421-.047 3.754 3.754 0 0 0-.423-.006 5.023 5.023 0 0 0-.422.036 3.634 3.634 0 0 0-.417.077 5.1 5.1 0 0 0-.406.117 4.739 4.739 0 0 0-.394.156 4.76 4.76 0 0 0-.557.306 3.414 3.414 0 0 0-.345.249 3.576 3.576 0 0 0-.319.282 4.187 4.187 0 0 0-1.091 1.801 4.457 4.457 0 0 0-.023 2.461c.415 1.453 1.558 3.138 2.323 4.464.838 1.455 1.659 2.926 2.522 4.366l.051.081c-.138.249-.287.497-.414.752-1.841 3.055-3.581 6.183-5.365 9.273l-8.583 14.868-7.354-.003c-1.583 0-3.916-.16-5.399.224-.689.178-1.355.602-1.861 1.099l-.073.073c-.806.834-1.191 1.91-1.17 3.066.004.185.016.37.037.554ZM54.029 48.05c.486 1.613 2.409 4.603 3.325 6.188l6.01 10.408 5.023 8.686c.956 1.661 1.854 3.418 2.939 4.993.481.699 1.055 1.309 1.811 1.71a4.226 4.226 0 0 0 .788.319 4.758 4.758 0 0 0 .413.1 5.052 5.052 0 0 0 .421.059 5.029 5.029 0 0 0 .425.017 4.911 4.911 0 0 0 .636-.053 4.805 4.805 0 0 0 .417-.087 3.913 3.913 0 0 0 .409-.129 4.9 4.9 0 0 0 .397-.17 5.003 5.003 0 0 0 .378-.209 4.317 4.317 0 0 0 1.748-2.089c.023-.061.046-.122.067-.184a4.522 4.522 0 0 0 .186-.764c.009-.065.018-.13.024-.195a4.28 4.28 0 0 0-.117-1.56c-.158-.32-.258-.684-.411-1.012a25.518 25.518 0 0 0-1.693-3.047c-.214-.537-.599-1.08-.891-1.585l-1.856-3.199 3.862.006c1.177.001 2.495.071 3.646-.193a4.55 4.55 0 0 0 .868-.3 4.508 4.508 0 0 0 .787-.473c.823-.62 1.434-1.585 1.582-2.611.202-.749.037-1.635-.197-2.355-.445-.987-1.03-1.677-1.961-2.227a5.242 5.242 0 0 0-1.6-.478c-1.473-.188-3.037-.096-4.523-.095l-7.511.005c-.449-.885-.996-1.744-1.494-2.605l-2.876-4.977-8.648-14.973c-1.838 2.086-2.998 4.872-3.136 7.652-.307 1.702.191 3.812.752 5.427Z" style="fill:url(#_Linear1)"/>
  <defs>
    <linearGradient id="_Linear1" x1="0" x2="1" y1="0" y2="0" gradientTransform="rotate(-89.988 74.9 24.918) scale(99.6941)" gradientUnits="userSpaceOnUse">
      <stop offset="0" style="stop-color:#165dd9;stop-opacity:1"/>
      <stop offset="1" style="stop-color:#17bdf4;stop-opacity:1"/>
    </linearGradient>
  </defs>
</svg>
