<svg xmlns="http://www.w3.org/2000/svg" xml:space="preserve" style="fill-rule:evenodd;clip-rule:evenodd;stroke-linejoin:round;stroke-miterlimit:2" viewBox="0 0 100 100">
  <g id="レイヤー1">
    <path d="m37.433.032 2.995-.014 24.188.026 7.439.018c3.948.012 8.019.032 11.863 1.043.223.058.446.119.667.185a19.41 19.41 0 0 1 1.314.433 20.976 20.976 0 0 1 3.732 1.807 20.631 20.631 0 0 1 1.156.762 22.149 22.149 0 0 1 1.102.837c.18.145.356.294.53.445a18.833 18.833 0 0 1 1.015.942c6.012 5.969 6.53 13.107 6.559 21.141l.006 32.213-.001 10.378c-.001 4.315.093 8.783-.893 13.01a21.359 21.359 0 0 1-1.423 4.183 20.325 20.325 0 0 1-1.032 1.957 19.92 19.92 0 0 1-.8 1.24 23.284 23.284 0 0 1-.885 1.181 19.692 19.692 0 0 1-.966 1.115c-.167.181-.337.358-.511.532-5.78 5.805-12.429 6.388-20.214 6.504-3.558.053-7.12.02-10.678.019l-25.444.001-8.286-.002c-4.078-.007-8.324.023-12.307-.957a22.52 22.52 0 0 1-1.353-.373 19.996 19.996 0 0 1-1.326-.462 21.542 21.542 0 0 1-1.923-.856 21.607 21.607 0 0 1-2.413-1.432 20.433 20.433 0 0 1-1.672-1.278 19.381 19.381 0 0 1-1.041-.942C.846 87.829.159 81.03.083 73.061L.013 40.99c-.028-4.076-.011-8.151.051-12.227.047-4.05-.001-8.185.945-12.148a20.178 20.178 0 0 1 .375-1.384 22.625 22.625 0 0 1 .469-1.356 22.514 22.514 0 0 1 .874-1.965 22.613 22.613 0 0 1 .693-1.256 19.23 19.23 0 0 1 .777-1.205 19.942 19.942 0 0 1 1.314-1.702 20.303 20.303 0 0 1 .971-1.056C12.498.579 19.713.089 27.839.063l9.594-.031Zm21.715 68.055 3.313 6.95a7.743 7.743 0 0 0 6.998 4.417c.691 0 1.381-.095 2.061-.286 4.662-1.285 6.871-6.648 4.789-11.024l-3.709-7.8c6.495-5.639 11.292-13.314 13.012-21.903.839-4.205-1.88-8.283-6.064-9.111-.5-.1-1.01-.151-1.52-.151a7.764 7.764 0 0 0-7.591 6.225c-.744 3.716-2.484 7.176-4.882 10.117L55.314 23.977a7.753 7.753 0 0 0-6.988-4.417 7.742 7.742 0 0 0-6.987 4.418L30.752 46.112s-1.005-1.947-1.605-3.179c-1.871-3.841-6.117-5.872-10.078-4.279-3.961 1.603-5.872 6.117-4.279 10.078 1.815 4.502 5.023 8.633 9.048 12.032l-3.526 7.412c-1.795 3.77-.446 8.411 3.249 10.376 3.919 2.081 8.74.457 10.631-3.505l3.217-6.763c3.406 1.092 6.938 1.698 10.418 1.698 3.866 0 7.678-.67 11.31-1.891l.011-.004Z"/>
    <path d="M52.425 53.946a19.703 19.703 0 0 1-4.587.552 17.72 17.72 0 0 1-3.675-.402l3.377-7.095a.884.884 0 0 1 1.594 0s3.295 6.944 3.291 6.945Z"/>
  </g>
</svg>
