<svg xmlns="http://www.w3.org/2000/svg" xml:space="preserve" style="fill-rule:evenodd;clip-rule:evenodd;stroke-linejoin:round;stroke-miterlimit:2" viewBox="0 0 100 100">
  <g id="レイヤー2">
    <path d="m37.433.032 2.995-.014 24.188.026 7.439.018c3.948.012 8.019.032 11.863 1.043.223.058.446.119.667.185a19.41 19.41 0 0 1 1.314.433 20.976 20.976 0 0 1 3.732 1.807 20.631 20.631 0 0 1 1.156.762 22.149 22.149 0 0 1 1.102.837c.18.145.356.294.53.445a18.833 18.833 0 0 1 1.015.942c6.012 5.969 6.53 13.107 6.559 21.141l.006 32.213-.001 10.378c-.001 4.315.093 8.783-.893 13.01a21.359 21.359 0 0 1-1.423 4.183 20.325 20.325 0 0 1-1.032 1.957 19.92 19.92 0 0 1-.8 1.24 23.284 23.284 0 0 1-.885 1.181 19.692 19.692 0 0 1-.966 1.115c-.167.181-.337.358-.511.532-5.78 5.805-12.429 6.388-20.214 6.504-3.558.053-7.12.02-10.678.019l-25.444.001-8.286-.002c-4.078-.007-8.324.023-12.307-.957a22.52 22.52 0 0 1-1.353-.373 19.996 19.996 0 0 1-1.326-.462 21.542 21.542 0 0 1-1.923-.856 21.607 21.607 0 0 1-2.413-1.432 20.433 20.433 0 0 1-1.672-1.278 19.381 19.381 0 0 1-1.041-.942C.846 87.829.159 81.03.083 73.061L.013 40.99c-.028-4.076-.011-8.151.051-12.227.047-4.05-.001-8.185.945-12.148a20.178 20.178 0 0 1 .375-1.384 22.625 22.625 0 0 1 .469-1.356 22.514 22.514 0 0 1 .874-1.965 22.613 22.613 0 0 1 .693-1.256 19.23 19.23 0 0 1 .777-1.205 19.942 19.942 0 0 1 1.314-1.702 20.303 20.303 0 0 1 .971-1.056C12.498.579 19.713.089 27.839.063l9.594-.031ZM18.572 72.181l.004 9.344c-.001 1.509-.158 4.203.105 5.555a3.975 3.975 0 0 0 1.072 1.989c.623.622 1.439 1.059 2.316 1.162.847.099 1.716.06 2.567.059l4.066-.006h13.421l45.68.002.001-67.998-3.494-.001-.003 44.088a2.083 2.083 0 0 1-2.083 2.083l-38.327.002H31.053c-2.098 0-4.202-.029-6.302 0l-5.105 3.074-1.074.647Zm3.549-58.823c-.29.187-.565.362-.808.508-2.439 1.464-4.912 2.896-7.334 4.397l.002 36.456c0 5.124-.054 10.256-.029 15.381l3.544-2.135 4.59-2.765c.076-8.178-.011-16.368-.011-24.546l.046-27.296Zm4.169-1.573-.049 28.872c.001 7.872.081 15.752.019 23.624 1.598-.004 3.197.012 4.793.012h12.844l36.244-.001.002-41.988c-.052-2.727.038-5.459-.001-8.188-.01-.68-.12-1.287-.621-1.77a1.887 1.887 0 0 0-1.063-.519c-.66-.078-1.345-.035-2.008-.035l-3.707.005H60.732l-23.728-.003c-3.57 0-7.143-.033-10.714-.009Z"/>
    <path d="m38.467 71.96 7.602.001-.001 2.143-4.62.002-.002 2.831 3.918.002c.001.33.084 1.885-.058 2.098l-3.857.005-.003 4.817-2.977.003-.002-11.902Zm24.872-.213c1.332-.092 2.826.057 3.911.913.887.701 1.187 1.629 1.302 2.708l-2.724.002c-.088-.404-.172-.763-.454-1.084-.335-.38-.793-.536-1.29-.554-.502-.018-1.067.095-1.429.468-.21.215-.34.524-.314.826.097 1.143 2.909 1.678 3.813 2.01.503.184.995.413 1.415.75.632.508.96 1.167 1.043 1.967.105 1.021-.025 2.062-.713 2.872-.926 1.091-2.328 1.363-3.681 1.471-1.253.028-2.618-.161-3.653-.922-1.054-.776-1.361-1.823-1.545-3.054.93-.026 1.864-.006 2.794-.005.093.55.178 1.001.627 1.385.495.424 1.24.515 1.87.446.41-.046.837-.201 1.096-.538.252-.327.301-.759.238-1.157-.042-.267-.151-.496-.366-.664-1.039-.812-3.465-.973-4.763-1.941-.618-.461-.965-1.094-1.061-1.855-.119-.956.022-1.886.647-2.649.801-.977 2.037-1.283 3.237-1.395Zm-15.706.218 2.975-.001-.005 5.622c0 .976-.083 2.024.059 2.988.052.349.14.68.394.937.337.341.843.464 1.309.464.813-.001 1.436-.312 2.003-.872l-.004-9.139h2.98v2.882l-.001 9.013-2.608.004a31.575 31.575 0 0 1-.148-.87c-.854.681-1.746 1.063-2.847 1.101-1.064.036-2.161-.235-2.941-.999-.546-.535-.877-1.241-1.04-1.98-.251-1.143-.128-2.429-.128-3.598l.002-5.552Zm-2.855-49.634h20.063c-.02 1.882.015 3.764-.016 5.646l-12.176.001c-.057 2.492-.005 5-.004 7.493l10.316.003c-.003.748.112 5.265-.07 5.537l-.195.009-10.055.002.003 12.743-7.863.003-.003-31.437Z" style="fill-rule:nonzero"/>
  </g>
</svg>
