<svg xmlns="http://www.w3.org/2000/svg" xml:space="preserve" style="fill-rule:evenodd;clip-rule:evenodd;stroke-linejoin:round;stroke-miterlimit:2" viewBox="0 0 100 100">
  <g id="レイヤー1">
    <path d="M.015 62.884V30.127c-.005-2.088.001-4.175.02-6.263.119-7.278.38-13.107 5.999-18.486 1.712-1.638 4.041-3.195 6.281-3.956C17.166-.225 23.818.05 28.957.047c3.032-.002 6.07-.047 9.101.009C46.729-.06 55.418.04 64.09.039l9.675.002c4.191.009 8.494-.082 12.59.945 2.754.69 5.623 2.431 7.652 4.412 5.276 5.151 5.869 10.302 5.941 17.321.028 3.983.035 7.966.02 11.95-.001 2.072.097 4.403-.019 6.442.122 1.922.011 3.907.013 5.837l.002 12.205.002 12.328c-.002 4.723.058 9.457-.801 14.121-.284 1.098-.581 2.187-1.043 3.227-1.528 3.439-4.411 6.542-7.649 8.441-2.413 1.415-5.023 2.101-7.789 2.372-5.428.482-10.913.338-16.358.338H43.147l-15.407-.003c-2.121.011-4.242-.018-6.362-.086-1.071-.034-2.204-.032-3.263-.196-1.807-.094-3.721-.411-5.438-.986-4.634-1.551-8.461-5.18-10.62-9.516-.469-.91-.772-1.895-1.076-2.869-1.02-4.478-.961-9.128-.964-13.699l-.002-9.741Zm81.754-17.666c-1.388.165-2.599.738-3.471 1.86-.783 1.005-1.178 2.32-1.019 3.59a5.134 5.134 0 0 0 .302 1.193 4.546 4.546 0 0 0 .318.668 4.586 4.586 0 0 0 .265.416 5.658 5.658 0 0 0 .306.388 4.773 4.773 0 0 0 .717.676c.937.712 2.199 1.106 3.376.973 1.371-.164 2.571-.752 3.434-1.851a4.364 4.364 0 0 0 .278-.392 5.373 5.373 0 0 0 .239-.418 5.391 5.391 0 0 0 .196-.439 4.683 4.683 0 0 0 .152-.456c.021-.078.041-.156.059-.234a6.152 6.152 0 0 0 .083-.473 4.873 4.873 0 0 0-.082-1.687 4.91 4.91 0 0 0-.535-1.375 5.653 5.653 0 0 0-.127-.212 5.635 5.635 0 0 0-.287-.401 4.819 4.819 0 0 0-.685-.709 4.996 4.996 0 0 0-.945-.618 4.681 4.681 0 0 0-.823-.321 4.968 4.968 0 0 0-1.751-.178Zm-25.67 0c-1.388.165-2.6.74-3.472 1.86-.782 1.005-1.178 2.32-1.018 3.589a4.928 4.928 0 0 0 .886 2.278 5.658 5.658 0 0 0 .305.388 4.77 4.77 0 0 0 .342.355 4.721 4.721 0 0 0 .376.321c.933.709 2.197 1.106 3.371.974 1.351-.155 2.56-.743 3.415-1.821a5.39 5.39 0 0 0 .282-.391 4.824 4.824 0 0 0 .524-1.082 4.705 4.705 0 0 0 .182-.7 4.715 4.715 0 0 0 .078-.718c.002-.08.003-.161.002-.241a6.382 6.382 0 0 0-.01-.241 4.816 4.816 0 0 0-.228-1.188 4.814 4.814 0 0 0-.386-.89 5.486 5.486 0 0 0-.257-.413 5.42 5.42 0 0 0-.295-.385 4.648 4.648 0 0 0-.51-.52 4.589 4.589 0 0 0-.557-.418 4.773 4.773 0 0 0-1.234-.566 4.794 4.794 0 0 0-.889-.179 4.915 4.915 0 0 0-.907-.012Zm12.735 12.954c-1.414.213-2.621.827-3.476 2.001-.746 1.024-1.092 2.344-.893 3.6a5.061 5.061 0 0 0 .169.727 4.683 4.683 0 0 0 .172.467 4.65 4.65 0 0 0 .219.448 4.62 4.62 0 0 0 .407.625 5.784 5.784 0 0 0 .322.38 5.835 5.835 0 0 0 .358.346 5.746 5.746 0 0 0 .391.308c.983.692 2.159.958 3.348.845 1.369-.197 2.555-.806 3.391-1.933a5.44 5.44 0 0 0 .269-.402 4.348 4.348 0 0 0 .325-.648 4.778 4.778 0 0 0 .279-.925 4.768 4.768 0 0 0 .092-.962 4.881 4.881 0 0 0-.294-1.658 5.094 5.094 0 0 0-.415-.871 4.919 4.919 0 0 0-.917-1.116 5 5 0 0 0-.374-.307c-.981-.72-2.167-1.018-3.373-.925ZM17.593 45.218c-1.388.166-2.599.739-3.471 1.86-.782 1.005-1.179 2.32-1.019 3.589a4.947 4.947 0 0 0 .146.726 4.93 4.93 0 0 0 .74 1.552 5.658 5.658 0 0 0 .305.388 5.71 5.71 0 0 0 .342.355 4.721 4.721 0 0 0 .376.321c.941.715 2.198 1.102 3.38.973 1.368-.162 2.569-.754 3.429-1.85.05-.063.098-.127.144-.192.047-.066.091-.133.135-.2a6.245 6.245 0 0 0 .238-.418 6.128 6.128 0 0 0 .196-.44 5.502 5.502 0 0 0 .152-.456 4.671 4.671 0 0 0 .142-.707 4.969 4.969 0 0 0 .038-.72 4.8 4.8 0 0 0-.071-.725 4.928 4.928 0 0 0-.998-2.231 4.819 4.819 0 0 0-.686-.709 4.807 4.807 0 0 0-1.349-.797 4.773 4.773 0 0 0-.848-.245 4.968 4.968 0 0 0-1.321-.074Zm12.835 0c-1.389.165-2.599.739-3.471 1.86-.783 1.005-1.178 2.32-1.019 3.589a6.516 6.516 0 0 0 .085.487 6.43 6.43 0 0 0 .133.475 4.949 4.949 0 0 0 .402.9 4.586 4.586 0 0 0 .266.416 4.629 4.629 0 0 0 .305.388 5.746 5.746 0 0 0 .526.521c.062.053.126.105.191.155.937.712 2.2 1.106 3.376.973 1.371-.163 2.571-.751 3.434-1.85a4.392 4.392 0 0 0 .279-.393 4.681 4.681 0 0 0 .341-.635 4.329 4.329 0 0 0 .175-.448 4.68 4.68 0 0 0 .129-.463 4.933 4.933 0 0 0 .12-.954 4.836 4.836 0 0 0-.419-2.119 4.9 4.9 0 0 0-.773-1.228 5.586 5.586 0 0 0-.512-.516 4.527 4.527 0 0 0-.557-.413 4.875 4.875 0 0 0-3.011-.745Zm38.408-12.959c-1.415.213-2.623.827-3.478 2.001-.753 1.034-1.097 2.365-.889 3.631a4.66 4.66 0 0 0 .253.954 4.971 4.971 0 0 0 1.78 2.316c.978.689 2.156.959 3.34.847 1.35-.188 2.528-.787 3.364-1.887a4.166 4.166 0 0 0 .275-.402 4.456 4.456 0 0 0 .335-.65 4.864 4.864 0 0 0 .385-2.143 3.966 3.966 0 0 0-.017-.243 3.896 3.896 0 0 0-.029-.242 6.271 6.271 0 0 0-.041-.239 6.164 6.164 0 0 0-.117-.47 4.778 4.778 0 0 0-.261-.679c-.034-.073-.071-.145-.108-.217a4.946 4.946 0 0 0-.388-.615 3.914 3.914 0 0 0-.149-.191 4.601 4.601 0 0 0-.682-.687 7.002 7.002 0 0 0-.191-.15c-.982-.724-2.172-1.028-3.382-.934Zm-38.497 0c-1.385.202-2.581.799-3.436 1.933-.766 1.016-1.135 2.336-.954 3.6a5.255 5.255 0 0 0 .159.729 4.995 4.995 0 0 0 1.83 2.598c.987.718 2.188 1.004 3.396.889 1.368-.19 2.549-.8 3.391-1.917a5.377 5.377 0 0 0 .389-.611 4.342 4.342 0 0 0 .295-.66 4.43 4.43 0 0 0 .142-.462 6.605 6.605 0 0 0 .096-.473 4.792 4.792 0 0 0 .049-.963 4.906 4.906 0 0 0-.822-2.503 4.702 4.702 0 0 0-.613-.751 5.573 5.573 0 0 0-.358-.327 7.002 7.002 0 0 0-.191-.15c-.979-.721-2.167-1.025-3.373-.932Zm51.333 25.913c-1.415.213-2.623.826-3.479 2.001-.746 1.024-1.092 2.344-.893 3.6a4.773 4.773 0 0 0 .25.963 4.626 4.626 0 0 0 .195.458 5.73 5.73 0 0 0 .376.644 5.443 5.443 0 0 0 .303.395 4.208 4.208 0 0 0 .34.364 4.756 4.756 0 0 0 .574.476c.981.693 2.158.959 3.346.847 1.346-.188 2.524-.789 3.358-1.886a4.728 4.728 0 0 0 .275-.402 6.393 6.393 0 0 0 .234-.428 5.572 5.572 0 0 0 .19-.449 4.474 4.474 0 0 0 .145-.466 4.027 4.027 0 0 0 .098-.477 5.01 5.01 0 0 0 .058-.729 6.62 6.62 0 0 0-.005-.244 4.844 4.844 0 0 0-.141-.961 6.78 6.78 0 0 0-.064-.234 6.186 6.186 0 0 0-.163-.456 4.395 4.395 0 0 0-.206-.439 4.787 4.787 0 0 0-.388-.615 5.447 5.447 0 0 0-.148-.192c-.052-.062-.104-.124-.158-.184a4.627 4.627 0 0 0-.342-.344 5.74 5.74 0 0 0-.374-.309c-.982-.724-2.171-1.027-3.381-.933ZM43.038 32.26c-1.409.215-2.62.829-3.472 2a4.366 4.366 0 0 0-.265.403 4.872 4.872 0 0 0-.629 1.813 4.794 4.794 0 0 0-.043.481c-.003.08-.004.16-.003.241a4.849 4.849 0 0 0 .106.962 4.852 4.852 0 0 0 .208.705 4.5 4.5 0 0 0 .309.667 4.495 4.495 0 0 0 .26.416c.046.067.095.133.145.197a4.017 4.017 0 0 0 .318.373c.056.06.114.118.172.175.06.056.12.111.182.165.061.054.124.106.189.156.064.051.129.1.196.147.969.683 2.142.958 3.316.851 1.379-.195 2.562-.795 3.411-1.923.759-1.009 1.122-2.34.942-3.593a6.585 6.585 0 0 0-.041-.245 4.972 4.972 0 0 0-.195-.719 5.03 5.03 0 0 0-1.012-1.695 3.634 3.634 0 0 0-.171-.18 3.634 3.634 0 0 0-.18-.171 4.116 4.116 0 0 0-.188-.162 4.123 4.123 0 0 0-.196-.153c-.987-.718-2.152-.995-3.359-.911Zm12.972-.001c-1.385.202-2.582.801-3.436 1.934-.766 1.016-1.136 2.335-.955 3.599a5.255 5.255 0 0 0 .159.729 5.852 5.852 0 0 0 .266.696 5.759 5.759 0 0 0 .234.439 5.715 5.715 0 0 0 .276.413 4.917 4.917 0 0 0 .488.564 5.882 5.882 0 0 0 .37.332c.064.053.13.103.197.152.99.721 2.188 1.005 3.4.891 1.35-.187 2.527-.787 3.363-1.886a4.402 4.402 0 0 0 .273-.399 5.464 5.464 0 0 0 .233-.424 4.836 4.836 0 0 0 .268-.675 4.718 4.718 0 0 0 .198-.946 6.52 6.52 0 0 0 .02-.241 4.883 4.883 0 0 0-.271-1.914 4.485 4.485 0 0 0-.293-.672 4.443 4.443 0 0 0-.249-.421 5.486 5.486 0 0 0-.289-.394 4.666 4.666 0 0 0-.326-.363 4.706 4.706 0 0 0-.553-.481c-.991-.732-2.155-1.014-3.373-.933ZM17.501 58.172c-1.383.202-2.579.801-3.433 1.933-.766 1.016-1.135 2.336-.954 3.6.011.082.025.164.041.245.015.082.033.163.053.243.019.081.041.161.065.24a5.013 5.013 0 0 0 .499 1.135 5.012 5.012 0 0 0 .592.798 5.835 5.835 0 0 0 .353.35 4.762 4.762 0 0 0 .386.314c.992.721 2.189 1.004 3.403.89 1.348-.188 2.525-.787 3.36-1.886a4.695 4.695 0 0 0 .397-.613 4.446 4.446 0 0 0 .213-.439c.032-.075.062-.151.089-.227.029-.076.055-.153.079-.231.024-.077.046-.156.067-.234.02-.079.038-.158.055-.238a4.847 4.847 0 0 0 .078-1.456 4.842 4.842 0 0 0-.35-1.409 4.395 4.395 0 0 0-.207-.439 4.411 4.411 0 0 0-.248-.417 5.45 5.45 0 0 0-.288-.39 4.635 4.635 0 0 0-.325-.361 4.6 4.6 0 0 0-.358-.326 4.488 4.488 0 0 0-.191-.15c-.981-.723-2.168-1.026-3.376-.932Zm51.431-12.954c-1.387.165-2.599.739-3.47 1.859-.782 1.006-1.177 2.321-1.018 3.59a4.987 4.987 0 0 0 .302 1.194 4.546 4.546 0 0 0 .318.668 4.566 4.566 0 0 0 .413.614 4.795 4.795 0 0 0 .683.711c.063.053.126.105.192.155.937.713 2.199 1.105 3.377.973 1.37-.163 2.57-.753 3.433-1.851a5.322 5.322 0 0 0 .403-.598 5.391 5.391 0 0 0 .31-.651 4.683 4.683 0 0 0 .152-.456c.021-.078.041-.156.059-.234a4.844 4.844 0 0 0-.059-2.399 4.967 4.967 0 0 0-.741-1.553 5.651 5.651 0 0 0-.474-.569 5.753 5.753 0 0 0-.361-.337 5.653 5.653 0 0 0-.192-.155 4.795 4.795 0 0 0-.753-.463 5 5 0 0 0-1.69-.488 5.014 5.014 0 0 0-.884-.01Zm-25.788.001c-1.39.167-2.576.726-3.458 1.841a4.54 4.54 0 0 0-.279.39 4.333 4.333 0 0 0-.241.416 5.366 5.366 0 0 0-.281.662 6.061 6.061 0 0 0-.132.462 4.671 4.671 0 0 0-.112.711 6.258 6.258 0 0 0-.014.239 4.764 4.764 0 0 0 .112 1.206 4.669 4.669 0 0 0 .213.709 4.559 4.559 0 0 0 .2.451 4.565 4.565 0 0 0 .244.429 4.819 4.819 0 0 0 .443.594 5.71 5.71 0 0 0 .343.355 4.065 4.065 0 0 0 .375.32c.975.744 2.129 1.049 3.342.985 1.411-.178 2.636-.764 3.514-1.911a4.835 4.835 0 0 0 .694-1.251 4.938 4.938 0 0 0 .313-1.877 4.745 4.745 0 0 0-.35-1.658 4.883 4.883 0 0 0-.204-.445 5.541 5.541 0 0 0-.246-.423 5.56 5.56 0 0 0-.444-.585 4.712 4.712 0 0 0-.342-.351 4.703 4.703 0 0 0-.374-.316c-.954-.714-2.131-1.034-3.316-.953ZM30.333 58.172c-1.383.202-2.577.801-3.43 1.932-.767 1.017-1.135 2.336-.954 3.601.011.082.025.164.041.245a4.702 4.702 0 0 0 .284.952 4.627 4.627 0 0 0 .334.667 4.63 4.63 0 0 0 .276.414 5.47 5.47 0 0 0 .316.384 4.843 4.843 0 0 0 .353.35 4.116 4.116 0 0 0 .385.314c.992.722 2.193 1.004 3.406.888 1.364-.19 2.543-.802 3.381-1.916a4.635 4.635 0 0 0 .269-.4 5.422 5.422 0 0 0 .229-.426 5.44 5.44 0 0 0 .186-.445 6.137 6.137 0 0 0 .141-.462 4.702 4.702 0 0 0 .144-.953 4.847 4.847 0 0 0-.278-1.904 4.778 4.778 0 0 0-.294-.665 4.424 4.424 0 0 0-.387-.615 5.475 5.475 0 0 0-.307-.376 4.627 4.627 0 0 0-.342-.344 5.478 5.478 0 0 0-.374-.309c-.981-.723-2.17-1.026-3.379-.932Z" style="fill:#080605"/>
  </g>
</svg>
