<svg xmlns="http://www.w3.org/2000/svg" xml:space="preserve" style="fill-rule:evenodd;clip-rule:evenodd;stroke-linejoin:round;stroke-miterlimit:2" viewBox="0 0 100 100">
  <path d="M.015 62.884V30.127c-.005-2.088.001-4.175.02-6.263.119-7.278.38-13.107 5.999-18.486 1.712-1.638 4.041-3.195 6.281-3.956C17.166-.225 23.818.05 28.957.047c3.032-.002 6.07-.047 9.101.009C46.729-.06 55.418.04 64.09.039l9.675.002c4.191.009 8.494-.082 12.59.945 2.754.69 5.623 2.431 7.652 4.412 5.276 5.151 5.869 10.302 5.941 17.321.028 3.983.035 7.966.02 11.95-.001 2.072.097 4.403-.019 6.442.122 1.922.011 3.907.013 5.837l.002 12.205.002 12.328c-.002 4.723.058 9.457-.801 14.121-.284 1.098-.581 2.187-1.043 3.227-1.528 3.439-4.411 6.542-7.649 8.441-2.413 1.415-5.023 2.101-7.789 2.372-5.428.482-10.913.338-16.358.338H43.147l-15.407-.003c-2.121.011-4.242-.018-6.362-.086-1.071-.034-2.204-.032-3.263-.196-1.807-.094-3.721-.411-5.438-.986-4.634-1.551-8.461-5.18-10.62-9.516-.469-.91-.772-1.895-1.076-2.869-1.02-4.478-.961-9.128-.964-13.699l-.002-9.741ZM50.577 17.43c-1.328.182-2.629.707-3.462 1.806-.439.58-.679 1.284-.583 2.014a2.999 2.999 0 0 0 .14.561 3.039 3.039 0 0 0 .156.352 2.493 2.493 0 0 0 .204.328c.038.052.077.103.118.152.813.965 2.456 2.131 3.493 2.977 2.495 2.036 5.016 4.048 7.483 6.117H35.28l-6.436-.001c-1.277-.001-2.635-.097-3.896.104-1.309.209-2.568.785-3.511 1.727-.767.765-1.369 1.796-1.362 2.904a3.07 3.07 0 0 0 .997 2.239 3.841 3.841 0 0 0 1.138.736 3.407 3.407 0 0 0 .515.176c.088.023.176.044.265.061 1.659.315 4.355.156 6.12.156l11.433.005c-2.305 1.635-4.512 3.451-6.755 5.173L21.081 54.76l-6.849 5.256c-1.309 1.004-2.78 1.974-3.919 3.167-.844.884-1.477 2.126-1.68 3.331-.2 1.186.025 2.448.736 3.432.666.923 1.684 1.508 2.802 1.686 1.953.31 3.771-.247 5.343-1.409 1.532-1.133 2.983-2.423 4.458-3.632L30.03 60l3.433-2.814c-.082 1.555-.107 3.062.117 4.608.647 4.464 3.067 8.786 6.051 12.105 5.412 6.019 12.805 8.926 20.778 9.33 1.165.059 2.32-.013 3.481-.108 6.332-.52 12.52-2.998 17.252-7.28 4.748-4.296 8.116-10.367 8.425-16.845.326-6.804-1.877-13.003-6.481-18.036-2.409-2.633-5.436-4.718-8.257-6.882l-10.734-8.242-6.633-5.096c-1.136-.874-2.266-1.878-3.486-2.624a6.796 6.796 0 0 0-.277-.156 5.775 5.775 0 0 0-.581-.257 4.64 4.64 0 0 0-.609-.181 4.905 4.905 0 0 0-.945-.124 5.332 5.332 0 0 0-.987.032Zm9.703 22.402.081-.009c4.654-.34 9.562 1.358 13.05 4.425 3.085 2.712 4.923 6.408 5.165 10.506.223 3.781-1.25 7.587-3.747 10.396a18.255 18.255 0 0 1-1.235 1.243 18.38 18.38 0 0 1-1.706 1.372 19.139 19.139 0 0 1-.727.488 16.339 16.339 0 0 1-.751.452 16.035 16.035 0 0 1-.772.415 17.877 17.877 0 0 1-2.424 1.009 15.587 15.587 0 0 1-.838.256 20.314 20.314 0 0 1-.85.214 15.49 15.49 0 0 1-.859.172 21.559 21.559 0 0 1-.866.129 15.702 15.702 0 0 1-.872.087c-.146.011-.292.02-.437.027-.051.006-.101.012-.152.016-4.585.367-9.48-1.316-12.937-4.307-2.985-2.582-4.989-6.221-5.264-10.191a22.193 22.193 0 0 1-.021-.364 14.804 14.804 0 0 1 .032-1.824l.033-.363a14.304 14.304 0 0 1 .155-1.083 14.093 14.093 0 0 1 .235-1.07 13.987 13.987 0 0 1 .2-.701c.037-.116.074-.232.114-.347a14.052 14.052 0 0 1 .857-2.013 14.25 14.25 0 0 1 .351-.64c.061-.105.124-.209.187-.313a14.482 14.482 0 0 1 .609-.91 14.742 14.742 0 0 1 .913-1.138c3.176-3.637 7.709-5.609 12.476-5.934Zm1.045 5.16c-3.12.217-6.053 1.348-8.144 3.753a12.781 12.781 0 0 0-.299.356c-.049.06-.096.122-.143.183-.047.062-.094.124-.139.187a13.027 13.027 0 0 0-.263.384 8.117 8.117 0 0 0-.244.397 8.09 8.09 0 0 0-.223.408 8.093 8.093 0 0 0-.105.208l-.098.211c-.033.07-.064.141-.094.213-.031.071-.06.143-.089.215l-.083.217a8.184 8.184 0 0 0-.217.664 18.62 18.62 0 0 0-.061.224c-.019.076-.038.151-.055.226a9.176 9.176 0 0 0-.095.456l-.038.23a8.482 8.482 0 0 0-.033.23l-.028.231a9.082 9.082 0 0 0-.047.697 8.975 8.975 0 0 0-.004.232c-.001.078 0 .155.001.233a9.065 9.065 0 0 0 .021.465c.19 2.576 1.525 4.912 3.475 6.569 2.316 1.968 5.116 2.661 8.096 2.634a12.478 12.478 0 0 0 1.091-.097 11.773 11.773 0 0 0 1.343-.27c.088-.023.176-.048.264-.073.087-.026.175-.052.262-.08.087-.028.174-.056.26-.086a13.325 13.325 0 0 0 .767-.297 11.166 11.166 0 0 0 1.917-1.055c.076-.051.15-.104.225-.157l.22-.163c.072-.056.145-.112.216-.169l.212-.173a11.62 11.62 0 0 0 .411-.363l.199-.188a17.742 17.742 0 0 0 .383-.392 9.077 9.077 0 0 0 1.356-1.855 9.355 9.355 0 0 0 1.173-4.409 8.82 8.82 0 0 0-.006-.46c-.116-2.568-1.286-4.902-3.178-6.626-2.078-1.893-5.194-3.065-8.016-2.926a2.978 2.978 0 0 0-.19.016Z" style="fill:#080605"/>
</svg>
