<svg xmlns="http://www.w3.org/2000/svg" xml:space="preserve" style="fill-rule:evenodd;clip-rule:evenodd;stroke-linejoin:round;stroke-miterlimit:2" viewBox="0 0 100 100">
  <g id="レイヤー1">
    <path d="M37.358.026 44.05 0l20.913.04 7.128.017c3.987.012 8.094.034 11.969 1.08a21.73 21.73 0 0 1 1.319.397 21.751 21.751 0 0 1 1.289.482 20.705 20.705 0 0 1 3.062 1.567 21.898 21.898 0 0 1 1.145.764 20.226 20.226 0 0 1 1.618 1.282c.173.152.343.306.511.462.167.157.332.317.494.479 6.388 6.386 6.501 14.099 6.504 22.584l.001 31.385-.002 10.001c-.005 4.309.074 8.77-.953 12.982a21.232 21.232 0 0 1-.613 2.084 21.335 21.335 0 0 1-1.145 2.658 21.702 21.702 0 0 1-1.093 1.876 22.545 22.545 0 0 1-.834 1.184 20.373 20.373 0 0 1-1.903 2.182c-5.778 5.762-12.361 6.365-20.127 6.474-3.518.05-7.04.019-10.558.019H37.233l-8.378-.002c-4.075-.007-8.298.027-12.279-.948a20.097 20.097 0 0 1-1.36-.372 21.851 21.851 0 0 1-1.333-.463 20.303 20.303 0 0 1-1.933-.858 20.552 20.552 0 0 1-1.837-1.049 21.324 21.324 0 0 1-2.798-2.14 21.271 21.271 0 0 1-.514-.483C.757 87.777.169 81.045.071 73.019L0 41.404c-.03-4.369-.011-8.737.057-13.105.057-3.862.019-7.779.907-11.562a21.897 21.897 0 0 1 .372-1.402 21.286 21.286 0 0 1 1.029-2.71 20.593 20.593 0 0 1 .652-1.295 21.71 21.71 0 0 1 .739-1.248 20.38 20.38 0 0 1 1.265-1.769 22.448 22.448 0 0 1 .943-1.102c.163-.179.329-.354.499-.527C12.471.57 19.744.082 27.862.058l9.496-.032ZM53.462 74.54c.559-.296 1.068-.797 1.584-1.171a16.264 16.264 0 0 1 3.209-1.831c5.994-2.621 13.961-1.867 19.42 1.779 1.055.704 2.36 2.163 3.654 2.223.498.023 1.108-.115 1.471-.477.38-.378.39-.875.398-1.375.181-.944.053-2.708.049-3.759l-.009-7.583-.026-31.498c-.087-.965-.938-1.959-1.547-2.664-3.313-3.835-8.596-5.797-13.563-6.144-4.97-.347-10.247.938-14.054 4.269-.834.73-2.344 2.067-2.425 3.25-.13 2.734-.032 5.51-.032 8.248l.003 15.4-.001 13.408c-.003 2.273-.123 4.605.005 6.871.022.377.096.748.365 1.032a.97.97 0 0 0 .241.185.965.965 0 0 0 .489.114c.292-.01.532-.117.769-.277Zm-36.635-.189c.143.457.311.749.748.98.522.276 1.187.276 1.737.089.93-.316 1.692-1.161 2.469-1.738.556-.412 1.138-.76 1.741-1.095 5.516-3.066 12.916-3.534 18.647-.85.971.455 1.884.976 2.755 1.606.683.494 1.31 1.093 2.073 1.462l.104.006c.336.016.657-.007.909-.256.367-.363.371-.916.398-1.401.108-1.986.006-4.031.002-6.024l-.002-11.413.004-16.762c.001-3.134.056-6.278-.024-9.41-.12-1.273-1.812-2.73-2.733-3.495-3.934-3.266-9.337-4.444-14.351-3.961-4.887.471-10.017 2.503-13.193 6.366-.545.663-1.229 1.504-1.309 2.388-.148 2.848-.044 5.746-.043 8.598l.003 15.659-.002 12.091c-.004 2.371-.122 4.797.067 7.16Z" style="fill:url(#_Linear1)"/>
  </g>
  <defs>
    <linearGradient id="_Linear1" x1="0" x2="1" y1="0" y2="0" gradientTransform="rotate(90.037 24.95 25.038) scale(99.73132)" gradientUnits="userSpaceOnUse">
      <stop offset="0" style="stop-color:#ffa004;stop-opacity:1"/>
      <stop offset="1" style="stop-color:#fb701c;stop-opacity:1"/>
    </linearGradient>
  </defs>
</svg>
