<svg xmlns="http://www.w3.org/2000/svg" xml:space="preserve" style="fill-rule:evenodd;clip-rule:evenodd;stroke-linejoin:round;stroke-miterlimit:2" viewBox="0 0 100 100">
  <g id="レイヤー1">
    <path d="m37.433.032 2.995-.014 24.188.026 7.439.018c3.948.012 8.019.032 11.863 1.043.223.058.446.119.667.185a19.41 19.41 0 0 1 1.314.433 20.976 20.976 0 0 1 3.732 1.807 20.631 20.631 0 0 1 1.156.762 22.149 22.149 0 0 1 1.102.837c.18.145.356.294.53.445a18.833 18.833 0 0 1 1.015.942c6.012 5.969 6.53 13.107 6.559 21.141l.006 32.213-.001 10.378c-.001 4.315.093 8.783-.893 13.01a21.359 21.359 0 0 1-1.423 4.183 20.325 20.325 0 0 1-1.032 1.957 19.92 19.92 0 0 1-.8 1.24 23.284 23.284 0 0 1-.885 1.181 19.692 19.692 0 0 1-.966 1.115c-.167.181-.337.358-.511.532-5.78 5.805-12.429 6.388-20.214 6.504-3.558.053-7.12.02-10.678.019l-25.444.001-8.286-.002c-4.078-.007-8.324.023-12.307-.957a22.52 22.52 0 0 1-1.353-.373 19.996 19.996 0 0 1-1.326-.462 21.542 21.542 0 0 1-1.923-.856 21.607 21.607 0 0 1-2.413-1.432 20.433 20.433 0 0 1-1.672-1.278 19.381 19.381 0 0 1-1.041-.942C.846 87.829.159 81.03.083 73.061L.013 40.99c-.028-4.076-.011-8.151.051-12.227.047-4.05-.001-8.185.945-12.148a20.178 20.178 0 0 1 .375-1.384 22.625 22.625 0 0 1 .469-1.356 22.514 22.514 0 0 1 .874-1.965 22.613 22.613 0 0 1 .693-1.256 19.23 19.23 0 0 1 .777-1.205 19.942 19.942 0 0 1 1.314-1.702 20.303 20.303 0 0 1 .971-1.056C12.498.579 19.713.089 27.839.063l9.594-.031ZM61.503 12.5H38.504l-6.547 7.437s-5.75-1.6-8.462 1.119c-2.716 2.719-4.953 5.119-4.953 5.119l1.756 4.316-2.234 6.396s6.575 24.938 7.346 27.985c1.516 5.997 2.554 8.312 6.866 11.353 4.429 3.1 8.902 6.138 13.416 9.112 1.281.8 2.875 2.163 4.312 2.163 1.438 0 3.035-1.363 4.313-2.163 1.278-.8 9.103-6.075 13.415-9.112 4.313-3.041 5.35-5.356 6.869-11.353.769-3.047 7.344-27.985 7.344-27.985l-2.235-6.396 1.757-4.316s-2.238-2.4-4.95-5.119c-2.716-2.719-8.466-1.119-8.466-1.119L61.503 12.5ZM50.004 59.175c.438 0 3.241.991 5.491 2.156 2.253 1.166 3.884 1.991 4.406 2.316.522.328.203.944-.272 1.281-.475.334-6.856 5.284-7.475 5.831-.619.544-1.531 1.45-2.15 1.45s-1.528-.903-2.147-1.45c-.622-.55-7.003-5.497-7.478-5.831-.475-.337-.794-.953-.272-1.278.522-.328 2.153-1.153 4.403-2.319 2.25-1.165 5.057-2.156 5.494-2.156Zm0-35.244s1.278.003 3.194.644 3.994 1.441 4.953 1.441c.956 0 8.063-1.363 8.063-1.363s8.421 10.197 8.421 12.375c0 2.178-1.059 2.753-2.125 3.884l-6.312 6.716c-.6.634-1.844 1.597-1.109 3.331.731 1.735 1.809 3.941.609 6.178-1.2 2.235-3.256 3.732-4.575 3.485-1.316-.247-4.413-1.869-5.55-2.606-1.138-.741-4.744-3.719-4.744-4.857 0-1.14 3.728-3.184 4.416-3.653.69-.462 3.834-2.262 3.897-2.969.062-.706.04-.912-.888-2.656-.928-1.747-2.6-4.075-2.319-5.625.279-1.55 2.969-2.353 4.891-3.081 1.922-.725 5.622-2.097 6.084-2.313.463-.212.344-.415-1.059-.546-1.397-.135-5.372-.663-7.162-.163-1.791.5-4.85 1.259-5.1 1.663-.247.403-.466.418-.21 1.809.253 1.391 1.566 8.066 1.691 9.253.128 1.184.375 1.969-.9 2.259-1.278.294-3.428.8-4.166.8-.737 0-2.887-.506-4.165-.8-1.275-.293-1.025-1.075-.9-2.262.128-1.184 1.437-7.859 1.69-9.25.256-1.391.038-1.403-.209-1.809-.25-.404-3.31-1.163-5.1-1.663-1.791-.5-5.763.028-7.163.163-1.403.131-1.522.334-1.059.546.462.216 4.162 1.588 6.084 2.313 1.922.728 4.613 1.534 4.891 3.081.278 1.55-1.391 3.878-2.319 5.625-.925 1.744-.95 1.95-.887 2.66.065.703 3.209 2.5 3.897 2.968.687.463 4.415 2.51 4.415 3.65 0 1.138-3.606 4.116-4.744 4.857-1.137.737-4.234 2.356-5.55 2.606-1.318.247-3.375-1.247-4.575-3.485-1.2-2.24-.121-4.443.613-6.178.731-1.734-.513-2.697-1.113-3.331l-6.312-6.716c-1.066-1.131-2.125-1.706-2.125-3.884s8.422-12.372 8.422-12.372 7.106 1.356 8.065 1.356c.957 0 3.035-.796 4.95-1.437 1.916-.641 3.194-.644 3.194-.644Z"/>
  </g>
</svg>
