<svg xmlns="http://www.w3.org/2000/svg" xml:space="preserve" style="fill-rule:evenodd;clip-rule:evenodd;stroke-linejoin:round;stroke-miterlimit:2" viewBox="0 0 100 100">
  <g id="レイヤー1">
    <path d="m99.998 34.441.001 26.694-.001 9.696c-.005 4.181.052 8.509-.932 12.599a19.675 19.675 0 0 1-.606 2.091 21.373 21.373 0 0 1-.818 2.016 19.663 19.663 0 0 1-.659 1.293 21.835 21.835 0 0 1-1.579 2.434 22.47 22.47 0 0 1-.911 1.13 20.727 20.727 0 0 1-.988 1.064c-6.423 6.458-14.188 6.527-22.739 6.541l-31.15.001-10.071-.002c-4.286-.006-8.734.072-12.926-.939a21.274 21.274 0 0 1-4.101-1.427 21.775 21.775 0 0 1-1.291-.661 19.6 19.6 0 0 1-.627-.363 19.68 19.68 0 0 1-1.216-.789 22.503 22.503 0 0 1-1.158-.872 22.47 22.47 0 0 1-.557-.465 22.414 22.414 0 0 1-1.062-.987 20.364 20.364 0 0 1-1.449-1.603 20.145 20.145 0 0 1-1.277-1.744 20.149 20.149 0 0 1-.749-1.231 22.783 22.783 0 0 1-.96-1.937 21.643 21.643 0 0 1-.527-1.341 20.243 20.243 0 0 1-.433-1.374 21.02 21.02 0 0 1-.181-.698c-1.006-4.085-.962-8.41-.97-12.592L.04 62.49.005 34.44l17.768-.014c2.722.044 5.449.011 8.171.01 1.902-.001 3.822.053 5.721-.009 3.051.048 6.158.007 9.261.007l17.658.001 11.306-.001c1.963.001 3.954.077 5.912-.008.944.015 1.927.015 2.91 0 2.786.055 5.622.011 8.451.009 2.246-.001 4.506.055 6.75-.01 1.479.015 3.017.04 4.546.003l1.482.013h.057ZM48.787 40.96l.014 3.712 16.534-.01 5.175-.001c.992 0 2.024-.058 3.01.047-1.337 2.451-2.554 4.982-3.818 7.472l-7.017 13.801-6.323 12.445c-1.15 2.259-2.397 4.511-3.452 6.815 1.404-.151 2.908-.045 4.324-.039.132-.018.139.009.228-.103.203-.261.3-.627.455-.92.599-1.133 1.164-2.28 1.735-3.429L64.7 70.712l8.832-17.589 2.653-5.276c.468-.932 1.034-1.892 1.387-2.871.254-.703.073-3.11.094-4.017l-19.197-.002c-3.221 0-6.464-.076-9.682.003Zm-14.236.002-7.642 5.248c-1.417.973-2.82 1.984-4.268 2.91 0 1.39-.029 2.787.003 4.176a306.356 306.356 0 0 0 6.587-4.366c1.546-1.058 3.089-2.19 4.696-3.151.202-.121.406-.226.64-.262.086.073.064.078.074.19.07.812.004 1.672.004 2.491l-.001 5.078.002 16.357-.002 15.575c1.352-.01 2.717-.046 4.068.006l.001-44.255c-1.384-.001-2.779-.038-4.162.003ZM.042 28.19c.017-.806.036-1.611.052-2.414.152-7.413.974-13.666 6.436-19.155C13.269-.15 21.503.071 30.398.057c1.37-.002 2.758-.048 4.126.001l.206-.052c.748.161 2 .039 2.806.034C39.72.016 41.905.007 44.089.012a39.967 39.967 0 0 1 1.989.001c8.808-.106 17.624.04 26.432.049 1.122.012 2.253.001 3.372.07 5.071-.052 10.226 1.046 14.486 3.87l.105.085c.454.295.93.622 1.334.983 1.03.799 2.062 1.774 2.87 2.8l.399.479c.256.332.51.663.75 1.007l.001.031c.572.706 1.039 1.562 1.456 2.369 2.601 5.032 2.746 10.828 2.727 16.435l-1.516-.013s-3.17-.017-4.693-.002c-2.209.023-4.432.008-6.642.009-2.822.002-5.652-.002-8.474-.009-1.006-.002-2.011-.014-3.016.001-1.915.029-3.859.008-5.777.007l-11.308.001-17.658-.001c-3.121 0-6.246-.034-9.366-.006-1.867.016-3.751.007-5.618.008-2.698.001-5.4.034-8.097-.009l-.053-.001-17.75.014ZM58.435 9.145l-.001 14.404c1.025 0 9.098.08 9.334-.051l.028-.067c-.001-.793-.022-1.593.018-2.384-.899.166-1.939.07-2.857.069-1.142-.002-2.298.032-3.438-.018l.008-11.936c-.896.154-2.203.154-3.092-.017Zm-19.861 3.097c.027 1.411-.001 2.824.004 4.236.003.927.078 1.904-.027 2.825-.041.357-.131.709-.316 1.02a1.698 1.698 0 0 1-1.489.86 2.04 2.04 0 0 1-.382-.038 1.757 1.757 0 0 1-.365-.116 1.83 1.83 0 0 1-.334-.187c-.576-.402-.731-.933-.842-1.586-.953.106-2.034.074-2.99-.014.031 1.205.386 2.371 1.253 3.241.965.968 2.306 1.314 3.64 1.316 1.343.002 2.719-.338 3.688-1.32.552-.56.907-1.262 1.082-2.025.332-1.452.174-3.128.175-4.614l.008-6.645c-.619.044-1.243.028-1.864.026-.413.002-.819 0-1.231-.038-.002 1.014.041 2.048-.01 3.059Zm5.42-3.068v5.186c0 .9.05 1.831-.012 2.729.005 1.865.01 3.55 1.39 4.978 1.193 1.234 2.885 1.709 4.563 1.73 1.704.02 3.483-.401 4.723-1.639.075-.074.147-.15.217-.228a5.18 5.18 0 0 0 .385-.499 4.623 4.623 0 0 0 .55-1.129c.033-.099.063-.2.089-.302.386-1.499.22-3.238.22-4.781l-.003-6.037c-.998.1-2.139.104-3.131-.037.123.986.098 2.907.033 3.946.003.95.123 4.403-.03 5.078l-.006.139c.001.657-.162 1.277-.57 1.803a3.023 3.023 0 0 1-1.981 1.122c-.828.095-1.678-.132-2.321-.67-.46-.386-.734-.88-.879-1.457-.22-.882-.152-1.85-.152-2.753l.004-4.73c.002-.784.064-1.616-.014-2.394l-.098-.06c-.924.148-2.046.096-2.977.005Z"/>
  </g>
</svg>
