<svg xmlns="http://www.w3.org/2000/svg" xml:space="preserve" style="fill-rule:evenodd;clip-rule:evenodd;stroke-linejoin:round;stroke-miterlimit:2" viewBox="0 0 100 100">
  <path d="M.015 62.884V30.127c-.005-2.088.001-4.175.02-6.263.119-7.278.38-13.107 5.999-18.486 1.712-1.638 4.041-3.195 6.281-3.956C17.166-.225 23.818.05 28.957.047c3.032-.002 6.07-.047 9.101.009C46.729-.06 55.418.04 64.09.039l9.675.002c4.191.009 8.494-.082 12.59.945 2.754.69 5.623 2.431 7.652 4.412 5.276 5.151 5.869 10.302 5.941 17.321.028 3.983.035 7.966.02 11.95-.001 2.072.097 4.403-.019 6.442.122 1.922.011 3.907.013 5.837l.002 12.205.002 12.328c-.002 4.723.058 9.457-.801 14.121-.284 1.098-.581 2.187-1.043 3.227-1.528 3.439-4.411 6.542-7.649 8.441-2.413 1.415-5.023 2.101-7.789 2.372-5.428.482-10.913.338-16.358.338H43.147l-15.407-.003c-2.121.011-4.242-.018-6.362-.086-1.071-.034-2.204-.032-3.263-.196-1.807-.094-3.721-.411-5.438-.986-4.634-1.551-8.461-5.18-10.62-9.516-.469-.91-.772-1.895-1.076-2.869-1.02-4.478-.961-9.128-.964-13.699l-.002-9.741ZM50 93.273a43.527 43.527 0 0 0 21.637-5.796 43.54 43.54 0 0 0 15.84-15.84A43.528 43.528 0 0 0 93.274 50a43.554 43.554 0 0 0-2.809-15.32H64.121a20.735 20.735 0 0 1 3.921 4.903c4.158 7.203 3.512 15.871-.945 22.279l-18.131 31.4c.344.008.689.012 1.034.011Zm-37.476-64.91A43.518 43.518 0 0 0 6.726 50a43.518 43.518 0 0 0 5.798 21.637 43.054 43.054 0 0 0 15.839 15.839 43.544 43.544 0 0 0 14.672 5.228l13.214-22.888a20.652 20.652 0 0 1-6.249.945 20.678 20.678 0 0 1-10.434-2.785 20.68 20.68 0 0 1-8.404-9.131L13.051 27.473a41.61 41.61 0 0 0-.527.89ZM50 34.714c-8.463 0-15.335 6.871-15.335 15.335 0 8.463 6.872 15.334 15.335 15.334 8.463 0 15.335-6.871 15.335-15.334 0-8.464-6.872-15.335-15.335-15.335Zm37.477-6.351a43.54 43.54 0 0 0-15.84-15.84A43.528 43.528 0 0 0 50 6.726a43.528 43.528 0 0 0-21.637 5.797 43.55 43.55 0 0 0-11.862 10.094L29.672 45.43a20.75 20.75 0 0 1 2.286-5.847C35.809 32.913 42.809 29.185 50 29.191c.588-.001 1.175.024 1.759.073h36.224a44.152 44.152 0 0 0-.506-.901Z" style="fill:#080605"/>
</svg>
