<svg xmlns="http://www.w3.org/2000/svg" xml:space="preserve" style="fill-rule:evenodd;clip-rule:evenodd;stroke-linejoin:round;stroke-miterlimit:2" viewBox="0 0 100 100">
  <g id="レイヤー1">
    <path d="M25.773.026c.537-.011 1.074-.02 1.611-.025l32.042-.008 10.535.001c4.407.004 8.985-.109 13.299.916a21.16 21.16 0 0 1 2.767.84c.225.086.449.175.672.268a22.916 22.916 0 0 1 1.314.606 19.478 19.478 0 0 1 1.269.694 21.733 21.733 0 0 1 2.381 1.641 20.64 20.64 0 0 1 1.626 1.436c6.129 6.035 6.635 13.051 6.704 21.214l-.004 31.307-.002 10.826c-.004 4.428.114 9.045-.89 13.384a21.805 21.805 0 0 1-.369 1.421 22.676 22.676 0 0 1-.468 1.391 21.048 21.048 0 0 1-3.713 6.291 21.185 21.185 0 0 1-.992 1.082c-5.386 5.468-11.861 6.568-19.25 6.631l-.461.011c-3.809.082-7.627.032-11.438.032H30.701c-4.531-.002-9.226.131-13.672-.856a20.738 20.738 0 0 1-2.103-.568 19.855 19.855 0 0 1-1.366-.497 23.062 23.062 0 0 1-1.327-.591 21.864 21.864 0 0 1-1.284-.68 21.857 21.857 0 0 1-1.234-.767 20.441 20.441 0 0 1-1.178-.85 20.888 20.888 0 0 1-1.651-1.422C1.167 88.253.2 81.86.049 74.258a762.197 762.197 0 0 1-.038-12.097l-.006-20.24-.001-11.379c-.002-4.446-.135-9.075.83-13.437a20.816 20.816 0 0 1 1.061-3.484 20.81 20.81 0 0 1 1.643-3.251 21.986 21.986 0 0 1 .809-1.213 20.636 20.636 0 0 1 1.366-1.708c.162-.181.326-.36.494-.537C11.787 1.12 18.06.177 25.773.026Zm66.533 40.678-.204-.843c.003-.035.008-.069.007-.104-.011-.648-.726-2.69-.962-3.402-2.361-7.125-6.149-12.752-11.477-17.992-1.599-1.383-3.147-2.739-4.884-3.953a39.7 39.7 0 0 0-.765-.523 39.649 39.649 0 0 0-1.562-.997 39.76 39.76 0 0 0-1.604-.929 39.83 39.83 0 0 0-1.641-.859 42.76 42.76 0 0 0-6.004-2.44 47.564 47.564 0 0 0-1.776-.529 39.4 39.4 0 0 0-.897-.236 39.279 39.279 0 0 0-1.806-.414 40.5 40.5 0 0 0-1.822-.337 40.553 40.553 0 0 0-1.835-.258 40.57 40.57 0 0 0-1.845-.18 47.325 47.325 0 0 0-1.85-.1c-.309-.01-.618-.017-.927-.021a47.639 47.639 0 0 0-1.853.019 40.994 40.994 0 0 0-1.851.098 42.047 42.047 0 0 0-4.223.511 45.909 45.909 0 0 0-2.088.412c-.346.077-.692.158-1.036.243a45.753 45.753 0 0 0-3.067.884 39.72 39.72 0 0 0-2.004.713 42.39 42.39 0 0 0-1.968.811 42.194 42.194 0 0 0-3.803 1.908 42.254 42.254 0 0 0-3.597 2.271c-.291.204-.578.412-.863.623a41.023 41.023 0 0 0-1.679 1.307 44.643 44.643 0 0 0-1.613 1.388 48.488 48.488 0 0 0-1.543 1.466 40.985 40.985 0 0 0-1.468 1.54 46.787 46.787 0 0 0-1.493 1.731 43.61 43.61 0 0 0-6.318 10.41 44.638 44.638 0 0 0-1.299 3.426c-.129.386-.252.775-.369 1.165-.117.39-.229.781-.336 1.174-.194.719-.693 2.384-.699 3.068 0 .031.009.061.013.092a43.488 43.488 0 0 0-.641 4.828 43.767 43.767 0 0 0-.021 6.49c.038.54.084 1.079.144 1.618.103.945.248 1.884.418 2.82.084.46.252 1.011.257 1.474.325 1.147.568 2.314.912 3.458a43.498 43.498 0 0 0 2.795 6.99c.377.748.776 1.484 1.196 2.209.507.875 1.046 1.883 1.701 2.654.957 1.557 2.2 3.034 3.412 4.399a40.39 40.39 0 0 0 1.699 1.809 40.335 40.335 0 0 0 1.189 1.151 40.388 40.388 0 0 0 1.232 1.105 45.717 45.717 0 0 0 1.925 1.567 45.706 45.706 0 0 0 2.7 1.913 45.815 45.815 0 0 0 2.838 1.701 46.297 46.297 0 0 0 1.466.769 51.083 51.083 0 0 0 1.494.712 39.445 39.445 0 0 0 1.52.654 42.401 42.401 0 0 0 4.694 1.61 42.673 42.673 0 0 0 2.643.651 44.977 44.977 0 0 0 2.097.392 41.324 41.324 0 0 0 2.115.289 41.48 41.48 0 0 0 2.126.185c.355.022.71.04 1.066.054a42.247 42.247 0 0 0 3.2.002 42.012 42.012 0 0 0 2.131-.13 42.48 42.48 0 0 0 4.228-.572 41.196 41.196 0 0 0 3.123-.7 41.253 41.253 0 0 0 2.05-.593 46.227 46.227 0 0 0 2.018-.694 42.662 42.662 0 0 0 2.958-1.225 44.597 44.597 0 0 0 2.859-1.438 44.335 44.335 0 0 0 1.844-1.075 43.785 43.785 0 0 0 5.372-3.918c.423-.36.838-.727 1.246-1.103a43.556 43.556 0 0 0 3.474-3.581 43.92 43.92 0 0 0 1.65-2.052c.29-.383.819-1.268 1.149-1.534.577-1.008 1.287-1.927 1.844-2.954.309-.268.633-1.047.831-1.427 1.668-3.199 2.858-6.462 3.813-9.934.043-.49.216-1.024.319-1.509.216-1.017.401-2.039.539-3.069.685-5.129.365-10.076-.614-15.139Z"/>
    <path d="m83.047 52.076-.016-.13c.263-.184 1.048-.123 1.378-.066l.031.117c.059.195.145.359.273.518.296.368.751.577 1.217.613.473.037.953-.085 1.31-.407.372-.335.423-.655.451-1.133a1.575 1.575 0 0 0-.265-.581c-.346-.439-.881-.477-1.395-.538-.32.052-.692.016-1.019.012l.02-1.074c.647.015 1.573.068 2.067-.425.33-.329.348-.663.35-1.099-.107-.364-.281-.623-.624-.802-.387-.201-.899-.186-1.301-.039-.331.122-.676.369-.829.695a2.28 2.28 0 0 0-.141.457c-.416.005-.851.035-1.263-.027-.093-.091-.069-.037-.08-.159.056-.361.179-.675.353-.994.146-.271.364-.503.611-.685.727-.535 1.727-.652 2.603-.515.776.121 1.395.457 1.859 1.093.231.567.37 1.145.135 1.743-.192.49-.633.85-1.113 1.045a5.829 5.829 0 0 1-.39.14c.668.221 1.387.471 1.748 1.132.156.289.247.781.152 1.095-.082.642-.339 1.161-.853 1.568-.757.6-1.851.772-2.791.64-.763-.107-1.527-.439-2.007-1.063a2.304 2.304 0 0 1-.308-.544c-.094-.192-.126-.378-.163-.587ZM32.999 18.373c-.003-.351.011-.701.02-1.052a99.388 99.388 0 0 1 2.133-1.497c.475.01.972-.106 1.421.077.117.178.084.279.078.488l.008.214c-.043 1.535-.017 3.075-.018 4.61 0 .916-.064 1.882.013 2.792a5.324 5.324 0 0 1-1.28.031c-.149-.018-.138-.019-.231-.137l-.025-.18c.06-.882.02-1.792.02-2.678-.001-1.262.02-2.529-.024-3.79-.716.47-1.394 1.003-2.115 1.462v-.34ZM16.697 37.007c-.085-2.205.009-4.432-.023-6.64-.736.439-1.437.993-2.14 1.487l.034-1.43c.706-.506 1.417-1.004 2.133-1.494.466.007.938-.078 1.392.048.148.147.112.212.117.415-.036 1.59-.011 3.185-.01 4.775 0 .976-.051 1.982.012 2.955l-.06-.005c-.398.043-.831.069-1.229.022-.146-.017-.135-.019-.226-.133Zm12.865-13.109c-.082-2.211.045-4.432-.03-6.645-.721.477-1.423.992-2.131 1.488.007-.475.018-.949.034-1.424a73.023 73.023 0 0 1 2.134-1.499c.362 0 1.163-.131 1.451.072.073.053.051.183.058.266-.044 1.623-.013 3.251-.012 4.875 0 .983-.055 2.001.011 2.98l-.06-.001c-.398.042-.831.069-1.23.022-.145-.017-.134-.019-.225-.134Zm16.749-5.34c-.078-2.211.049-4.431-.031-6.644l-2.128 1.48c.004-.473.016-.946.035-1.419.703-.509 1.412-1.009 2.127-1.5.351-.01 1.203-.122 1.495.086l.003.16.003 5.323c.001.864-.054 1.771.01 2.631l-.059-.004c-.399.042-.831.068-1.23.021-.145-.017-.134-.019-.225-.134Zm-25.723 16.87a2.587 2.587 0 0 1-.191-.476c-.487-1.551-.295-3.43.463-4.858.137-.266.363-.523.59-.718.59-.505 1.394-.698 2.158-.62.85.088 1.477.495 1.994 1.153.823 1.357 1.052 3.085.677 4.626-.008.033-.015.067-.029.098-.234.94-.627 1.787-1.492 2.314a2.926 2.926 0 0 1-2.256.305c-.773-.209-1.355-.739-1.736-1.43a2.968 2.968 0 0 1-.178-.394Zm1.235-4.001c-.195 1.252-.365 3.055.415 4.16.211.299.52.532.892.577.337.042.661-.072.922-.285.64-.521.788-1.431.848-2.208.057-.739-.022-1.479-.134-2.209-.044-.141-.086-.285-.142-.422-.178-.437-.468-.853-.925-1.025a1.146 1.146 0 0 0-.895.041c-.573.268-.788.815-.981 1.371Zm27.88-18.696c0-.44.165-.818.366-1.199.157-.31.426-.558.711-.749.709-.474 1.674-.6 2.503-.442.71.136 1.316.475 1.721 1.081.329.637.461 1.26.236 1.963-.482 1.503-2.482 2.994-3.592 4.125 1.234.064 2.599.18 3.826.025.01.314-.004.651.058.958-.034.085-.028.146-.122.178-.335.111-5.036.093-5.555.009-.101-.102-.072-.041-.09-.181-.018-.261-.006-.526-.004-.787 1.108-1.122 2.254-2.224 3.315-3.39.549-.603.809-1.036.772-1.88-.158-.392-.364-.695-.762-.874-.354-.159-.772-.138-1.124.015a1.506 1.506 0 0 0-.812.86c-.052.155-.064.318-.078.48-.301.004-1.156.09-1.355-.096l-.014-.096Zm-27.99 51.708c.25.438.402.909.266 1.412-.137.505-.533.945-.987 1.195-.163.09-.34.163-.511.238.674.259 1.357.6 1.676 1.297.13.284.221.731.124 1.033-.094.636-.36 1.118-.882 1.506-.843.625-2.064.775-3.078.607-.775-.128-1.569-.471-2.038-1.125a1.956 1.956 0 0 1-.194-.327c-.034-.053-.042-.061-.07-.128a1.91 1.91 0 0 1 .002-1.498c.329-.735.972-1.096 1.696-1.351a8.163 8.163 0 0 1-.391-.183c-.5-.258-.946-.67-1.105-1.226-.14-.489.002-.959.227-1.395.193-.357.488-.624.839-.822.848-.477 1.998-.541 2.927-.284.606.169 1.18.493 1.499 1.051Zm-4.314 4.697c.042.41.112.73.41 1.035.359.368.844.546 1.356.537.456-.008.91-.182 1.22-.523.344-.377.375-.714.363-1.202-.202-.471-.471-.762-.96-.945a1.849 1.849 0 0 0-.381-.098 1.84 1.84 0 0 0-.392-.021 1.588 1.588 0 0 0-.195.018 1.777 1.777 0 0 0-.382.093 2.031 2.031 0 0 0-.182.073c-.406.194-.699.501-.829.935l-.028.098Zm.234-3.714c.044.589.112.733.47 1.038a1.46 1.46 0 0 0 .274.19 1.496 1.496 0 0 0 .308.13 1.844 1.844 0 0 0 .328.063c.056.005.111.006.167.005a1.42 1.42 0 0 0 1.163-.641c.186-.271.248-.577.234-.812-.03-.491-.442-.761-.917-.936a1.686 1.686 0 0 0-1.264.045c-.419.195-.677.411-.763.918Zm-7.061-15.603c-.282-.377-.254-1.06-.26-1.512.07-.416.179-.776.376-1.148.161-.357.494-.678.814-.895.737-.497 1.711-.642 2.575-.458.725.154 1.376.553 1.784 1.178.792 1.275.989 2.97.644 4.423-.008.035-.016.071-.03.105-.246.999-.656 1.874-1.588 2.419-.754.442-1.727.533-2.56.283a2.743 2.743 0 0 1-1.631-1.306 2.115 2.115 0 0 1-.172-.421c-.055-.173-.069-.206-.03-.382l.087.048c.45.271.842.196 1.35.166.261.422.702.847 1.205.951.341.071.658-.033.937-.231.655-.465.941-1.198 1.071-1.96.092-.307.083-.686.056-1.003-.509.659-1.052 1.132-1.914 1.236-.86.104-1.585-.224-2.239-.751a4.086 4.086 0 0 1-.475-.742Zm1.187-1.497.008.163.002.086c.015.494.178.939.558 1.272a1.483 1.483 0 0 0 .257.182 1.533 1.533 0 0 0 .441.171 1.616 1.616 0 0 0 .471.033 1.389 1.389 0 0 0 .314-.053 1.472 1.472 0 0 0 .564-.289 1.5 1.5 0 0 0 .226-.225c.358-.442.393-.928.343-1.471-.169-.482-.401-.865-.872-1.101a1.866 1.866 0 0 0-.296-.112 1.727 1.727 0 0 0-.473-.05 1.407 1.407 0 0 0-.313.046 1.573 1.573 0 0 0-.463.199 1.805 1.805 0 0 0-.273.214 1.788 1.788 0 0 0-.222.266 1.74 1.74 0 0 0-.162.307c-.046.117-.078.24-.11.362Zm53.374 34.502c-.1-.209-.137-.459-.19-.684.451.018.908.047 1.357-.019.107.25.216.493.4.697.318.352.747.593 1.229.594a1.593 1.593 0 0 0 .463-.075 1.532 1.532 0 0 0 .539-.312c.039-.035.076-.072.111-.111.455-.494.47-1.041.428-1.669-.113-.325-.282-.61-.556-.824a1.647 1.647 0 0 0-1.286-.307c-.576.099-.924.397-1.255.858-.367.006-1.27.004-1.27.004.065-1.518.398-4.696.398-4.696l4.917-.059.001 1.265-3.735-.002s-.011 1.679-.011 1.92c.137-.025.121-.009.232-.11.372-.338.925-.434 1.408-.4.353.025.653.119.981.255.018.013.122.061.141.074.709.502 1.348 1.01 1.492 1.939.052.334.047.868-.077 1.184-.182.758-.541 1.342-1.221 1.757-.768.469-1.766.58-2.634.356-.684-.177-1.342-.603-1.686-1.234a2.27 2.27 0 0 1-.176-.401Zm-35.67-5.337s.086-.831.087-1.153c1.864.105 3.86.131 5.72-.003.014.343.043.69.011 1.032-.217.821-.778 1.691-1.163 2.457l-2.348 4.67c-.369.004-1.59.008-1.59.008s1.236-2.354 1.783-3.414c.593-1.149 1.253-2.303 1.758-3.493l-.004-.022c-.172-.174-4.254-.082-4.254-.082Zm47.969-7.445.008-1.177c.962-1.874 2.198-3.683 3.349-5.448.653.005 2.12-.017 2.12-.017l.033 5.53 1.04-.011.004 1.132-1.078.024.018 1.518c-1.486.005-.905.003-1.498-.001.002-.717.004-1.018-.003-1.525-.433.002-3.993-.025-3.993-.025Zm4.016-5.555-2.692 4.491 2.705.005-.013-4.496ZM49.386 52.436c-.403-.079-.821-.351-1.102-.645-.671-.706-.693-1.569-.659-2.48-.7-.607-1.49-1.124-2.253-1.647-.637-.034-1.281.108-1.855-.245-.809-.498-1.569-1.115-2.337-1.675l-4.278-3.127-3.515-2.574c-.66-.486-1.392-.963-1.982-1.533-.215-.207-.33-.481-.39-.771-.12-.582.09-1.037.394-1.513.382-.302.872-.6 1.378-.546.333.035.582.164.86.341.839.532 1.634 1.167 2.437 1.753l4.494 3.281c.866.633 4.665 3.247 5.157 3.867.29.366.397.838.35 1.298.842.614 1.705 1.21 2.529 1.847.252-.139.497-.283.77-.378.018-.968.005-1.938.007-2.906.007-.202-.028-.298.113-.448.337-.131.744-.032 1.102-.038.012 1.119.018 2.238.016 3.357.319.108.593.243.886.406.815-.606 1.668-1.178 2.461-1.81a5.34 5.34 0 0 1 .129-.755c.094-.344.301-.641.576-.865 1.683-1.371 3.638-2.664 5.402-3.948l10.717-7.792 6.066-4.41c.932-.678 1.974-1.578 2.979-2.114.373-.199.86-.23 1.263-.1.439.142.791.485.982.9.251.544.188.994 0 1.536.552.243 1.051.549 1.414 1.045 1.862 2.541-3.001 5.088-3.157 6.024.469.252 3.002.171 3.652.092.004.327.019.642.055.967-.511-.107-5.496-.161-5.76.008-.024-.284-.004-.577.001-.862.532-.271 3.83-3.767 4.02-4.328.13-.382.122-.84-.083-1.193-.147-.252-.36-.406-.602-.557-1.337.373-1.305.863-2.256 1.467-.452.287-1.034.335-1.483.621-.896.569-1.749 1.26-2.608 1.886l-4.72 3.436-7.165 5.198c-2.161 1.575-4.302 3.194-6.494 4.724-1.148.802-1.152.199-1.969.419-.719.193-1.874 1.194-2.491 1.683.144.768.08 1.484-.364 2.152-.313.472-.819.849-1.374.979-.027.006-.054.009-.082.014l-.006 18.648c0 3.279-.097 6.587.011 9.862.245.065.486.134.726.215.851.44 1.255.939 1.592 1.82-.113.129-.18.113-.345.12l-.116.003-.973-.006c-.228-.436-.424-.694-.885-.888a33.011 33.011 0 0 0-.001 1.752c.556.03 1.055.163 1.454.489.465.382.989 1.271.967 2.193-.005.237-.038.661-.101.889-.122.437-.518.987-1.047 1.362a3.489 3.489 0 0 1-1.274.546c-.017.393-.007.792-.009 1.186l-1.215-.003-.007-1.178a6.099 6.099 0 0 1-.193-.054c-.925-.267-1.516-.8-1.97-1.633a4.41 4.41 0 0 1-.396-1.054c-.164-.663-.173-2.172.089-3.186.247-.953.716-1.725 1.587-2.233.275-.143.587-.239.878-.348l.003-28.543ZM50 49.28a.725.725 0 1 0 0 1.45.725.725 0 0 0 0-1.45Zm.617 35.904c-.003 1.02-.026 2.045.001 3.065.312-.199.566-.374.757-.704a1.772 1.772 0 0 0 .187-.47 1.88 1.88 0 0 0 .041-.336 1.613 1.613 0 0 0-.067-.501c-.153-.519-.461-.799-.919-1.054Zm-1.22-.012c-.526.271-.958.681-1.024 1.224-.076.617.084 1.088.539 1.547l.039.036c.142.096.283.203.435.281.041-1.024.009-2.062.011-3.088Zm-.006-2.91c-.554.314-.82.687-1.036 1.281-.166.6-.229 1.212-.303 1.828.296-.4.618-.857.874-1.01.159-.096.455-.189.455-.189.038-.633.011-1.276.01-1.91Zm16.742-63.89a33.3 33.3 0 0 1 .019-1.048c.707-.531 1.443-1.029 2.172-1.53.472.088.958.014 1.435.054.066 2.712-.104 5.451.028 8.156-.407.055-.87.079-1.279.032-.148-.017-.138-.018-.231-.134l-.024-.166c.053-.921.018-1.862.018-2.785 0-1.231.022-2.469-.025-3.699-.713.471-1.392 1.001-2.112 1.459l-.001-.339Z"/>
  </g>
</svg>
