<svg
    xmlns="http://www.w3.org/2000/svg"
    xml:space="preserve"
    style="fill-rule:evenodd;clip-rule:evenodd;stroke-linejoin:round;stroke-miterlimit:2"
    viewBox="0 0 100 100"
>
<path
        d="M20,0C8.954,0 0,8.954 0,20L0,80C0,91.046 8.954,100 20,100L80,100C91.046,100 100,91.046 100,80L100,20C100,8.954 91.046,0 80,0L20,0Z"
        fill="#000000"
    />
   <g transform="translate(50,50) translate(-50,-40)">
        <path
            d="M 33.08 67.69 L 26.92 67.69 L 16.15 50.77 L 16.15 23.08 L 30.00 6.15 L 42.31 3.08 L 45.38 0.00 L 57.69 0.00 L 57.69 3.08 L 42.31 6.15 L 28.46 20.00 L 25.38 26.15 L 25.38 41.54 L 31.54 53.85 L 37.69 60.00 L 37.69 63.08 L 33.08 67.69 Z M 45.38 55.38 L 31.54 38.46 L 31.54 26.15 L 39.23 12.31 L 51.54 6.15 L 63.85 6.15 L 66.92 3.08 L 66.92 9.23 L 57.69 9.23 L 43.85 20.00 L 43.85 35.38 L 53.08 47.69 L 45.38 55.38 Z M 57.69 43.08 L 50.00 32.31 L 50.00 20.00 L 57.69 12.31 L 70.00 12.31 L 70.00 15.38 L 63.85 15.38 L 59.23 20.00 L 59.23 29.23 L 65.38 35.38 L 57.69 43.08 Z M 79.23 21.54 L 74.62 16.92 L 79.23 12.31 L 83.85 16.92 L 79.23 21.54 Z"
            fill="#000000"
        />
    </g>
</svg>
