<svg xmlns="http://www.w3.org/2000/svg" xml:space="preserve" style="fill-rule:evenodd;clip-rule:evenodd;stroke-linejoin:round;stroke-miterlimit:2" viewBox="0 0 100 100">
  <g id="レイヤー4">
    <path d="m37.433.032 2.995-.014 24.188.026 7.439.018c3.948.012 8.019.032 11.863 1.043.223.058.446.119.667.185a19.41 19.41 0 0 1 1.314.433 20.976 20.976 0 0 1 3.732 1.807 20.631 20.631 0 0 1 1.156.762 22.149 22.149 0 0 1 1.102.837c.18.145.356.294.53.445a18.833 18.833 0 0 1 1.015.942c6.012 5.969 6.53 13.107 6.559 21.141l.006 32.213-.001 10.378c-.001 4.315.093 8.783-.893 13.01a21.359 21.359 0 0 1-1.423 4.183 20.325 20.325 0 0 1-1.032 1.957 19.92 19.92 0 0 1-.8 1.24 23.284 23.284 0 0 1-.885 1.181 19.692 19.692 0 0 1-.966 1.115c-.167.181-.337.358-.511.532-5.78 5.805-12.429 6.388-20.214 6.504-3.558.053-7.12.02-10.678.019l-25.444.001-8.286-.002c-4.078-.007-8.324.023-12.307-.957a22.52 22.52 0 0 1-1.353-.373 19.996 19.996 0 0 1-1.326-.462 21.542 21.542 0 0 1-1.923-.856 21.607 21.607 0 0 1-2.413-1.432 20.433 20.433 0 0 1-1.672-1.278 19.381 19.381 0 0 1-1.041-.942C.846 87.829.159 81.03.083 73.061L.013 40.99c-.028-4.076-.011-8.151.051-12.227.047-4.05-.001-8.185.945-12.148a20.178 20.178 0 0 1 .375-1.384 22.625 22.625 0 0 1 .469-1.356 22.514 22.514 0 0 1 .874-1.965 22.613 22.613 0 0 1 .693-1.256 19.23 19.23 0 0 1 .777-1.205 19.942 19.942 0 0 1 1.314-1.702 20.303 20.303 0 0 1 .971-1.056C12.498.579 19.713.089 27.839.063l9.594-.031Zm-7.783 6.89c-2.276.004-3.727.007-3.941.012-4.791.091-9.495.408-13.393 3.569-3.479 2.823-5.038 6.7-5.47 11.056-.048.479-.098 3.827-.145 8.43a17.44 17.44 0 0 0 1.246.387 18.073 18.073 0 0 0 2.922.538 18.333 18.333 0 0 0 1.484.086 18.454 18.454 0 0 0 2.227-.101 18.143 18.143 0 0 0 2.918-.562 19.396 19.396 0 0 0 1.134-.359 16.204 16.204 0 0 0 .834-.318 16.393 16.393 0 0 0 1.616-.756 18.513 18.513 0 0 0 1.903-1.164 15.816 15.816 0 0 0 .718-.53c.118-.091.234-.184.349-.278a15.735 15.735 0 0 0 .678-.581c.11-.1.22-.201.328-.303a18.815 18.815 0 0 0 1.8-1.979 15.813 15.813 0 0 0 .533-.716c.085-.122.17-.244.253-.368a18.396 18.396 0 0 0 .703-1.139 16.29 16.29 0 0 0 .421-.787c2.265-4.488 2.441-9.411.882-14.137Zm63.767 26.4a.106.106 0 0 0-.009.011h.009v-.011Zm.053 27.058a25.689 25.689 0 0 0-8.574-1.464c-14.212 0-25.75 11.539-25.75 25.75 0 3.155.59 6.321 1.629 9.115 0 0 11.506-.007 12.511-.015 5.734-.069 11.208-.251 15.558-4.586a14.479 14.479 0 0 0 2.968-4.302 14.628 14.628 0 0 0 .617-1.638c1.23-3.954 1.037-9.003 1.04-13.126l.001-9.734Zm-.053-27.058c-.009-.73.041-1.458.005-2.186.053-.142.079-.603.086-1.248.022-2.185-.172-6.476-.211-7.552-.113-.762-.157-1.534-.275-2.297-.318-2.056-.943-3.891-1.933-5.609a15.163 15.163 0 0 0-.824-1.284 17.705 17.705 0 0 0-.434-.587l-.005.011a14.06 14.06 0 0 0-2.105-2.106c-3.897-3.162-8.601-3.478-13.392-3.57-.57-.011-9.895-.009-20.231-.001 1.327.503 3.492.627 4.114 2.066.532 1.229.554 6.702.033 7.986-.232.571-.835 1.009-1.39 1.232-.673.269-1.411.44-2.108.642l-3.886 1.13c-.604.175-1.27.31-1.845.559-.153.067-.371.173-.456.327-.271.496-.399 1.457-.558 2.029a35.098 35.098 0 0 1-1.007 3.104 37.87 37.87 0 0 1-2.18 4.685c-.424.768-.909 1.501-1.313 2.279.902 1.921 2.032 3.786 3.054 5.649.411.75 1.008 1.614 1.222 2.443.113.433.054.87-.098 1.286-.087.24-.202.45-.365.646-.743.896-1.682 1.699-2.512 2.521-.67.664-1.315 1.41-2.021 2.03-.205.18-.43.341-.679.455-.557.258-1.126.239-1.693.028-.634-.236-1.243-.627-1.837-.952l-3.719-2.04c-.732-.402-1.476-.876-2.255-1.175-.799.437-1.565.93-2.365 1.366a36.851 36.851 0 0 1-5.235 2.355c-.826.299-1.663.562-2.511.788-.598.162-1.386.257-1.931.543-.318.167-.435.602-.528.922L18.584 54.8c-.254.87-.442 1.881-.867 2.679a2.554 2.554 0 0 1-1.036 1.059c-.971.512-6.742.46-7.764.108a2.343 2.343 0 0 1-1.388-1.249c-.39-.84-.73-2.22-.986-3.161-.018 5.096-.018 8.728.009 8.781l.009.011c.116 3.515.002 7.048.057 10.566.093 5.904.253 11.552 4.93 15.901 4.781 4.446 10.972 4.234 17.044 4.283.205.001 1.983.003 4.722.004-.156-.333-.328-.749-.606-.985-.447-.382-1.095-.55-1.644-.723-1.451-.456-5.473-1.236-6.442-2.028-.654-.535-.983-1.225-1.055-2.056-.144-1.671-.132-3.333-.048-5.006.036-.703.001-1.395.307-2.05.255-.548.725-1.011 1.25-1.302.664-.366 1.49-.507 2.218-.698 1.259-.331 2.534-.631 3.765-1.059.648-.226 1.543-.505 1.983-1.065.591-.752 1.262-3.752 1.559-4.867.393-1.473 1.383-4.543 1.253-5.971-.147-1.612-4.362-4.626-5.373-6.178a3.048 3.048 0 0 1-.32-.635 3.098 3.098 0 0 1-.158-.692 2.426 2.426 0 0 1 .011-.589 2.603 2.603 0 0 1 .146-.571c.23-.604 2.995-5.406 3.431-5.908a3.133 3.133 0 0 1 .194-.206c.035-.032.069-.064.105-.095a2.393 2.393 0 0 1 .224-.174 2.407 2.407 0 0 1 .24-.15 2.98 2.98 0 0 1 .385-.178c.044-.017.089-.032.134-.047a3.036 3.036 0 0 1 .413-.096 2.23 2.23 0 0 1 .282-.029c.766-.035 1.532.244 2.26.448 1.438.404 4.363 1.337 5.774 1.218a1.54 1.54 0 0 0 .691-.21c1.013-.63 1.934-1.696 2.786-2.539 1.32-1.304 2.676-2.604 3.896-4.003.362-.416.843-.94 1.011-1.474.506-1.611-1.535-6.008-1.629-7.966a3.363 3.363 0 0 1 .001-.285 2.293 2.293 0 0 1 .029-.285c.007-.047.016-.094.026-.14a2.155 2.155 0 0 1 .072-.277 3.606 3.606 0 0 1 .101-.267c.019-.044.039-.087.06-.13l.067-.126c.024-.041.048-.082.074-.123a3.03 3.03 0 0 1 .256-.343c.032-.036.064-.071.097-.105.458-.469 5.308-3.265 6.056-3.568a2.711 2.711 0 0 1 .807-.192c.092-.008.185-.01.277-.008.712.02 1.401.423 2.036.958l1.814 1.862.501.422-.196.433-1.472 3.257c-.26.573-.499 1.169-.791 1.726l-.067.141-.553 1.225c-.402.883-2.62 5.645-2.909 6.57-.288.918-.515 2.376-.188 3.315l.313.637.006.007-6.917 14.183-2.442 5.007c-.483.989-1.044 1.996-1.429 3.025-.261.695-.433 1.447-.63 2.163l-.963 3.494-.003.008-.534 1.908-1.918 6.892c-.084.275-.185.577-.226.872l.01.884c.022.126.055.25.099.369a5.968 5.968 0 0 0-.141 1.167v.026l-.001.257a5.09 5.09 0 0 0 .006.751l.011.092.279.852.578.683.387.251.547.201c.283.071.578.082.866.032l.822-.277.78-.523c.327-.272.664-.631.96-.975l.044-.008a2.08 2.08 0 0 0 1.336-1.11s.307-.383.432-.548c.042-.054.081-.11.116-.168.469-.759 1.886-2.562 2.221-3.054l-.156.25c.911-1.175 5.461-7.429 5.461-7.429-.084.05-.077.026-.033-.024.072-.084.244-.241.252-.25.182-.231.549-.71.807-1.121.411-.652.732-1.373 1.071-2.065l1.477-3.028 3.759-7.706s15.231-31.295 15.344-31.484a3.04 3.04 0 0 0 .055-.097c1.165-2.21 2.207-4.505 3.303-6.752.047-.098.088-.2.119-.305.114-.371 1.317-2.865 1.702-3.538l.266-.001c1.056.002 3.111-.051 4.083.233a2.9 2.9 0 0 1 1.243.776c1.552 1.606 1.621 7.773 3.6 8.807Z"/>
    <path d="m43.938 87.865 1.912-6.868.549-1.962.965-3.501c.181-.657.333-1.348.572-1.986.363-.967.896-1.911 1.351-2.841l2.442-5.009 7.909-16.217c-.128.053-.258.116-.389.158a.674.674 0 0 1-.488.017.59.59 0 0 1-.338-.382c-.199-.571.033-1.45.208-2.009.264-.845.7-1.663 1.067-2.47l1.928-4.247.391-.872c.311-.593.568-1.226.844-1.837l1.472-3.257 4.41-9.735c.346-.747 1.293-2.829 1.377-3.017.4-.896.975-2.429 1.666-3.107.212-.208.502-.355.75-.519l.176-.036c.574-.118 1.159-.162 1.736-.042.144.036.29.068.432.108.334-.716.678-1.427 1.025-2.137.204-.417.387-.873.646-1.258.098-.145.2-.264.353-.351.344-.195.625-.184.996-.077.126-.125.196-.337.273-.498.202-.496 1.11-2.432 1.403-2.796a.512.512 0 0 1 .362-.197c.768-.089 2.429.591 3.096 1.015.509.185 2.052 1.12 2.301 1.609.115.224.022.525-.061.742-.263.691-.701 1.319-.971 2.007-.155.26-.257.549-.415.805l-.052.191c.28.219.498.452.553.817a1.3 1.3 0 0 1-.053.564c-.58 1.146-1.101 2.328-1.703 3.462-.267.364-1.957 3.829-2.102 4.305-1.086 2.227-2.118 4.503-3.273 6.694a7.76 7.76 0 0 0-.399.788l.001.043L61.829 64.77l-3.758 7.706-1.477 3.026c-.306.626-.591 1.281-.962 1.871-.27.43-.911 1.229-.911 1.229s-4.505 6.195-5.46 7.427c-.112.227-1.701 2.195-2.19 2.985-.205.269-.524.604-.652.91-.198.053-.303-.006-.477-.094-.389.512-1.312 1.726-1.946 1.837-.102-.026-.153-.045-.21-.145-.018-.032-.022-.075-.026-.11a3.403 3.403 0 0 1 .004-.553l-.001-.272c.003-.559.185-1.148.323-1.687a.431.431 0 0 1-.31-.211c-.046-.273.083-.564.162-.824Z"/>
  </g>
</svg>
