<svg xmlns="http://www.w3.org/2000/svg" xml:space="preserve" style="fill-rule:evenodd;clip-rule:evenodd;stroke-linejoin:round;stroke-miterlimit:2" viewBox="0 0 100 100">
  <g id="レイヤー1">
    <path d="M23.892 99.954c-.838-.015-1.676-.036-2.514-.063-1.071-.034-2.204-.032-3.263-.196-1.807-.094-3.721-.411-5.438-.986-4.634-1.551-8.461-5.18-10.62-9.516-.469-.91-.772-1.895-1.076-2.869-1.02-4.478-.961-9.128-.964-13.699l-.002-9.741V30.127c-.005-2.088.001-4.175.02-6.263.018-1.115.04-2.197.083-3.247a.047.047 0 0 1 .005.01c1.896 5.1 3.933 10.157 5.902 15.23l2.11 5.435c.353.909.662 1.876 1.088 2.751-.28 1.368-.687 2.731-1.036 4.084l-1.96 7.586L.933 76.224l15.188 15.704 5.125 5.297c.879.909 1.744 1.842 2.646 2.729ZM.135 20.251C.4 14.605 1.376 9.837 6.034 5.378c1.712-1.638 4.041-3.195 6.281-3.956C14.757.593 17.655.251 20.587.115c-.271.624-1.175 4.364-1.261 4.83-.293.862-.48 1.787-.707 2.67l-1.271 4.945c-.203.793-.35 1.669-.643 2.431-3.987 1.347-8.04 2.543-12.055 3.808l-3.308 1.057c-.3.095-.62.137-.914.247a1.103 1.103 0 0 0-.293.148ZM20.776.107c2.831-.123 5.684-.059 8.181-.06 3.032-.002 6.07-.047 9.101.009C46.729-.06 55.418.04 64.09.039h.058c-3.369 1.027-6.719 2.123-10.079 3.181l-3.537 1.112c-.659.208-1.35.387-1.988.651-1.32.366-2.627.813-3.934 1.226l-8.052 2.535-.043.003c-1.246-.563-2.657-1.453-3.883-2.126L24.85 2.334C23.499 1.589 22.157.795 20.776.107ZM64.339.039l9.426.002c4.191.009 8.494-.082 12.59.945 2.754.69 5.623 2.431 7.652 4.412 5.276 5.151 5.869 10.302 5.941 17.321l.007 1.04-.708-.473L64.339.039Zm35.626 67.594.001 3.848c-.002 4.723.058 9.457-.801 14.121-.284 1.098-.581 2.187-1.043 3.227-1.528 3.439-4.411 6.542-7.649 8.441-2.413 1.415-5.023 2.101-7.789 2.372-5.428.482-10.913.338-16.358.338H50.504c.247-.831.385-1.711.562-2.56l.966-4.614 1.651-7.818c.276-1.313.581-2.627.825-3.947l-35.541-.009.003-13.078c-.105-2.702-.012-5.438-.011-8.143l-.005-17.112c.023-1.962.006-3.925.006-5.887l-.001-17.847 17.489-.002c1.329.038 2.67.002 4.001.001l7.808-.001 4.29.005c.783.001 1.62.06 2.396-.035l.074.034 21.144-.001c.997-.001 2.002.024 2.998-.007l1.727.006.116.039c.038.11.04.201.042.317-.089 1.315-.019 2.677-.018 3.998l.001 7.416.002 23.395.006 20.839 12.625-4.9c2.093-.813 4.184-1.706 6.305-2.436Zm-47.482-24.58c-1.004 1.198-1.981 2.432-3.018 3.6 1.934 1.553 3.987 2.746 6.417 3.33.678.162 1.417.186 2.077.385 2.26.107 4.451.012 6.48-1.114 1.542-.855 2.664-2.206 3.138-3.911.502-1.805.361-3.89-.57-5.53l-.043-.071c-1.557-2.564-5.153-3.276-7.842-4.012-.976-.267-2.124-.558-2.94-1.174-.671-.506-.914-1.26-.717-2.072.118-.487.422-.88.85-1.138 1.173-.707 2.847-.55 4.108-.206 1.483.405 2.833 1.166 4.087 2.039l2.661-3.871c-2.961-2.28-6.418-3.409-10.167-2.906-2.052.275-4.069 1.203-5.342 2.88-1.18 1.557-1.512 3.533-1.235 5.439.217 1.492.954 2.768 2.171 3.666 1 .739 2.185 1.197 3.361 1.573 1.73.553 4.844 1.071 6.163 2.187.36.305.593.677.656 1.149a2.07 2.07 0 0 1-.44 1.586c-.566.685-1.487.906-2.336.968-2.897.212-5.312-1.046-7.519-2.797ZM26.624 69.316a218.86 218.86 0 0 0-.005 3.886L49.99 73.2c.016-1.293.019-2.587.01-3.88-3.385-.039-6.773-.011-10.157-.011l-13.219.007Zm-.343-42.598.003 23.213 6.083.002c4.635 0 8.213.033 11.871-3.388 2.317-2.396 3.408-5.185 3.344-8.524-.057-2.989-1.195-5.859-3.363-7.944-3.586-3.449-7.461-3.365-12.04-3.363l-5.898.004Zm5.16 4.654c2.951-.005 6.296-.423 8.681 1.687 1.351 1.195 2.066 2.908 2.177 4.69.137 2.217-.425 4.055-1.899 5.716-1.914 1.646-3.558 1.897-6.024 1.902l-2.943-.002c.079-4.659.008-9.333.008-13.993Z" style="fill:#080605"/>
  </g>
</svg>
