<svg xmlns="http://www.w3.org/2000/svg" xml:space="preserve" style="fill-rule:evenodd;clip-rule:evenodd;stroke-linejoin:round;stroke-miterlimit:2" viewBox="0 0 100 100">
  <g id="レイヤー1">
    <path d="M.015 62.884V30.127c-.005-2.088.001-4.175.02-6.263.119-7.278.38-13.107 5.999-18.486 1.712-1.638 4.041-3.195 6.281-3.956C17.166-.225 23.818.05 28.957.047c3.032-.002 6.07-.047 9.101.009C46.729-.06 55.418.04 64.09.039l9.675.002c4.191.009 8.494-.082 12.59.945 2.754.69 5.623 2.431 7.652 4.412 5.276 5.151 5.869 10.302 5.941 17.321.028 3.983.035 7.966.02 11.95-.001 2.072.097 4.403-.019 6.442.122 1.922.011 3.907.013 5.837l.002 12.205.002 12.328c-.002 4.723.058 9.457-.801 14.121-.284 1.098-.581 2.187-1.043 3.227-1.528 3.439-4.411 6.542-7.649 8.441-2.413 1.415-5.023 2.101-7.789 2.372-5.428.482-10.913.338-16.358.338H43.147l-15.407-.003c-2.121.011-4.242-.018-6.362-.086-1.071-.034-2.204-.032-3.263-.196-1.807-.094-3.721-.411-5.438-.986-4.634-1.551-8.461-5.18-10.62-9.516-.469-.91-.772-1.895-1.076-2.869-1.02-4.478-.961-9.128-.964-13.699l-.002-9.741Zm54.383-43.961c-.741.036-1.504.022-2.24.105a20.657 20.657 0 0 0-1.498.214 20.554 20.554 0 0 0-1.968.444 20.646 20.646 0 0 0-1.92.621 24.068 24.068 0 0 0-1.398.58 21.02 21.02 0 0 0-1.355.675 18.989 18.989 0 0 0-.876.5 20.602 20.602 0 0 0-1.27.824 20.217 20.217 0 0 0-.813.598c-.134.102-.266.206-.397.312-.131.106-.26.213-.389.321a24.29 24.29 0 0 0-1.48 1.372 23.826 23.826 0 0 0-.691.735c-2.803 3.101-4.599 7.26-5.026 11.41-.118 1.151-.09 2.444-.028 3.601.06 1.112.275 2.331.58 3.402.13.458.358.929.443 1.391.024.132.005.203-.077.308-.254.323-2.665 1.584-3.188 1.888L18.93 55.089c-.809.468-2.962 1.583-3.485 2.118-.509.521-.697 1.059-.656 1.782.055.995.858 2.049 1.389 2.868 2.169 3.348 4.761 6.592 7.791 9.207 4.207 3.63 8.959 6.444 14.334 7.946.805.226 2.006.611 2.825.635 1.268.352 2.656.409 3.962.485.624.036 1.243.112 1.869.114.72.002 1.432-.076 2.15-.127.428-.03.86-.021 1.287-.065 4.778-.491 9.478-2.129 13.647-4.487 7.645-4.325 13.522-11.374 15.876-19.894a30.28 30.28 0 0 0 .807-3.694 26.987 26.987 0 0 0 .195-1.5 31.502 31.502 0 0 0 .165-3.021c.002-.252 0-.504-.005-.756a27.209 27.209 0 0 0-.066-1.512 31.39 31.39 0 0 0-.239-2.257 32.15 32.15 0 0 0-.405-2.232 26.257 26.257 0 0 0-.172-.737 31.51 31.51 0 0 0-.623-2.182 30.209 30.209 0 0 0-2.067-4.869c-.119-.223-.24-.444-.363-.664-3.393-5.961-9.313-10.658-15.94-12.474-2.198-.603-4.526-.932-6.808-.85ZM35.983 50.104c.474.468.754 1.364.93 1.991.683 2.448.394 4.979-.866 7.195-.038.065-.076.131-.116.195a7.733 7.733 0 0 1-.376.569 8.624 8.624 0 0 1-.417.539c-.048.059-.098.116-.148.173-.049.057-.1.113-.151.169l-.156.166-.16.16c-.054.054-.109.106-.164.158a11.64 11.64 0 0 1-.515.448 12.174 12.174 0 0 1-.36.276 7.795 7.795 0 0 1-.185.132l-.189.127a7.713 7.713 0 0 1-.583.353l-.2.108a12.85 12.85 0 0 1-.408.2 9.41 9.41 0 0 1-.207.093c-.07.03-.14.06-.21.088-.07.029-.141.056-.212.083l-.214.077a7.74 7.74 0 0 1-.215.072l-.217.067c-.073.021-.146.042-.219.061-2.625.704-5.111.15-7.417-1.192-.867-.548-2.372-1.926-2.788-2.87-.063-.144-.071-.24-.011-.383.42-.134.835-.455 1.219-.677l2.206-1.27 8.162-4.712c1.35-.781 2.801-1.73 4.187-2.396Zm17.751-26.521.032-.002c5.412-.329 10.836 1.811 14.844 5.409 4.273 3.835 6.917 9.246 7.628 14.918.072.568.161 1.145.189 1.717a25.3 25.3 0 0 1 .037 1.349 25.242 25.242 0 0 1-.03 1.348 25.123 25.123 0 0 1-.169 2.017 29.752 29.752 0 0 1-.195 1.335 25.693 25.693 0 0 1-.261 1.323 28.522 28.522 0 0 1-.327 1.309 28.297 28.297 0 0 1-.609 1.93 28.152 28.152 0 0 1-1.032 2.492 28.233 28.233 0 0 1-1.272 2.379 26.043 26.043 0 0 1-.723 1.139 26.11 26.11 0 0 1-.778 1.102 26.94 26.94 0 0 1-1.267 1.578c-.147.17-.296.338-.448.505-4.968 5.431-11.954 9.149-19.301 9.97-.583.065-1.181.071-1.767.098-1.361.059-2.79.057-4.147-.085-6.039-.633-12.459-3.612-16.934-7.706l.408.011c.954.024 1.955.079 2.906-.015 2.476-.245 4.954-1.563 6.728-3.266 2.523-2.42 3.649-5.784 3.713-9.212.565.198 1.539.877 2.17 1.192 2.188 1.093 4.803 1.709 7.252 1.681a14.65 14.65 0 0 0 3.939-.566 12.748 12.748 0 0 0 1.035-.338c.114-.041.227-.085.339-.13a13.892 13.892 0 0 0 2.575-1.33 15.777 15.777 0 0 0 1.177-.849 20.155 20.155 0 0 0 .554-.468c.091-.08.181-.161.269-.244.089-.082.176-.166.263-.25.087-.085.172-.17.256-.257 1.967-2.149 3.38-4.761 3.702-7.698.096-.874.069-1.807.038-2.686-.103-2.977-1.711-6.171-3.878-8.186a9.446 9.446 0 0 0-.64-.558 19.077 19.077 0 0 0-.223-.175c-.075-.057-.15-.114-.226-.169a12.001 12.001 0 0 0-1.444-.892 9.854 9.854 0 0 0-1.029-.47 14.312 14.312 0 0 0-.264-.102c-.089-.032-.177-.064-.267-.094a8.445 8.445 0 0 0-.54-.169 13.854 13.854 0 0 0-.548-.142 8.528 8.528 0 0 0-.554-.114 8.601 8.601 0 0 0-.28-.047c-.093-.014-.186-.028-.28-.04a8.618 8.618 0 0 0-.281-.032 8.95 8.95 0 0 0-.564-.044 13.674 13.674 0 0 0-.566-.016c-.094 0-.189 0-.283.003-.094.002-.189.005-.283.009-2.21.083-4.508 1.094-6.006 2.734-1.495 1.637-2.321 3.752-2.208 5.977.106 2.066.939 4.037 2.505 5.427 1.384 1.229 3.205 1.935 5.066 1.806.754-.052 1.465-.26 1.968-.863a2.076 2.076 0 0 0 .201-.286l.058-.102a2 2 0 0 0 .098-.211l.041-.109.035-.111a2.357 2.357 0 0 0 .071-.342 2.28 2.28 0 0 0 .001-.582c-.141-1.075-.899-1.82-1.955-2.014-.966-.178-1.572.091-2.446-.626-.636-.523-.951-1.263-1.011-2.069-.069-.934.203-1.841.828-2.545.75-.846 1.779-1.384 2.915-1.451a8.773 8.773 0 0 1 .485-.011c.054.001.108.002.161.005.054.002.108.004.162.008a4.525 4.525 0 0 1 .321.029l.161.02.159.024.159.029.159.032c.052.011.105.023.157.036l.157.04.155.044.154.048.153.052.152.055a4.685 4.685 0 0 1 .299.123l.147.066.146.071.143.073c.048.026.095.051.142.078.047.026.094.053.14.081l.138.084a10.333 10.333 0 0 1 .268.179 10.862 10.862 0 0 1 .26.192l.126.101.124.104.121.107c1.494 1.33 2.509 3.229 2.616 5.243.135 2.525-.578 4.79-2.285 6.686-1.801 2-4.448 3.054-7.105 3.168-2.912.125-6.081-1.173-8.207-3.125-2.675-2.457-4.491-5.973-4.636-9.638-.036-.927-.061-1.913.043-2.835.39-3.455 2.023-6.605 4.375-9.126 2.901-3.112 7.428-4.988 11.645-5.138Z" style="fill:#080605"/>
  </g>
</svg>
