<svg xmlns="http://www.w3.org/2000/svg" xml:space="preserve" style="fill-rule:evenodd;clip-rule:evenodd;stroke-linejoin:round;stroke-miterlimit:2" viewBox="0 0 100 100">
  <g id="レイヤー1">
    <path d="M28.495.045a8.33 8.33 0 0 1 .158-.004c3.462-.067 6.931-.027 10.394-.027L57.009.013l13.747.023c4.391.048 9.022-.005 13.308 1.052 3.422.844 6.524 2.701 9.052 5.14 6.124 5.908 6.671 12.1 6.819 20.169a696.2 696.2 0 0 1 .054 12.599v18.26l-.014 13.284c-.043 4.45.013 9.118-1.044 13.462-.847 3.477-2.725 6.595-5.201 9.155-6.585 6.811-13.592 6.656-22.388 6.809l-.031.001c-3.406.06-6.817.02-10.224.021h-18.05c-4.623 0-9.249.035-13.871-.018-4.388-.051-9.035-.002-13.314-1.079-3.439-.866-6.544-2.76-9.072-5.227C-.096 86.952.146 79.68.035 70.739c-.119-9.63-.02-19.273-.019-28.905-.013-4.301-.004-8.603.026-12.904.05-4.311.01-8.849 1.066-13.054.872-3.472 2.776-6.59 5.27-9.138C12.842.133 19.853.136 28.495.045ZM13.688 58.489c-.27 3.052-.083 6.611.237 9.671 5.671 4.049 11.704 7.117 18.374 9.162.651-.739 3.864-5.507 3.825-6.288-.54-.352-1.233-.552-1.825-.808-1.373-.593-2.889-1.244-4.125-2.082l-.072-.049c.436-.429.947-.783 1.434-1.151l.414.18c9.713 4.178 20.069 5.083 30.266 2.107 2.13-.622 4.118-1.474 6.173-2.293.478.37.982.728 1.416 1.149-1.352 1.071-4.425 2.252-6.109 2.925 1.051 2.208 2.454 4.327 3.914 6.284a62.502 62.502 0 0 0 7.276-2.701 61.596 61.596 0 0 0 4.637-2.298 60.865 60.865 0 0 0 4.43-2.678 62.352 62.352 0 0 0 2.126-1.475 65.223 65.223 0 0 0 .199-10.537l-.009-.058c-.104-.685-.133-1.39-.205-2.08a55.413 55.413 0 0 0-.555-4.015c-1.618-9.014-5.147-16.638-10.222-24.206-4.67-2.21-9.926-3.802-15.036-4.568a23.851 23.851 0 0 0-1.94 3.85c-4.87-.787-11.814-.945-16.654.004-.516-1.291-1.174-2.701-1.953-3.854a61.05 61.05 0 0 0-12.728 3.587c-.7.281-1.581.549-2.193.996-.227.166-.393.391-.552.62a65.424 65.424 0 0 0-1.766 2.747 66.311 66.311 0 0 0-1.62 2.835 62.157 62.157 0 0 0-6.414 18.433 55.177 55.177 0 0 0-.564 4.363c-.066.733-.066 1.505-.179 2.228Zm54.478-8.556c.213.398.326.925.399 1.367.337 2.05-.078 4.235-1.309 5.928-.998 1.373-2.477 2.353-4.165 2.614a6.085 6.085 0 0 1-.91.076 6.166 6.166 0 0 1-2.926-.724 6.194 6.194 0 0 1-.77-.491c-1.59-1.174-2.565-2.964-2.844-4.905-.219-1.518.037-3.708.98-4.97a5.627 5.627 0 0 1 .33-.534 6.594 6.594 0 0 1 .588-.735 6.68 6.68 0 0 1 1.197-1.011 6.215 6.215 0 0 1 .823-.458 6.105 6.105 0 0 1 .582-.236 6.093 6.093 0 0 1 .592-.174 6.05 6.05 0 0 1 .899-.14 6.122 6.122 0 0 1 3.507.773c1.329.752 2.582 2.137 3.027 3.62Zm-23.762 3.612c.026.639-.245 1.428-.475 2.016-.671 1.714-1.937 3.146-3.645 3.876a6.59 6.59 0 0 1-.557.205 5.757 5.757 0 0 1-.867.203 7.444 7.444 0 0 1-.591.064 5.884 5.884 0 0 1-.891-.014 7.188 7.188 0 0 1-.295-.033 6.821 6.821 0 0 1-.871-.187 6.655 6.655 0 0 1-.562-.195c-1.707-.695-3.023-2.11-3.72-3.803-.628-1.526-.863-3.718-.209-5.272.431-1.662 1.629-3.19 3.107-4.053a5.71 5.71 0 0 1 .538-.279 5.697 5.697 0 0 1 .563-.224 6.037 6.037 0 0 1 1.783-.326 6.122 6.122 0 0 1 1.208.08 7.004 7.004 0 0 1 .592.129c1.715.463 3.137 1.674 3.996 3.213.788 1.412 1.061 3 .896 4.6Z"/>
  </g>
</svg>
