<svg xmlns="http://www.w3.org/2000/svg" xml:space="preserve" style="fill-rule:evenodd;clip-rule:evenodd;stroke-linejoin:round;stroke-miterlimit:2" viewBox="0 0 100 100">
  <path d="M.015 62.884V30.127c-.005-2.088.001-4.175.02-6.263.119-7.278.38-13.107 5.999-18.486 1.712-1.638 4.041-3.195 6.281-3.956C17.166-.225 23.818.05 28.957.047c3.032-.002 6.07-.047 9.101.009C46.729-.06 55.418.04 64.09.039l9.675.002c4.191.009 8.494-.082 12.59.945 2.754.69 5.623 2.431 7.652 4.412 5.276 5.151 5.869 10.302 5.941 17.321.028 3.983.035 7.966.02 11.95-.001 2.072.097 4.403-.019 6.442.122 1.922.011 3.907.013 5.837l.002 12.205.002 12.328c-.002 4.723.058 9.457-.801 14.121-.284 1.098-.581 2.187-1.043 3.227-1.528 3.439-4.411 6.542-7.649 8.441-2.413 1.415-5.023 2.101-7.789 2.372-5.428.482-10.913.338-16.358.338H43.147l-15.407-.003c-2.121.011-4.242-.018-6.362-.086-1.071-.034-2.204-.032-3.263-.196-1.807-.094-3.721-.411-5.438-.986-4.634-1.551-8.461-5.18-10.62-9.516-.469-.91-.772-1.895-1.076-2.869-1.02-4.478-.961-9.128-.964-13.699l-.002-9.741Zm24.551-15.489h6.552a.576.576 0 0 0 .573-.573v-5.838a.576.576 0 0 0-.573-.574h-6.552a.577.577 0 0 0-.574.574v5.838c0 .314.259.573.574.573Zm18.198 0h6.553a.576.576 0 0 0 .574-.573v-5.838a.577.577 0 0 0-.574-.574h-6.553a.576.576 0 0 0-.573.574v5.838c0 .314.259.573.573.573Zm-9.169 0h6.552a.576.576 0 0 0 .574-.573v-5.838a.577.577 0 0 0-.574-.574h-6.552a.576.576 0 0 0-.573.574v5.838c0 .314.259.573.573.573Zm27.369 0h6.552a.576.576 0 0 0 .574-.573v-5.838a.577.577 0 0 0-.574-.574h-6.552a.576.576 0 0 0-.573.574v5.838c0 .314.258.573.573.573Zm-9.14-16.799h6.553a.576.576 0 0 0 .573-.573v-5.838a.576.576 0 0 0-.573-.574h-6.553a.576.576 0 0 0-.573.574v5.838c0 .314.259.573.573.573Zm-9.06 8.4h6.553a.577.577 0 0 0 .574-.574v-5.838a.576.576 0 0 0-.574-.573h-6.553a.576.576 0 0 0-.573.573v5.838c0 .315.259.574.573.574Zm9.06 0h6.553a.576.576 0 0 0 .573-.574v-5.838a.576.576 0 0 0-.573-.573h-6.553a.576.576 0 0 0-.573.573v5.838c0 .315.259.574.573.574Zm39.392 4.727c-.201-.162-2.082-1.581-6.046-1.581-.991 0-2.037.09-3.123.269-.767-5.26-5.107-7.821-5.309-7.938l-1.066-.613-.701 1.01c-.053.075-1.287 1.871-1.892 4.426-.711 3-.279 5.818 1.246 8.23-1.842 1.024-4.781 1.292-5.392 1.299h-48.9a2.327 2.327 0 0 0-2.324 2.311c-.018 4.498.723 8.844 2.144 12.568 1.685 4.417 4.192 7.669 7.451 9.665 3.654 2.238 9.603 3.522 16.321 3.522 3.144 0 6.277-.284 9.061-.821 4.387-.846 8.37-2.292 11.836-4.297a32.423 32.423 0 0 0 8.072-6.609c3.876-4.383 6.184-9.278 7.9-13.61.228.01.456.015.684.015 4.242 0 6.85-1.696 8.29-3.119 1.563-1.542 2.119-3.081 2.177-3.251l.303-.888-.732-.588Zm-39.392 3.672h6.553a.576.576 0 0 0 .573-.573v-5.838a.576.576 0 0 0-.573-.574h-6.553a.576.576 0 0 0-.573.574v5.838c0 .314.259.573.573.573Zm-18.229-8.399h6.552a.577.577 0 0 0 .574-.574v-5.838a.576.576 0 0 0-.574-.573h-6.552a.576.576 0 0 0-.573.573v5.838c0 .315.259.574.573.574Z" style="fill:#080605"/>
</svg>
