<svg xmlns="http://www.w3.org/2000/svg" xml:space="preserve" style="fill-rule:evenodd;clip-rule:evenodd;stroke-linejoin:round;stroke-miterlimit:2" viewBox="0 0 100 100">
  <g id="レイヤー1">
    <path d="M.015 62.884V30.127c-.005-2.088.001-4.175.02-6.263.119-7.278.38-13.107 5.999-18.486 1.712-1.638 4.041-3.195 6.281-3.956C17.166-.225 23.818.05 28.957.047c3.032-.002 6.07-.047 9.101.009C46.729-.06 55.418.04 64.09.039l9.675.002c4.191.009 8.494-.082 12.59.945 2.754.69 5.623 2.431 7.652 4.412 5.276 5.151 5.869 10.302 5.941 17.321.028 3.983.035 7.966.02 11.95-.001 2.072.097 4.403-.019 6.442.122 1.922.011 3.907.013 5.837l.002 12.205.002 12.328c-.002 4.723.058 9.457-.801 14.121-.284 1.098-.581 2.187-1.043 3.227-1.528 3.439-4.411 6.542-7.649 8.441-2.413 1.415-5.023 2.101-7.789 2.372-5.428.482-10.913.338-16.358.338H43.147l-15.407-.003c-2.121.011-4.242-.018-6.362-.086-1.071-.034-2.204-.032-3.263-.196-1.807-.094-3.721-.411-5.438-.986-4.634-1.551-8.461-5.18-10.62-9.516-.469-.91-.772-1.895-1.076-2.869-1.02-4.478-.961-9.128-.964-13.699l-.002-9.741Zm37.949-39.685c-.93.171-1.673.625-2.203 1.413-.597.886-.79 2.044-.573 3.084.19.91.709 1.77 1.506 2.27.453.285.935.41 1.462.452 1.129.09 2.301.018 3.435.014l5.763.001h14.427c2.625 0 5.255-.035 7.879.013l-.005 22.122-.003 6.288c-.001 1.194-.095 2.462.081 3.641.09.604.413 1.124.841 1.553.754.754 1.832 1.071 2.88 1.042.245-.008.488-.034.729-.078.981-.222 1.808-.67 2.357-1.551.347-.557.424-1.071.459-1.718.127-2.351.018-4.999.017-7.376l-.003-14.2.002-9.267c0-1.476.162-4.119-.164-5.455-.193-.792-.743-1.437-1.444-1.843-.511-.297-1.035-.39-1.615-.42-1.847-.093-3.744-.002-5.596-.002l-11.234-.002-12.388-.001c-2.194 0-4.42-.077-6.61.02Zm26.648 51.845a3.755 3.755 0 0 0 .229-.718 3.595 3.595 0 0 0 .079-.749c.01-1.033-.379-2.074-1.111-2.81-.471-.474-1.024-.78-1.689-.877-1.126-.164-2.353-.069-3.493-.069h-6.3L30.38 69.82c-.114-7.328-.019-14.673-.018-22.003v-5.934c0-1.084.039-2.186-.016-3.268-.05-.99-.292-1.739-1.058-2.412-.801-.703-1.868-.998-2.922-.913-1.069.087-1.958.475-2.661 1.306-.409.464-.617.992-.677 1.605-.157 1.582-.036 3.593-.036 5.229v10.314l-.001 13.686-.005 4.255c-.002.799-.039 1.613.007 2.411.052.896.378 1.688 1.061 2.292.46.407 1.055.709 1.667.783.625.075 1.285.041 1.915.041l3.088-.002 10.221-.003 13.911.002 4.403.002c.845 0 1.712.04 2.555-.026.904-.071 1.645-.477 2.223-1.166a3.41 3.41 0 0 0 .575-.975Zm-.814-23.364c.069-.31.047-.667.048-.984v-8.6c0-.982.117-2.911-.059-3.768-.101-.491-.426-.979-.784-1.324-.309-.299-.744-.6-1.173-.687-.981-.198-2.84-.07-3.92-.07l-8.367.001c-.748.004-1.417-.048-1.983.524-.474.415-.724 1.002-.759 1.628a2.24 2.24 0 0 0 .557 1.633c.406.453.845.64 1.439.66 3.522.117 7.065-.063 10.591.012-.008 2.645-.001 5.288.018 7.932.007.932-.127 1.998.022 2.91.071.436.249.837.567 1.149.444.435 1.093.621 1.705.593.642-.029 1.275-.31 1.695-.802.205-.24.334-.501.403-.807Z" style="fill:#080605"/>
  </g>
</svg>
