<svg xmlns="http://www.w3.org/2000/svg" xml:space="preserve" style="fill-rule:evenodd;clip-rule:evenodd;stroke-linejoin:round;stroke-miterlimit:2" viewBox="0 0 100 100">
  <g id="レイヤー1">
    <path d="M99.848 23.286c.098.793.077 1.622.092 2.421.025 1.681.033 3.363.024 5.044v35.362c-.001 5 .255 10.663-.582 15.571-.61 3.575-1.966 6.929-4.2 9.802-3.702 4.76-8.967 7.371-14.89 8.097-4.208.516-8.538.378-12.771.378l-17.155.001-17.609-.001c-4.814-.001-9.798.21-14.555-.618-3.547-.618-6.865-2.014-9.708-4.236-4.738-3.704-7.315-8.993-8.031-14.894-.488-4.024-.365-8.148-.373-12.195L.031 53.373l-.001-17.6c-.016-2.525.003-5.049.058-7.573.019-1.111-.002-2.234.07-3.343-.007-.095-.007-.065-.006-.152.074-6.94 1.505-13.297 6.633-18.284a22.351 22.351 0 0 1 1.071-.972 22.339 22.339 0 0 1 1.136-.896 20.293 20.293 0 0 1 1.811-1.194 21.651 21.651 0 0 1 1.272-.69 22.86 22.86 0 0 1 1.316-.6 20.383 20.383 0 0 1 2.043-.728 21.104 21.104 0 0 1 1.399-.367c4.124-.962 8.456-.881 12.665-.89l9.11-.035 25.315.012 9.885.038c7.693.1 14.29.967 19.889 6.738 3.546 3.655 5.367 8.267 5.935 13.274.118 1.043.231 2.124.216 3.175ZM66.015 52.644c-.066.938-.028 1.926-.019 2.867.014 1.509.3 2.686 1.414 3.764.684.662 1.448 1.259 2.173 1.876l3.96 3.367 2.774 2.366c.763.652 1.516 1.358 2.38 1.877.749.45 1.567.743 2.45.717.932-.027 1.836-.385 2.475-1.075a3.743 3.743 0 0 0 .905-1.81c.195-1.046.134-2.141.133-3.201l.012-3.582.018-7.061c.001-1.35.034-2.709-.017-4.057l.005-9.91c.001-1.548.161-3.841-.124-5.288-.149-.758-.485-1.456-1.04-2-.701-.69-1.656-1.009-2.627-.978-.819.025-1.584.319-2.274.748-.844.524-1.603 1.247-2.36 1.889l-3.471 2.949-3.587 3.05c-.676.576-1.415 1.136-2.021 1.784-.427.457-.762.927-.932 1.534-.419 1.491-.237 3.263-.235 4.8l.008 5.374ZM26.623 28.193c-3.349.141-6.256.501-8.664 3.096a9.534 9.534 0 0 0-1.12 1.497 9.349 9.349 0 0 0-.987 2.285c-.056.2-.106.402-.149.606-.456 2.141-.391 4.425-.389 6.602l-.001 5.869-.001 7.853c0 1.734-.028 3.472.046 5.205.131 3.061.739 5.833 3.085 7.984a9.287 9.287 0 0 0 2.694 1.725 9.27 9.27 0 0 0 1.843.558c2.017.409 4.149.352 6.198.352l5.784-.002c5.904 0 11.82.084 17.722-.013 3.31-.161 6.206-.561 8.559-3.156a9.433 9.433 0 0 0 1.093-1.489A9.465 9.465 0 0 0 63.44 64.3c.439-2.088.375-4.314.378-6.438l.003-6.153.003-7.869c0-1.866.027-3.733-.076-5.597-.159-2.9-.92-5.533-3.152-7.526a8.954 8.954 0 0 0-.975-.758 8.83 8.83 0 0 0-1.067-.623 9.456 9.456 0 0 0-1.73-.656c-.199-.053-.4-.1-.602-.14-2.105-.426-4.337-.369-6.475-.369l-6.052.001-10.761-.001c-2.102 0-4.21-.031-6.311.022Z"/>
  </g>
</svg>
