<svg xmlns="http://www.w3.org/2000/svg" xml:space="preserve" style="fill-rule:evenodd;clip-rule:evenodd;stroke-linejoin:round;stroke-miterlimit:2" viewBox="0 0 100 100">
  <path d="m34.715.031 28.406-.01 7.907.033c4.156.006 8.455-.049 12.515.955a20.71 20.71 0 0 1 3.39 1.128 22.369 22.369 0 0 1 1.294.609 21.115 21.115 0 0 1 5.194 3.761c5.919 5.836 6.517 12.961 6.57 20.848l.003 31.339.002 10.76c.003 4.654.132 9.495-.961 14.048a20.377 20.377 0 0 1-.609 2.074 22.715 22.715 0 0 1-.522 1.343 21.57 21.57 0 0 1-.954 1.94 22.894 22.894 0 0 1-.745 1.234 21.512 21.512 0 0 1-.827 1.18 22.116 22.116 0 0 1-1.388 1.656c-.164.176-.33.349-.5.52-5.407 5.442-11.647 6.333-18.994 6.501-3.099.047-6.198.061-9.297.041l-27.354.005h-8.467c-4.256-.002-8.712.051-12.867-.978a20.14 20.14 0 0 1-1.36-.378 20.163 20.163 0 0 1-1.331-.468 19.427 19.427 0 0 1-1.297-.556 21.773 21.773 0 0 1-1.868-.993 20.603 20.603 0 0 1-1.186-.765 20.707 20.707 0 0 1-1.676-1.291 19.588 19.588 0 0 1-1.042-.952C.145 87.102.123 79.454.088 70.767L.016 58.883l-.014-21.15.078-9.66c.058-4.031.018-8.134 1.076-12.059a21.279 21.279 0 0 1 2.417-5.617A21.515 21.515 0 0 1 4.729 8.71a19.836 19.836 0 0 1 .859-1.059 21.959 21.959 0 0 1 .926-1.001C11.982 1.122 18.326.22 25.773.075 28.754.044 31.735.03 34.715.031Zm2.684 61.865c-3.607.457-6.422 1.676-8.701 4.617a12.968 12.968 0 0 0-.671.961 15.07 15.07 0 0 0-.299.503 15.67 15.67 0 0 0-.273.518 10.583 10.583 0 0 0-.248.531 12.831 12.831 0 0 0-.322.818 12.853 12.853 0 0 0-.333 1.122c-.023.095-.045.19-.066.286-.021.095-.04.191-.059.287a14.48 14.48 0 0 0-.096.578 13.5 13.5 0 0 0-.09.873 9.582 9.582 0 0 0-.025.586 14.284 14.284 0 0 0 .005.585 14.04 14.04 0 0 0 .034.585 13.758 13.758 0 0 0 .062.583 14.557 14.557 0 0 0 .092.581 9.808 9.808 0 0 0 .12.576c.022.096.046.191.07.286a14.992 14.992 0 0 0 .163.565c.029.094.06.187.092.28a9.102 9.102 0 0 0 .204.552 9.143 9.143 0 0 0 .231.541 9.17 9.17 0 0 0 .257.529 12.876 12.876 0 0 0 .435.769 10.41 10.41 0 0 0 .665.97l.181.232.187.227a13.314 13.314 0 0 0 .39.441c.067.072.135.142.203.213.069.07.138.139.209.207a10.207 10.207 0 0 0 .655.592 10.256 10.256 0 0 0 .46.367 12.94 12.94 0 0 0 .475.341 10.251 10.251 0 0 0 .49.318 12.782 12.782 0 0 0 .764.431c.087.045.174.088.262.131.088.042.176.084.264.124a9.078 9.078 0 0 0 .539.229 11.034 11.034 0 0 0 .548.203c.093.031.185.062.278.091.093.029.187.057.28.084.094.027.188.052.282.077a9.791 9.791 0 0 0 .57.134l.287.056a13.298 13.298 0 0 0 .868.126 13.663 13.663 0 0 0 .582.048c.098.005.195.01.293.013a14.075 14.075 0 0 0 .584.005 14.325 14.325 0 0 0 .585-.024 14.235 14.235 0 0 0 .582-.052 13.5 13.5 0 0 0 .29-.037c.096-.014.192-.028.288-.044a9.636 9.636 0 0 0 .573-.108c.095-.021.19-.042.285-.065.094-.023.188-.046.282-.071a12.933 12.933 0 0 0 .836-.257 12.824 12.824 0 0 0 .815-.317c.089-.039.178-.078.266-.119.089-.041.176-.083.264-.125a12.657 12.657 0 0 0 .769-.415c.084-.049.167-.1.25-.151a12.744 12.744 0 0 0 .726-.488 10.07 10.07 0 0 0 .687-.54c.074-.063.148-.127.22-.192a10.038 10.038 0 0 0 .631-.605 10.062 10.062 0 0 0 .396-.429 9.997 9.997 0 0 0 .374-.447 11.613 11.613 0 0 0 .885-1.273c.108-.18.212-.363.311-.548a12.87 12.87 0 0 0 .532-1.142 12.277 12.277 0 0 0 .408-1.191c.057-.202.109-.406.156-.611.494-2.232.298-4.708.297-6.988 0-2.513.036-5.032-.006-7.544.016-3.624-.057-7.255.024-10.878.149.513.165 1.086.283 1.612.046.206.098.41.154.613a12.779 12.779 0 0 0 .407 1.197 11.382 11.382 0 0 0 .531 1.146 12.32 12.32 0 0 0 .65 1.083 11.694 11.694 0 0 0 .73.97 10.05 10.05 0 0 0 .584.65 13.337 13.337 0 0 0 .851.795 12.977 12.977 0 0 0 .453.366 14.298 14.298 0 0 0 .471.343 12.744 12.744 0 0 0 1.246.752 12.675 12.675 0 0 0 .789.376 12.606 12.606 0 0 0 .814.317 11.153 11.153 0 0 0 .835.256 14.571 14.571 0 0 0 .566.136 9.044 9.044 0 0 0 .572.108 9.541 9.541 0 0 0 .581.082 14.632 14.632 0 0 0 .588.053 14.2 14.2 0 0 0 .59.023 9.66 9.66 0 0 0 .59-.005 14.455 14.455 0 0 0 .589-.035c.098-.008.196-.018.294-.028l.293-.036c.097-.013.194-.028.292-.043.097-.016.194-.032.29-.05.097-.018.193-.037.29-.058.096-.02.192-.042.288-.064a14.95 14.95 0 0 0 .57-.151 9.226 9.226 0 0 0 .563-.179 10.307 10.307 0 0 0 .553-.206 12.996 12.996 0 0 0 1.071-.494 10.64 10.64 0 0 0 .769-.439l.249-.159a13.046 13.046 0 0 0 .485-.336l.236-.177a20.413 20.413 0 0 0 .456-.369 10.223 10.223 0 0 0 .438-.391c.072-.067.142-.135.212-.203a13.667 13.667 0 0 0 .408-.422 13.246 13.246 0 0 0 .571-.67l.179-.232c.059-.079.116-.158.173-.237.057-.08.113-.16.168-.241.055-.081.108-.163.161-.245l.156-.249.149-.253.143-.256a12.837 12.837 0 0 0 .506-1.059 12.87 12.87 0 0 0 .31-.823c.031-.093.061-.186.09-.28.029-.093.056-.187.083-.281l.076-.284a9.807 9.807 0 0 0 .13-.572 14.587 14.587 0 0 0 .102-.578 9.677 9.677 0 0 0 .073-.581 9.31 9.31 0 0 0 .045-.583 14.345 14.345 0 0 0 .016-.585 9.475 9.475 0 0 0-.012-.585l-.017-.292a9.514 9.514 0 0 0-.025-.291 9.57 9.57 0 0 0-.07-.581 14.43 14.43 0 0 0-.045-.289c-.017-.096-.034-.192-.053-.287a9.76 9.76 0 0 0-.126-.571 13.036 13.036 0 0 0-.242-.843c-.03-.093-.062-.185-.094-.277a12.9 12.9 0 0 0-.209-.546c-.037-.091-.076-.18-.115-.27a12.717 12.717 0 0 0-.382-.789 12.82 12.82 0 0 0-.599-1.005 12.782 12.782 0 0 0-.511-.712 12.673 12.673 0 0 0-.637-.752 11.428 11.428 0 0 0-1.448-1.334 11.224 11.224 0 0 0-.802-.572 13.057 13.057 0 0 0-1.286-.728 12.993 12.993 0 0 0-.903-.393 10.65 10.65 0 0 0-.932-.318 12.84 12.84 0 0 0-.476-.129c-.754-.183-1.517-.266-2.285-.361.637-.128 1.296-.161 1.938-.294a10.76 10.76 0 0 0 .788-.198 13.356 13.356 0 0 0 .772-.253 13.466 13.466 0 0 0 .752-.306 12.36 12.36 0 0 0 .73-.357 11.094 11.094 0 0 0 1.044-.628 11.59 11.59 0 0 0 1.578-1.276 10.2 10.2 0 0 0 .415-.417l.2-.215.194-.221c.064-.074.126-.15.188-.225.062-.076.123-.153.183-.23.06-.078.12-.156.178-.235a10.317 10.317 0 0 0 .336-.482c.054-.081.107-.164.16-.247a10.48 10.48 0 0 0 .299-.505 12.972 12.972 0 0 0 .275-.52c.043-.088.086-.176.127-.265a9.163 9.163 0 0 0 .235-.539l.108-.273c.034-.092.068-.184.1-.277a9.079 9.079 0 0 0 .181-.559 13.11 13.11 0 0 0 .276-1.142 14.672 14.672 0 0 0 .095-.58 9.703 9.703 0 0 0 .066-.584c.009-.098.016-.196.023-.293l.015-.294c.003-.098.006-.196.007-.294.002-.097.003-.194.002-.292 0-.097-.002-.194-.005-.292-.003-.097-.008-.194-.013-.291a9.476 9.476 0 0 0-.047-.582 9.538 9.538 0 0 0-.034-.29c-.013-.096-.026-.193-.041-.289a14.396 14.396 0 0 0-.167-.859c-.022-.095-.045-.19-.069-.284-.025-.094-.05-.188-.077-.281a12.913 12.913 0 0 0-.174-.558 8.965 8.965 0 0 0-.201-.548 15.357 15.357 0 0 0-.228-.537 7.954 7.954 0 0 0-.124-.264 9.105 9.105 0 0 0-.267-.519 9.191 9.191 0 0 0-.447-.753 10.251 10.251 0 0 0-.162-.243c-.055-.08-.11-.16-.167-.239a12.94 12.94 0 0 0-.353-.465c-.06-.077-.122-.152-.184-.227a20.078 20.078 0 0 0-.19-.221 13.298 13.298 0 0 0-.397-.429c-1.951-2.007-4.886-3.511-7.721-3.56-1.103-.17-2.357-.061-3.474-.061l-6.769.003H42.288c-1.996 0-4.141-.162-6.111.161a12.104 12.104 0 0 0-2.667.769 12.474 12.474 0 0 0-1.845.97 11.215 11.215 0 0 0-1.263.935c-.075.063-.148.127-.221.192-.072.065-.144.13-.215.197-.071.067-.142.134-.211.202a13.445 13.445 0 0 0-.406.421 10.046 10.046 0 0 0-.385.439 9.615 9.615 0 0 0-.363.459c-.059.077-.116.156-.173.235a10.236 10.236 0 0 0-.328.484 10.345 10.345 0 0 0-.304.499 16.251 16.251 0 0 0-.278.514 10.73 10.73 0 0 0-.584 1.339l-.097.275a9.941 9.941 0 0 0-.172.559 9.007 9.007 0 0 0-.145.566 9.674 9.674 0 0 0-.117.572 14.5 14.5 0 0 0-.089.58 9.603 9.603 0 0 0-.061.584 9.392 9.392 0 0 0-.02.293c-.005.098-.01.195-.013.293-.003.098-.004.196-.005.294a14.407 14.407 0 0 0 .012.587 13.99 13.99 0 0 0 .04.586c.009.098.02.195.031.292a14.476 14.476 0 0 0 .084.582 10.356 10.356 0 0 0 .179.862 13.112 13.112 0 0 0 .154.567 12.96 12.96 0 0 0 .284.834 15.45 15.45 0 0 0 .223.543c.039.09.08.179.122.267a9.206 9.206 0 0 0 .262.526 12.82 12.82 0 0 0 .442.762 10.375 10.375 0 0 0 .326.489 12.968 12.968 0 0 0 .348.472c.061.077.121.154.183.23a18.795 18.795 0 0 0 .383.445 13.397 13.397 0 0 0 .614.631 13.325 13.325 0 0 0 .66.583 13.1 13.1 0 0 0 .463.36 10.354 10.354 0 0 0 .481.337 12.92 12.92 0 0 0 .497.313 10.506 10.506 0 0 0 .511.288l.261.134.265.128c.088.041.178.081.267.121a12.913 12.913 0 0 0 1.098.416c.093.03.186.059.28.087.094.028.188.054.282.08a14.854 14.854 0 0 0 .859.197 13.394 13.394 0 0 0 .579.095c.337.049.693.068 1.024.149-3.394.337-6.362 1.7-8.544 4.377a13.228 13.228 0 0 0-.532.705 10.352 10.352 0 0 0-.324.491 10.572 10.572 0 0 0-.301.506c-.048.085-.094.172-.14.258a9.234 9.234 0 0 0-.134.262 9.206 9.206 0 0 0-.249.534 12.913 12.913 0 0 0-.322.821 10.163 10.163 0 0 0-.181.56 9.187 9.187 0 0 0-.153.569 13.302 13.302 0 0 0-.125.575 13.486 13.486 0 0 0-.132.872c-.012.098-.021.196-.03.293-.009.098-.016.196-.023.294a14.463 14.463 0 0 0-.023.588 9.605 9.605 0 0 0 .006.588 9.637 9.637 0 0 0 .035.588 15.233 15.233 0 0 0 .064.585c.013.097.027.194.043.291.015.097.032.193.049.29a10.634 10.634 0 0 0 .272 1.145 13.089 13.089 0 0 0 .276.838l.106.275a12.882 12.882 0 0 0 .491 1.069l.139.259a12.967 12.967 0 0 0 .619 1.001 14.621 14.621 0 0 0 .346.476 13.23 13.23 0 0 0 .562.681 13.37 13.37 0 0 0 .402.429 10.247 10.247 0 0 0 .423.41 13.899 13.899 0 0 0 .442.388l.228.186a12.05 12.05 0 0 0 2.33 1.442c.208.097.418.188.63.273a12.426 12.426 0 0 0 1.303.432c.221.059.444.112.668.158.579.116 1.173.161 1.749.276Zm12.73-23.818c3.68.128 7.384-.13 11.061.041-3.476.391-6.362 1.676-8.589 4.458a11.556 11.556 0 0 0-1.894 3.396 12.061 12.061 0 0 0-.366 1.249c-.125.549-.139 1.183-.318 1.707-.087-3.597-.024-7.208-.026-10.807l.132-.044Z"/>
</svg>
