<svg xmlns="http://www.w3.org/2000/svg" xml:space="preserve" style="fill-rule:evenodd;clip-rule:evenodd;stroke-linejoin:round;stroke-miterlimit:2" viewBox="0 0 100 100">
  <g id="レイヤー1">
    <path d="M.015 62.884V30.127c-.005-2.088.001-4.175.02-6.263.119-7.278.38-13.107 5.999-18.486 1.712-1.638 4.041-3.195 6.281-3.956C17.166-.225 23.818.05 28.957.047c3.032-.002 6.07-.047 9.101.009C46.729-.06 55.418.04 64.09.039l9.675.002c4.191.009 8.494-.082 12.59.945 2.754.69 5.623 2.431 7.652 4.412 5.276 5.151 5.869 10.302 5.941 17.321.028 3.983.035 7.966.02 11.95-.001 2.072.097 4.403-.019 6.442.122 1.922.011 3.907.013 5.837l.002 12.205.002 12.328c-.002 4.723.058 9.457-.801 14.121-.284 1.098-.581 2.187-1.043 3.227-1.528 3.439-4.411 6.542-7.649 8.441-2.413 1.415-5.023 2.101-7.789 2.372-5.428.482-10.913.338-16.358.338H43.147l-15.407-.003c-2.121.011-4.242-.018-6.362-.086-1.071-.034-2.204-.032-3.263-.196-1.807-.094-3.721-.411-5.438-.986-4.634-1.551-8.461-5.18-10.62-9.516-.469-.91-.772-1.895-1.076-2.869-1.02-4.478-.961-9.128-.964-13.699l-.002-9.741Zm79.536-6.683-.006 13.252c0 2.021.038 4.05-.007 6.07 1.412-1.698 2.707-3.427 3.867-5.308a38.637 38.637 0 0 0 2.621-5.126 39.17 39.17 0 0 0 1.836-5.455c.29-1.138.479-2.285.733-3.428l-9.044-.005ZM49.876 10.765c-1.053.024-2.106.039-3.155.127a39.183 39.183 0 0 0-12.638 3.223 40.38 40.38 0 0 0-2.935 1.452c-.319.175-.636.355-.95.539-1.392.819-2.797 1.704-4.034 2.746l27.864-.007c.71-1.249 1.964-2.018 3.318-2.391 1.319-.362 2.845-.122 4.028.55a4.914 4.914 0 0 1 .677.45 5.06 5.06 0 0 1 .411.354 5.793 5.793 0 0 1 .546.603 6.312 6.312 0 0 1 .45.678 6.02 6.02 0 0 1 .242.485 5.995 5.995 0 0 1 .192.507 6.494 6.494 0 0 1 .196.797c.015.09.028.181.038.272a5.037 5.037 0 0 1 .037.548c.002.092.001.183-.001.275a6.29 6.29 0 0 1-.045.547 5.12 5.12 0 0 1-.099.541 6.063 6.063 0 0 1-.152.527 6.196 6.196 0 0 1-.324.758 5.618 5.618 0 0 1-.272.468 5.334 5.334 0 0 1-.663.833 4.793 4.793 0 0 1-.389.364 5.362 5.362 0 0 1-.876.605 4.844 4.844 0 0 1-.478.236 5.334 5.334 0 0 1-.499.187 5.758 5.758 0 0 1-1.344.255 5.091 5.091 0 0 1-.552.009 6.385 6.385 0 0 1-.55-.046 5.974 5.974 0 0 1-.81-.17 5.792 5.792 0 0 1-1.025-.41 5.653 5.653 0 0 1-.241-.133c-.753-.445-1.464-1.12-1.894-1.884l-20.416.001c-3.511 0-7.026-.034-10.536.005v53.639c2.806 2.631 5.87 4.772 9.278 6.551l.004-16.315-.006-4.755c-.001-.823-.067-1.71.045-2.526.081-.58.361-1.102.765-1.52a2.684 2.684 0 0 1 1.421-.772c.967-.203 2.322-.087 3.334-.086l6.362.005.538.003c.708-1.199 1.933-2.066 3.275-2.411a5.802 5.802 0 0 1 .539-.11 6.365 6.365 0 0 1 .548-.056 5.02 5.02 0 0 1 .55-.002 5.083 5.083 0 0 1 .548.053 4.941 4.941 0 0 1 .54.107 4.987 4.987 0 0 1 .527.159 5.68 5.68 0 0 1 .994.471 5.382 5.382 0 0 1 1.05.824 5.62 5.62 0 0 1 .358.397 6.63 6.63 0 0 1 .317.431 5.781 5.781 0 0 1 .392.699 5.86 5.86 0 0 1 .285.75c.026.085.049.172.07.258.346 1.442.12 3.029-.666 4.289a5.47 5.47 0 0 1-3.429 2.427c-1.486.325-2.975.082-4.258-.746-.717-.463-1.253-1.079-1.728-1.78l-6.614.003.002 14.96v4.882c0 .909.032 1.834-.02 2.741 6.139 1.805 12.217 2.36 18.545 1.268 1.383-.239 2.726-.573 4.083-.92l-.002-29.539c-.007-.038-.003-.08-.022-.114-.053-.095-.395-.3-.501-.387a5.669 5.669 0 0 1-.999-1.074 5.984 5.984 0 0 1-.352-.57 6.192 6.192 0 0 1-.196-.402 5.248 5.248 0 0 1-.23-.629 5.72 5.72 0 0 1-.211-1.096 8.345 8.345 0 0 1-.015-.223 8.298 8.298 0 0 1-.006-.223c0-.075.001-.149.003-.224.003-.074.006-.149.012-.223.006-.074.013-.149.021-.223.009-.074.019-.148.03-.221.012-.074.025-.147.039-.22a5.716 5.716 0 0 1 .17-.649 5.271 5.271 0 0 1 .247-.623 7.424 7.424 0 0 1 .206-.397 5.37 5.37 0 0 1 .395-.597 4.853 4.853 0 0 1 .346-.413 5.705 5.705 0 0 1 .591-.55 5.472 5.472 0 0 1 .903-.586 5.404 5.404 0 0 1 1.795-.564 6.279 6.279 0 0 1 .546-.047 6.267 6.267 0 0 1 .548.006 6.284 6.284 0 0 1 .544.061 4.93 4.93 0 0 1 .536.114 4.696 4.696 0 0 1 .523.165 6.115 6.115 0 0 1 .503.217 5.586 5.586 0 0 1 .925.571 5.59 5.59 0 0 1 .778.728c.058.067.115.135.171.204a6.572 6.572 0 0 1 .31.434 4.777 4.777 0 0 1 .266.462 5.328 5.328 0 0 1 .511 1.51c.249 1.432-.027 2.96-.871 4.156-.432.613-1.047 1.231-1.702 1.604l.002 18.114c0 3.084.033 6.171-.002 9.254 2.613-1.144 5.033-2.737 7.323-4.423l-.002-19.302-.005-5.729c-.001-.981-.081-2.028.041-3a2.871 2.871 0 0 1 .163-.664 2.61 2.61 0 0 1 .321-.604 2.732 2.732 0 0 1 .292-.351c.98-.999 2.319-.879 3.606-.879l10.864.002a38.351 38.351 0 0 0-.064-2.878 38.315 38.315 0 0 0-.764-5.702 37.923 37.923 0 0 0-.696-2.793 38.97 38.97 0 0 0-4.013-9.213 39.495 39.495 0 0 0-.764-1.22 38.673 38.673 0 0 0-1.981-2.779c-.404-.514-.841-1.003-1.239-1.52l.003 8.773c.002 1 .114 3.138-.05 3.998a2.77 2.77 0 0 1-.767 1.415c-.795.803-1.693.845-2.744.842l-23.866-.007c-4.691 0-9.389-.058-14.079.004v5.76c1.287.798 2.19 1.985 2.539 3.467a6.23 6.23 0 0 1 .1.534c.012.09.022.181.029.271.008.09.014.181.017.271.003.091.004.182.003.273a4.907 4.907 0 0 1-.034.542 4.998 4.998 0 0 1-.087.537 6 6 0 0 1-.14.526 4.882 4.882 0 0 1-.19.509 5.52 5.52 0 0 1-.531.954 5.792 5.792 0 0 1-.927 1.024 5.128 5.128 0 0 1-.438.34 5.133 5.133 0 0 1-.714.424 5.72 5.72 0 0 1-.769.312 6.218 6.218 0 0 1-.535.143 4.86 4.86 0 0 1-.538.087 6.059 6.059 0 0 1-.543.034 6.184 6.184 0 0 1-.544-.02 6.189 6.189 0 0 1-.539-.073 5.07 5.07 0 0 1-.53-.125 5.979 5.979 0 0 1-.514-.177 5.56 5.56 0 0 1-.966-.5 5.632 5.632 0 0 1-1.512-1.486 5.994 5.994 0 0 1-.403-.69 5.287 5.287 0 0 1-.211-.489 5.758 5.758 0 0 1-.277-1.041 6.52 6.52 0 0 1-.061-.554 6.5 6.5 0 0 1-.006-.557 6.528 6.528 0 0 1 .05-.556 5.066 5.066 0 0 1 .176-.816 5.883 5.883 0 0 1 .184-.527 5.774 5.774 0 0 1 .519-.985c.409-.61.998-1.225 1.638-1.594l-.01-6.276c-.001-.905-.108-2.221.069-3.09a2.84 2.84 0 0 1 .761-1.398c.434-.437.978-.69 1.586-.765 1.335-.165 2.763-.057 4.109-.056h7.753l27.225-.005.001-9.489c0-1.729-.04-3.469.014-5.197-7.353-5.474-14.752-7.999-23.915-8.137ZM17.212 28.452c-.939 1.302-1.716 2.778-2.425 4.216a39.842 39.842 0 0 0-1.228 2.769 37.782 37.782 0 0 0-1.011 2.856 40.356 40.356 0 0 0-.787 2.925 39.44 39.44 0 0 0-.885 5.99 40.103 40.103 0 0 0-.051 4.542 40.375 40.375 0 0 0 .259 3.018c.062.501.135 1.001.217 1.5a38.751 38.751 0 0 0 3.607 11.145c.702 1.396 1.491 2.717 2.325 4.036l.004-31.477v-8.308c0-.752.098-2.587-.025-3.212Z" style="fill:#080605"/>
  </g>
</svg>
