<svg xmlns="http://www.w3.org/2000/svg" xml:space="preserve" style="fill-rule:evenodd;clip-rule:evenodd;stroke-linejoin:round;stroke-miterlimit:2" viewBox="0 0 100 100">
  <g>
    <path d="m52.539 80.728.031.227a163.197 163.197 0 0 0 2.952 14.082l.004.013c.429 1.624.865 3.304 1.453 4.891-1.751-.007-3.51.034-5.254.034l-14.684.002-4.87.002c-.953 0-1.921.033-2.872-.026-.901.088-1.885.011-2.794.001-3.197-.034-6.42-.132-9.551-.836a20.765 20.765 0 0 1-2.53-.726 20.33 20.33 0 0 1-1.628-.656 20.453 20.453 0 0 1-2.325-1.232 19.708 19.708 0 0 1-1.457-.978 21.373 21.373 0 0 1-1.371-1.096 20.177 20.177 0 0 1-1.275-1.206 21.34 21.34 0 0 1-1.171-1.307c-.762-.933-1.4-1.936-2.044-2.951C1.641 86.13.83 83.324.389 80.144c-.068-.93-.18-1.853-.228-2.786-.153-2.927-.143-5.864-.137-8.794L0 29.867c.11-8.824-.106-16.614 6.541-23.338 2.677-2.708 6.004-4.504 9.67-5.468 5-1.316 11.949-1.029 17.16-1.042l15.726-.042c-1.334 3.638-2.738 7.246-4.001 10.912-2.628 7.632-4.833 15.344-6.334 23.206-.969 5.074-1.644 10.21-1.953 15.428-.084 1.419-.3 3.858-.157 5.78.078 1.056.276 1.984.579 2.642 0 0 .116.245.223.394a4.65 4.65 0 0 0 1.765 1.539c.544.252 1.061.39 1.655.456 1.188.131 2.448.058 3.647.056l6.405-.012c.218 0 .442-.008.669-.016-.143 5.675-.074 11.306.467 16.967-.864.069-1.728.126-2.595.152-8.687.26-18.287-1.516-25.164-7.152-.892-.731-1.798-1.547-2.531-2.437-.459-.557-.841-1.259-1.38-1.738a1.716 1.716 0 0 0-1.237-.435c-.455.034-.871.283-1.151.638-.395.502-.425.967-.368 1.572.209.441.467.841.79 1.208.266.455.664.9 1.041 1.269.491.655 1.138 1.205 1.747 1.749 3.539 3.162 8.514 5.829 13.125 6.962a43.756 43.756 0 0 0 6.67 1.357c.751.094 1.505.168 2.26.223.893.062 1.828.178 2.722.137 2.049.094 4.21.128 6.246-.106.099.004.2.003.302 0Zm3.396-3.801-.01-.053-.011-.029c-.534-5.659-.581-11.288-.424-16.965.037-.574.097-1.212-.006-1.744a1.94 1.94 0 0 0-1.565-1.541c-.951-.17-2.029-.099-2.999-.098l-6.406.013c-1.056.001-2.167.082-3.215-.034a1.44 1.44 0 0 1-.356-.08 1.043 1.043 0 0 1-.238-.198c-.172-.473-.199-1.16-.217-1.897-.038-1.613.128-3.426.195-4.549.298-5.049.953-10.019 1.891-14.93 1.466-7.68 3.624-15.213 6.191-22.669 1.333-3.87 2.824-7.673 4.223-11.518.079-.216.117-.438.118-.656l14.257.056c9.563.044 18.866-.749 26.175 6.62a22.665 22.665 0 0 1 .985 1.067 22.492 22.492 0 0 1 1.333 1.721 21.838 21.838 0 0 1 .787 1.22 21.8 21.8 0 0 1 1.018 1.925 21.884 21.884 0 0 1 .567 1.336 23.148 23.148 0 0 1 .473 1.373 23.26 23.26 0 0 1 .377 1.402c.964 4.035.907 8.285.915 12.41l.001 9.629-.002 29.727c-.005 4.189.124 8.453-.486 12.605-1.102 6.287-3.687 11.085-8.981 14.808l-.129.09c-1.203.766-2.398 1.435-3.709 2.002-.161.07-1.151.464-2.107.762-.357.112-1.114.29-1.237.317-.502.111-1.005.215-1.51.313-4.838.806-10.423.629-15.362.605l-5.454.008c0-.247-.048-.498-.148-.74-.682-1.647-1.134-3.443-1.589-5.167a158.905 158.905 0 0 1-2.892-13.825c.194-.021.348-.037.428-.048.218-.027.437-.059.654-.095 7.545-1.258 16.054-5.057 20.62-11.445.104-.156.202-.319.303-.477.106-.2.168-.392.23-.61-.015-.584-.121-1.055-.555-1.488a1.93 1.93 0 0 0-.125-.113 1.31 1.31 0 0 0-.136-.099 1.634 1.634 0 0 0-.627-.237 1.588 1.588 0 0 0-.337-.013c-.574.038-.966.31-1.326.739-.718.854-1.325 1.745-2.131 2.532-4.609 4.51-11.085 7.089-17.451 8.038Zm12.322-38.83c.073.18.145.351.241.519l.142.198c.068.085.144.156.227.226a2.142 2.142 0 0 0 1.624.484 1.96 1.96 0 0 0 1.369-.759c.156-.226.291-.455.357-.724.235-.959.107-3.561.073-4.664.016-.919.108-1.94-.018-2.849a2.44 2.44 0 0 0-.137-.497 2.069 2.069 0 0 0-1.535-1.234 1.87 1.87 0 0 0-.424-.03 1.912 1.912 0 0 0-.422.058 2.065 2.065 0 0 0-.399.145c-.631.306-.936.803-1.152 1.44-.117 1.174-.038 2.417-.039 3.598-.002.969-.134 3.229.093 4.089Zm-44.018.301c.145.238.295.417.509.596.345.353.795.53 1.287.534.534.005 1.019-.152 1.403-.527l.007-.008c.188-.172.327-.314.453-.537.119-.189.17-.384.231-.597.124-1.34.036-2.759.036-4.106.001-.994.123-2.494-.062-3.426-.219-.618-.548-1.087-1.158-1.37a1.98 1.98 0 0 0-.611-.176 2.145 2.145 0 0 0-.843.071 1.983 1.983 0 0 0-.571.275 1.974 1.974 0 0 0-.459.439 1.922 1.922 0 0 0-.22.361c-.03.064-.057.13-.081.196-.03.086-.049.174-.069.263-.143.586-.139 6.983-.004 7.554.038.168.08.303.152.458Z" style="fill:#0b1943"/>
  </g>
</svg>
