<svg xmlns="http://www.w3.org/2000/svg" xml:space="preserve" style="fill-rule:evenodd;clip-rule:evenodd;stroke-linejoin:round;stroke-miterlimit:2" viewBox="0 0 100 100">
  <g id="レイヤー4">
    <path d="M51.028 82.952c.667 4.239 1.664 8.42 2.745 12.575.383 1.475.783 2.991 1.287 4.45-1.114.01-2.228.026-3.335.026l-14.684.002-4.87.002c-.953 0-1.921.034-2.872-.026-.901.088-1.885.011-2.794.002-3.197-.035-6.42-.132-9.551-.837a20.765 20.765 0 0 1-1.697-.448 22.565 22.565 0 0 1-1.654-.588 21.993 21.993 0 0 1-1.599-.724c-.261-.131-.52-.268-.775-.411a19.7 19.7 0 0 1-1.497-.916 21.017 21.017 0 0 1-3.963-3.448 21.34 21.34 0 0 1-.572-.666c-.762-.933-1.4-1.935-2.044-2.951C1.641 86.158.83 83.352.389 80.173c-.068-.931-.18-1.854-.228-2.786-.153-2.927-.143-5.865-.137-8.795L0 29.896c.11-8.824-.106-16.614 6.541-23.338 2.677-2.709 6.004-4.504 9.67-5.469C21.211-.226 28.16.06 33.371.047L47.167.011c-.548 1.483-1.105 2.963-1.658 4.444a244.37 244.37 0 0 0-2.124 5.874c-4.378 12.713-7.586 25.648-8.383 39.116-.087 1.478-.303 4.018-.155 6.02.097 1.307.348 2.549.74 3.265.41.748.607 1.078.869 1.409.185.234.416.487.647.674.293.238.676.515 1.164.719.346.144.732.265 1.092.368.393.114.87.232 1.316.261.861.054 2.584.069 3.848.067l5.217-.01c-.092 4.406-.079 8.795.303 13.184-.213.01-.426.018-.639.025-8.202.245-17.287-1.36-23.78-6.681-.789-.647-1.596-1.363-2.245-2.151-.525-.637-.987-1.422-1.603-1.97l-.594-.433-.663-.311-.729-.182-.788-.029-.802.153-.713.31-.612.431-.508.533c-.774.983-.917 1.872-.805 3.057.022.242.088.478.192.698a7.21 7.21 0 0 0 .988 1.549c.308.49.739.992 1.165 1.42.548.699 1.248 1.316 1.919 1.916 3.769 3.367 9.065 6.207 13.977 7.422a45.981 45.981 0 0 0 6.949 1.411c.787.098 1.576.176 2.366.233h.007c.952.066 1.949.181 2.904.143 1.617.076 3.328.108 4.999.006Zm6.471-8.385c-.414-4.86-.336-9.721-.2-14.608.044-.684.09-1.477-.038-2.14a3.751 3.751 0 0 0-3.024-2.978c-1.053-.187-2.246-.126-3.32-.125l-6.407.012c-.723.001-1.475.047-2.211.029 0-.151.002-.309-.001-.47-.037-1.56.127-3.314.191-4.4.756-12.781 3.832-25.05 7.987-37.116a239.724 239.724 0 0 1 2.06-5.695c.72-1.93 1.448-3.857 2.153-5.794L55.15.015l12.213.048c9.563.044 18.866-.749 26.175 6.62a22.665 22.665 0 0 1 .985 1.067 20.857 20.857 0 0 1 1.737 2.325 21.77 21.77 0 0 1 .744 1.246 21.833 21.833 0 0 1 .657 1.295c.102.219.2.441.295.663a23.128 23.128 0 0 1 .52 1.356 21.346 21.346 0 0 1 .602 2.092c.964 4.036.907 8.285.915 12.41l.001 9.629-.002 29.728c-.005 4.188.124 8.452-.486 12.605-1.102 6.286-3.687 11.085-8.981 14.807l-.129.091c-1.203.765-2.398 1.435-3.709 2.002a32.2 32.2 0 0 1-3.033 1.014l-.311.064c-.502.111-1.005.215-1.51.313-4.838.806-10.423.629-15.362.606l-3.338.004-.592-1.428c-.651-1.573-1.082-3.287-1.51-4.933-.995-3.826-1.922-7.673-2.55-11.573 7.882-1.456 16.565-5.54 21.304-12.171l.035-.051c.115-.171.223-.349.333-.524.028-.044.054-.089.078-.135.178-.334.291-.651.395-1.015.059-.204.086-.416.08-.629-.031-1.153-.311-2.055-1.167-2.908l-.282-.254-.317-.231-.342-.196-.355-.156-.375-.119-.386-.078-.388-.037-.386.006-.871.157-.794.349c-.409.24-.778.562-1.121.971-.674.802-1.236 1.644-1.992 2.383-3.851 3.768-9.107 6.065-14.431 7.139ZM22.347 39.3c.034.072.072.143.113.212.271.443.552.775.952 1.109l-.152-.14.602.501.685.366.729.218.74.074a4.229 4.229 0 0 0 1.487-.246l.734-.357.659-.52c.329-.305.568-.579.795-.972.209-.346.329-.693.441-1.084.036-.125.06-.253.072-.382.129-1.402.044-2.887.045-4.297 0-1.111.104-2.789-.102-3.832a2.207 2.207 0 0 0-.08-.289c-.415-1.174-1.086-2.027-2.244-2.565l-.397-.16-.414-.119-.42-.074-.43-.031-.428.013-.424.058-.417.102-.406.145-.388.187-.366.227-.34.262-.311.298-.278.327-.241.354-.205.38a4.2 4.2 0 0 0-.16.387c-.06.17-.103.339-.141.514-.151.613-.15 7.834.002 8.481.071.31.154.562.288.853Zm45.171 1.356a4.219 4.219 0 0 0 3.19.969l.801-.165.757-.323.675-.471.563-.594c.023-.029.045-.06.067-.091.304-.437.541-.893.67-1.416.261-1.068.171-3.951.132-5.2.02-.981.101-2.097-.037-3.094a4.518 4.518 0 0 0-.28-1.018l-.175-.367a4.554 4.554 0 0 0-.211-.349l-.244-.326-.278-.303a3.874 3.874 0 0 0-.301-.271l-.33-.243-.351-.208a4.256 4.256 0 0 0-.369-.172l-.009-.004-.406-.139-.42-.097-.426-.053-.432-.008a4.077 4.077 0 0 0-.427.037l-.424.082-.41.124-.398.168c-1.18.573-1.812 1.454-2.215 2.646-.051.15-.084.304-.1.461-.123 1.241-.048 2.555-.05 3.803-.001 1.095-.094 3.65.162 4.623.023.085.051.169.084.251.108.266.219.517.361.767l.123.19.135.188.573.603Z"/>
  </g>
</svg>
