<svg xmlns="http://www.w3.org/2000/svg" xml:space="preserve" style="fill-rule:evenodd;clip-rule:evenodd;stroke-linejoin:round;stroke-miterlimit:2" viewBox="0 0 100 100">
  <g>
    <path d="M.015 62.884V30.127c-.005-2.088.001-4.175.02-6.263.119-7.278.38-13.107 5.999-18.486 1.712-1.638 4.041-3.195 6.281-3.956C17.166-.225 23.818.05 28.957.047c3.032-.002 6.07-.047 9.101.009C46.729-.06 55.418.04 64.09.039l9.675.002c4.191.009 8.494-.082 12.59.945 2.754.69 5.623 2.431 7.652 4.412 5.276 5.151 5.869 10.302 5.941 17.321.028 3.983.035 7.966.02 11.95-.001 2.072.097 4.403-.019 6.442.122 1.922.011 3.907.013 5.837l.002 12.205.002 12.328c-.002 4.723.058 9.457-.801 14.121-.284 1.098-.581 2.187-1.043 3.227-1.528 3.439-4.411 6.542-7.649 8.441-2.413 1.415-5.023 2.101-7.789 2.372-5.428.482-10.913.338-16.358.338H43.147l-15.407-.003c-2.121.011-4.242-.018-6.362-.086-1.071-.034-2.204-.032-3.263-.196-1.807-.094-3.721-.411-5.438-.986-4.634-1.551-8.461-5.18-10.62-9.516-.469-.91-.772-1.895-1.076-2.869-1.02-4.478-.961-9.128-.964-13.699l-.002-9.741ZM50.233 6.56C26.258 6.56 6.793 26.025 6.793 50c0 23.975 19.465 43.44 43.44 43.44 23.976 0 43.441-19.465 43.441-43.44 0-23.975-19.465-43.44-43.441-43.44Zm0 35.922A7.522 7.522 0 0 1 57.752 50a7.522 7.522 0 0 1-7.519 7.518A7.521 7.521 0 0 1 42.715 50a7.521 7.521 0 0 1 7.518-7.518Zm5.851-2.609 7.087-12.266C70.894 32.111 76.13 40.492 76.13 50c0 14.207-11.69 25.897-25.897 25.897-14.206 0-25.897-11.69-25.897-25.897 0-9.508 5.237-17.889 12.959-22.393l7.087 12.266A11.695 11.695 0 1 0 61.929 50c0-4.324-2.352-8.103-5.845-10.127Zm13.797-23.879C81.61 22.79 89.507 35.48 89.507 50c0 21.676-17.598 39.274-39.274 39.274C28.558 89.274 10.96 71.676 10.96 50c0-14.52 7.896-27.21 19.625-34.006l5.876 10.169C28.24 30.957 22.666 39.878 22.666 50c0 15.123 12.444 27.568 27.567 27.568 15.124 0 27.568-12.445 27.568-27.568 0-10.122-5.574-19.043-13.795-23.837l5.875-10.169Z" style="fill:#080605"/>
  </g>
</svg>
