<svg xmlns="http://www.w3.org/2000/svg" xml:space="preserve" style="fill-rule:evenodd;clip-rule:evenodd;stroke-linejoin:round;stroke-miterlimit:2" viewBox="0 0 100 100">
  <g id="レイヤー1">
    <path d="M38.528.028c1.377-.043 2.766-.019 4.144-.023l21.23.04 7.901.012c4.077.012 8.284.02 12.248 1.085a19.123 19.123 0 0 1 1.317.394 20.662 20.662 0 0 1 3.152 1.356 19.545 19.545 0 0 1 1.192.684 20.29 20.29 0 0 1 1.697 1.17 21.89 21.89 0 0 1 1.063.87 18.556 18.556 0 0 1 1.004.938c6.174 6.154 6.502 13.551 6.52 21.759l.001 31.851v10.029c.002 4.399.098 8.986-.942 13.288a21.217 21.217 0 0 1-1.429 4.099 19.564 19.564 0 0 1-.662 1.289 21.734 21.734 0 0 1-.75 1.24 19.128 19.128 0 0 1-.834 1.185c-.146.193-.295.383-.448.57-.152.188-.308.372-.467.554a19.162 19.162 0 0 1-.991 1.058c-6.166 6.175-13.515 6.507-21.754 6.521H28.791c-4.151-.009-8.463.016-12.508-1.025a19.19 19.19 0 0 1-.665-.18 19.162 19.162 0 0 1-1.309-.424 20.779 20.779 0 0 1-2.523-1.1 20.808 20.808 0 0 1-1.785-1.036 21.942 21.942 0 0 1-1.676-1.206 22.017 22.017 0 0 1-1.048-.893 22.346 22.346 0 0 1-.501-.472C.863 87.897.179 81.117.076 73.257A914.08 914.08 0 0 1 .05 63.049L.002 41.343c-.031-4.178-.014-8.356.05-12.533.048-3.99-.009-8.079.894-11.987.053-.234.109-.466.169-.698a20.838 20.838 0 0 1 2.954-6.506 20.027 20.027 0 0 1 .849-1.159 21.955 21.955 0 0 1 .926-1.097c.16-.177.324-.352.491-.524C12.462.562 19.584.09 27.891.058l10.637-.03Zm10.068 27.799c2-.144 6.131.056 7.971.914.816.204 1.615.533 2.384.872a21.814 21.814 0 0 1 1.505.741 22.778 22.778 0 0 1 2.141 1.319 22.172 22.172 0 0 1 6.27 6.681c.093.155.176.296.234.468-2.709-1.888-5.869-2.632-9.125-2.663-.419.093-.862.114-1.29.155 1.619.898 3.333 1.921 4.542 3.351.549.475 1.026 1.107 1.453 1.691a18.237 18.237 0 0 1 2.112 3.839 18.067 18.067 0 0 1 .906 2.999 18.624 18.624 0 0 1 .214 1.237 18.561 18.561 0 0 1 .126 1.248c.312 4.251-.806 8.197-3.032 11.799l-.055.061c-.307.35-.559.771-.844 1.141-.351.454-.759.88-1.162 1.288-3.089 3.127-7.265 4.772-11.603 5.085-3.298.239-6.709-.176-9.741-1.541-.814-.367-1.549-.845-2.341-1.245-3.83-2.445-6.992-6.119-8.217-10.556-.212-.771-.599-2.008-.484-2.798.069-.476.321-.95.56-1.363 1.163-2.013 3.724-4.222 5.984-4.833 1.545-.809 4.458-1.175 6.235-1.286.538-.033 1.088.028 1.622-.045 1.504-.206 3.752-2.562 4.635-3.742.196-.261.584-.759.507-1.094-.023-.104-.126-.131-.212-.179-3.101-1.746-6.558-3.034-9.365-5.264-1.397-1.11-2.566-2.501-3.918-3.669-.365-.327-.821-.56-1.153-.921-.958-3.524-.95-7.015-.093-10.562-4.147 1.872-7.406 4.799-10.492 8.077-1.665-1.795-1.601-8.506-1.512-10.903-2.359 1.08-5.176 3.648-6.835 5.651-.91.832-1.692 1.957-2.424 2.945-3.839 5.178-6.08 11.092-7.001 17.449-.19 1.308-.391 2.649-.431 3.972-.002.041-.002.082-.003.124-.221 2.118-.097 4.294.133 6.407a40.443 40.443 0 0 0 .313 2.307 40.745 40.745 0 0 0 .436 2.287 39.395 39.395 0 0 0 .359 1.51 37.545 37.545 0 0 0 .412 1.497 48.703 48.703 0 0 0 .466 1.481 39.67 39.67 0 0 0 .519 1.463 39.89 39.89 0 0 0 .875 2.157 37.28 37.28 0 0 0 .647 1.411 40.821 40.821 0 0 0 .698 1.387 37.533 37.533 0 0 0 .746 1.361c.128.224.259.448.392.67a37.78 37.78 0 0 0 .818 1.319 45.208 45.208 0 0 0 1.776 2.546 47.73 47.73 0 0 0 .955 1.223 41.433 41.433 0 0 0 2.106 2.421 44.907 44.907 0 0 0 2.278 2.259 41.405 41.405 0 0 0 1.609 1.41c.274.229.55.454.83.675a44.374 44.374 0 0 0 2.586 1.899 40.428 40.428 0 0 0 1.799 1.158 42.684 42.684 0 0 0 5.707 2.924 44.67 44.67 0 0 0 5.043 1.772 44.872 44.872 0 0 0 3.117.761 41.355 41.355 0 0 0 2.105.379 42.163 42.163 0 0 0 2.122.274 42.049 42.049 0 0 0 3.199.221c.356.011.712.018 1.069.021a47.652 47.652 0 0 0 2.137-.038 42.434 42.434 0 0 0 3.197-.253 42.127 42.127 0 0 0 4.217-.703 42.373 42.373 0 0 0 4.127-1.114 40.144 40.144 0 0 0 2.017-.708 42.668 42.668 0 0 0 4.87-2.196 42.688 42.688 0 0 0 2.78-1.6 42.82 42.82 0 0 0 3.507-2.443c.282-.218.562-.439.838-.664 1.123-.91 4.558-3.939 5.202-5.015.586-.526 1.111-1.268 1.6-1.887 2.992-3.792 5.556-8.292 7.006-12.913 2.86-8.197 2.879-17.679.51-26.004a35.17 35.17 0 0 0-1.952-5.293c-1.688-3.555-4.736-7.945-8.212-9.883 2.072 4.338 3.557 8.501 4.401 13.242a48.92 48.92 0 0 0-6.388-10.947c-4.366-5.66-9.54-10.527-13.431-16.583-1.016-1.582-1.933-3.068-2.482-4.881-1.787.815-3.982 2.659-5.418 4.012-4.383 4.132-7.469 9.697-8.953 15.515-.388 1.524-.708 3.139-.756 4.713Zm13.01 32.223c1.663-2.777 2.517-5.804 2.278-9.066l-.002-.029a15.02 15.02 0 0 0-.097-.959 15.185 15.185 0 0 0-.164-.95 15.134 15.134 0 0 0-.23-.934 12.93 12.93 0 0 0-.295-.918 14.404 14.404 0 0 0-.358-.895 13.172 13.172 0 0 0-.652-1.289 12.106 12.106 0 0 0-.508-.818 12.64 12.64 0 0 0-.263-.38c-.246-.337-.496-.721-.813-.995a4.163 4.163 0 0 1-.457-.463c-.888-1.05-2.192-1.738-3.381-2.397a4.168 4.168 0 0 1-.475-6.978 6.326 6.326 0 0 0-.633-.196 4.142 4.142 0 0 1-.749-.265c-1.361-.635-4.432-.641-5.912-.535a18.937 18.937 0 0 0-1.328.139 17.648 17.648 0 0 0-3.817.994l-.184.072c2.505 1.847 5.507 2.964 8.215 4.469l.91.582.849.934.627 1.454.112.935-.108 1.087-.471 1.3c-.229.449-.55.901-.769 1.193-.812 1.084-2.512 2.914-4.13 4.014a9.352 9.352 0 0 1-1.696.927l-1.578.431c-.636.087-1.29.036-1.93.076-1.293.08-3.436.229-4.56.818a4.142 4.142 0 0 1-.845.331c-1.287.348-2.695 1.634-3.402 2.789.083.339.204.832.271 1.074.936 3.39 3.385 6.162 6.269 8.045.664.351 1.291.754 1.983 1.066 2.404 1.082 5.115 1.373 7.73 1.184 3.334-.241 6.565-1.454 8.939-3.857.285-.288.579-.584.826-.904.27-.351.522-.734.798-1.086Z"/>
  </g>
</svg>
