<svg xmlns="http://www.w3.org/2000/svg" xml:space="preserve" style="fill-rule:evenodd;clip-rule:evenodd;stroke-linejoin:round;stroke-miterlimit:2" viewBox="0 0 100 100">
  <g id="レイヤー1">
    <path d="M.015 62.884V30.127c-.005-2.088.001-4.175.02-6.263.119-7.278.38-13.107 5.999-18.486 1.712-1.638 4.041-3.195 6.281-3.956C17.166-.225 23.818.05 28.957.047c3.032-.002 6.07-.047 9.101.009C46.729-.06 55.418.04 64.09.039l9.675.002c4.191.009 8.494-.082 12.59.945 2.754.69 5.623 2.431 7.652 4.412 5.276 5.151 5.869 10.302 5.941 17.321.028 3.983.035 7.966.02 11.95-.001 2.072.097 4.403-.019 6.442.122 1.922.011 3.907.013 5.837l.002 12.205.002 12.328c-.002 4.723.058 9.457-.801 14.121-.284 1.098-.581 2.187-1.043 3.227-1.528 3.439-4.411 6.542-7.649 8.441-2.413 1.415-5.023 2.101-7.789 2.372-5.428.482-10.913.338-16.358.338H43.147l-15.407-.003c-2.121.011-4.242-.018-6.362-.086-1.071-.034-2.204-.032-3.263-.196-1.807-.094-3.721-.411-5.438-.986-4.634-1.551-8.461-5.18-10.62-9.516-.469-.91-.772-1.895-1.076-2.869-1.02-4.478-.961-9.128-.964-13.699l-.002-9.741Zm33.346-44.063L27.758 34.1l-1.941 5.289c-.362.987-.701 1.996-1.106 2.966l3.094.002 2.344-6.797 6.126.002 3.194-.001 1.514 4.379c.278.799.596 1.601.828 2.414 1.022-.001 2.046.008 3.068-.004l-8.626-23.53-2.892.001Zm1.425 3.559c.289.303 3.371 9.473 3.818 10.754l-3.738.001-3.852.002c.669-2.001 1.389-3.988 2.084-5.979.556-1.593 1.082-3.205 1.688-4.778Zm31.195-3.558c-1.761 4.657-3.407 9.365-5.103 14.046l-1.303 3.595c-.361.995-.695 2.036-1.212 2.963-.283.508-.627.89-1.169 1.129-.415.183-.863.256-1.309.325l.005 1.478 7.392-.002.004-1.499c-.67-.064-1.594-.177-2.052-.724-.274-.326-.251-.835-.199-1.23.166-1.248.944-3.18 1.367-4.436l5.378-.002c.645 0 1.701-.11 2.299.042l.039.041c.346 1.037 1.753 4.458 1.266 5.433-.18.362-.625.57-.994.674a7.659 7.659 0 0 1-1.164.221l.004 1.48 11.159.001.001-1.484c-.844-.115-1.663-.323-2.195-1.055-.805-1.107-1.705-4.097-2.199-5.467l-2.595-7.179-1.989-5.502c-.339-.94-.734-1.89-1.013-2.848h-4.418Zm.234 4.579c.254.248 2.965 8.523 3.263 9.491l-3.131.001-3.344.001 3.212-9.493Zm4.78 50.007c.219 1.206.764 2.346 1.751 3.105 1.249.961 2.94 1.151 4.463.944 1.007-.137 2.565-.65 3.185-1.509.225-.31.239-.753.16-1.118a.755.755 0 0 0-.331-.502c-.803-.493-2.114.45-2.95.635-.815.18-1.947.142-2.657-.33-2.392-1.591-.543-8.129.042-10.476.21-.846.728-2.228.54-3.092a1.178 1.178 0 0 0-.536-.768c-.297-.174-.726-.201-1.051-.098-.341.108-.556.358-.717.667-.31.597-.43 1.323-.588 1.974a87.5 87.5 0 0 0-.716 3.111c-.172.856-.296 1.736-.529 2.578-.275.987-.703 1.895-1.189 2.793-.133.218-.262.443-.41.652-.171.247-.357.493-.549.723-1.11 1.328-2.636 2.367-4.398 2.506-1.273.1-2.467-.24-3.442-1.077-1.427-1.224-2.094-3.174-2.237-4.999-.262-3.336.835-6.817 3.031-9.349 2.562-2.953 6.855-4.479 10.575-2.82.376.168.771.352 1.105.594.691.498 1.48 1.511 2.404 1.418.307-.031.584-.182.767-.432a1.33 1.33 0 0 0 .215-1.019c-.15-.767-.943-1.397-1.549-1.827-2.311-1.637-5.33-2.16-8.097-1.686-3.375.579-6.319 2.531-8.288 5.319-2.269 3.214-3.329 7.502-2.633 11.395.404 2.264 1.542 4.473 3.467 5.802 1.626 1.122 3.54 1.396 5.457 1.025 2.52-.488 4.307-2.059 5.705-4.139ZM32.179 53.765l-7.732 20.069c-.844.011-1.687.034-2.531.068l.003 3.391H31.5v-3.398c-1.067-.033-2.142-.04-3.207-.117.463-1.294.944-2.586 1.38-3.889l7.543.003.194.031c.395.557 1.177 3.104 1.439 3.892l-2.862.085-.002 3.394 11.648-.001.002-3.395-2.677-.071c-1.533-3.803-2.962-7.652-4.439-11.477-1.103-2.857-2.284-5.706-3.314-8.589l-5.026.004Zm1.365 5.383c.26.323 2.529 6.889 2.871 7.831l-2.702.002-2.999-.001c1.015-2.58 1.829-5.245 2.83-7.832Z" style="fill:#080605"/>
  </g>
</svg>
