<svg xmlns="http://www.w3.org/2000/svg" xml:space="preserve" style="fill-rule:evenodd;clip-rule:evenodd;stroke-linejoin:round;stroke-miterlimit:2" viewBox="0 0 100 100">
  <g id="レイヤー1">
    <path d="m37.433.032 2.995-.014 24.188.026 7.439.018c3.948.012 8.019.032 11.863 1.043.223.058.446.119.667.185a19.41 19.41 0 0 1 1.314.433 20.976 20.976 0 0 1 3.732 1.807 20.631 20.631 0 0 1 1.156.762 22.149 22.149 0 0 1 1.102.837c.18.145.356.294.53.445a18.833 18.833 0 0 1 1.015.942c6.012 5.969 6.53 13.107 6.559 21.141l.006 32.213-.001 10.378c-.001 4.315.093 8.783-.893 13.01a21.359 21.359 0 0 1-1.423 4.183 20.325 20.325 0 0 1-1.032 1.957 19.92 19.92 0 0 1-.8 1.24 23.284 23.284 0 0 1-.885 1.181 19.692 19.692 0 0 1-.966 1.115c-.167.181-.337.358-.511.532-5.78 5.805-12.429 6.388-20.214 6.504-3.558.053-7.12.02-10.678.019l-25.444.001-8.286-.002c-4.078-.007-8.324.023-12.307-.957a22.52 22.52 0 0 1-1.353-.373 19.996 19.996 0 0 1-1.326-.462 21.542 21.542 0 0 1-1.923-.856 21.607 21.607 0 0 1-2.413-1.432 20.433 20.433 0 0 1-1.672-1.278 19.381 19.381 0 0 1-1.041-.942C.846 87.829.159 81.03.083 73.061L.013 40.99c-.028-4.076-.011-8.151.051-12.227.047-4.05-.001-8.185.945-12.148a20.178 20.178 0 0 1 .375-1.384 22.625 22.625 0 0 1 .469-1.356 22.514 22.514 0 0 1 .874-1.965 22.613 22.613 0 0 1 .693-1.256 19.23 19.23 0 0 1 .777-1.205 19.942 19.942 0 0 1 1.314-1.702 20.303 20.303 0 0 1 .971-1.056C12.498.579 19.713.089 27.839.063l9.594-.031ZM4.686 48.261l-.016.539c.003 1.128-.036 2.269.001 3.396.028 1.39-.011 2.779.003 4.17.019.729-.018 1.459.006 2.187l-.016.46c.017 1.178.008 2.355.013 3.534.04 1.891-.014 3.783 0 5.675.005.177.013.354.003.531.004.813.075 1.705-.02 2.509.037.684.004 1.364.015 2.048l-.016.052c.189 4.648-.081 9.1 2.216 13.351a14.72 14.72 0 0 0 2.132 3.014c.278.304.568.595.87.875 2.172 1.998 4.747 3.157 7.595 3.802 1.981.354 3.981.485 5.991.533 4.62.112 9.264.037 13.888.029l20.851.003h12.275c3.789.002 7.734.159 11.469-.561a16.99 16.99 0 0 0 1.086-.245 17.097 17.097 0 0 0 1.066-.321 16.36 16.36 0 0 0 1.04-.396 17.866 17.866 0 0 0 1.01-.469 17.786 17.786 0 0 0 .974-.54c.159-.096.316-.194.472-.295a17.779 17.779 0 0 0 .911-.641 16.163 16.163 0 0 0 1.275-1.077c4.644-4.453 4.887-9.798 5.015-15.764-.017-.372-.034-.733.01-1.104-.107-.706-.018-1.56-.017-2.281v-5.11l.011-.402-.005-.542-.002-.672.001-.672c.027-1.919-.001-3.841.007-5.76-.012-.459-.002-.919.002-1.378-.012-.769.001-1.541.002-2.311a92.274 92.274 0 0 0-.029-1.578l.032-.118v-.159l-.024-.142.214-.111c.03-.19-.123-.172-.147-.36l.112-.062c.037-.136.066-.229.047-.371l-.214-.15-.023-.075.017-.586c.061-1.499.006-3.024.01-4.526l-.003-.383.008-2.51-.013-.744.001-.44.007-1.072-.011-.221.011-.352-.01-.251.012-.569v-.62c-.012-.607-.01-1.214.006-1.821-.033-.576-.008-1.167-.009-1.744l.003-1.4c.003-1.121-.003-2.243-.018-3.364l-.001-.4.014-.364.004-.777c-.006-.474-.003-.947.009-1.421l-.008-.669c-.006-.357 0-.715.001-1.071-.003-2.069-.127-4.115-.239-6.177-.171-.571-.189-1.306-.291-1.905a14.774 14.774 0 0 0-.638-2.501 14.76 14.76 0 0 0-1.057-2.354 13.053 13.053 0 0 0-.376-.65 15.25 15.25 0 0 0-1.314-1.826c-.081-.096-.163-.19-.245-.284a13.422 13.422 0 0 0-.511-.55 16.615 16.615 0 0 0-.537-.525 13.11 13.11 0 0 0-.563-.496 16.74 16.74 0 0 0-.888-.692 12.99 12.99 0 0 0-.619-.423 15.314 15.314 0 0 0-.64-.393c-.109-.062-.218-.124-.328-.184a13.028 13.028 0 0 0-.667-.343 14.87 14.87 0 0 0-2.452-.933c-1.744-.501-3.57-.701-5.376-.801-4.13-.227-8.295-.12-12.431-.119l-19.863.001-15.3-.002c-3.527 0-7.107-.11-10.619.237-2.516.249-4.865.817-7.095 2.059-3.675 2.048-6.133 5.408-7.275 9.426-.869 3.883-.788 7.785-.814 11.739.016.659.02 1.317.012 1.976l-.005.507-.006.458c.001.68-.021 1.369.007 2.048.012 1.198.057 2.425-.006 3.62.002.255-.001.51.007.764-.002.318.001.637-.011.955l.009 1.459-.002.177c.02.991.02 1.981.001 2.972-.001.377-.008.755.011 1.131.005 1.182-.03 2.365-.003 3.546l.008.347Z"/>
    <path d="M20.438 8.898c1.249-.101 2.554-.025 3.811-.025l7.252.002 22.752.001 17.385-.002h5.06c1.355-.001 2.711-.042 4.058.145 2.208.308 4.348 1.301 6.052 2.732a10.21 10.21 0 0 1 .446.397c.073.068.145.137.216.207.071.069.141.14.211.211a14.224 14.224 0 0 1 .599.666 13.679 13.679 0 0 1 .549.708 13.45 13.45 0 0 1 .496.747 13.249 13.249 0 0 1 .439.781 11.06 11.06 0 0 1 .26.537c.041.091.082.182.121.274a11.366 11.366 0 0 1 .22.555l.1.281a15.479 15.479 0 0 1 .257.858c.025.097.049.193.072.29.023.097.044.195.065.292a15.128 15.128 0 0 1 .108.588 14.97 14.97 0 0 1 .079.592c.01.099.02.198.028.297.123 1.496.056 3.033.055 4.535l.002 7.256.004 23.3.008 16.865.002 4.782c.001 1.27.048 2.552-.129 3.812a12.518 12.518 0 0 1-.244 1.288 12.487 12.487 0 0 1-.382 1.253 11.85 11.85 0 0 1-.516 1.205 12.907 12.907 0 0 1-.644 1.142 12.048 12.048 0 0 1-1.042 1.401c-2.221 2.58-5.234 3.974-8.6 4.238-1.439.082-2.905.028-4.348.028l-7.726-.001-24.277-.001H27.709l-4.544.003c-1.368-.001-2.735.027-4.092-.172-2.175-.318-4.241-1.344-5.909-2.758-2.538-2.153-3.995-5.142-4.257-8.444-.104-1.323-.037-2.691-.037-4.018l.002-7.394.011-23.463.006-16.826-.001-4.949c-.001-1.216-.053-2.457.112-3.663a12.907 12.907 0 0 1 .248-1.309 10.894 10.894 0 0 1 .244-.855c.045-.141.094-.281.145-.42a12.204 12.204 0 0 1 2.244-3.806c2.199-2.548 5.237-3.904 8.557-4.163Zm18.597 42.144c.13 0 .26-.003.389-.011 3.711-.202 6.617-3.3 6.617-7.055V30.414c0-8.155-6.635-14.789-14.79-14.789s-14.789 6.634-14.792 14.789v13.557c0 1.861.722 3.622 2.032 4.961a6.922 6.922 0 0 0 4.982 2.11h.041a6.934 6.934 0 0 0 3.845-1.181 7.03 7.03 0 0 0 3.892 1.181 7.03 7.03 0 0 0 3.892-1.181 7.025 7.025 0 0 0 3.892 1.181Z"/>
    <path d="M29.365 28.67c1.343.779 1.342 2.719-.001 3.496l-4.352 2.512a2.02 2.02 0 0 1-2.757-.739 2.022 2.022 0 0 1 .738-2.757l1.325-.765-1.325-.765a2.021 2.021 0 0 1-.737-2.758 2.022 2.022 0 0 1 2.757-.738l4.352 2.514Zm9.434-.275c1.118 0 2.019.902 2.019 2.019a2.018 2.018 0 0 1-2.019 2.019h-5.716a2.02 2.02 0 0 1 0-4.038h5.716Z"/>
  </g>
</svg>
