<svg xmlns="http://www.w3.org/2000/svg" xml:space="preserve" style="fill-rule:evenodd;clip-rule:evenodd;stroke-linejoin:round;stroke-miterlimit:2" viewBox="0 0 100 100">
  <path d="M98.269 14.04c.941 2.201 1.314 4.841 1.498 7.211.314 4.033.218 8.106.219 12.149l.001 17.208v16.586c-.001 3.909.097 7.85-.232 11.748-.215 2.556-.692 5.101-1.646 7.489a25.012 25.012 0 0 1-.405.947 24.729 24.729 0 0 1-.451.925 19.84 19.84 0 0 1-.761 1.344 19.885 19.885 0 0 1-.562.863 17.666 17.666 0 0 1-.603.835c-.104.136-.209.272-.316.406a20.866 20.866 0 0 1-1.365 1.541 20.82 20.82 0 0 1-6.754 4.622c-2.459 1.054-5.079 1.57-7.733 1.815-3.916.362-7.911.253-11.841.253l-16.806.001-17.35-.001c-4.022 0-8.094.108-12.104-.244-2.559-.224-5.081-.703-7.473-1.662a19.76 19.76 0 0 1-1.872-.861 22.106 22.106 0 0 1-.901-.498 24.543 24.543 0 0 1-.877-.542 22.882 22.882 0 0 1-1.261-.893 20.93 20.93 0 0 1-2.663-2.427 17.738 17.738 0 0 1-.681-.774 24.596 24.596 0 0 1-.641-.806c-.104-.137-.205-.276-.306-.415a24.594 24.594 0 0 1-.58-.852 24.525 24.525 0 0 1-.537-.879 19.85 19.85 0 0 1-.494-.905 19.75 19.75 0 0 1-.448-.928c-.071-.156-.14-.314-.207-.472-1.061-2.505-1.575-5.17-1.811-7.871-.333-3.806-.233-7.655-.243-11.472l-.055-15.73V34.848l.061-6.871c.023-1.993.033-3.986.167-5.976.143-2.117.445-5.156 1.259-7.121.02-.047.044-.093.067-.139.776-3.052 4.021-7.85 6.647-9.597.898-.858 2.271-1.735 3.399-2.249l.245-.134c2.69-1.443 5.748-2.107 8.762-2.414 3.799-.386 7.665-.28 11.481-.285L46.394.014l19.258.043c4.061.013 8.143-.081 12.198.158 1.904.112 3.978.294 5.812.848.913.174 1.821.503 2.685.843a21.88 21.88 0 0 1 1.433.624 21.634 21.634 0 0 1 2.051 1.133 22.957 22.957 0 0 1 1.291.881 21.69 21.69 0 0 1 1.221.975 19.173 19.173 0 0 1 1.145 1.063 20.608 20.608 0 0 1 1.56 1.749 21.654 21.654 0 0 1 .926 1.258c.928 1.366 1.767 2.882 2.295 4.451ZM9.661 61.275c.754 2.72 1.667 5.328 2.9 7.872a37.96 37.96 0 0 0 .714 1.391 38.077 38.077 0 0 0 .765 1.363 40.918 40.918 0 0 0 1.243 1.988 40.746 40.746 0 0 0 2.312 3.15 46.698 46.698 0 0 0 1.005 1.197 48.122 48.122 0 0 0 1.05 1.158 41.264 41.264 0 0 0 1.654 1.662 40.912 40.912 0 0 0 2.955 2.556 40.635 40.635 0 0 0 2.527 1.839 45.888 45.888 0 0 0 1.314.848 40.882 40.882 0 0 0 1.344.797c1.671.946 5.843 3.045 7.618 3.315.424.064.844.05 1.259-.063.477-.129.779-.432 1.094-.796.119-.294.205-.567.242-.883.107-.908.033-1.889.024-2.804-.028-1.735-.04-3.47-.036-5.206-1.508.256-3.01.458-4.543.465-3.289.014-6.822-.802-8.684-3.77-.466-.742-.755-1.569-1.132-2.356-.647-1.348-1.53-2.805-2.53-3.924-.302-.338-.657-.628-.979-.948-.012-.025-.023-.052-.036-.077-.26-.508-1.956-1.004-2.087-1.816.079.017.211.067.288.064.135-.006.392-.181.532-.227.398-.133.829-.256 1.248-.298.643-.066 1.29.025 1.927.102 1.158.138 2.668 1.806 3.347 2.692.503.656.907 1.379 1.4 2.04 1.316 1.765 3.22 3.04 5.421 3.34 1.177.16 2.565.127 3.718-.172.33-.086.634-.24.965-.333.391-.108.911-.186 1.235-.432.231-.175.332-.459.368-.738.024-.187.005-.381.042-.567.064-.313.299-.587.171-.91.361-1.398 1.19-2.529 2.195-3.529-5.621-.665-11.39-2.204-15.054-6.873-2.682-3.418-3.676-7.78-3.861-12.041-.055-1.283-.063-2.562.095-3.84a15.953 15.953 0 0 1 .484-2.461 15.418 15.418 0 0 1 .387-1.195 15.355 15.355 0 0 1 .48-1.16 17.278 17.278 0 0 1 .57-1.118c.102-.183.208-.363.318-.541a16.361 16.361 0 0 1 1.078-1.543 15.57 15.57 0 0 1 .817-.953c-1.322-3.639-.981-7.5.407-11.067 3.48-.673 8.643 2.387 11.487 4.283 1.107-.402 2.351-.617 3.509-.823a38.942 38.942 0 0 1 4.329-.52c.363-.024.726-.042 1.09-.055a35.959 35.959 0 0 1 2.18-.019 36.127 36.127 0 0 1 2.179.101 39.086 39.086 0 0 1 5.393.78 38.987 38.987 0 0 1 2.118.52c2.795-1.88 6.175-3.913 9.581-4.306.491-.057 1.094-.108 1.581-.015.155.03.236.065.323.203.279.441.41 1.059.552 1.56.748 2.641.925 5.395.234 8.071-.113.435-.255.86-.4 1.285 3.38 3.757 4.481 7.977 4.219 12.941-.268 5.089-1.655 10.22-5.576 13.752-2.939 2.648-6.769 3.965-10.605 4.641-.913.16-1.864.323-2.79.378 2.19 2.133 2.788 4.81 2.828 7.788.035 2.622-.021 5.256-.032 7.88-.005 1.3-.207 3.197.144 4.416l.078.118c.282.438.604.744 1.111.911.396.13.828.134 1.237.065 1.653-.281 5.1-1.971 6.678-2.814a44.304 44.304 0 0 0 1.467-.829 47.62 47.62 0 0 0 1.433-.888 42.681 42.681 0 0 0 4.709-3.547 41.876 41.876 0 0 0 8.587-10.322c.143-.242.284-.486.421-.731a37.956 37.956 0 0 0 1.173-2.239c.123-.253.244-.507.361-.762.933-2.028 1.648-4.106 2.295-6.24.026-.473.247-1.054.359-1.521.244-.984.446-1.976.607-2.976a41.987 41.987 0 0 0 .416-9.7 42.003 42.003 0 0 0-.46-3.863 44.395 44.395 0 0 0-.363-1.912 47.89 47.89 0 0 0-.229-.996 42.284 42.284 0 0 0-2.275-6.778 45.711 45.711 0 0 0-.861-1.855 45.85 45.85 0 0 0-.464-.911 45.948 45.948 0 0 0-.995-1.786 43.284 43.284 0 0 0-1.081-1.736 40.536 40.536 0 0 0-1.166-1.68 40.564 40.564 0 0 0-1.898-2.409 44.656 44.656 0 0 0-1.363-1.525 41.035 41.035 0 0 0-2.179-2.158c-.251-.23-.505-.458-.761-.683a37.804 37.804 0 0 0-1.572-1.308 40.527 40.527 0 0 0-2.472-1.815 43.279 43.279 0 0 0-1.727-1.109 37.55 37.55 0 0 0-1.786-1.027 43.942 43.942 0 0 0-1.835-.937 44.091 44.091 0 0 0-1.879-.845 41.44 41.44 0 0 0-3.872-1.406 38.539 38.539 0 0 0-1.984-.558 42.893 42.893 0 0 0-2.008-.46 43.956 43.956 0 0 0-2.029-.359 39.096 39.096 0 0 0-2.044-.259 44.393 44.393 0 0 0-2.054-.158 39.214 39.214 0 0 0-1.03-.04 39.24 39.24 0 0 0-3.09.031 39.091 39.091 0 0 0-2.055.147 43.879 43.879 0 0 0-2.045.25 43.034 43.034 0 0 0-2.03.35 39.315 39.315 0 0 0-2.982.706 41.906 41.906 0 0 0-1.948.589 41.966 41.966 0 0 0-3.796 1.46 40.534 40.534 0 0 0-2.744 1.335 45.003 45.003 0 0 0-1.772 1 42.802 42.802 0 0 0-2.561 1.659 44.291 44.291 0 0 0-1.637 1.209 44.156 44.156 0 0 0-1.576 1.286 40.693 40.693 0 0 0-1.511 1.363 44.264 44.264 0 0 0-1.442 1.434c-.235.245-.467.493-.695.744a40.251 40.251 0 0 0-2.591 3.136 37.52 37.52 0 0 0-1.177 1.659c-.19.281-.376.564-.558.85a36.79 36.79 0 0 0-.894 1.466 42.151 42.151 0 0 0-.833 1.5 39.289 39.289 0 0 0-.77 1.534 45.695 45.695 0 0 0-.706 1.565 42.598 42.598 0 0 0-.641 1.592 38.77 38.77 0 0 0-.837 2.435 45.729 45.729 0 0 0-.473 1.649 48.226 48.226 0 0 0-.405 1.668A41.607 41.607 0 0 0 8.55 54.7c.206 2.231.624 4.391 1.111 6.575Z"/>
</svg>
