<svg xmlns="http://www.w3.org/2000/svg" xml:space="preserve" style="fill-rule:evenodd;clip-rule:evenodd;stroke-linejoin:round;stroke-miterlimit:2" viewBox="0 0 100 100">
  <path d="m27.936.036.396-.008c3.397-.06 6.8-.02 10.199-.021h29.826c5.109.005 10.43-.08 15.427 1.13a19.113 19.113 0 0 1 1.306.357 20.197 20.197 0 0 1 4.322 1.925 21.24 21.24 0 0 1 1.139.733 19.638 19.638 0 0 1 2.61 2.153c6.079 5.878 6.669 12.867 6.798 20.896.039 3.803.05 7.607.033 11.41l.001 18.273-.002 11.497c-.005 5.08.089 10.347-1.101 15.317a19.549 19.549 0 0 1-1.331 3.882 19.46 19.46 0 0 1-1.318 2.401 21.695 21.695 0 0 1-.78 1.127c-.136.183-.276.364-.418.543a20.035 20.035 0 0 1-1.364 1.537c-6.061 6.24-13.257 6.666-21.478 6.781l-.085.002c-3.48.059-6.966.021-10.448.021l-18.363.001-11.763-.001c-5.054-.005-10.288.084-15.233-1.097a22.202 22.202 0 0 1-1.321-.354 19.781 19.781 0 0 1-2.556-.976 20.49 20.49 0 0 1-1.221-.616 18.189 18.189 0 0 1-1.176-.699 18.167 18.167 0 0 1-1.126-.777 20.023 20.023 0 0 1-2.08-1.777C.706 87.754.165 80.748.041 72.645a812.506 812.506 0 0 1-.033-11.473L.007 43.043.009 31.4c.005-5.01-.068-10.209 1.109-15.11a19.08 19.08 0 0 1 .57-1.978 21.633 21.633 0 0 1 .492-1.281 20.599 20.599 0 0 1 .899-1.852A19.475 19.475 0 0 1 3.782 10c.124-.192.251-.383.381-.571a21.79 21.79 0 0 1 .821-1.1 18.29 18.29 0 0 1 .893-1.042c.155-.169.313-.334.473-.498C12.43.54 19.718.151 27.936.036ZM12.128 61.294c.035 1.03.199 2.05.603 3.004.383.905.94 1.767 1.431 2.616l2.282 3.952 3.196 5.537c.625 1.081 1.221 2.203 1.916 3.241a6.97 6.97 0 0 0 1.05 1.22c.434.405.902.734 1.403 1.049 1.065.574 2.115.936 3.327 1.032 2.068.164 4.387.043 6.485.042l12.247-.001h17.161c2.975 0 5.992.104 8.963-.019.711-.029 1.371-.112 2.056-.314a7.979 7.979 0 0 0 1.704-.719c.478-.3.935-.618 1.356-.996a7.35 7.35 0 0 0 1.216-1.429c.621-.928 1.151-1.935 1.71-2.901l3.074-5.338 2.474-4.265c.517-.893 1.092-1.787 1.49-2.741.393-.94.547-1.915.598-2.927a8.377 8.377 0 0 0-.29-2.105c-.418-1.523-1.356-2.849-2.134-4.205l-2.688-4.674-9.679-16.764-5.687-9.857c-.981-1.7-1.9-3.531-3.014-5.144a7.387 7.387 0 0 0-2.476-2.242c-.477-.308-1.055-.536-1.597-.703-.676-.209-1.356-.295-2.062-.333-1.157-.063-2.335-.022-3.495-.022l-6.209.002-4.435-.003c-1.055 0-2.129-.041-3.178.093-1.017.13-1.93.482-2.834.954-1.042.633-1.877 1.374-2.565 2.386-1.003 1.474-1.842 3.127-2.733 4.674l-5.013 8.687-10.115 17.52-2.831 4.908c-.881 1.525-2.041 3.144-2.464 4.869a9.163 9.163 0 0 0-.243 1.916Zm37.86-24.3c1.112 1.759 2.106 3.615 3.146 5.419l5.672 9.827 3.544 6.136c.549.951 1.226 1.929 1.67 2.924-3.255-.084-6.532-.007-9.789-.007l-18.287.006c4.793-8.033 9.285-16.251 14.044-24.305Z"/>
</svg>
