<svg xmlns="http://www.w3.org/2000/svg" xml:space="preserve" style="fill-rule:evenodd;clip-rule:evenodd;stroke-linejoin:round;stroke-miterlimit:2" viewBox="0 0 100 100">
  <g id="レイヤー1">
    <path d="M70.833.059h-6.261v1.835c.036 9.758.665 18.429 7.968 25.68a25.551 25.551 0 0 0 2.538 2.204 25.626 25.626 0 0 0 4.293 2.633 24.99 24.99 0 0 0 1.537.682c.26.105.521.206.784.303a28.68 28.68 0 0 0 1.597.527c.269.079.539.153.811.223 4.669 1.229 9.614 1.253 14.41 1.267l1.484.004.005 24.453-.001 10.378c-.001 4.315.093 8.783-.893 13.01a21.359 21.359 0 0 1-1.423 4.183 20.325 20.325 0 0 1-1.032 1.957 19.92 19.92 0 0 1-.8 1.24 23.284 23.284 0 0 1-.885 1.181 19.692 19.692 0 0 1-.966 1.115c-.167.181-.337.358-.511.532-5.78 5.805-12.429 6.388-20.214 6.504-3.558.053-7.12.02-10.678.019l-25.444.001-8.286-.002c-4.078-.007-8.324.023-12.307-.957a22.52 22.52 0 0 1-1.353-.373 19.996 19.996 0 0 1-1.326-.462 21.542 21.542 0 0 1-1.923-.856 21.607 21.607 0 0 1-2.413-1.432 20.433 20.433 0 0 1-1.672-1.278 19.381 19.381 0 0 1-1.041-.942C.846 87.829.159 81.03.083 73.061L.013 40.99c-.028-4.076-.011-8.151.051-12.227.047-4.05-.001-8.185.945-12.148a20.178 20.178 0 0 1 .375-1.384 22.625 22.625 0 0 1 .469-1.356 22.514 22.514 0 0 1 .874-1.965 22.613 22.613 0 0 1 .693-1.256 19.23 19.23 0 0 1 .777-1.205 19.942 19.942 0 0 1 1.314-1.702 20.303 20.303 0 0 1 .971-1.056C12.498.579 19.713.089 27.839.063l9.594-.031 2.995-.014 24.188.026 6.217.015Zm0 0 29.161 29.108-1.222-.003c-3.948-.012-8.019-.031-11.863-1.043a21.923 21.923 0 0 1-1.328-.39 25.286 25.286 0 0 1-.654-.228 20.976 20.976 0 0 1-3.135-1.455 20.602 20.602 0 0 1-3.385-2.396 22.357 22.357 0 0 1-1.014-.941c-6.012-5.97-6.53-13.108-6.559-21.142l-.001-1.51ZM22.211 61.054c-.024 1.882.023 3.765-.002 5.647 1.664.143 3.4.05 5.071.05h9.186l29.226-.001 8.062.001c1.144 0 2.636-.104 3.736.006l.378-.069c.05-.647.014-1.317.012-1.968a94.776 94.776 0 0 1 .024-3.694c-4.446-.054-8.895-.027-13.341-.028l-22.197-.001-12.844.001c-2.425-.001-4.893-.097-7.311.056Zm.009 12.942c-.022.679-.11 5.351.064 5.628.904.17 1.973.072 2.896.072l5.35-.001h15.292c2.56 0 5.138-.065 7.697.002l.294-.076c.136-.52.008-1.343 0-1.906-.016-1.236-.059-2.527.074-3.754-.821.038-1.654-.013-2.478-.015l-5.174-.003-16.28-.001c-2.53 0-5.221-.119-7.735.054Zm-.01-38.842.022 5.659c1.664.098 3.351.046 5.018.045l8.451-.002 27.945.001 9.182.001c1.502 0 3.031-.06 4.53 0 .02.002.039.005.059.006.235.019.526.047.707-.134.286-.286.222-4.326.192-4.973a6.458 6.458 0 0 0-.122-.479c-.139-.132-.162-.124-.355-.15l-.158-.001c-3.545-.078-7.101-.022-10.647-.022l-19.185.001-15.944-.003c-3.229 0-6.468-.058-9.695.051Zm-.006 12.949c-.011 1.876.046 3.76.003 5.634 1.58.186 3.264.068 4.859.066l8.611-.001 28.694.002 9.221-.002c1.352-.001 3.027-.091 4.341-.009-.177-1.125-.113-4.528-.007-5.723-1.396.06-2.827-.019-4.227-.018h-9.681l-29.177-.001h-7.613c-1.673 0-3.353-.032-5.024.052Z"/>
  </g>
</svg>
