<svg xmlns="http://www.w3.org/2000/svg" xml:space="preserve" style="fill-rule:evenodd;clip-rule:evenodd;stroke-linejoin:round;stroke-miterlimit:2" viewBox="0 0 100 100">
  <g id="レイヤー1">
    <path d="m37.709.041 7.098-.029L64.385.05l8.323.021c7.885.037 14.878.618 20.767 6.512 6.305 6.311 6.505 13.885 6.512 22.272l.002 31.67v9.989c-.006 4.258.065 8.661-.923 12.828a21.746 21.746 0 0 1-.378 1.417 20.953 20.953 0 0 1-1.047 2.737 21.058 21.058 0 0 1-1.83 3.171 19.494 19.494 0 0 1-.883 1.171 20.899 20.899 0 0 1-1.472 1.633c-5.813 5.806-12.367 6.366-20.163 6.496-3.687.061-7.38.019-11.068.019H37.098l-8.342-.001c-4.086-.011-8.316.017-12.303-.989a20.225 20.225 0 0 1-1.361-.382 19.502 19.502 0 0 1-1.333-.473 21.834 21.834 0 0 1-1.297-.561 20.709 20.709 0 0 1-2.468-1.377 23.124 23.124 0 0 1-1.158-.811 19.754 19.754 0 0 1-1.101-.886 19.664 19.664 0 0 1-1.04-.958C.194 87.139.088 79.354.074 70.818L.035 59.52.013 37.607c-.022-3.197-.003-6.394.058-9.59.051-3.923.039-7.936 1.035-11.757a22.382 22.382 0 0 1 .386-1.344 19.798 19.798 0 0 1 .474-1.314 22.573 22.573 0 0 1 .562-1.28 21.424 21.424 0 0 1 1.001-1.841A20.246 20.246 0 0 1 4.71 8.749a18.94 18.94 0 0 1 .881-1.085 23.012 23.012 0 0 1 .952-1.023C12.649.488 19.97.089 28.149.069l9.56-.028Zm42.582 16.795c-1.792.224-3.447 1.061-4.571 2.498a7.36 7.36 0 0 0-1.003 1.771c-.959 2.363-1.759 4.815-2.631 7.213l-5.149 14.17-2.606 7.164c-.517 1.414-1.196 2.894-1.476 4.374-.26 1.373-.159 2.793-.118 4.181l.145 4.52c.044 1.454-.032 3.012.15 4.447.073.574.241 1.065.719 1.425.44.331.988.518 1.539.441 1.163-.164 1.861-1.383 2.614-2.165 1.394-1.59 2.819-3.155 4.231-4.729.969-1.08 2.116-2.177 2.839-3.443.902-1.579 1.423-3.446 2.046-5.154l3.07-8.394 4.8-13.135 1.506-4.112c.303-.825.64-1.652.892-2.493a6.74 6.74 0 0 0 .117-3.405 6.669 6.669 0 0 0-.415-1.244 6.19 6.19 0 0 0-.298-.585 6.167 6.167 0 0 0-.353-.553 7.217 7.217 0 0 0-.629-.758 6.344 6.344 0 0 0-.728-.654 6.226 6.226 0 0 0-.528-.372 6.99 6.99 0 0 0-.853-.457 6.966 6.966 0 0 0-.602-.235 6.492 6.492 0 0 0-.938-.24 7.026 7.026 0 0 0-.963-.102 5.798 5.798 0 0 0-.646.01c-.054.003-.107.01-.161.016Zm-58.882 7.886c-.557.072-1.056.188-1.426.653-.593.746-.55 2.267-.419 3.166.081.556.273 1.089.748 1.425.472.333 1.197.342 1.758.366 1.068.046 2.149.015 3.218.016h22.795l9.428-.001c1.428 0 3.407.133 4.759-.078.536-.083.96-.22 1.293-.673.566-.772.53-2.335.363-3.238-.088-.473-.276-1.007-.687-1.295-.406-.284-.984-.348-1.469-.365-3.104-.107-6.24-.017-9.348-.017l-17.978.002h-8.921c-1.156-.001-3.058-.126-4.114.039Zm8.209 34.085c-.492.13-.952.294-1.343.635-.547.476-.865 1.183-1.295 1.758a16.251 16.251 0 0 1-2.982 3.01 16.72 16.72 0 0 1-1.155.819c-.968.624-3.16 1.329-3.691 2.288-.274.494-.181 1.075-.015 1.588.279.862.787 2.2 1.635 2.632.541.276 1.213.115 1.757-.075 2.053-.721 3.979-1.95 5.643-3.338 1.741 5.689 5.364 10.555 10.678 13.371 4.761 2.523 9.74 2.726 14.836 1.165.988-.359 1.959-.743 2.902-1.209 1.806-.893 5.745-3.237 6.527-5.053.15-.349.105-.832-.052-1.171-.411-.886-1.569-2.212-2.525-2.505-.482-.148-.957-.028-1.387.213-.923.518-1.657 1.415-2.531 2.024-3.643 2.538-7.969 3.811-12.353 2.657-3.824-1.007-7.159-3.913-9.104-7.311a17.678 17.678 0 0 1-2.041-5.918 16.72 16.72 0 0 1-.114-.892c-.1-1.021.048-2.187-.386-3.14-.332-.731-1.01-1.245-1.772-1.465-.409-.118-.811-.123-1.232-.083Zm-7.776-14.546c-.672.047-1.379.113-1.848.665-.585.689-.548 2.157-.454 3.012.06.549.194 1.148.638 1.52.381.319 1.025.416 1.514.446 2.152.135 4.374.026 6.531.026l12.46-.001 9.377-.002c1.336 0 3.136.113 4.41-.014.666-.058 1.421-.103 1.88-.664.608-.744.581-2.208.464-3.115-.074-.571-.275-1.118-.748-1.477-.326-.247-.717-.355-1.12-.383-1.674-.119-3.407-.033-5.088-.031l-9.344.001H28.305c-2.146 0-4.32-.074-6.463.017Z"/>
  </g>
</svg>
