<svg xmlns="http://www.w3.org/2000/svg" xml:space="preserve" style="fill-rule:evenodd;clip-rule:evenodd;stroke-linejoin:round;stroke-miterlimit:2" viewBox="0 0 100 100">
  <g id="レイヤー1">
    <path d="M70.833.059h-6.261v1.835c.036 9.758.665 18.429 7.968 25.68a25.551 25.551 0 0 0 2.538 2.204 25.626 25.626 0 0 0 4.293 2.633 24.99 24.99 0 0 0 1.537.682c.26.105.521.206.784.303a28.68 28.68 0 0 0 1.597.527c.269.079.539.153.811.223 4.669 1.229 9.614 1.253 14.41 1.267l1.484.004.005 24.453-.001 10.378c-.001 4.315.093 8.783-.893 13.01a21.359 21.359 0 0 1-1.423 4.183 20.325 20.325 0 0 1-1.032 1.957 19.92 19.92 0 0 1-.8 1.24 23.284 23.284 0 0 1-.885 1.181 19.692 19.692 0 0 1-.966 1.115c-.167.181-.337.358-.511.532-5.78 5.805-12.429 6.388-20.214 6.504-3.558.053-7.12.02-10.678.019l-25.444.001-8.286-.002c-4.078-.007-8.324.023-12.307-.957a22.52 22.52 0 0 1-1.353-.373 19.996 19.996 0 0 1-1.326-.462 21.542 21.542 0 0 1-1.923-.856 21.607 21.607 0 0 1-2.413-1.432 20.433 20.433 0 0 1-1.672-1.278 19.381 19.381 0 0 1-1.041-.942C.846 87.829.159 81.03.083 73.061L.013 40.99c-.028-4.076-.011-8.151.051-12.227.047-4.05-.001-8.185.945-12.148a20.178 20.178 0 0 1 .375-1.384 22.625 22.625 0 0 1 .469-1.356 22.514 22.514 0 0 1 .874-1.965 22.613 22.613 0 0 1 .693-1.256 19.23 19.23 0 0 1 .777-1.205 19.942 19.942 0 0 1 1.314-1.702 20.303 20.303 0 0 1 .971-1.056C12.498.579 19.713.089 27.839.063l9.594-.031 2.995-.014 24.188.026 6.217.015Zm0 0 29.161 29.108-1.222-.003c-3.948-.012-8.019-.031-11.863-1.043a21.923 21.923 0 0 1-1.328-.39 25.286 25.286 0 0 1-.654-.228 20.976 20.976 0 0 1-3.135-1.455 20.602 20.602 0 0 1-3.385-2.396 22.357 22.357 0 0 1-1.014-.941c-6.012-5.97-6.53-13.108-6.559-21.142l-.001-1.51ZM25.125 25.886c-1.266.595-2.432 1.496-2.881 2.885-.21.653-.086 4.33-.086 5.272v22.079c0 1.778-.081 3.596.015 5.37.023.428.153.745.359 1.118.78 1.41 1.356 1.399 2.483 2.242 1.607.116 3.254.048 4.865.048 2.368 0 4.741.033 7.107-.034a536.826 536.826 0 0 0-.024 7.4c0 1.41-.081 2.879.038 4.282.002.027.003.055.006.082.069.702 1.013 1.809 1.568 2.234.396.302.851.502 1.248.796 1.98.144 4.022.048 6.008.048l11.111-.002 11.667.002c2.059 0 4.162.098 6.214-.036 1.126-.343 2.171-1.353 2.72-2.375.063-.121.124-.243.182-.367.108-.231.106-.503.112-.753.046-1.945.008-3.899.008-5.845l.001-11.07v-9.923c-.001-1.714.042-3.442-.008-5.155-.007-.24-.015-.508-.104-.733-.452-1.133-1.473-2.177-2.602-2.64-.232-.095-.455-.12-.703-.134-1.353-.076-2.747-.01-4.105-.009-2.435.001-4.872-.014-7.307.018.025-2.74.033-5.481.023-8.221.001-.898.124-2.938-.073-3.683-.153-.576-.648-1.25-1.057-1.675-.746-.774-1.548-1.23-2.639-1.249-2.219-.038-4.444.005-6.664.006l-13.593-.001-8.935-.001c-1.645 0-3.312-.056-4.954.024Zm37.893 22.319c3.645.098 7.347.1 10.991.001-.076 3.814-.022 7.638-.022 11.452-.016 4.165-.008 8.33.023 12.495-7.391-.097-14.794-.013-22.186-.013l-11.02.014c.031-2.43.031-4.86.002-7.29 2.962.083 5.935.034 8.899.035 3.154.001 6.316.051 9.47-.002 1.138-.019 1.95-.453 2.733-1.272.426-.445.921-1.112 1.071-1.72.17-.688.061-3.174.061-4.009.011-3.231.004-6.461-.022-9.691ZM25.997 33.397c6.482.046 12.963.058 19.444.036 4.582 0 9.181.087 13.759-.035-.074 3.856-.021 7.721-.022 11.578-.015 4.119-.007 8.238.024 12.356-.998.098-2.164.004-3.176.003l-6.844-.005-23.186.015c.068-3.769.021-7.547.021-11.317 0-4.209.042-8.423-.02-12.631Z"/>
  </g>
</svg>
