<svg xmlns="http://www.w3.org/2000/svg" xml:space="preserve" style="fill-rule:evenodd;clip-rule:evenodd;stroke-linejoin:round;stroke-miterlimit:2" viewBox="0 0 100 100">
  <g id="レイヤー1">
    <path d="M70.833.059h-6.261v1.835c.036 9.758.665 18.429 7.968 25.68a25.551 25.551 0 0 0 2.538 2.204 25.626 25.626 0 0 0 4.293 2.633 24.99 24.99 0 0 0 1.537.682c.26.105.521.206.784.303a28.68 28.68 0 0 0 1.597.527c.269.079.539.153.811.223 4.669 1.229 9.614 1.253 14.41 1.267l1.484.004.005 24.453-.001 10.378c-.001 4.315.093 8.783-.893 13.01a21.359 21.359 0 0 1-1.423 4.183 20.325 20.325 0 0 1-1.032 1.957 19.92 19.92 0 0 1-.8 1.24 23.284 23.284 0 0 1-.885 1.181 19.692 19.692 0 0 1-.966 1.115c-.167.181-.337.358-.511.532-5.78 5.805-12.429 6.388-20.214 6.504-3.558.053-7.12.02-10.678.019l-25.444.001-8.286-.002c-4.078-.007-8.324.023-12.307-.957a22.52 22.52 0 0 1-1.353-.373 19.996 19.996 0 0 1-1.326-.462 21.542 21.542 0 0 1-1.923-.856 21.607 21.607 0 0 1-2.413-1.432 20.433 20.433 0 0 1-1.672-1.278 19.381 19.381 0 0 1-1.041-.942C.846 87.829.159 81.03.083 73.061L.013 40.99c-.028-4.076-.011-8.151.051-12.227.047-4.05-.001-8.185.945-12.148a20.178 20.178 0 0 1 .375-1.384 22.625 22.625 0 0 1 .469-1.356 22.514 22.514 0 0 1 .874-1.965 22.613 22.613 0 0 1 .693-1.256 19.23 19.23 0 0 1 .777-1.205 19.942 19.942 0 0 1 1.314-1.702 20.303 20.303 0 0 1 .971-1.056C12.498.579 19.713.089 27.839.063l9.594-.031 2.995-.014 24.188.026 6.217.015Zm0 0 29.161 29.108-1.222-.003c-3.948-.012-8.019-.031-11.863-1.043a21.923 21.923 0 0 1-1.328-.39 25.286 25.286 0 0 1-.654-.228 20.976 20.976 0 0 1-3.135-1.455 20.602 20.602 0 0 1-3.385-2.396 22.357 22.357 0 0 1-1.014-.941c-6.012-5.97-6.53-13.108-6.559-21.142l-.001-1.51ZM22.17 35.126l.004 42.701c3.128.085 6.27.027 9.4.027l16.606-.001 18.765.001c3.628.001 7.264.051 10.892-.023l.006-29.687.004-8.859c0-1.216-.109-2.997.013-4.149l-.287-.02-55.403.01Zm3.846 3.836c2.087.058 4.181.03 6.27.031 2.181 0 4.367.026 6.548-.033a895.145 895.145 0 0 0-.002 9.124 741.267 741.267 0 0 0-12.828.003c.076-3.036.037-6.088.012-9.125Zm16.653 25.907c2.037.052 4.079.026 6.117.027l10.332.003 8.945-.001c1.976.002 3.957.03 5.932-.03a840.705 840.705 0 0 0-.002 9.123l-31.333.004c.072-3.037.028-6.088.009-9.126ZM26.015 51.915c2.136.032 4.271.041 6.407.028 2.137.014 4.275.004 6.412-.029a867.166 867.166 0 0 0-.001 9.124l-12.827.003c.066-3.038.026-6.087.009-9.126Zm16.653-12.951c1.928.062 3.865.027 5.794.028l9.787-.001 9.679.001c2.021.001 4.048.032 6.068-.032a770.816 770.816 0 0 0-.002 9.124l-31.333.003c.067-3.037.031-6.086.007-9.123ZM26.015 64.869c1.999.06 4.005.029 6.005.029 2.271.014 4.542.004 6.813-.03l-.001 9.125a609.394 609.394 0 0 0-12.827.002c.084-3.036.025-6.089.01-9.126Zm16.657-12.954c5.571.125 11.165.029 16.738.03l8.93.002c1.884 0 3.772.024 5.656-.033a816.157 816.157 0 0 0-.002 9.124l-31.333.003c.07-3.037.031-6.087.011-9.126Z"/>
  </g>
</svg>
