<svg xmlns="http://www.w3.org/2000/svg" xml:space="preserve" style="fill-rule:evenodd;clip-rule:evenodd;stroke-linejoin:round;stroke-miterlimit:2" viewBox="0 0 100 100">
  <path d="M80.69.493c6.06.914 11.119 3.439 14.816 8.453 2.132 2.893 3.398 6.207 3.953 9.745.706 4.493.518 9.178.519 13.714l.001 17.637v17.604c-.001 4.508.178 9.145-.507 13.612-.879 5.736-3.728 10.842-8.443 14.291-2.869 2.098-6.145 3.347-9.644 3.901-4.537.719-9.274.524-13.856.524l-17.565.001-17.516-.002c-4.534-.001-9.211.186-13.703-.519-5.747-.903-10.832-3.764-14.278-8.503-2.024-2.785-3.25-5.973-3.815-9.357-.818-4.897-.563-10.777-.573-15.752L.026 44.144v-9.65c-.001-1.338-.125-3.56.051-4.782-.095-.866.005-1.861.02-2.738.039-2.336.07-4.676.339-6.998.689-5.945 3.23-11.24 7.979-14.996 2.882-2.279 6.246-3.674 9.853-4.303C22.882-.129 27.724.08 32.396.07L48.715.021l17.98.048c4.661.012 9.357-.117 13.995.424ZM18.593 36.698c-.126-.235-.337-.44-.545-.604-.124-.13-.265-.259-.375-.401 1.062-1.306 2.36-3.34 4.19-3.508.516-.047 1.021.075 1.522.179 1.736.357 2.771.006 4.126-1.103.895.96 1.873 1.843 2.823 2.747l4.732 4.505a675.818 675.818 0 0 1 13.807 13.548 81.66 81.66 0 0 1 4.025 4.359c1.418 1.664 2.763 3.393 4.198 5.04 1.456 1.671 3.022 3.244 4.583 4.815-.473 4.538 1.505 8.71 4.31 12.157 3.18 3.91 8.084 7.506 13.219 8.004 1.999.194 4.127-.143 5.707-1.463 1.4-1.17 2.098-2.852 2.245-4.646.189-2.317-.492-4.727-1.481-6.807-.098-.354-.364-.785-.543-1.113-2.11-3.867-5.481-7.229-9.319-9.381-.793-.445-1.659-.907-2.531-1.167-1.261-.497-2.726-.905-4.084-.955-.497-.018-1.05.074-1.537.009-.176-.024-.274-.159-.401-.274-.628-.724-1.357-1.39-2.049-2.055-2.409-2.315-4.993-4.376-7.549-6.52-1.408-1.18-2.769-2.448-4.084-3.732-4.721-4.61-9.333-9.331-13.891-14.102l-4.579-4.812c-.699-.737-1.606-1.866-2.414-2.443l-.37-.39c.116-.194.227-.387.312-.596.352-.867.332-1.747-.022-2.61-.069-.252-.231-.548-.356-.778-.058-.217-.094-.437-.131-.658-.159-.977.024-1.861.483-2.73 1.81-3.432 7.257-5.475 10.934-5.482 1.083-.002 1.455.192 2.419.351a.497.497 0 0 0 .239-.021l.084-.192c.016-.312.056-.625.087-.936-.006-.02-.009-.041-.019-.059-.077-.144-.197-.136-.341-.169-.911-.302-1.865-.675-2.812-.84-.505-.166-1.05-.242-1.569-.353-.24-.051-.483-.089-.725-.127-4.339-.783-8.935-.233-12.619 2.323-2.089 1.448-3.854 3.485-5.645 5.28-1.732 1.735-3.577 3.419-5.105 5.34a14.928 14.928 0 0 0-1.781 2.879c-.629 1.595-1.377 2.83-2.473 4.143-.782-.429-1.548-.672-2.441-.404-.766.23-1.433.833-1.784 1.545-.313.636-.413 1.506-.148 2.181.13.331.393.673.623.943.827.97 1.801 1.866 2.695 2.776.746.76 1.495 1.646 2.331 2.303.199.156.449.28.685.372.687.267 1.405.226 2.079-.066a2.5 2.5 0 0 0 .274-.136l.132-.078.127-.085a2.81 2.81 0 0 0 .241-.189c.038-.033.076-.068.113-.103.037-.035.072-.072.107-.109a2.762 2.762 0 0 0 .288-.358 2.516 2.516 0 0 0 .23-.397 3.475 3.475 0 0 0 .118-.282 2.733 2.733 0 0 0-.146-2.209 4.47 4.47 0 0 0-.219-.356Z"/>
</svg>
