<svg xmlns="http://www.w3.org/2000/svg" xml:space="preserve" style="fill-rule:evenodd;clip-rule:evenodd;stroke-linejoin:round;stroke-miterlimit:2" viewBox="0 0 100 100">
  <g id="レイヤー1">
    <path d="m37.271.029 2.486-.011 24.394.02 7.456.019c4.034.01 8.223-.012 12.155 1.002a22.506 22.506 0 0 1 1.347.387 19.925 19.925 0 0 1 1.318.475 21.482 21.482 0 0 1 3.131 1.563 20.294 20.294 0 0 1 1.172.767c.191.134.38.272.567.412a22.779 22.779 0 0 1 1.09.881 20.743 20.743 0 0 1 1.029.95c6.123 6.077 6.549 13.296 6.58 21.464l.003 32.038-.001 10.268c-.001 4.319.09 8.799-.901 13.027a21.861 21.861 0 0 1-.377 1.42 21.117 21.117 0 0 1-2.072 4.693 22.34 22.34 0 0 1-1.226 1.83 21.388 21.388 0 0 1-1.41 1.693c-.167.18-.336.357-.509.531-5.867 5.87-12.714 6.452-20.606 6.528l-10.063.009-25.425.001-8.574-.002c-4.075-.008-8.298.021-12.279-.959a20.166 20.166 0 0 1-1.362-.374c-.225-.07-.448-.144-.67-.222a18.702 18.702 0 0 1-1.317-.509 18.615 18.615 0 0 1-.645-.288 18.588 18.588 0 0 1-.635-.309c-.21-.106-.418-.216-.624-.33a19.409 19.409 0 0 1-1.214-.722 20.664 20.664 0 0 1-2.268-1.679 21.306 21.306 0 0 1-1.044-.951C.864 87.873.155 81.068.074 73.197L.003 40.722c-.027-4.021-.01-8.041.05-12.061.048-3.949-.006-8.005.901-11.872a21.488 21.488 0 0 1 .84-2.79 18.678 18.678 0 0 1 .562-1.344 20.844 20.844 0 0 1 3.13-4.899 20.81 20.81 0 0 1 .985-1.075C12.51.544 19.829.074 27.977.059l9.294-.03ZM79.265 72.45c1.581 1.186 5.937 1.307 7.945 1.181 1.332-.083 2.929-.213 3.865-1.276l.018-.073c.127-.656-.208-1.441-.584-1.965-.962-1.339-2.532-1.858-4.092-2.11-2.176-.036-4.411.3-6.048 1.876-.608.585-1.072 1.337-1.268 2.163l.164.204Zm4.757-3.501c.289-.001.76-.009.98.224.06.064.063.08.1.15-.03.142-.065.218-.2.292-.14.077-.338.117-.494.15l-.159.023c-.255-.064-.543-.053-.777-.184-.144-.08-.21-.132-.261-.287.009-.02.017-.04.029-.058.159-.235.523-.265.782-.31ZM6.424 48.943l.014.543c.382 1.389 1.336 2.235 2.557 2.932 1.325.756 2.805 1.258 4.258 1.707 2.216.686 11.274 2.749 12.468 4.434l-.366.406c-.618.488-1.291.873-1.99 1.233-1.4.721-6.156 2.651-6.294 4.228-.012.13.02.266.052.392-.041.306-.056.527.025.828 2.573 3.714 19.855 6.031 20.538 9.701l-.129.309c-1.04 2.029-4.017 3.647-3.824 5.958-.026.255-.012.478.023.731.386.907 1.161 1.464 2.05 1.819 2.967 1.187 6.84.489 8.386 3.993.723 1.638.412 3.101 2.432 3.912 3.076 1.234 7.83-.097 10.796-1.393 1.44-.629 4.088-1.929 4.869-3.232.092-.295.083-.481.002-.778.012-.038.024-.075.034-.114.099-.36-.022-.569-.205-.876-.003-.036-.002-.074-.011-.109-.128-.478-2.637-1.649-3.147-2.026 1.579-1.619 3.407-2.978 5.494-3.873 2.806-1.203 7.065-1.543 9.098-3.743.822-.889 1.475-2.053 1.427-3.286.034-.21.026-.411.018-.624l.003-.065.004-.109c.004-.097.011-.193.01-.29-.025-2.357-5.981-4.489-7.619-6.053-.125-.13-.222-.282-.324-.43 1.816-1.99 10.545-4.669 13.493-5.701a76.455 76.455 0 0 0 4.956-1.916c2.489-1.072 5.483-2.517 7.084-4.772.397-.56.66-1.162.91-1.798.018-.237.037-.475.058-.712.003-.402.043-.803.028-1.205-.06-1.639-.803-3.037-1.782-4.315-.715-.934-1.549-1.763-2.369-2.604l-3.016-3.08-9.42-9.641-13.462-13.772-4.356-4.455c-.766-.784-1.512-1.617-2.322-2.356-2.159-1.968-5.033-2.921-7.938-2.777a11.484 11.484 0 0 0-.744.06 11.284 11.284 0 0 0-.737.115 11.27 11.27 0 0 0-.727.169 9.12 9.12 0 0 0-.712.221 9.23 9.23 0 0 0-.694.273 9.376 9.376 0 0 0-1 .503 9.633 9.633 0 0 0-.938.609c-1.36 1.009-3.062 2.967-4.287 4.223l-7.764 7.953-14.638 14.986-4.913 5.031c-.867.888-1.769 1.757-2.595 2.683-1.675 1.88-2.914 3.545-2.764 6.153Zm39.418-20.111c-.548-2.238-1.065-4.503-1.685-6.722l-3.007 6.52c-.502 1.088-.971 2.212-1.517 3.276-2.67-.037-5.339-.055-8.009-.054-1.055-.006-2.141.051-3.193-.016-.478-.031-1.03-.134-1.347-.53-.556-.694.111-1.642.196-2.379l.005-.056c2.288-2.5 4.623-4.954 7.006-7.363 1.512-1.528 3.122-3.02 4.541-4.632.422-.233.959-.94 1.319-1.315l2.388-2.461c1.061-1.096 2.085-2.271 3.399-3.072 1.761-1.075 3.788-1.444 5.799-.941 1.158.29 3.402 1.457 4.019 2.477l-.056.139c.082.525 4.492 4.44 5.124 5.37 1.38 1.275 2.663 2.688 3.981 4.029.931.946 2.788 2.611 3.413 3.633.32.523.458 1.139.486 1.748.032.698-.099 1.344-.461 1.949l-6.321-5.174c-.3 1.714-.588 3.429-.865 5.146-.131.788-.222 1.61-.41 2.385L55.45 28c-.416.263-.921.517-1.288.84-2.422 1.464-4.823 3.003-7.197 4.545l-1.068-4.321-.055-.232Zm31.729 46.726c-.972.947-1.352 1.706-1.371 3.077l-.002.164c.615.939 1.138 1.595 2.318 1.836 1.027.209 2.269 0 3.126-.621.123-.09.229-.199.333-.309.035-.425.019-.789-.129-1.194-.464-1.272-1.712-2.043-2.882-2.576-.462-.135-.923-.273-1.393-.377Zm1.771 2.342c-.385.222-1.166.5-1.43.701l.048.073c.051.081.081.15.112.24-.089.126-.169.159-.321.189-.142.028-.306.03-.451.026a3.2 3.2 0 0 1-.371-.638c-.191-.466-.248-1.074-.041-1.545a1.32 1.32 0 0 1 .736-.723l.158-.036c.205-.112.359-.118.586-.103l.351.022c.356.04.678.203.905.484.263.322.375.754.635 1.056-.075.173-.132.287-.316.364l-.054.019-.056.013c-.019.003-.038.006-.057.007-.019.002-.038.002-.057.002a.548.548 0 0 1-.114-.015.494.494 0 0 1-.055-.015l-.053-.022c-.06-.027-.103-.062-.155-.099ZM26.56 75.938c-1.03.495-2.173 1.124-2.559 2.282-.107.32-.11.639-.093.971l.02.09c.212.818 1.087 1.601 1.81 1.992.911.493 1.98.513 2.959.227 2.142-.627 3.706-2.394 4.752-4.282.058-.158.143-.317.213-.47a3.389 3.389 0 0 0-.541-.556 3.368 3.368 0 0 0-.655-.416c-1.851-.914-4.047-.468-5.906.162Zm4.339 3.51c.167-.136.365-.341.573-.401l.031.039c-.615.858-2.195 1.76-3.256 1.916-.903.133-1.814-.072-2.545-.625-.092-.07-.184-.14-.27-.218.443.016.918.504 1.406.589 1.43.252 2.925-.518 4.061-1.3Zm-5.117-1.264c-.202.183-.463.375-.747.377-.13.001-.21-.092-.297-.175a1.364 1.364 0 0 1 .011-.437c.09-.389.351-.664.687-.862.845-.717 1.93-.964 2.981-1.219.944-.146 1.793-.183 2.741-.046l.326.043c.625.251.847.416 1.123 1.05-.932.394-1.048-.03-1.898.02-.823.048-1.714.37-2.524.551-.592.132-1.238.203-1.81.398a3.174 3.174 0 0 0-.593.3Z"/>
  </g>
</svg>
