<svg xmlns="http://www.w3.org/2000/svg" xml:space="preserve" style="fill-rule:evenodd;clip-rule:evenodd;stroke-linejoin:round;stroke-miterlimit:2" viewBox="0 0 100 100"><path d="M.005 39.557C-.01 35.96.01 32.361.064 28.763c.047-4.05-.002-8.185.945-12.148l.176-.695.2-.69.222-.681.246-.674.27-.665.29-.655.314-.645.336-.634.357-.622.378-.609.399-.596.418-.583.439-.567.457-.552.476-.537.495-.52c2.252-2.288 4.673-3.788 7.247-4.771L.005 39.557ZM19.05.567c2.79-.419 5.725-.494 8.79-.504l9.594-.031 2.995-.014 24.188.026 7.439.018c3.948.012 8.019.032 11.863 1.043l.667.185.66.206.654.227.646.25.637.27.628.291.618.312.607.332.596.352.584.372.572.39.558.41.544.427.53.445.515.462.5.48c5.773 5.732 6.48 12.542 6.553 20.188L68.857 1.57 56.681 16.235 45.857 3.857 19.05.567Zm80.94 26.462.004.628L100 59.87l-.001 10.378c0 4.315.093 8.783-.893 13.01a20.762 20.762 0 0 1-.851 2.823 21.083 21.083 0 0 1-4.255 6.853c-.167.18-.337.358-.511.532-5.78 5.805-12.43 6.388-20.214 6.504-3.558.053-7.12.02-10.678.02H59.74L98.143 84.57 99.99 27.03Zm-40.292 72.96H37.152l-8.286-.001c-4.078-.007-8.324.023-12.307-.957l-.68-.175-.673-.198-.667-.22-.659-.242-.65-.264-.641-.285-.632-.307-.62-.328-.61-.348-.084-.052 27.976-10.155L59.697 99.99ZM8.658 95.26l-.243-.185-.543-.445-.528-.462-.513-.48C.846 87.83.16 81.03.083 73.061l-.07-32.07-.008-1.418 9.75 3.29-8.612 15.994 14.66 11.624L14.429 75l-5.77 20.26Zm72.628-75.974V81H19.57V19.286h61.715Zm-27 34c1.428 0 2.571-.286 3.714-.715 1.143-.285 2.143-1 2.857-1.714.857-.857 1.429-1.714 1.857-2.857.429-1.143.572-2.429.572-4V27.286H57.57v16.428c0 1.572-.285 2.572-.857 3.286-.714.714-1.571 1-2.571 1-.857 0-1.715-.286-2.429-.714a8.291 8.291 0 0 1-2.143-1.857l-3.571 4c.857 1 2 2 3.286 2.714 1.285.714 3 1.143 5 1.143ZM42 32v-4.714H29.143V32h3.714v16.143h-3.714v4.714H42v-4.714h-3.571V32h3.57Zm6.428 37.429H25.286v3.857h23.142v-3.857Z"/></svg>