<svg xmlns="http://www.w3.org/2000/svg" xml:space="preserve" style="fill-rule:evenodd;clip-rule:evenodd;stroke-linejoin:round;stroke-miterlimit:2" viewBox="0 0 100 100">
  <path d="M9.193 95.619c-3.572-2.499-6.287-6.284-7.677-10.403-.82-2.428-1.149-5.02-1.321-7.567-.267-3.944-.176-7.918-.176-11.87L.018 48.473V32.894c0-3.856-.085-7.735.261-11.58.252-2.809.712-5.81 1.978-8.362.314-.797.752-1.578 1.187-2.314 2.078-3.513 5.082-6.204 8.722-8.022C14.824 1.289 17.601.662 20.544.353c3.998-.419 8.032-.339 12.047-.34L47.864.012h17.687c3.995 0 8.018-.094 12.006.176 2.585.175 5.208.503 7.673 1.334a22.132 22.132 0 0 1 1.409.533c.232.097.461.198.689.304a21.128 21.128 0 0 1 7.65 5.976c.493.622 1.023 1.308 1.375 2.019.349.4.609.996.853 1.472 1.258 2.464 1.965 4.966 2.322 7.697.548 4.198.454 8.456.455 12.681l-.001 14.913V65.35c0 4.077.102 8.179-.174 12.248-.145 2.146-.399 4.31-.956 6.392-1.083 4.046-3.476 7.887-6.688 10.585a4.63 4.63 0 0 1-.132.103 20.752 20.752 0 0 1-1.606 1.205 20.758 20.758 0 0 1-1.13.718 20.833 20.833 0 0 1-2.384 1.218c-.205.089-.411.175-.618.258a20.553 20.553 0 0 1-1.899.655 20.501 20.501 0 0 1-1.296.337c-.218.049-.436.095-.655.138-5.091.992-10.411.772-15.576.773l-16.922-.001-16.784.001c-4.177-.001-8.381.104-12.542-.325-4.171-.431-7.977-1.587-11.427-4.036ZM8.161 9.944c-1.921 2.571-3.207 4.99-3.754 8.186-.768 4.49-.521 9.218-.521 13.76v36.378c0 4.284-.198 8.703.418 12.951.649 4.472 2.831 8.556 6.498 11.271a17.557 17.557 0 0 0 4.838 2.503c1.972.644 4.074.868 6.135.997 3.794.236 7.631.123 11.432.123l18.616.001 16.372-.001c3.697 0 7.433.11 11.118-.2 2.367-.199 4.53-.653 6.731-1.576 3.802-1.799 6.651-4.582 8.36-8.448.966-2.186 1.349-4.512 1.532-6.878.298-3.851.177-7.763.176-11.625l-.001-17.758.001-17.368c0-3.863.119-7.766-.203-11.618-.188-2.245-.628-4.303-1.439-6.413-.955-1.757-1.524-3.033-2.929-4.59-3.828-4.241-8.542-5.397-13.985-5.665-3.756-.184-7.546-.086-11.308-.086H31.683c-4.693-.001-10.435-.311-14.978.819a17.292 17.292 0 0 0-1.921.616 16.82 16.82 0 0 0-1.836.838 16.498 16.498 0 0 0-1.725 1.047 17.693 17.693 0 0 0-1.59 1.243c-.499.446-.909.992-1.408 1.437l-.064.056Z"/>
  <path d="m25.433 7.299 12.405-.011h32.938c3.323.001 6.775-.131 10.049.516a14.236 14.236 0 0 1 2.487.71 14.565 14.565 0 0 1 1.875.879c.15.084.3.171.447.261a15.373 15.373 0 0 1 1.283.875 15.85 15.85 0 0 1 1.182 1.008c3.808 3.656 4.482 8.248 4.588 13.237.086 4.052.022 8.118.022 12.172l-.003 22.258.002 11.346c0 3.378.146 6.899-.501 10.229a14.57 14.57 0 0 1-.536 2.029 14.576 14.576 0 0 1-3.258 5.338c-3.903 4.034-8.768 4.477-14.027 4.552l-35.097.006-10.292-.001c-3.277 0-6.666.121-9.895-.521a14.033 14.033 0 0 1-1.949-.525 13.444 13.444 0 0 1-.942-.364 12.682 12.682 0 0 1-.461-.206 12.693 12.693 0 0 1-.454-.222 12.636 12.636 0 0 1-.882-.49 14.603 14.603 0 0 1-1.255-.849 13.242 13.242 0 0 1-.784-.636 15.04 15.04 0 0 1-.375-.338C8.252 85.015 7.453 80.57 7.322 75.67c-.108-4.036-.03-8.089-.03-12.127V41.59l-.001-11.838c-.002-3.477-.159-7.098.5-10.526a14.392 14.392 0 0 1 .9-2.986 14.305 14.305 0 0 1 2.152-3.549 14.12 14.12 0 0 1 .691-.779c3.858-4.03 8.663-4.515 13.899-4.613Zm-2.141 10.163.002 4.085c-1.637.266-3.267.835-4.275 2.237-.675.939-.918 2.302-.724 3.432.216 1.259 1.077 2.171 2.093 2.874.659.456 1.381.815 2.118 1.126 1.376.58 4.879 1.556 5.134 3.145.077.474-.042.984-.334 1.368-.451.594-1.239.831-1.953.905-2.43.25-4.378-.756-6.388-1.981l-1.614 2.451c1.779 1.409 3.712 2.145 5.944 2.467l-.002 4.5 1.41.006 1.077-.006-.003-4.569c1.797-.346 3.548-.942 4.613-2.54.665-.998.909-2.354.673-3.528-.264-1.314-1.233-2.29-2.323-2.998a11.467 11.467 0 0 0-1.927-.984c-1.204-.491-4.839-1.53-5.145-2.867-.102-.444.106-.92.357-1.278.425-.604 1.112-.795 1.806-.897 1.956-.286 3.54.531 5.082 1.637.607-.693 1.21-1.39 1.81-2.089-1.464-1.301-2.932-2.293-4.944-2.447l.003-4.045-2.49-.004Zm13.599.009v27.07l4.006-.002V17.477l-4.006-.006Z"/>
</svg>
