<svg xmlns="http://www.w3.org/2000/svg" xml:space="preserve" style="fill-rule:evenodd;clip-rule:evenodd;stroke-linejoin:round;stroke-miterlimit:2" viewBox="0 0 100 100">
  <path d="M21.214.077c.055-.005.11-.008.164-.011 1.436-.07 2.892-.025 4.33-.025l7.525.001H56.52L71.452.04c3.353-.001 7.17-.233 10.446.406a20.81 20.81 0 0 1 1.478.342 20.833 20.833 0 0 1 1.45.442 21.51 21.51 0 0 1 2.111.845 21.45 21.45 0 0 1 2.661 1.452 21.601 21.601 0 0 1 1.853 1.318A22.367 22.367 0 0 1 93.013 6.2a23.905 23.905 0 0 1 1.158 1.183 20.769 20.769 0 0 1 1.068 1.265 24.127 24.127 0 0 1 .97 1.341 24.494 24.494 0 0 1 .59.933 22.64 22.64 0 0 1 1.483 2.957c.07.17.138.341.203.513.066.172.13.344.191.518a18.854 18.854 0 0 1 .343 1.049c.053.176.103.353.151.531a18.998 18.998 0 0 1 .264 1.071 19.955 19.955 0 0 1 .21 1.084 19.909 19.909 0 0 1 .156 1.092 20.432 20.432 0 0 1 .102 1.099c.012.184.022.368.03.551.07 1.506.027 3.029.026 4.537l-.001 7.584-.001 23.594v14.339c0 3.446.249 7.229-.433 10.606a22.909 22.909 0 0 1-.349 1.463 22.137 22.137 0 0 1-1.295 3.526 23.479 23.479 0 0 1-.681 1.341 23.415 23.415 0 0 1-.77 1.292 21.968 21.968 0 0 1-.856 1.237 21.953 21.953 0 0 1-1.805 2.14 20.007 20.007 0 0 1-.77.771 20.109 20.109 0 0 1-.807.732 19.805 19.805 0 0 1-1.275 1.022 22.376 22.376 0 0 1-3.731 2.239 18.38 18.38 0 0 1-.495.227 22.231 22.231 0 0 1-3.601 1.241 25.421 25.421 0 0 1-1.063.239 19.437 19.437 0 0 1-1.074.187 24.072 24.072 0 0 1-1.081.134 24.848 24.848 0 0 1-1.281.092c-1.445.07-2.91.027-4.357.026l-7.642-.001H43.24l-14.692.002c-3.365.001-7.159.236-10.447-.405a22.98 22.98 0 0 1-2.912-.778 24.977 24.977 0 0 1-1.41-.535 22.245 22.245 0 0 1-5.77-3.526 23.904 23.904 0 0 1-1.37-1.251 20.466 20.466 0 0 1-.764-.795 20.647 20.647 0 0 1-.723-.831 20.208 20.208 0 0 1-.681-.866 24.146 24.146 0 0 1-.638-.898 24.545 24.545 0 0 1-.871-1.405 24.786 24.786 0 0 1-.521-.97 22.698 22.698 0 0 1-.69-1.502 20.1 20.1 0 0 1-.577-1.548 24.671 24.671 0 0 1-.32-1.055 19.82 19.82 0 0 1-.267-1.069 23.38 23.38 0 0 1-.214-1.08 24.719 24.719 0 0 1-.16-1.091 24.709 24.709 0 0 1-.106-1.096 25.337 25.337 0 0 1-.032-.55c-.074-1.505-.032-3.027-.032-4.534l.001-7.561V28.64c0-3.424-.246-7.27.421-10.626a22.825 22.825 0 0 1 .786-2.899 22.045 22.045 0 0 1 .538-1.404 22.146 22.146 0 0 1 2.16-3.949 21.927 21.927 0 0 1 1.863-2.357 23.22 23.22 0 0 1 1.142-1.178 23.51 23.51 0 0 1 .808-.738 22.818 22.818 0 0 1 2.17-1.661 22.496 22.496 0 0 1 1.874-1.13 24.645 24.645 0 0 1 .976-.494A22.332 22.332 0 0 1 17.425.596a24.206 24.206 0 0 1 1.073-.215 23.37 23.37 0 0 1 2.17-.27c.182-.014.364-.025.546-.034Zm.491 3.872c-4.992.245-9.613 2.323-12.981 6.046a17.948 17.948 0 0 0-1.229 1.503c-.128.174-.253.35-.374.529a19.373 19.373 0 0 0-1.007 1.66 18.352 18.352 0 0 0-1.272 2.971 16.99 16.99 0 0 0-.36 1.244 16.92 16.92 0 0 0-.272 1.265c-.479 2.708-.282 6.3-.281 9.093l.001 14.444-.002 23.692-.001 7.619c-.001 1.521-.047 3.058.034 4.577a17.275 17.275 0 0 0 .182 1.809 16.798 16.798 0 0 0 .158.896 23.458 23.458 0 0 0 .203.886 16.761 16.761 0 0 0 .385 1.309 18.234 18.234 0 0 0 1.056 2.513 19.197 19.197 0 0 0 .665 1.19 16.731 16.731 0 0 0 .492.765 19.185 19.185 0 0 0 .807 1.1 19.222 19.222 0 0 0 .887 1.036 19.632 19.632 0 0 0 .633.654 16.204 16.204 0 0 0 .664.621 17.485 17.485 0 0 0 1.492 1.204 17.5 17.5 0 0 0 1.06.714 18.978 18.978 0 0 0 3.442 1.678 18.713 18.713 0 0 0 3.083.829c2.764.49 6.056.286 8.874.285l13.584-.002H65.9l7.864.001c1.511.001 3.036.042 4.545-.023l.02-.001c4.958-.252 9.579-2.328 12.926-6.02a17.75 17.75 0 0 0 .835-.982 17.802 17.802 0 0 0 1.12-1.575 17.922 17.922 0 0 0 .949-1.683 18.21 18.21 0 0 0 1.173-2.997 16.777 16.777 0 0 0 .32-1.248c.046-.21.089-.42.127-.632.506-2.787.302-6.349.3-9.221l-.003-14.285-.001-23.706v-7.588c0-1.545.044-3.104-.035-4.646a17.015 17.015 0 0 0-.116-1.359 16.843 16.843 0 0 0-.216-1.347 17.62 17.62 0 0 0-.442-1.763 19.85 19.85 0 0 0-.286-.863 21.821 21.821 0 0 0-.508-1.266 17.04 17.04 0 0 0-.391-.821c-.068-.135-.139-.269-.21-.403a19.148 19.148 0 0 0-1.466-2.297 16.409 16.409 0 0 0-.563-.715 16.251 16.251 0 0 0-.597-.685 16.269 16.269 0 0 0-.631-.656 16.302 16.302 0 0 0-.662-.623 19.485 19.485 0 0 0-.983-.827 17.248 17.248 0 0 0-1.039-.757 17.781 17.781 0 0 0-1.089-.683 17.112 17.112 0 0 0-1.134-.606 17.122 17.122 0 0 0-1.173-.524 18.126 18.126 0 0 0-2.442-.8 18.943 18.943 0 0 0-1.256-.27c-2.681-.476-5.738-.277-8.473-.276l-13.031.001H26.318c-1.535 0-3.08-.037-4.613.016Z"/>
  <path d="M92.142 79.101a15.701 15.701 0 0 1-.186 1.219 15.352 15.352 0 0 1-.287 1.199 15.418 15.418 0 0 1-.387 1.171 14.86 14.86 0 0 1-.759 1.686 14.267 14.267 0 0 1-1.33 2.075 13.769 13.769 0 0 1-.789.947c-.139.153-.28.302-.424.448-3.1 3.139-6.718 4.334-11.053 4.347l-39.279-.001-10.659.002c-2.413.002-4.986.182-7.364-.269a16.039 16.039 0 0 1-1.053-.244 13.393 13.393 0 0 1-.519-.152 12.877 12.877 0 0 1-1.02-.36 15.446 15.446 0 0 1-.99-.435 15.58 15.58 0 0 1-.954-.507 14.626 14.626 0 0 1-3.361-2.685 14.747 14.747 0 0 1-1.909-2.55 14.078 14.078 0 0 1-.733-1.417 13.314 13.314 0 0 1-.401-.985 14.914 14.914 0 0 1-.327-1.012 14.972 14.972 0 0 1-.252-1.034c-.499-2.536-.301-5.291-.3-7.87V61.955L7.801 22.02a20.485 20.485 0 0 1 .02-.704 13.556 13.556 0 0 1 .055-.703 13.893 13.893 0 0 1 .148-1.046c.021-.116.043-.231.066-.346a19.067 19.067 0 0 1 .159-.687 14.281 14.281 0 0 1 .676-2.001c.045-.108.093-.215.141-.322a13.22 13.22 0 0 1 .643-1.253 15.106 15.106 0 0 1 .563-.895 11.497 11.497 0 0 1 .411-.572 14.791 14.791 0 0 1 .668-.819 14.611 14.611 0 0 1 1.526-1.496 13.587 13.587 0 0 1 .851-.668 13.53 13.53 0 0 1 .9-.6 13.556 13.556 0 0 1 1.428-.77 14.526 14.526 0 0 1 2.544-.907 13.417 13.417 0 0 1 1.058-.225c2.229-.389 4.658-.202 6.922-.201l11.391-.001L78.023 7.8a13.685 13.685 0 0 1 .704.022c.117.007.234.014.351.024a14.216 14.216 0 0 1 1.394.182 13.205 13.205 0 0 1 1.031.227 13.027 13.027 0 0 1 1.011.302 13.02 13.02 0 0 1 .66.243 18.471 18.471 0 0 1 .647.276 13.19 13.19 0 0 1 .944.473 15.082 15.082 0 0 1 .608.353 14.89 14.89 0 0 1 1.161.795 13.858 13.858 0 0 1 .815.67 11.573 11.573 0 0 1 .515.479 14.614 14.614 0 0 1 .663.689 14.477 14.477 0 0 1 2.066 2.971 15.144 15.144 0 0 1 .513 1.095 14.231 14.231 0 0 1 .863 2.891 14.853 14.853 0 0 1 .172 1.197c.082.825.063 1.65.055 2.477v.768c-.072-.368-.248-.7-.575-.903-.189-.118-.382-.148-.601-.165-1.092-.086-8.909-.123-9.636.057a1.041 1.041 0 0 0-.654.546c-.157.31-.167.618-.172.956 2.622 2.917 4.447 5.613 5.205 9.554l3.344.02c.63.003 1.304.053 1.929-.031.281-.037.561-.107.772-.307.224-.212.332-.482.391-.779-.101 1.645.015 3.335.005 4.986-.561-.005-1.178-.058-1.612.372-.186.184-.234.342-.276.599-.173 1.067-.067 2.276-.067 3.359-.001 1.71-.044 3.433.006 5.142.013.434.03 1.023.355 1.34.413.401 1.055.361 1.588.35l.003 3.88-5.389-.007c-.914 0-1.904-.085-2.807.057-.254.04-.438.096-.625.28-.156.154-.31.374-.35.593-.177.968-.054 2.15-.054 3.138.001 1.867-.035 3.74.005 5.607.009.44.079.874.422 1.186.214.194.471.235.749.268.905.109 1.877.038 2.787.037l5.254-.009.006 3.887c-.782-.011-2.387-.225-2.998.326-.401.361-.396.893-.402 1.39-.024 1.892-.004 3.787-.002 5.679.001.876-.109 1.924.049 2.783.043.228.165.458.333.62.619.597 2.157.347 2.963.356Zm-25.21-58.662c-4.757.303-9.069 2.238-12.25 5.838a21.057 21.057 0 0 0-.541.649 17.417 17.417 0 0 0-.984 1.373 11.96 11.96 0 0 0-.225.358 19.191 19.191 0 0 0-.622 1.104l-.189.378a18.967 18.967 0 0 0-.662 1.555 14.48 14.48 0 0 0-.141.398 14.416 14.416 0 0 0-.254.806 18.832 18.832 0 0 0-.215.818 18.884 18.884 0 0 0-.246 1.243 19.114 19.114 0 0 0-.114.837 19.975 19.975 0 0 0-.072.842 15.084 15.084 0 0 0-.031.845 19.803 19.803 0 0 0 .009.845 14.896 14.896 0 0 0 .052.848 20.285 20.285 0 0 0 .095.848 20.474 20.474 0 0 0 .137.842 14.78 14.78 0 0 0 .179.835c.033.138.068.276.104.414a21.016 21.016 0 0 0 .24.819 16.01 16.01 0 0 0 .435 1.204 14.923 14.923 0 0 0 .339.783 17.006 17.006 0 0 0 1.013 1.877 19.767 19.767 0 0 0 .469.713 16.898 16.898 0 0 0 2.21 2.595 21.125 21.125 0 0 0 .63.577c1.761 1.533 3.779 2.647 5.985 3.394l-.647 3.675c-.42.149-.827.317-1.04.74-.322.639-.583 2.872-.731 3.721l-1.171 6.643-1.183 6.714c-.204 1.162-.469 2.346-.597 3.516-.06.55-.084 1.088.109 1.613.342.931.988 1.67 1.904 2.07a3.275 3.275 0 0 0 2.592.017c.466-.193.848-.475 1.217-.816.367-.461.647-.895.807-1.472.226-.816.325-1.712.472-2.547l.858-4.867 1.682-9.535c.151-.857.677-3.113.612-3.866-.039-.447-.321-.757-.66-1.022l-.059-.045c.205-1.233.419-2.465.642-3.695 4.751.065 9.193-1.552 12.62-4.893a17.034 17.034 0 0 0 1.934-2.252 16.705 16.705 0 0 0 .923-1.425 19.393 19.393 0 0 0 .408-.745 14.89 14.89 0 0 0 .371-.764 16.9 16.9 0 0 0 .996-2.797c.035-.137.07-.274.102-.412a15.361 15.361 0 0 0 .308-1.669 20.24 20.24 0 0 0 .093-.844c.012-.141.022-.283.03-.424a15.037 15.037 0 0 0 .029-1.272 14.997 14.997 0 0 0-.033-.847 19.467 19.467 0 0 0-.075-.844 15.04 15.04 0 0 0-.116-.839 13.942 13.942 0 0 0-.157-.833 14.508 14.508 0 0 0-.198-.824 15.528 15.528 0 0 0-.238-.813 15.773 15.773 0 0 0-.277-.8 17.014 17.014 0 0 0-.489-1.173c-.06-.128-.12-.256-.183-.383a14.978 14.978 0 0 0-.602-1.119 16.595 16.595 0 0 0-1.442-2.09 16.66 16.66 0 0 0-1.125-1.267c-.1-.1-.2-.2-.302-.298a17.032 17.032 0 0 0-2.301-1.87c-.117-.079-.234-.158-.353-.234a15.263 15.263 0 0 0-.724-.442 16.705 16.705 0 0 0-1.508-.775 14.748 14.748 0 0 0-.781-.332 17.03 17.03 0 0 0-1.199-.425 18.953 18.953 0 0 0-.815-.234 17.829 17.829 0 0 0-3.769-.55 14.995 14.995 0 0 0-1.285.007ZM66.41 24.5a17.306 17.306 0 0 1 .978-.056c.108-.002.216-.002.323-.002.108.001.215.003.323.006.108.003.215.008.323.013a11.872 11.872 0 0 1 .643.051 11.678 11.678 0 0 1 .64.081 11.16 11.16 0 0 1 .636.113 11.08 11.08 0 0 1 .629.143 14.2 14.2 0 0 1 .93.272c.102.034.204.069.305.105.101.037.202.074.302.113a11.052 11.052 0 0 1 .596.248 13.155 13.155 0 0 1 1.707.912c.091.058.181.116.271.176.089.06.178.12.266.182a15.763 15.763 0 0 1 .519.384c.085.066.169.133.253.201.083.069.166.138.248.209a11.956 11.956 0 0 1 .48.434 16.414 16.414 0 0 1 .458.457 16.306 16.306 0 0 1 .644.727 15.976 15.976 0 0 1 .589.773 12.562 12.562 0 0 1 .36.538 15.645 15.645 0 0 1 .333.555c.053.094.106.188.157.283.051.095.1.191.149.287a12.963 12.963 0 0 1 .526 1.183 11.095 11.095 0 0 1 .219.61c.034.102.066.205.098.308.031.104.062.207.09.311a12.054 12.054 0 0 1 .226.945 17.762 17.762 0 0 1 .112.638 16.424 16.424 0 0 1 .08.642 12.021 12.021 0 0 1 .062.983c.003.11.004.219.005.329a17.935 17.935 0 0 1-.016.656 11.782 11.782 0 0 1-.048.656 12.014 12.014 0 0 1-.079.652c-.016.108-.034.216-.052.324a18.296 18.296 0 0 1-.128.644 16.564 16.564 0 0 1-.16.637c-.029.106-.06.211-.092.316-.031.105-.065.209-.099.313a11.338 11.338 0 0 1-.222.618 11.395 11.395 0 0 1-.252.607 11.408 11.408 0 0 1-.281.593c-.049.098-.1.195-.152.292-.052.096-.104.192-.159.287a11.656 11.656 0 0 1-.338.563 13.006 13.006 0 0 1-.366.546c-.064.089-.128.178-.193.265a12.854 12.854 0 0 1-.406.517c-2.172 2.615-5.398 4.391-8.795 4.702-.108.011-.216.022-.324.031a11.557 11.557 0 0 1-.65.037 11.817 11.817 0 0 1-.651.006 17.733 17.733 0 0 1-.651-.026c-.108-.007-.216-.016-.324-.025a16.127 16.127 0 0 1-.647-.074c-.108-.015-.215-.032-.322-.049a17.992 17.992 0 0 1-.64-.122 16.22 16.22 0 0 1-.633-.153 16.03 16.03 0 0 1-.625-.183 15.88 15.88 0 0 1-.615-.214 12.65 12.65 0 0 1-.603-.244 13.358 13.358 0 0 1-2.8-1.646 12.575 12.575 0 0 1-1.675-1.536 12.42 12.42 0 0 1-.427-.489c-.069-.084-.138-.168-.205-.253a12.509 12.509 0 0 1-.576-.786 15.839 15.839 0 0 1-.351-.546 15.836 15.836 0 0 1-.166-.28c-.054-.094-.106-.189-.158-.284-.052-.095-.102-.191-.152-.287a13.114 13.114 0 0 1-.412-.883 15.807 15.807 0 0 1-.238-.605 12.32 12.32 0 0 1-.301-.927 11.107 11.107 0 0 1-.163-.629 16.19 16.19 0 0 1-.131-.636 11.804 11.804 0 0 1-.168-1.289 11.89 11.89 0 0 1-.022-.326c-.006-.108-.01-.217-.014-.325a11.874 11.874 0 0 1-.003-.652 11.706 11.706 0 0 1 .028-.652c.008-.108.016-.216.027-.324a11.528 11.528 0 0 1 .076-.648 11.94 11.94 0 0 1 .107-.643 18.061 18.061 0 0 1 .14-.637c.025-.105.053-.21.081-.315a11.24 11.24 0 0 1 .185-.625 13.986 13.986 0 0 1 .335-.919 13.495 13.495 0 0 1 .402-.891c.048-.098.098-.194.148-.291a15.784 15.784 0 0 1 .318-.569 11.5 11.5 0 0 1 .345-.553 16.063 16.063 0 0 1 .371-.536l.196-.26c.066-.086.134-.172.202-.256 2.265-2.782 5.489-4.462 9.044-4.828Zm8.402 23.429a12.55 12.55 0 0 0 1.893-1.624l.211-.227a15.496 15.496 0 0 0 .404-.47 14.603 14.603 0 0 0 .38-.489 10.577 10.577 0 0 0 .356-.507 14.372 14.372 0 0 0 .33-.525 8.88 8.88 0 0 0 .155-.268c.051-.09.1-.18.148-.272a10.22 10.22 0 0 0 .277-.554 11.657 11.657 0 0 0 .248-.568 14.356 14.356 0 0 0 .22-.579 12.661 12.661 0 0 0 .624-2.712 10.354 10.354 0 0 0 .055-.617c.007-.103.012-.206.016-.309.005-.103.007-.207.009-.31-.998-.018-4.385-.274-4.999.293-.395.364-.415.828-.42 1.327-.009 1.057-.105 7.913.093 8.411ZM57.371 33.993c.814-.034 1.652.078 2.46.002.565-.053.855-.244 1.21-.672.216-.924.184-3.358.073-4.339l.054-.288c.002-.512.066-1.166-.079-1.654-2.649 1.725-4.332 3.903-5.375 6.885.482.154 1.151.078 1.657.066Zm7.68-8.555c-.012.349-.033.701-.03 1.05.013.185.026.37.03.556a146.548 146.548 0 0 0-.029 3.866c.001.702-.068 1.502.088 2.189a.95.95 0 0 0 .299.523c.153.152.323.276.539.317.923.174 2.307.058 3.292.058 1.892.002 3.803.054 5.694-.007.382-.012 1.064-.014 1.334-.304.678-.727.4-3.075.381-4.073l-.004-.567c-.348-.532-1.061-1.05-1.569-1.422-3.057-2.234-6.352-2.746-10.025-2.186Zm-4.892 12.446c-.374.161-.704.357-.86.755-.286.732-.021 7.041.012 8.199.86.783 2.089 1.738 3.217 2.085.675.208 6.104.134 7.164.087.08-.004.158-.009.237-.018.351-.148.649-.32.81-.685.222-.502.17-8.202.111-9.18a1.508 1.508 0 0 0-.131-.574c-.147-.312-.373-.493-.701-.593-.594-.182-8.683-.141-9.859-.076ZM14.66 52.922c-.363.097-.644.241-.83.584-.147.272-.201.563-.222.868-.079 1.161.02 2.376.022 3.542.003 1.556-.079 3.137-.01 4.69.01.217.029.441.095.649.088.281.324.537.583.67.222.115.511.128.757.138 2.638.106 5.325.002 7.969-.002 2.818-.003 5.658.086 8.472-.016.36-.098.644-.238.841-.569.117-.198.161-.384.181-.611.13-1.496.02-3.089.016-4.595-.002-1.284.091-2.615.014-3.891a2.695 2.695 0 0 0-.101-.619c-.101-.326-.288-.565-.597-.714-.237-.114-.491-.119-.749-.129-2.508-.095-5.047-.005-7.559-.005-2.953-.001-5.931-.082-8.882.01Zm59.662 15.036c-.379.104-.701.275-.891.636-.102.195-.12.387-.134.603-.062.949-.104 8.597.07 9.083.108.302.304.535.6.663.25.109.529.15.8.164 1.293.069 2.623-.016 3.921-.015 1.72.001 3.476.079 5.192-.012.351-.095.627-.226.811-.555.148-.263.208-.546.233-.844.095-1.148-.012-2.371-.015-3.526-.005-1.561.07-3.134.017-4.693-.008-.229-.025-.481-.095-.701a1.204 1.204 0 0 0-.625-.694c-.53-.237-8.694-.152-9.884-.109Zm-31.044.001c-.349.094-.628.229-.814.553-.156.271-.219.576-.239.885-.068 1.048.018 2.141.023 3.193.004 1.112-.173 4.874.095 5.717.09.284.34.546.611.669.502.228 8.749.163 9.884.103.36-.097.671-.26.87-.589.102-.168.126-.367.14-.559.081-1.086.153-8.694-.105-9.361-.1-.257-.497-.487-.75-.558-.59-.167-8.532-.087-9.715-.053Zm-5.819-15.037c-.348.093-.654.244-.846.563-.141.233-.176.515-.195.78-.1 1.473-.003 3.011.003 4.49.006 1.262-.073 2.552-.011 3.81.011.224.038.451.102.666.095.317.301.548.598.697.512.259 8.753.174 9.906.118.359-.098.673-.26.873-.589.092-.151.117-.323.135-.497.101-1.023.143-8.791-.11-9.445-.1-.26-.517-.456-.765-.526-.809-.23-2.861-.075-3.815-.075-1.955-.001-3.922-.054-5.875.008ZM14.568 37.891c-.371.152-.719.362-.861.762-.187.53-.145 8.166-.077 9.102.017.221.048.415.148.615.111.22.331.474.573.545.771.226 7.867.164 9.005.082.352-.143.659-.326.82-.688.205-.463.194-9.24.026-9.672-.09-.229-.342-.526-.57-.622-.616-.258-7.962-.182-9.064-.124Zm2.602-15.033c-1.063.122-2.019.57-2.689 1.425a4.159 4.159 0 0 0-.479.785 4.144 4.144 0 0 0-.285.875c-.264 1.311-.096 3.084-.096 4.446.001.809-.085 1.676.009 2.476.043.361.155.665.45.896.213.167.512.2.774.223 1.335.114 2.754.018 4.096.015l7.738-.007c.788.008 2.465.228 3.064-.321.377-.346.37-1.034.373-1.51l-.01-5.01c.006-1.038.116-2.188-.025-3.209-.039-.283-.092-.551-.302-.761a1.217 1.217 0 0 0-.731-.325c-.523-.058-1.076-.024-1.604-.024h-2.905c-2.342.002-4.711-.081-7.05.008-.107.005-.221.004-.328.018Zm33.305-.012c-.381.154-.717.349-.873.753-.218.562-.138 8.972.021 9.868.204-.52.33-1.068.503-1.599.318-.98.715-1.954 1.213-2.859 1.307-2.385 3.088-4.599 5.331-6.17l-4.009-.01c-.723-.001-1.466-.031-2.186.017Zm-5.832 15.043c-.369.151-.71.353-.86.748-.18.472-.147 8.165-.084 9.099.015.227.051.432.155.636.129.255.339.468.616.551.876.263 2.289.114 3.217.112l4.488-.012.895-.007a18.055 18.055 0 0 1-1.332-1.943 19.84 19.84 0 0 1-.569-1.032 19.905 19.905 0 0 1-.501-1.067 20.076 20.076 0 0 1-.43-1.097 18.294 18.294 0 0 1-.645-2.266 19.03 19.03 0 0 1-.21-1.16c-.128-.857-.164-1.715-.234-2.578-1.497-.003-3.01-.045-4.506.016ZM14.603 67.96c-.334.085-.634.23-.814.54-.124.211-.149.503-.166.744-.072 1.027-.003 2.092.002 3.122.005.968-.053 1.958.012 2.922.025.376.081.753.194 1.114.304.972.952 1.77 1.862 2.235a4.276 4.276 0 0 0 1.582.439c.976.084 1.99.029 2.971.026l4.921-.004 7.917-.002c1.427 0 2.862.036 4.287-.014.331-.087.599-.206.782-.509.132-.217.175-.446.194-.696.112-1.487.004-3.059 0-4.555-.002-1.056.154-3.678-.057-4.535a1.074 1.074 0 0 0-.484-.657c-.249-.154-.555-.168-.84-.181-1.113-.05-2.246.002-3.361.005l-6.194-.004-8.21-.002c-1.531-.001-3.068-.032-4.598.012Zm38.28-15.03c-.358.146-.657.325-.825.69-.225.486-.165 8.151-.111 9.131.011.193.03.382.106.562.115.272.301.487.577.599.796.324 4.595.153 5.696.148l.218-1.341c.206-1.171.514-3.808.959-4.706a2.78 2.78 0 0 1 .926-1.063c.048-.034.097-.065.146-.097.106-.653.223-1.308.298-1.966a27.764 27.764 0 0 1-3.721-1.966c-1.413-.007-2.859-.079-4.269.009Zm29.533-3.993-.116-.014.012.07c.073.009.158.025.23.026.768.011 3.021.264 3.541-.389.195-.244.252-.781.276-1.094.072-.971.102-8.275-.074-8.864a.713.713 0 0 0-.196-.325c-.153 3.748-1.368 7.506-3.713 10.466l.04.124ZM29.12 37.89c-.361.148-.659.326-.829.693-.219.472-.199 9.195-.026 9.649.116.302.318.534.618.659.233.098.49.133.741.147 1.48.087 3.024-.017 4.512-.014 1.391.003 3.41.121 4.742-.028.385-.16.639-.317.796-.719a2.132 2.132 0 0 0 .147-.679c.069-1.211-.02-2.459-.016-3.674.004-1.527.093-3.089.012-4.612-.013-.254-.035-.536-.151-.767-.135-.272-.408-.521-.702-.605-.608-.173-8.699-.107-9.844-.05Zm37.887 30.083c-.397 2.662-.921 5.315-1.39 7.966-.183 1.038-.423 2.097-.544 3.143l2.5.014c.552 0 1.045.026 1.469-.387.09-.088.169-.187.246-.287.247-1.134.111-3.559.113-4.829.002-1.4.08-2.839-.016-4.233-.018-.262-.036-.67-.188-.881-.238-.331-.643-.495-1.037-.526-.376-.03-.775.005-1.153.02Zm11.039-15.004c-1.675 1.151-3.595 2.057-5.565 2.571a22 22 0 0 1-2.868.521c-.294.036-1.105.04-1.339.195-.236.156-.326.948-.376 1.22-.04.214-.072.431-.121.642.21.312.399.604.503.971.378 1.334-.662 3.926-.37 4.604.069.16.249.227.396.29.938.214 3.178.084 4.252.083 1.687 0 3.407.067 5.089-.017.264-.013.584-.013.819-.147.202-.115.382-.33.524-.512.246-1.128.113-3.658.115-4.941.003-1.419.09-2.886-.024-4.297-.018-.223-.039-.453-.162-.646a1.374 1.374 0 0 0-.152-.19 1.387 1.387 0 0 0-.188-.155 1.112 1.112 0 0 0-.215-.114 1.128 1.128 0 0 0-.234-.067c-.028-.005-.056-.007-.084-.011Zm-43.099-30.12c-.378.153-.707.349-.861.749-.198.514-.149 8.131-.084 9.149.013.199.044.38.13.562.141.296.382.497.693.598.196.064.404.089.609.101 1.224.071 2.504-.02 3.736-.017 1.827.003 3.706.1 5.525-.029.382-.158.643-.315.804-.711a2.012 2.012 0 0 0 .143-.637c.07-1.042-.02-2.123-.015-3.171.008-1.706.092-3.441.015-5.143-.011-.237-.026-.5-.118-.721a1.242 1.242 0 0 0-.669-.654c-.515-.199-8.776-.127-9.908-.076Z"/>
</svg>
