<svg xmlns="http://www.w3.org/2000/svg" xml:space="preserve" style="fill-rule:evenodd;clip-rule:evenodd;stroke-linejoin:round;stroke-miterlimit:2" viewBox="0 0 100 100">
  <g id="レイヤー1">
    <path d="M21.214.076c.055-.004.109-.008.164-.01C22.82-.005 24.281.04 25.725.04l7.536.001h23.268L71.453.04c3.352-.002 7.169-.234 10.446.405a23.232 23.232 0 0 1 2.206.551 23.32 23.32 0 0 1 1.435.491 22.445 22.445 0 0 1 5.309 2.897 24.036 24.036 0 0 1 1.189.941 22.634 22.634 0 0 1 .975.875 20.54 20.54 0 0 1 .783.779 23.883 23.883 0 0 1 .742.816 20.356 20.356 0 0 1 .701.852 23.139 23.139 0 0 1 .658.887 24.37 24.37 0 0 1 .613.917 22.825 22.825 0 0 1 .833 1.431 22.67 22.67 0 0 1 1.334 3.027 24.761 24.761 0 0 1 .342 1.05 19.941 19.941 0 0 1 .291 1.064 24.668 24.668 0 0 1 .237 1.078 25.782 25.782 0 0 1 .183 1.089 24.764 24.764 0 0 1 .129 1.096 24.953 24.953 0 0 1 .074 1.101c.069 1.498.027 3.012.026 4.512l-.001 7.606-.001 23.567-.001 14.34c0 3.44.247 7.27-.433 10.635a22.883 22.883 0 0 1-.559 2.186 22.923 22.923 0 0 1-1.084 2.804c-.106.227-.216.453-.33.676a21.079 21.079 0 0 1-1.122 1.957 21.25 21.25 0 0 1-1.314 1.833 21.986 21.986 0 0 1-1.346 1.544 23.296 23.296 0 0 1-1.169 1.142 22.776 22.776 0 0 1-2.574 2.011 22.217 22.217 0 0 1-9.073 3.505 24.97 24.97 0 0 1-1.082.134 24.798 24.798 0 0 1-1.086.08l-.195.012c-1.428.07-2.876.026-4.307.026l-7.601-.001H43.308l-14.731.001c-3.362.002-7.197.235-10.476-.405a20.585 20.585 0 0 1-1.47-.339 23.786 23.786 0 0 1-1.443-.439 23.066 23.066 0 0 1-1.41-.535 23.59 23.59 0 0 1-1.37-.628 23.559 23.559 0 0 1-1.326-.721 21.243 21.243 0 0 1-1.273-.808 22.064 22.064 0 0 1-2.774-2.237 23.913 23.913 0 0 1-.783-.775 20.372 20.372 0 0 1-.744-.813 23.321 23.321 0 0 1-.703-.849 24.029 24.029 0 0 1-.659-.882 20.29 20.29 0 0 1-.615-.915 22.671 22.671 0 0 1-1.091-1.914 28.319 28.319 0 0 1-.472-.995 24.867 24.867 0 0 1-.423-1.018 22.725 22.725 0 0 1-.832-2.624 19.828 19.828 0 0 1-.34-1.617 19.857 19.857 0 0 1-.16-1.09 19.946 19.946 0 0 1-.106-1.097 24.97 24.97 0 0 1-.033-.55C0 77.201.042 75.679.043 74.172l.001-7.56V28.64c-.001-3.424-.247-7.27.421-10.626.049-.246.102-.491.16-.735a20.396 20.396 0 0 1 .393-1.45 22.086 22.086 0 0 1 1.401-3.482 23.364 23.364 0 0 1 1.115-1.959 21.873 21.873 0 0 1 .85-1.239 22.369 22.369 0 0 1 1.798-2.146 20.225 20.225 0 0 1 .771-.777 23.517 23.517 0 0 1 1.652-1.434 23.666 23.666 0 0 1 1.327-.965 27.726 27.726 0 0 1 .923-.588 20.063 20.063 0 0 1 .95-.541 20.375 20.375 0 0 1 .976-.495 24.593 24.593 0 0 1 1.507-.649 22.489 22.489 0 0 1 2.605-.831 22.898 22.898 0 0 1 2.144-.43 20.135 20.135 0 0 1 1.086-.135 25.041 25.041 0 0 1 1.091-.082Zm.491 3.873c-4.993.245-9.614 2.323-12.982 6.046a17.87 17.87 0 0 0-1.229 1.502 19.374 19.374 0 0 0-1.38 2.189 17.358 17.358 0 0 0-.572 1.162 19.214 19.214 0 0 0-.892 2.429 19.14 19.14 0 0 0-.316 1.255 17.35 17.35 0 0 0-.124.635c-.48 2.707-.282 6.3-.282 9.093l.001 14.444-.002 23.692-.001 7.619c-.001 1.522-.047 3.058.034 4.577a22.562 22.562 0 0 0 .069.907 16.876 16.876 0 0 0 .187 1.351 20.782 20.782 0 0 0 .181.892 17.706 17.706 0 0 0 .642 2.179 15.52 15.52 0 0 0 .331.847 19.414 19.414 0 0 0 .373.83 21.974 21.974 0 0 0 .414.81c.072.133.146.265.221.397a22.297 22.297 0 0 0 .473.777 19.105 19.105 0 0 0 1.345 1.831 16.295 16.295 0 0 0 .6.684 16.105 16.105 0 0 0 .632.653 19.65 19.65 0 0 0 2.156 1.825 16.994 16.994 0 0 0 1.061.714 16.897 16.897 0 0 0 1.107.639 16.931 16.931 0 0 0 1.149.56 17.921 17.921 0 0 0 1.79.688 17.976 17.976 0 0 0 1.228.353 19.362 19.362 0 0 0 1.251.267c2.764.49 6.056.287 8.874.285l13.584-.001H65.9l7.864.001c1.511 0 3.036.042 4.546-.023l.019-.002c4.958-.251 9.579-2.327 12.927-6.02.144-.159.286-.32.426-.483a17.73 17.73 0 0 0 1.174-1.535 19.174 19.174 0 0 0 1.007-1.649 17.214 17.214 0 0 0 .572-1.155 17.257 17.257 0 0 0 .491-1.191 19.058 19.058 0 0 0 .578-1.844 19.037 19.037 0 0 0 .276-1.259c.509-2.804.301-6.312.3-9.195l-.003-14.335-.002-23.671v-7.6c.001-1.545.045-3.105-.035-4.647a17.529 17.529 0 0 0-.176-1.809 16.78 16.78 0 0 0-.155-.896 16.736 16.736 0 0 0-.199-.887 21.871 21.871 0 0 0-.243-.876 16.801 16.801 0 0 0-.286-.864 36.782 36.782 0 0 0-.159-.426 21.772 21.772 0 0 0-.35-.839 17.003 17.003 0 0 0-.601-1.224 19.186 19.186 0 0 0-.45-.79 20.742 20.742 0 0 0-.748-1.14 16.484 16.484 0 0 0-.545-.729 16.264 16.264 0 0 0-.58-.7 19.244 19.244 0 0 0-.614-.67 19.433 19.433 0 0 0-1.965-1.775 17.601 17.601 0 0 0-1.038-.757 19.127 19.127 0 0 0-1.651-.995 18.122 18.122 0 0 0-2.345-1.05 18.92 18.92 0 0 0-2.468-.713 17.14 17.14 0 0 0-.631-.124c-2.681-.476-5.738-.277-8.472-.277l-13.032.002H34.485l-8.168-.001c-1.534 0-3.079-.036-4.612.017Z" style="fill:#020000"/>
    <path d="M92.143 79.102c-.321 3.311-1.911 6.508-4.259 8.843a15.855 15.855 0 0 1-.806.746 14.044 14.044 0 0 1-2.241 1.583 15.02 15.02 0 0 1-1.474.736 13.237 13.237 0 0 1-1.025.396c-.173.059-.348.116-.523.169a15.924 15.924 0 0 1-1.063.277 16.57 16.57 0 0 1-.539.108c-2.279.416-4.77.237-7.079.236l-10.818-.002-39.473-.001c-4.136-.015-7.884-1.371-10.821-4.347a15.457 15.457 0 0 1-.735-.798 13.725 13.725 0 0 1-.674-.851 15.392 15.392 0 0 1-.608-.899 14.702 14.702 0 0 1-.783-1.427 16.99 16.99 0 0 1-.43-.997 12.89 12.89 0 0 1-.355-1.026 13.48 13.48 0 0 1-.277-1.049c-.04-.176-.076-.354-.109-.532-.431-2.366-.247-4.919-.247-7.323l.001-11.128-.006-39.919.009-.348a13.358 13.358 0 0 1 .044-.697 13.572 13.572 0 0 1 .257-1.724 12.874 12.874 0 0 1 .162-.679 14.134 14.134 0 0 1 .681-1.977c.045-.107.093-.213.141-.319a11.348 11.348 0 0 1 .306-.627c.054-.103.108-.206.164-.308.056-.102.114-.203.172-.303.059-.101.119-.2.179-.3a21.109 21.109 0 0 1 .381-.585 11.211 11.211 0 0 1 .408-.565c.07-.093.142-.185.215-.275a13.857 13.857 0 0 1 1.556-1.66 14.835 14.835 0 0 1 .813-.69 13.175 13.175 0 0 1 .863-.626 14.21 14.21 0 0 1 5.399-2.188c2.258-.413 4.912-.224 7.222-.222l11.205-.001 39.999-.004a14.074 14.074 0 0 1 4.192.644 13.225 13.225 0 0 1 .672.228c.111.04.221.083.331.126a18.805 18.805 0 0 1 .653.278 11.764 11.764 0 0 1 .638.31 13.457 13.457 0 0 1 .926.524 11.662 11.662 0 0 1 .595.387 14.984 14.984 0 0 1 .853.635 14.936 14.936 0 0 1 1.06.943 15.462 15.462 0 0 1 1.054 1.148 14.02 14.02 0 0 1 1.657 2.505 13.506 13.506 0 0 1 .509 1.091 13.18 13.18 0 0 1 .588 1.706 14.661 14.661 0 0 1 .368 1.767c.028.199.052.398.072.598.082.82.063 1.641.054 2.465-.041-.241-.075-.405-.282-.551-.207-.146-.465-.204-.713-.227-.648-.061-1.321-.029-1.973-.03l-3.419-.003c-1.059-.001-3.532-.122-4.47.061-.489.095-.776.416-1.025.821-.095.153-.211.307-.207.492.104.145.263.178.422.235 3.133.927 5.689 2.16 7.326 5.155.668 1.223 1.387 3.459 1.171 4.864a.779.779 0 0 0-.146.183c-.017.031-.038.059-.057.089.016.149.036.145.149.248.64.175 2.397-.003 2.965-.327.09-.052.178-.107.266-.163.001 1.284.041 2.583.001 3.866-.553-.005-1.187-.057-1.612.372-.237.239-.268.53-.306.851-.122 1.031-.037 2.159-.038 3.199-.001 1.681-.042 3.372.006 5.051.013.461.026 1.043.388 1.37.413.373 1.039.33 1.556.323l.004 3.874-5.562.003c-.153.766-.275 1.773-.966 2.261-.193.136-.378.157-.609.16-.035.001-.194-.014-.222-.001-.223.1-.432 1.466-.491 1.753a182.522 182.522 0 0 1-.751 3.586c-.17.766-.435 1.622-.481 2.405-.01.181.008.274.108.424.201.303.431.462.788.52.875.142 1.876.054 2.762.053l5.416-.008.006 3.883c-.775-.01-2.418-.224-3.009.334-.196.185-.318.44-.359.705-.137.889-.039 1.931-.039 2.832l.006 5.625c.006.475.013.95.379 1.304.619.599 2.16.347 2.964.356ZM43.279 67.959c-.351.096-.652.246-.849.567-.122.199-.154.397-.172.627-.072.918-.105 8.491.044 9.046.075.277.295.597.552.737.589.322 6.84.159 7.965.155l.654-.016c-2.039-2.559-2.152-4.939-1.907-8.077.075-.959.131-1.926.232-2.882a7.89 7.89 0 0 1 .019-.161c-2.172-.007-4.369-.079-6.538.004Zm1.365-30.071c-.369.152-.707.351-.859.743-.181.469-.149 8.171-.087 9.105.015.227.052.431.156.636.129.255.339.468.616.552.871.262 5.589.104 6.831.1.279-3.716.542-7.437.869-11.149l-4.863-.007c-.881-.001-1.785-.04-2.663.02ZM75.7 64.055c.769-3.362 1.458-6.757 2.151-10.136-.58-.243-.879-.45-1.189-1.014-1.795.01-3.589.01-5.384.001-.908-.002-1.921-.091-2.815.057-.263.043-.441.11-.628.302-.15.153-.284.332-.322.547-.18.999-.061 2.334-.062 3.379-.001 1.812-.056 3.645.009 5.454.015.429.094.787.411 1.094a.913.913 0 0 0 .527.263c.84.157 1.798.068 2.651.067l4.651-.014ZM60.345 37.897c-.345.075-.551.185-.744.487-.111.175-.225.371-.257.579-.153.98-.034 2.597-.042 3.655-.012 1.496-.25 4.382.036 5.741.377.443.574.616 1.176.66 1.286.096 2.632.017 3.923.015 1.764-.002 3.546.05 5.307-.014.384-.087.685-.209.893-.562.133-.226.196-.475.222-.735.084-.841-.013-1.746-.013-2.596-.001-1.289.177-5.613-.076-6.429a1.203 1.203 0 0 0-.625-.706c-.553-.253-8.759-.164-9.8-.095Zm-2.838 26.17.11.006c1.493-.167 3.057.123 4.559-.006.602-.052.911-.215 1.293-.675.054-.244.085-.48.095-.729.071-1.777.017-3.575.019-5.355 0-1.082.13-2.484-.073-3.535-.036-.191-.174-.363-.308-.5-.181-.185-.389-.273-.64-.323-.958-.191-2.948-.039-3.997-.025l-.682-.013-.141.032c-.145.509-.918 10.889-.858 11.092.217.052.402.044.623.031ZM17.171 22.858c-1.064.121-2.019.569-2.69 1.425a4.047 4.047 0 0 0-.647 1.214 4.046 4.046 0 0 0-.117.445c-.264 1.312-.096 3.085-.096 4.446 0 .81-.085 1.677.009 2.477.043.361.155.664.449.895.214.167.513.2.775.223 1.33.117 2.747.019 4.086.015l7.748-.006c.788.008 2.465.228 3.064-.321.377-.346.37-1.035.373-1.51l-.011-4.951c.007-1.05.106-2.197-.02-3.235-.036-.301-.094-.589-.319-.807a1.21 1.21 0 0 0-.717-.313c-.557-.061-1.151-.023-1.711-.024h-3.093c-2.196.001-4.71-.103-6.88.015a6.706 6.706 0 0 0-.203.012Zm60.092 26.175c.201-.618.296-1.316.431-1.954l.867-4.118c.141-.671.238-1.402.492-2.039.087-.219.204-.395.385-.546.409-.342.861-.341 1.363-.303l.467-2.141c-.554-.156-5.459-.133-5.86.078-.202.106-.488.318-.554.545-.206.716-.224 9.347.035 9.885.139.29.574.494.871.555.469.096 1.023.044 1.503.038ZM57.878 68.629c-.124.599-.215 6.294-.009 6.612 3.85-.303 7.74-1.004 11.521-1.79.01-1.146.141-3.255-.013-4.307-.042-.289-.119-.597-.322-.817a1.167 1.167 0 0 0-.601-.335c-.673-.134-1.485-.048-2.174-.05l-4.529-.003c-.858 0-2.356-.127-3.121.073-.196.051-.333.161-.474.301-.1.1-.191.205-.278.316Zm-43.276-.669c-.342.087-.647.239-.826.561-.258.465-.2 5.925-.137 6.798.028.398.092.794.22 1.172a3.718 3.718 0 0 0 1.891 2.176c.505.248 1.05.376 1.609.417 1.071.078 2.178.019 3.253.016l5.967-.001 7.101-.002c1.222 0 2.473.053 3.691-.015.325-.084.63-.226.813-.523.105-.171.125-.343.142-.541.112-1.36.032-2.785.033-4.151.001-1.312.153-4.19-.126-5.292-.051-.202-.282-.38-.461-.472a1.512 1.512 0 0 0-.602-.151c-.953-.058-1.941 0-2.898 0l-6.054-.002-8.811-.001c-1.599-.001-3.206-.033-4.805.011Zm65.991-36.915c-.026.755-.233 1.997.337 2.573.096.097.203.183.308.268.316.059.777.201 1.062.024l.037-.084a3.873 3.873 0 0 0-.148-.964c-.26-.856-.829-1.404-1.596-1.817Zm-30.118-8.2c-.383.155-.713.347-.87.752-.193.498-.151 8.193-.081 9.182.014.204.048.377.144.559.16.302.397.492.725.587.632.183 1.402.065 2.058.067.029-.196.054-.391.071-.589l.389-5.015c.085-1.106.119-2.253.347-3.34.161-.769.428-1.494.741-2.213-1.172-.003-2.353-.038-3.524.01ZM73.36 72.066c1.098-1.167 1.49-2.581 1.821-4.105-.524-.011-1.113-.058-1.523.34-.586.568-.388 2.518-.372 3.33.003.154.012.292.074.435Zm-8.29-45.652a89.078 89.078 0 0 0-.052 4.231c.002.727-.051 1.514.054 2.233.036.249.078.458.25.651.363.406.731.445 1.25.46 1.869.054 3.754.004 5.625.004 1.104 0 2.336.107 3.427-.031.264-.033.464-.156.675-.31.53-.647.441-2.434.364-3.258a1.388 1.388 0 0 0-.135-.51c-.527-.273-1.195-.417-1.764-.591l-3.213-.975-4.255-1.273c-.724-.215-1.483-.501-2.226-.631ZM14.567 37.891c-.365.15-.659.329-.833.699-.21.444-.188 9.188-.018 9.639.089.236.297.537.529.65.535.261 8.083.192 9.111.118.351-.143.659-.326.82-.688.205-.464.194-9.24.025-9.672-.089-.229-.341-.526-.57-.622-.615-.257-7.963-.182-9.064-.124Zm22.892 15.031c-.352.094-.652.246-.851.565-.12.191-.154.38-.171.601-.073.91-.104 8.538.042 9.085.078.292.276.563.547.701.249.128.536.176.812.195 1.217.087 2.489-.012 3.712-.011 1.813 0 3.658.079 5.467-.011.358-.098.673-.261.872-.589.103-.169.126-.369.14-.562.081-1.087.154-8.695-.105-9.362-.102-.263-.506-.492-.765-.563-.676-.186-2.755-.059-3.53-.059-2.052-.001-4.12-.056-6.17.01Zm45.518-16.07c-.236.082-.405.167-.522.4-.412.827-.476 2.132-.706 3.053 1.439.294 2.877.597 4.312.91.148.027.295.092.431.024.262-.728.692-2.595.524-3.348-.28-.403-3.402-.914-4.039-1.039ZM60.341 19.71c-1.769.189-3.274.936-4.402 2.333-.795.985-1.332 2.221-1.549 3.467-.169.974-.195 2.001-.272 2.987l-.429 5.513-1.338 17.03-1.201 15.327-.311 3.994c-.104 1.279-.273 2.582-.132 3.863.217 1.953 1.083 3.724 2.638 4.953 2.515 1.987 4.389 1.655 7.355 1.29a134.39 134.39 0 0 0 8.648-1.418c1.837-.364 3.943-.695 5.641-1.516.15-.074.297-.152.443-.234a9.38 9.38 0 0 0 .84-.543 9.06 9.06 0 0 0 .772-.636 9.124 9.124 0 0 0 .695-.721c.108-.127.213-.256.315-.389 1.768-2.274 2.165-4.592 2.784-7.292-1 .469-1.982.617-3.039.226-.67-.248-1.171-.681-1.615-1.225-.429 2.122-.832 4.932-2.782 6.249-1.852 1.251-11.426 2.591-14.172 2.895-1.018.118-2.033.345-2.907-.36-.619-.5-.83-1.124-.895-1.888-.063-.744.033-1.509.091-2.251l.245-3.145.866-11.027 1.622-20.572.502-6.504c.087-1.134.134-2.289.276-3.417.075-.594.229-1.22.614-1.694a1.64 1.64 0 0 1 .349-.315 1.53 1.53 0 0 1 .736-.249c.367-.027.757.047 1.113.13 1.13.265 2.249.633 3.362.962l6.126 1.828 5.699 1.733c1.13.347 2.293.668 3.396 1.091.551.211 1.013.446 1.453.846.749.68 1.152 1.659 1.185 2.662.025.749-.146 1.49-.303 2.218.845-.033 3.853.616 4.636.983.612-2.705.645-5.265-.891-7.69a8.952 8.952 0 0 0-.657-.89 9.025 9.025 0 0 0-.766-.798 8.474 8.474 0 0 0-.862-.693 8.013 8.013 0 0 0-.943-.578c-1.14-.602-2.462-.943-3.691-1.326l-4.971-1.527-7.407-2.216c-1.496-.444-3.007-.947-4.531-1.282a7.876 7.876 0 0 0-2.336-.184Zm-25.394 3.139c-.379.153-.707.348-.862.749-.197.512-.148 8.132-.083 9.149.012.202.042.382.132.565.151.304.394.51.719.61.44.135 8.974.135 9.842.041.387-.161.642-.316.8-.719a2.11 2.11 0 0 0 .146-.657c.072-1.163-.015-2.368-.014-3.536 0-1.57.073-3.158.017-4.727-.009-.251-.029-.535-.131-.768a1.239 1.239 0 0 0-.681-.64c-.522-.183-8.76-.12-9.885-.067Zm47.1 45.117c-.261 1.005-.405 2.04-.684 3.039-.811 2.896-2.525 5.716-5.166 7.269-.545.32-1.117.568-1.7.808l2.929.018 4.157.004c.774 0 1.646.076 2.407-.07.244-.047.383-.139.557-.313a2.86 2.86 0 0 0 .263-.298c.158-.718.107-1.491.109-2.224l.008-3.142c.002-1.207.082-2.461-.015-3.661-.025-.313-.079-.727-.242-.997-.156-.26-.555-.384-.834-.43-.567-.095-1.214-.021-1.789-.003ZM60.364 25.334c-.232.278-.45.594-.528.954-.252 1.162-.24 2.502-.331 3.696-.098 1.297-.293 2.656-.269 3.953.178.076.323.075.512.076.238-.046.478-.083.718-.124.216-.171.392-.361.576-.566.153-.67.118-1.368.117-2.051l-.011-2.974c-.003-.572-.042-1.163.014-1.731-.014-.382.102-.918-.167-1.216-.209-.103-.41-.048-.631-.017Zm17.87 23.895c-.12.568-.739 2.92-.628 3.391.213.156.445.244.697.319.739.22 6.311 1.436 6.739 1.391a.75.75 0 0 0 .229-.074c.385-.774.599-2.444.785-3.362-2.606-.555-5.21-1.139-7.822-1.665Zm-63.575 3.693c-.35.095-.65.249-.846.567-.133.217-.162.444-.179.693-.068 1-.111 8.364.05 8.985.078.299.271.571.548.714.266.138.581.182.877.196.818.039 1.658-.013 2.478-.017l4.31.005c3.191-.001 6.41.087 9.599-.019.351-.095.63-.226.814-.555.148-.264.208-.547.232-.846.088-1.079-.014-2.227-.017-3.313-.003-1.072.177-4.796-.077-5.605a1.216 1.216 0 0 0-.622-.695c-.229-.101-.501-.107-.749-.117-2.593-.104-5.225-.003-7.823-.004-2.854-.001-5.745-.099-8.595.011ZM29.121 37.89c-.37.151-.633.306-.796.687a2.127 2.127 0 0 0-.166.711c-.087 1.208.018 2.473.019 3.687.001 1.526-.092 3.093-.008 4.615.014.238.039.501.131.723.114.276.399.544.683.636.553.18 8.821.123 9.894.047.379-.158.701-.353.85-.757.184-.5.124-7.741.084-8.715-.013-.305-.024-.788-.149-1.066-.128-.286-.609-.482-.893-.543-.855-.181-2.587-.037-3.526-.038-1.942-.002-4.219-.121-6.123.013Zm49.706 16.17-1.509 7.073c-.249 1.168-.725 2.723-.711 3.903.004.376.157.79.363 1.101.339.511 1.03.922 1.627 1.037a2.533 2.533 0 0 0 1.839-.378c.093-.063.18-.136.265-.21a2.65 2.65 0 0 0 .58-.96c.427-1.219.613-2.623.882-3.891.471-2.219.976-4.437 1.408-6.665-1.576-.328-3.185-.615-4.744-1.01Zm.246 8.802c.212-.003.442.026.636.114a1.128 1.128 0 0 1 .309.197 1.19 1.19 0 0 1 .294.39 1.284 1.284 0 0 1 .104.358 1.29 1.29 0 0 1-.012.375 1.297 1.297 0 0 1-.073.241 1.067 1.067 0 0 1-.054.113c-.198.368-.491.516-.874.639-.288.005-.544-.019-.799-.168a1.196 1.196 0 0 1-.361-.323.99.99 0 0 1-.125-.208 1.13 1.13 0 0 1-.114-.466.945.945 0 0 1 .001-.119 1.214 1.214 0 0 1 .178-.564c.214-.341.513-.482.89-.579Zm1.102-21.846c-.491.482-.75 2.705-.933 3.453l5.035 1.076c.878.187 1.765.41 2.65.555l.133-.025c.156-.346.698-2.981.643-3.317-.186-.184-.436-.263-.683-.334-1.243-.358-2.578-.548-3.846-.815-.946-.199-2.037-.576-2.999-.593Z"/>
  </g>
</svg>
