<svg xmlns="http://www.w3.org/2000/svg" xml:space="preserve" style="fill-rule:evenodd;clip-rule:evenodd;stroke-linejoin:round;stroke-miterlimit:2" viewBox="0 0 100 100">
  <path d="M.015 62.884V30.127c-.005-2.088.001-4.175.02-6.263.119-7.278.38-13.107 5.999-18.486 1.712-1.638 4.041-3.195 6.281-3.956C17.166-.225 23.818.05 28.957.047c3.032-.002 6.07-.047 9.101.009C46.729-.06 55.418.04 64.09.039l9.675.002c4.191.009 8.494-.082 12.59.945 2.754.69 5.623 2.431 7.652 4.412 5.276 5.151 5.869 10.302 5.941 17.321.028 3.983.035 7.966.02 11.95-.001 2.072.097 4.403-.019 6.442.122 1.922.011 3.907.013 5.837l.002 12.205.002 12.328c-.002 4.723.058 9.457-.801 14.121-.284 1.098-.581 2.187-1.043 3.227-1.528 3.439-4.411 6.542-7.649 8.441-2.413 1.415-5.023 2.101-7.789 2.372-5.428.482-10.913.338-16.358.338H43.147l-15.407-.003c-2.121.011-4.242-.018-6.362-.086-1.071-.034-2.204-.032-3.263-.196-1.807-.094-3.721-.411-5.438-.986-4.634-1.551-8.461-5.18-10.62-9.516-.469-.91-.772-1.895-1.076-2.869-1.02-4.478-.961-9.128-.964-13.699l-.002-9.741Zm47.809 18.46-3.747.002c-1.268.001-2.565.001-3.747-.002-2.04-.005-4.861-.418-5.923 1.571-.431.805-.503 2.506.604 2.78.261.035 5.755.086 12.409.13.177.093 16.986-.088 17.568-.165 1.107-.274 1.034-1.975.604-2.78-1.063-1.99-3.884-1.577-5.923-1.572-2.431.006-5.345 0-7.494 0l-.128-36.209s4.267-.051 7.138-.054c2.226-.001 4.678.083 6.89 0 2.212-.082 4.739.009 6.89 0 2.152-.008 3.849.124 5.319-1.45 1.544-1.654.615-3.835.389-5.829-.226-1.994-2.286-14.999-2.686-17.621-.063-.42-.596-3.593-.604-3.626-.223-.92-1.051-1.358-1.209-1.451-1.563-.925-2.399-.874-4.349-.91-1.018-.018-2.358.028-4.224.05-2.766.033-5.517.153-8.47.135-2.84-.018-5.974.052-8.824 0-2.851-.052-6.157.036-8.945 0-2.789-.036-6.218.043-8.824 0-2.606-.044-5.563-.07-6.044 2.78-.185 1.098-.252 1.753-.363 2.538-.077.546-1.032 6.314-1.45 8.945-.381 2.392-1.125 5.303-1.511 7.635-.401 2.414-1.226 5.459.544 7.354.475.508.853.672 1.45.967.455.225.663.284 1.209.363 1.441.205 3.051.093 4.593.12 1.543.028 3.167-.043 4.715 0 1.547.044 3.177.012 4.714 0 2.405-.018 2.693.026 4.714 0 1.066-.013 4.679-.003 4.679-.003l.036 36.302ZM29.167 40.537a2.084 2.084 0 0 1 0-4.167h41.666a2.084 2.084 0 0 1 0 4.167H29.167Zm24.698-7.076c-1.182.455-2.49.707-3.865.707-5.288 0-9.582-3.738-9.582-8.342 0-4.604 4.294-8.342 9.582-8.342 5.288 0 9.582 3.738 9.582 8.342 0 2.228-1.006 4.253-2.643 5.75-.872.838-1.926 1.465-3.074 1.885Z" style="fill:#080605"/>
</svg>
