<svg xmlns="http://www.w3.org/2000/svg" xml:space="preserve" style="fill-rule:evenodd;clip-rule:evenodd;stroke-linejoin:round;stroke-miterlimit:2" viewBox="0 0 100 100">
  <path d="m37.433.032 2.995-.014 24.188.026 7.439.018c3.948.012 8.019.032 11.863 1.043.223.058.446.119.667.185a19.41 19.41 0 0 1 1.314.433 20.976 20.976 0 0 1 3.732 1.807 20.631 20.631 0 0 1 1.156.762 22.149 22.149 0 0 1 1.102.837c.18.145.356.294.53.445a18.833 18.833 0 0 1 1.015.942c6.012 5.969 6.53 13.107 6.559 21.141l.006 32.213-.001 10.378c-.001 4.315.093 8.783-.893 13.01a21.359 21.359 0 0 1-1.423 4.183 20.325 20.325 0 0 1-1.032 1.957 19.92 19.92 0 0 1-.8 1.24 23.284 23.284 0 0 1-.885 1.181 19.692 19.692 0 0 1-.966 1.115c-.167.181-.337.358-.511.532-5.78 5.805-12.429 6.388-20.214 6.504-3.558.053-7.12.02-10.678.019l-25.444.001-8.286-.002c-4.078-.007-8.324.023-12.307-.957a22.52 22.52 0 0 1-1.353-.373 19.996 19.996 0 0 1-1.326-.462 21.542 21.542 0 0 1-1.923-.856 21.607 21.607 0 0 1-2.413-1.432 20.433 20.433 0 0 1-1.672-1.278 19.381 19.381 0 0 1-1.041-.942C.846 87.829.159 81.03.083 73.061L.013 40.99c-.028-4.076-.011-8.151.051-12.227.047-4.05-.001-8.185.945-12.148a20.178 20.178 0 0 1 .375-1.384 22.625 22.625 0 0 1 .469-1.356 22.514 22.514 0 0 1 .874-1.965 22.613 22.613 0 0 1 .693-1.256 19.23 19.23 0 0 1 .777-1.205 19.942 19.942 0 0 1 1.314-1.702 20.303 20.303 0 0 1 .971-1.056C12.498.579 19.713.089 27.839.063l9.594-.031ZM21.767 22.31c-2.347.013-4.695.041-7.042.083.792.879 1.576 1.979 1.779 3.172.526 3.087.376 6.332.376 9.453l-.001 12.305-.001 18.099.003 5.828c.001 1.157.034 2.324-.022 3.479-.116 2.358-.508 3.854-2.15 5.609l18.28.003c-.903-1.051-1.452-2.157-1.763-3.51-.634-2.756-.404-5.789-.404-8.606l-.004-10.967c2.64 3.514 5.206 7.089 7.803 10.636 1.871 2.555 4.422 5.648 5.732 8.469.466 1.004.716 2.035.557 3.141-.039.278-.089.555-.151.829l19.976.01c-2.288-1.906-4.289-4.286-6.021-6.707l-17.379-23.94c3.97-4.801 7.818-9.714 11.72-14.572l4.57-5.674c2.149-2.64 4.142-5.189 7.046-7.053l-19.464-.006c.435 2.172-.463 3.712-1.643 5.487-.866 1.3-1.852 2.515-2.819 3.74l-3.563 4.516-4.188 5.306c-.721.913-1.419 1.871-2.183 2.747.042-3.457.013-6.916.013-10.373 0-2.628-.188-5.403.412-7.976.302-1.294.848-2.462 1.749-3.446-1.275-.079-2.563-.066-3.84-.079a378.03 378.03 0 0 0-7.378-.003Zm45.948 15.431c.767.958 1.379 1.947 1.578 3.178.328 2.029.165 4.228.162 6.278l-.002 10.357v12.184c.001 2.296.143 4.684-.11 6.967-.158 1.434-.75 2.548-1.669 3.643l15.399.01c.579-.002 1.159.005 1.738-.008-.819-.957-1.428-1.959-1.631-3.221-.267-1.66-.163-3.408-.162-5.085l.001-7.389-.003-26.917-15.301.003Zm7.686-20.438c-2.235.21-4.221 1.162-5.672 2.901a8.446 8.446 0 0 0-.486.642 8.503 8.503 0 0 0-.603 1.046 8.054 8.054 0 0 0-.441 1.123 8.541 8.541 0 0 0-.2.78 7.821 7.821 0 0 0-.121.796 7.643 7.643 0 0 0-.042.804 7.757 7.757 0 0 0 .085 1.198 8.618 8.618 0 0 0 .151.778 8.285 8.285 0 0 0 .899 2.194 8.98 8.98 0 0 0 .437.661 8.188 8.188 0 0 0 1.358 1.438c1.531 1.269 3.651 2.045 5.651 1.876l.035-.005c2.235-.186 4.233-1.131 5.695-2.855a7.733 7.733 0 0 0 .712-.978 8.105 8.105 0 0 0 1.211-4.617 7.783 7.783 0 0 0-.07-.8 8.769 8.769 0 0 0-.146-.786 7.321 7.321 0 0 0-.223-.768 8.484 8.484 0 0 0-.473-1.102 7.966 7.966 0 0 0-.631-1.019 8.556 8.556 0 0 0-.775-.915 7.55 7.55 0 0 0-.589-.541c-1.563-1.296-3.723-2.049-5.762-1.851Z"/>
</svg>
