<svg xmlns="http://www.w3.org/2000/svg" xml:space="preserve" style="fill-rule:evenodd;clip-rule:evenodd;stroke-linejoin:round;stroke-miterlimit:2" viewBox="0 0 100 100">
  <g id="レイヤー1">
    <path d="M.217 80.776c-.318-3.147-.198-4.997-.2-8.151l-.002-9.741V30.127c-.005-2.088.001-4.175.02-6.263.119-7.278.38-13.107 5.999-18.486 1.712-1.638 4.041-3.195 6.281-3.956C17.166-.225 23.818.05 28.957.047c3.032-.002 6.07-.047 9.101.009C46.729-.06 55.418.04 64.09.039l9.675.002c4.191.009 8.494-.082 12.59.945 2.754.69 5.623 2.431 7.652 4.412 5.276 5.151 5.869 10.302 5.941 17.321.028 3.983.035 7.966.02 11.95-.001 2.072.097 4.403-.019 6.442.122 1.922.011 3.907.013 5.837l.002 12.205.002 12.328c-.002 4.61.014 9.436-.304 11.903-.092.716-1.301 2.506-1.603 2.898-.046.06-.063.066-.117.104l-.162-.014c-.412.354-.798.919-1.304 1.118-.752.296-1.367.836-2.122 1.14-1.132.454-2.795 1.028-3.99 1.226-.809.134-1.651.132-2.47.153a76.112 76.112 0 0 1-4.849-.03 41.187 41.187 0 0 1-2.079-.034c-.345-.014-.761-.009-1.01-.28a.413.413 0 0 1 .077-.307c.106-.176 1.04-.849 1.256-.855.037-.484.216-1.576-.066-1.98l-.125-.017a2.907 2.907 0 0 0-.417.35c-.577.095-1.365.134-1.931-.033-.098-.111-.224-.274-.354-.345-.213-.115-.519-.149-.752-.218-.873-.257-1.878-.487-2.691-.882-1.166-.565-2.245-1.293-3.337-1.985-1.823-1.156-3.736-2.286-5.284-3.809-1.301-1.279-2.486-3.248-3.266-4.897-.195-.412-.781-1.803-.998-2.075-.013-.017-.029-.031-.044-.047-.149.005-.25-.003-.387.065-.07.145-.173.304-.308.397-.289.198-.777.012-1.089-.06.29-.284 1.399-1.17 1.502-1.176.143-.009.25-.036.34-.151.186-.235.192-.608.151-.89-.128-.862-.973-2.657-1.57-3.274-.402-.415-.964-.663-1.258-1.184-.202-.358-.203-.805-.411-1.169-.256-.447-.593-.847-.837-1.3-.462-.863-.84-1.748-1.347-2.592-.495-.825-1.086-1.595-1.541-2.442-.181-.336-.215-.68-.348-1.027-.436-1.137-1.363-2.849-2.337-3.565.602-.667 1.349-1.192 2.016-1.791.96-.86 1.883-2.021 3.037-2.615.322-.166.681-.262 1.017-.396.49-.195.924-.411 1.45-.503l.074-.077c.308-.326.765-.473 1.153-.697a7.864 7.864 0 0 0 2.037-1.652c-.017-.339-.042-.683-.04-1.023.002-.325.113-.566.341-.794.157-.157.288-.317.417-.497.166-.175.287-.412.415-.617.032-.583-.015-1.182-.028-1.767l.507-.513c.444-1.885.96-2.286 2.135-3.677.406-.129.24-.249.437-.541l.06-.021a.847.847 0 0 0 .288-.176c.208-.208.368-.497.547-.734.362-.48.742-.956 1.135-1.412.257-.299.756-.657.897-1.011a.585.585 0 0 1 .177-.268c.723-.659 1.916-1.848 2.308-2.71-1.26-.102-2.538-.009-3.801-.019-1.118-.009-2.236-.112-3.353-.082-.495.422-.901 1.018-1.315 1.522-.801.976-1.594 1.959-2.407 2.925a550.382 550.382 0 0 0-4.627 5.493c-.52.623-1.121 1.211-1.602 1.862a.949.949 0 0 0-.2.531c.268.219.957.106 1.309.091-.118.492-.249.999-.448 1.465-1.011 2.378-7.577 5.049-9.996 6.016-.318.127-.543.299-.809.509-.468.07-.992.124-1.452-.009 0-.164-.015-.28-.06-.438-.183-.182-.323-.193-.567-.241-.12-.48-.668-1.007-.58-1.191.119-.13.228-.149.392-.189.095-.022.051.005.118-.085-.128-.268-.507-1.222-.683-1.379-.096-.085-.312-.097-.404-.179-.017-.016-.1-.356-.133-.418-.334-.12-.811-.097-1.169-.118-.012-.328-.045-.656-.071-.984-.096-.142-.191-.288-.295-.425-.164-.216-.323-.351-.6-.385-.102-.012-.113-.006-.205-.064-.006-1.06-1.376-2.202-2.007-3.025-.307-.4-.559-.857-.812-1.294a46.211 46.211 0 0 1-2.351-4.635c-.271-.626-.47-1.279-.752-1.903-.341-.756-.442-.828-1.183-1.109-.293-.35-.181-.893-.161-1.319.24-.02.541-.075.778-.04.746.111 2.293 1.405 3.357 1.696.953.26 2.047.155 3.021.095a4.1 4.1 0 0 1 .631-.679c.009-.36.046-.702.102-1.057.372-.2.733-.441 1.096-.66.007-.265-.03-.492.161-.692l.229.005c.287-.254.2-1.011.259-1.387.025-.164.064-.222.196-.315.118-.006.224-.009.339-.04l.063-.02c.295-.081.595-.074.899-.082.294-.216.577-.39.922-.516.004-.298.024-.634-.031-.929-.128-.683-.53-1.29-.573-2.002-.037-.604.124-.939.518-1.372.027-.292.016-.698.171-.952.309-.138.494-.207.663-.509a.997.997 0 0 1 .254-.324c.447-.033.327.724.658.9.182-.25.039-.571.239-.784.105.004.194-.004.297-.023.515-.539.723-1.354 1.006-2.022.101-.238.272-.456.345-.702.377-1.265-.205-3.282-.848-4.395a13.68 13.68 0 0 0-1.906-2.867c-.402-.465-.853-.899-1.235-1.378-.318-.399-.486-.914-.805-1.307-.292-.361-1.079-.884-1.242-1.234-.552-.162-1.086-.503-1.63-.624-.382-.085-.9-.036-1.25-.193-.213-.096-.375-.349-.598-.404-.201-.049-.442.059-.611.154-.298.167-.708.517-1.079.395-.035-.011-.067-.03-.1-.045a4.742 4.742 0 0 1-.076-.412c-.307-.355-1.562-.662-2.038-.703-.571-.05-1.023.253-1.557.377-.312.072-.685.066-1.006.084-1.294.072-2.1.259-3.089 1.139-.458.408-.852.893-1.321 1.287-.453.381-.999.66-1.422 1.076-1.146 1.132-1.839 2.969-2.328 4.477-.206.634-.351 1.278-.592 1.902-.22 1.388-.182 3.029.028 4.425.15 1.004.452 1.906.336 2.937l-.503.42 1.123.382c-.042.299-.087.595-.099.897l1.356.052c.014.212.063.467-.03.661a2.803 2.803 0 0 1-.273.153.521.521 0 0 0-.269.34c-.085.266.058 1.134-.08 1.274-.119-.025-.151-.07-.237-.148-.237-.216-1.993-.722-2.426-.805-.222-.043-.479-.018-.704-.009-.073.304-.168.52-.343.779-.454.672-.56 1.495-1.095 2.131-.64.762-1.696 1.339-2.49 1.943-1.742 1.324-2.906 2.94-4.078 4.761-1.024 1.589-2.018 3.238-2.73 4.994-.545 1.345-1.018 2.825-1.294 4.25-.089.461-.126.929-.205 1.391-.114.666-.308 1.324-.397 1.994-.368 2.759-.272 5.637-.106 8.406.062 1.037.063 2.071.207 3.102.085.617.214 1.23.285 1.848.09.783.117 1.575.217 2.357.089.696.269 1.378.363 2.074a19.392 19.392 0 0 1 .019 4.633c-.149.118-.304.232-.445.358.427.435.768.734 1.416.747.301.005.606-.011.907-.023l.469-.06.031-.072s.142.182.186.241c0 .31-.076.839.04 1.109.116.042.497.621.616.874.189.401 1.793 2.11 1.787 2.319.19.117.429.225.563.404-.065.136-2.463-.01-2.563.002-1.201.145-1.7.176-2.539.374-1.584.373-3.184.76-4.741 1.229-.926.278-1.817.685-2.733.976-.357.114-2.959.51-2.959.51Zm93.611 13.975a19.009 19.009 0 0 1-3.355 2.519c-2.413 1.415-5.023 2.101-7.789 2.372-5.428.482-10.913.338-16.358.338H43.147l-15.407-.003c-2.121.011-4.242-.018-6.362-.086-1.071-.034-2.204-.032-3.263-.196-1.807-.094-3.721-.411-5.438-.986-2.413-.808-4.608-2.179-6.462-3.921l87.613-.037ZM34.241 79.189c-.922.033-1.836-.031-2.755-.088.158-.405.844-1.338 1.079-1.371.171-.023 2.304-1.306 2.964-1.798.935-.698 1.887-1.418 2.771-2.181.906-.78 1.762-1.617 2.664-2.398.324-.28.673-.364.971-.705 0 0 2.048-.955 2.643-1.349.451-.299.827-.725 1.282-1.011.151-.095.838-.707.838-.707.219-.064.366-.437.592-.446.028.326.314 1.415.348 1.437.34.215.6 1.003.868 1.35.312.406.759.573 1.07.929.348.398.554.945.913 1.33.122.131.317.217.476.293.204.445.131 1.222.143 1.721.47.776 1.78 3.271 2.701 3.471.192.042.512.07.693-.023.351-.179.53-.734 1-.655 1.181.199 2.471 3.835 3.789 4.446.053.106.521.622.652.611.176.726.14 3.499-.045 4.188l-.062.004c-.054-.133-.076-.294-.224-.349-.458-.169-1.145-.107-1.665-.268-6.163-1.908-12.296-3.966-18.594-5.387-.452-.102-.894-.251-1.347-.348-.505-.107-1.022-.147-1.528-.244-.76-.145-1.449-.45-2.237-.452Zm-1.445-19.786c-.394.018-.796.001-1.191-.001-.022-.395-.069-.814-.016-1.207.025-.194.061-.288.217-.406.076.016.15.03.227.042l.135-.143c.028-.486.024-.994.11-1.473.084-.466.292-.909.41-1.368.146-.568.127-1.191.146-1.775.416.017.879-.023 1.267.14.116.157.095.235.103.427.822.481 1.424 1.364 2.155 1.974.408-.042.809-.097 1.213-.165.147.036.255.032.336.176.101.182.075.523.08.729-.319.041-.647.105-.968.079l-.167.027.194.276c-.066.126-.135.148-.268.186-.064.019-.13.029-.195.044-.481.112-.799.494-1.213.737-.76.446-1.571.864-2.355 1.267-.078.142-.076.241-.083.399-.045.013-.09.032-.137.035Z" style="fill:#080605"/>
  </g>
</svg>
