<svg xmlns="http://www.w3.org/2000/svg" xml:space="preserve" style="fill-rule:evenodd;clip-rule:evenodd;stroke-linejoin:round;stroke-miterlimit:2" viewBox="0 0 100 100">
  <g id="レイヤー1">
    <path d="M21.54.068C23.126.007 24.722.04 26.31.041h45.46c3.379 0 6.89-.232 10.219.426a21.287 21.287 0 0 1 2.957.8 22.04 22.04 0 0 1 2.82 1.199c.227.116.453.236.677.359a24.295 24.295 0 0 1 1.314.788A22.832 22.832 0 0 1 91.62 4.96a22.85 22.85 0 0 1 2.706 2.574 23.896 23.896 0 0 1 1.053 1.275 24.11 24.11 0 0 1 .647.892 22.769 22.769 0 0 1 .887 1.396c.093.159.184.319.272.48a22.665 22.665 0 0 1 .744 1.476 22.697 22.697 0 0 1 .434 1.014 24.778 24.778 0 0 1 .556 1.557 26.463 26.463 0 0 1 .305 1.06 19.89 19.89 0 0 1 .252 1.073 19.91 19.91 0 0 1 .278 1.63 25.573 25.573 0 0 1 .118 1.097 20.035 20.035 0 0 1 .063 1.1c.06 1.541.025 3.092.025 4.634l-.001 7.766-.002 23.867.001 13.789c.001 3.438.24 7.015-.434 10.4a21.692 21.692 0 0 1-.566 2.224 21.228 21.228 0 0 1-.503 1.444 21.807 21.807 0 0 1-1.681 3.432 20.68 20.68 0 0 1-.832 1.284 22.754 22.754 0 0 1-4.325 4.627 22.942 22.942 0 0 1-1.321.984 20.133 20.133 0 0 1-.919.6c-.156.096-.313.19-.471.283a25.12 25.12 0 0 1-1.452.777 20.496 20.496 0 0 1-1.505.667c-.17.068-.341.134-.512.198a24.462 24.462 0 0 1-1.564.515 24.44 24.44 0 0 1-1.062.278 24.399 24.399 0 0 1-1.075.226 24.43 24.43 0 0 1-1.084.172 25.3 25.3 0 0 1-1.092.118 25.125 25.125 0 0 1-1.096.064c-1.613.057-3.235.025-4.849.024H28.076c-3.35 0-6.823.231-10.123-.434a23.076 23.076 0 0 1-1.47-.348 22.309 22.309 0 0 1-11.078-7.013 23.444 23.444 0 0 1-1.019-1.28 22.387 22.387 0 0 1-3.235-6.28 24.116 24.116 0 0 1-.45-1.573 20.357 20.357 0 0 1-.235-1.066 19.413 19.413 0 0 1-.183-1.075 20.02 20.02 0 0 1-.129-1.084 24.79 24.79 0 0 1-.077-1.088c-.07-1.561-.035-3.131-.035-4.693l.001-7.562V43.073L.041 28.6c-.001-3.43-.24-7.19.42-10.552a21.103 21.103 0 0 1 .345-1.488 24.412 24.412 0 0 1 .447-1.46 20.497 20.497 0 0 1 .545-1.427 22.773 22.773 0 0 1 .999-2.061 21.77 21.77 0 0 1 1.204-1.948 22.605 22.605 0 0 1 4.75-4.997 23.154 23.154 0 0 1 .892-.652 22.946 22.946 0 0 1 1.876-1.167 22.733 22.733 0 0 1 1.982-.975 20.257 20.257 0 0 1 1.545-.599 24.717 24.717 0 0 1 1.053-.335 24.661 24.661 0 0 1 1.068-.282 19.955 19.955 0 0 1 1.081-.229 24.708 24.708 0 0 1 1.091-.174 19.983 19.983 0 0 1 1.098-.121A25.491 25.491 0 0 1 21.54.068Zm54.389 49.02c.146-.004.293-.016.439-.034 1.495-.191 2.626-1.012 3.537-2.172.435.14.863.252 1.319.305 1.356.157 2.766-.162 3.842-1.024a4.25 4.25 0 0 0 .741-.76c.043-.057.084-.115.125-.173a4.924 4.924 0 0 0 .222-.364 4.79 4.79 0 0 0 .33-.783c.021-.068.04-.136.057-.205a3.685 3.685 0 0 0 .084-.417c.011-.071.02-.141.027-.212.103-.996-.235-1.88-.859-2.64a6.651 6.651 0 0 0-.655-.682 7.652 7.652 0 0 0-.489-.399 7.454 7.454 0 0 0-.801-.504 6.194 6.194 0 0 0-.865-.383 6.533 6.533 0 0 0-1.222-.308 6.685 6.685 0 0 0-.313-.039l-.299-.519c3.685-.135 7.217.329 10.735 1.441a7.285 7.285 0 0 0-.775-.947 6.796 6.796 0 0 0-.929-.798c-3.091-2.245-7.47-2.241-11.094-1.655-.328-.055-.696-.273-1.021-.376-.566-.179-1.13-.269-1.707-.395 6.455-2.252 11.557-2.956 18.358-2.037a15.126 15.126 0 0 0-3.503-1.623c-.411-.129-.826-.24-1.246-.334-5.539-1.262-11.454.264-16.184 3.247.003-.596.154-1.258.232-1.853.602-.531 1.507-.968 2.212-1.358 4.187-2.312 8.573-3.568 13.285-4.266-.762-.281-1.584-.465-2.385-.585-4.738-.712-9.419.937-13.195 3.734a17.83 17.83 0 0 0-.39-2.064 29.38 29.38 0 0 0 1.884-2.927c1.419-2.552 3.677-7.699 3.22-10.577-.085-.534-.278-1.018-.727-1.345-1.109-.809-3.275-.462-4.519-.235-3.559.651-6.854 2.104-9.989 3.865a29.783 29.783 0 0 0-2.745-1.195 29.587 29.587 0 0 0-2.85-.918 29.71 29.71 0 0 0-5.902-.972 31.128 31.128 0 0 0-2.245-.061 31.3 31.3 0 0 0-1.497.051 30.79 30.79 0 0 0-4.449.598 30.726 30.726 0 0 0-3.606.997 28.424 28.424 0 0 0-3.545 1.508c-3.114-1.849-10.084-4.898-13.673-4.034-.517.124-.97.37-1.238.843-.796 1.409-.16 3.682.276 5.125.996 3.294 2.649 6.57 4.801 9.261-.167.751-.343 1.511-.403 2.281-3.776-2.875-8.432-4.609-13.234-3.966-.88.118-1.735.335-2.585.588 1.441.324 2.911.491 4.353.835a36.415 36.415 0 0 1 2.508.697 35.026 35.026 0 0 1 3.649 1.388 37.112 37.112 0 0 1 2.337 1.147c.382.205.76.418 1.135.637.597.351 1.265.718 1.794 1.164.057.622.151 1.238.281 1.849-4.978-3.073-10.77-4.819-16.621-3.439-1.599.377-3.267 1-4.632 1.927 4.905-.635 9.514-.507 14.315.772 1.361.362 2.687.912 4.01 1.263-.525.137-1.051.211-1.574.368-.386.115-.767.32-1.153.414-3.662-.574-8.033-.6-11.147 1.695a6.726 6.726 0 0 0-.904.785 7.051 7.051 0 0 0-.757.927c3.509-1.133 7.01-1.547 10.687-1.45-.063.197-.15.36-.252.539-1.602.088-3.021.441-4.136 1.685a4.138 4.138 0 0 0-.69 1.033c-.03.063-.057.127-.084.191a4.55 4.55 0 0 0-.193.592 4.619 4.619 0 0 0-.102.615 4.734 4.734 0 0 0-.014.208c-.003.069-.004.138-.003.208a4.77 4.77 0 0 0 .052.633 3.685 3.685 0 0 0 .145.623 4.306 4.306 0 0 0 .445.97c.037.06.076.12.117.178a4.226 4.226 0 0 0 .711.794c1.038.906 2.424 1.277 3.783 1.167a6.379 6.379 0 0 0 1.515-.325c.933 1.175 2.084 2.008 3.61 2.179.128.014.256.023.384.027l-.005 24.704-.002 7.719c0 1.288-.101 2.915.077 4.167l.536 1.722 1.023 1.456.354.338.391.314.413.277.438.243.458.204.471.164.485.123.495.081c1.323.16 3.096.056 4.464.056l8.579-.001 27.354.001h.018c1.73-.01 3.204-.38 4.503-1.654l.716-.853.523-.934a6.368 6.368 0 0 0 .508-1.901c.154-1.379.042-3.057.037-4.474v-8.017c0-7.909.081-15.827.008-23.736ZM27.21 47.859c.239-.322.459-.649.673-.988 1.88-.096 4.002-.296 5.463-1.622.945-.857 1.289-1.947 1.348-3.19 1.269-.001 11.955.08 12.215-.012.035-.013.06-.044.09-.065.943-.153 2.041-.05 3.001-.05 1.058.001 2.219-.095 3.267.044.227.172 10.595.083 12.069.084-.03 1.099.309 2.147 1.073 2.956 1.439 1.524 3.734 1.749 5.707 1.864.216.333.432.66.674.975l.003.207c.092 8.25.003 16.511.003 24.762v8.026c.005 1.304.124 2.849-.017 4.119-.077.685-.332 1.315-.83 1.803-.664.651-1.448.755-2.333.76l-27.354-.001-8.579.001c-1.254 0-2.878.113-4.091-.033a2.954 2.954 0 0 1-.454-.095 2.723 2.723 0 0 1-1.178-.72 2.671 2.671 0 0 1-.711-1.444c-.159-1.12-.046-2.575-.046-3.727l.002-7.72.005-25.934Zm42.474 1.901c-2.056-.339-4.093-1.059-5.547-2.598a6.952 6.952 0 0 1-1.311-1.967c-3.123.013-8.028.026-9.393-.056l-6.807.054c-1.399.04-6.356.017-9.461.001a6.891 6.891 0 0 1-1.719 2.369c-1.414 1.284-3.248 1.901-5.111 2.199l-.005 24.032-.002 7.719c0 .893-.097 1.993-.025 2.916 1.053.077 2.353-.022 3.38-.022l8.579-.001 27.338.001.094-.002c.093-1.115-.019-2.427-.023-3.544v-8.037c0-7.685.077-15.379.013-23.064Z" style="fill:#070000"/>
    <path d="M69.387 38.405c.504-.27 1.006-.545 1.505-.825-.112.247-.218.5-.351.736-.367.034-.789.116-1.154.089Zm-40.278-.826c.448.241.895.479 1.328.746-.31.043-.645.014-.958.01-.143-.244-.255-.498-.37-.756Z" style="fill-rule:nonzero"/>
    <path d="M53.267 41.976c.227.172 10.595.083 12.069.084-.03 1.099.309 2.147 1.073 2.956 1.439 1.524 3.734 1.749 5.707 1.864.216.333.432.66.674.975l.003.207c.092 8.25.003 16.511.003 24.762v8.026c.005 1.304.124 2.849-.017 4.119-.077.685-.332 1.315-.83 1.803-.664.651-1.448.755-2.333.76l-27.354-.001-8.579.001c-1.254 0-2.878.113-4.091-.033a2.954 2.954 0 0 1-.454-.095 2.723 2.723 0 0 1-1.178-.72 2.671 2.671 0 0 1-.711-1.444c-.159-1.12-.046-2.575-.046-3.727l.002-7.72.005-25.934c.239-.322.459-.649.673-.988 1.88-.096 4.002-.296 5.463-1.622.945-.858 1.289-1.947 1.348-3.19 1.269-.001 11.955.08 12.215-.012.035-.013.06-.044.09-.065-.111-.188-.198-.354-.138-.581.07-.264.323-.435.555-.546 1.164-.555 4.124-.486 5.308-.003.241.098.543.26.642.518a.645.645 0 0 1-.061.556c-.011.017-.026.033-.038.05Zm16.417 7.784c-2.056-.339-4.093-1.059-5.547-2.598a6.952 6.952 0 0 1-1.311-1.967c-3.123.013-8.028.026-9.393-.056l-6.807.054c-1.399.04-6.356.017-9.461.001a6.891 6.891 0 0 1-1.719 2.369c-1.414 1.284-3.248 1.901-5.111 2.199l-.005 24.032-.002 7.719c0 .893-.097 1.993-.025 2.916 1.053.077 2.353-.022 3.38-.022l8.579-.001 27.338.001.094-.002c.093-1.115-.019-2.427-.023-3.544v-8.037c0-7.685.077-15.379.013-23.064ZM40.036 26.677c1.514-.137 2.936.146 4.213.995a6.591 6.591 0 0 1 .972.797 6.592 6.592 0 0 1 .615.714 5.665 5.665 0 0 1 .349.523 6.158 6.158 0 0 1 .536 1.136 6.142 6.142 0 0 1 .182.602 6.466 6.466 0 0 1 .119.614 6.49 6.49 0 0 1 .055.62c.004.103.005.207.004.311a6.507 6.507 0 0 1-.038.621 5.299 5.299 0 0 1-.042.308 5.476 5.476 0 0 1-.129.608 6.014 6.014 0 0 1-.306.881 5.592 5.592 0 0 1-.276.558 5.534 5.534 0 0 1-.329.528c-1.007 1.444-2.489 2.326-4.207 2.639-1.643.222-3.246-.137-4.6-1.108a5.57 5.57 0 0 1-.714-.596 6.465 6.465 0 0 1-.424-.452 5.696 5.696 0 0 1-.378-.491 7.193 7.193 0 0 1-.472-.8 5.995 5.995 0 0 1-.248-.569 7.19 7.19 0 0 1-.19-.59 6.006 6.006 0 0 1-.208-1.836 6.284 6.284 0 0 1 .341-1.814 5.943 5.943 0 0 1 .231-.573 5.93 5.93 0 0 1 .286-.547c.053-.089.107-.176.163-.262.057-.086.116-.171.176-.254 1.052-1.445 2.569-2.289 4.319-2.563Zm.636 3.849c-.57.328-.818.872-.981 1.487-.324 1.219-.341 3.136.333 4.246.154.254.372.508.673.576.067.015.134.025.201.033.566-.318.804-.816.973-1.425.341-1.227.367-3.171-.313-4.293-.18-.299-.404-.53-.754-.601a5.173 5.173 0 0 0-.132-.023Zm17.854-3.849.036-.006a5.72 5.72 0 0 1 .583-.04 5.681 5.681 0 0 1 .585.015 5.725 5.725 0 0 1 .58.07 5.584 5.584 0 0 1 .571.123c.095.025.188.052.281.082a5.642 5.642 0 0 1 .815.322 6.377 6.377 0 0 1 .763.433 5.844 5.844 0 0 1 .726.563 5.79 5.79 0 0 1 .445.442 5.7 5.7 0 0 1 .4.483 6.58 6.58 0 0 1 .506.793 6.092 6.092 0 0 1 .384.858 6.512 6.512 0 0 1 .254.906 6.314 6.314 0 0 1 .12 1.237c0 .104-.003.207-.009.311a5.354 5.354 0 0 1-.024.309c-.01.103-.023.206-.039.308a6.286 6.286 0 0 1-.421 1.49 5.54 5.54 0 0 1-.268.56 6.474 6.474 0 0 1-.894 1.254 7.336 7.336 0 0 1-.435.43 6.245 6.245 0 0 1-1.809 1.126 5.81 5.81 0 0 1-.578.2 6.149 6.149 0 0 1-1.197.228 6.05 6.05 0 0 1-.903.023 7.476 7.476 0 0 1-.301-.021 6.144 6.144 0 0 1-.892-.151 6.282 6.282 0 0 1-3.51-2.307 5.038 5.038 0 0 1-.182-.252 5.547 5.547 0 0 1-.327-.53 7.225 7.225 0 0 1-.274-.559 7.253 7.253 0 0 1-.217-.583 7.846 7.846 0 0 1-.087-.299 8.309 8.309 0 0 1-.072-.303 6.535 6.535 0 0 1-.132-1.226 6.287 6.287 0 0 1 .177-1.524 5.906 5.906 0 0 1 .175-.59 7.066 7.066 0 0 1 .369-.845 6.345 6.345 0 0 1 .49-.782c1.057-1.44 2.563-2.271 4.311-2.548Zm.465 3.848c-.508.24-.74.641-.923 1.161-.442 1.258-.455 3.181.14 4.393.14.283.371.622.682.731.085.03.172.048.26.064.524-.261.757-.684.939-1.223.421-1.246.431-3.158-.168-4.35-.144-.287-.376-.617-.696-.718a2.104 2.104 0 0 0-.234-.058Z"/>
    <path d="M51.349 72.76c2.864-.063 5.743-.001 8.608-.005 1.908-.003 3.944-.114 5.838.012.294.02.582.058.844.202.385.212.658.554.772.979.119.442.047.94-.189 1.332-.257.426-.712.611-1.171.73-3.008.064-6.029 0-9.039.006l-3.585.006c-.662.001-1.349.036-2.008-.02-.344-.03-.668-.093-.952-.3a1.658 1.658 0 0 1-.645-1.083 1.635 1.635 0 0 1 .296-1.199c.317-.417.731-.579 1.231-.66ZM34.921 52.436c.361-.041.793-.037 1.116.156.655.392 1.266 1.163 1.808 1.706l2.926 2.923 3.855 3.852c.667.667 1.402 1.323 2.014 2.04.183.214.314.448.377.723.061.263.111.677-.041.914l-.047.068c-.651.979-1.622 1.803-2.452 2.634l-3.926 3.925-2.737 2.736c-.539.54-1.075 1.151-1.679 1.617-.22.116-.439.202-.689.227a1.707 1.707 0 0 1-1.285-.439 1.562 1.562 0 0 1-.525-1.114c-.007-.458.201-.807.472-1.16.703-.917 2.075-2.115 2.935-2.972l6.086-6.084c-1.167-1.166-9.082-8.858-9.361-9.552a1.657 1.657 0 0 1 .008-1.229c.221-.524.633-.78 1.145-.971Z" style="fill-rule:nonzero"/>
  </g>
</svg>
