<svg xmlns="http://www.w3.org/2000/svg" xml:space="preserve" style="fill-rule:evenodd;clip-rule:evenodd;stroke-linejoin:round;stroke-miterlimit:2" viewBox="0 0 100 100">
  <g id="レイヤー1">
    <path d="m37.433.032 2.995-.014 24.188.026 7.439.018c3.948.012 8.019.032 11.863 1.043.223.058.446.119.667.185a19.41 19.41 0 0 1 1.314.433 20.976 20.976 0 0 1 3.732 1.807 20.631 20.631 0 0 1 1.156.762 22.149 22.149 0 0 1 1.102.837c.18.145.356.294.53.445a18.833 18.833 0 0 1 1.015.942c6.012 5.969 6.53 13.107 6.559 21.141l.006 32.213-.001 10.378c-.001 4.315.093 8.783-.893 13.01a21.359 21.359 0 0 1-1.423 4.183 20.325 20.325 0 0 1-1.032 1.957 19.92 19.92 0 0 1-.8 1.24 23.284 23.284 0 0 1-.885 1.181 19.692 19.692 0 0 1-.966 1.115c-.167.181-.337.358-.511.532-5.78 5.805-12.429 6.388-20.214 6.504-3.558.053-7.12.02-10.678.019l-25.444.001-8.286-.002c-4.078-.007-8.324.023-12.307-.957a22.52 22.52 0 0 1-1.353-.373 19.996 19.996 0 0 1-1.326-.462 21.542 21.542 0 0 1-1.923-.856 21.607 21.607 0 0 1-2.413-1.432 20.433 20.433 0 0 1-1.672-1.278 19.381 19.381 0 0 1-1.041-.942C.846 87.829.159 81.03.083 73.061L.013 40.99c-.028-4.076-.011-8.151.051-12.227.047-4.05-.001-8.185.945-12.148a20.178 20.178 0 0 1 .375-1.384 22.625 22.625 0 0 1 .469-1.356 22.514 22.514 0 0 1 .874-1.965 22.613 22.613 0 0 1 .693-1.256 19.23 19.23 0 0 1 .777-1.205 19.942 19.942 0 0 1 1.314-1.702 20.303 20.303 0 0 1 .971-1.056C12.498.579 19.713.089 27.839.063l9.594-.031Zm11.762 3.163c-8.744.429-15.946 4.361-21.779 10.798-9.253 10.211-13.379 25.13-12.685 38.729.676 13.248 5.37 26.953 15.431 36.027 4.892 4.413 11.055 7.471 17.679 7.978.976.075 1.981.134 2.96.079l.041-.003c8.623-.4 15.895-4.383 21.659-10.705 9.36-10.265 13.41-25.051 12.774-38.742-.613-13.19-5.351-26.918-15.304-35.984-5.637-5.135-13.054-8.476-20.776-8.177Zm.132 1.613c7.252-.144 13.985 2.782 19.334 7.589 9.592 8.623 14.154 21.772 14.831 34.391.714 13.311-3.058 27.747-12.106 37.803-4.405 4.895-10.12 8.629-16.649 9.875-1.338.255-2.669.374-4.028.446-7.413.108-14.036-2.714-19.5-7.664-9.616-8.711-14.158-21.985-14.765-34.683-.636-13.337 3.173-27.612 12.297-37.633 5.521-6.063 12.338-9.735 20.586-10.124ZM29.5 42.815l-2.672 7.084c-.464 1.228-.959 2.876-1.62 3.983a1.301 1.301 0 0 1-.528.461c-.113.053-.243.089-.362.125l-.064.076c.021.129.021.13.117.218.3.09 2.764.05 3.015-.057.01-.113.023-.113-.031-.222l-.085-.013c-.289-.045-.609-.074-.799-.327-.18-.24-.165-.554-.109-.833.161-.804.55-1.585.792-2.369l2.802.005 1.316-.004c.251.633 1.158 2.588.881 3.204a.287.287 0 0 1-.156.165c-.187.097-.599.122-.813.16-.024.124-.033.156.005.275.503.151 3.173.044 3.871.022l.086-.055c-.026-.135-.085-.164-.193-.239-.308-.213-.631-.35-.843-.68-.297-.463-.622-1.52-.837-2.07-.364-.93-3.318-8.7-3.479-8.858-.054-.053-.224-.05-.294-.051Zm-.281 2.583c.198.202 1.605 4.2 1.84 4.827l-1.787.002-1.821-.007c.155-.55.393-1.102.591-1.639l1.177-3.183Zm38.7-.138c-.379.165-2.742 1.053-2.844 1.21l.013.109c.442.174.999-.349 1.287.344.058.137.085.288.095.435.053.81.062 6.163-.133 6.564-.115.235-.308.35-.553.42-.245.07-.532.079-.752.213a.67.67 0 0 0-.048.23l2.815.006c.498 0 1.07.057 1.555-.042l.03-.082c-.26-.348-.951-.258-1.208-.673-.274-.442-.158-6.387-.159-7.435 0-.222.061-1.038 0-1.201-.033-.088-.036-.078-.098-.098ZM47.095 60.645a579.07 579.07 0 0 1-2.063 11.476c-.115.561-.259 1.131-.338 1.697-.671 3.048-1.992 10.468-4.638 12.219-.535.354-1.126.444-1.748.3-.508-.117-.971-.372-1.395-.669.562-.122 1.036-.267 1.37-.779.249-.382.316-.869.209-1.31-.1-.417-.35-.773-.725-.987-.413-.235-.911-.26-1.362-.127-.412.122-.768.369-.961.761-.251.513-.187 1.187.011 1.706.326.858 1.038 1.507 1.867 1.871.999.439 2.358.432 3.367.032 2.131-.845 3.399-3.24 4.247-5.243.794-1.874 1.743-4.691 2.153-6.684.255-.586.371-1.348.53-1.974a328.5 328.5 0 0 0 1.799-7.454c.333-1.425.691-2.85.99-4.283l.026.002.109-.554h1.719c.175-.916.428-1.829.645-2.737.473 0 3.035.092 3.318-.044l.031-.14c-.144-.319-.89-.266-1.195-.483a.52.52 0 0 1-.227-.377c-.03-.23.083-.471.184-.67.308-.604.743-1.16 1.133-1.715l1.802-2.56c.463.706 2.668 4.22 2.701 4.83.051.929-1.085.51-1.434.923.023.103.034.113.108.188.342.098 5.013.119 5.399.003.008-.085.018-.215-.039-.288-.2-.252-1.021-.139-1.573-.916-.518-.73-.968-1.523-1.439-2.284l-2.534-4.097c.787-1.118 3.212-4.706 4.201-5.39.363-.251.806-.149 1.124-.359.117-.077.107-.15.119-.276-.014-.011-.029-.02-.041-.033-.015-.016-.026-.034-.039-.05l-.008.092-.057.008-.036-.069c-1.196-.092-2.935-.063-4.141.001-.09.069-.085.102-.124.205.077.196.865.19 1.095.345a.51.51 0 0 1 .223.332c.05.259-.06.537-.173.765-.276.559-.707 1.074-1.075 1.575l-1.547 2.104c-.445-.721-2.529-3.733-2.332-4.473.142-.529.984-.383 1.363-.584.064-.125.054-.119.012-.254-.572-.124-2.687-.037-3.431-.039-.164.001-.33.004-.498.008l.107-.545c.146-.816.827-4.15.827-4.15l.41-2.276.156-.799-.012-.001.872-4.844c.284-1.525.612-3.048.864-4.578.213-.494.358-1.736.492-2.343.593-2.68 1.611-7.967 3.018-10.125.223-.343.514-.71.94-.784.711-.124 1.531.347 2.095.732-.219.04-.453.081-.661.163a1.63 1.63 0 0 0-.897.862 1.704 1.704 0 0 0 .087 1.472 1.44 1.44 0 0 0 .415.47 1.316 1.316 0 0 0 .272.161c.047.022.096.041.146.058a1.85 1.85 0 0 0 1.405-.116c.349-.175.608-.458.725-.833.191-.612.041-1.324-.26-1.876-.463-.849-1.319-1.438-2.237-1.697-.839-.236-1.742-.171-2.5.267-2.802 1.618-4.528 8.659-5.316 11.71-1.236 4.479-2.259 9.043-3.257 13.581-.228 1.038-.455 2.066-.659 3.107l-1.383 7.095-2.698-.001c-.984 0-1.979-.03-2.962.015-.067.084-.084.07-.074.183.151.153.377.181.579.223.136.028.305.047.419.133.584.443.436 1.704.431 2.352l-.001 5.218c0 .747.091 1.644-.038 2.377a1.03 1.03 0 0 1-.289.58c-.283.267-1.055.284-1.079.56l.039.066.11.015-.012-.015c.509.136 2.771.043 3.244.042Zm3.629-.924 2.863-14.569c.064.059.127.126.191.204.674.789 1.214 1.725 1.755 2.608l1.955 3.192-2.379 3.308c-.56.776-1.108 1.571-1.731 2.299-.14.164-.279.347-.469.456-.301.174-.901.177-1.014.534.131.151.314.133.478.243-.381.786-.743 1.376-1.59 1.71l-.059.015Zm-1.429-10.152-.899 4.61c-.614-.002-1.24-.038-1.669-.04v-2.914c.001-.408-.051-.903.019-1.299.014-.076.041-.182.103-.231.224-.179 1.456-.177 2.446-.126Zm-1.022 5.243-.993 5.095a3.058 3.058 0 0 0-.098.005c-.098-.037-.205-.073-.284-.142-.095-.083-.121-.181-.14-.299-.084-.525-.036-1.102-.035-1.635l.005-3 .815.006c.197-.003.452-.019.73-.03ZM18.553 44.18c.007.158-.018.231.09.351.496.18 1.112.125 1.373.676.119.252.137.55.151.825.093 1.752.014 3.549.011 5.306-.003 1.561.075 3.159-.001 4.715a2.385 2.385 0 0 1-.117.697c-.09.25-.257.466-.504.576-.31.139-.819.053-1.028.352.01.112.014.126.082.216.707.105 2.259.02 3.041.02l6.837-.001.759-3.039c.052-.177.121-.323.046-.5-.082-.083-.081-.099-.2-.131-.231.114-.289.321-.398.544-.99 2.016-1.852 2.242-4.033 2.297-.646.017-1.523.117-2.143-.077-.143-.045-.262-.109-.337-.247a1.027 1.027 0 0 1-.103-.404c-.036-.54-.007-1.098-.007-1.64l-.001-3.163-.001-3.672c0-.609-.028-1.229.003-1.835.011-.208.034-.424.098-.623.096-.298.272-.525.555-.665.303-.149.93-.072 1.063-.385l-.02-.16c-.357-.104-4.536-.057-5.216-.033Zm52.115 0c-.009.348-.139 3.37-.095 3.457.014.028.042.047.063.07.146.003.202.001.331-.081.191-.249.204-.552.261-.851.201-1.034.82-1.552 1.848-1.683.611-.078 1.261-.06 1.877-.049l-.002 7.68c.001 1.136.113 2.707-.049 3.797a.985.985 0 0 1-.269.557c-.371.365-1.35.317-1.454.724.104.089.211.091.346.105.59.062 1.236.005 1.832.004 1.045 0 2.1.033 3.143-.012l.083-.053c.005-.073.028-.117-.023-.179-.315-.381-1.157-.129-1.574-.695-.335-1.077-.187-3.747-.187-4.97l.002-6.959c.928 0 2.434-.166 3.14.565.638.66.555 1.735.829 2.059.029.035.078.047.117.071.141-.018.156-.03.266-.121.108-.24-.051-2.913-.055-3.439l-6.951-.002c-1.157.001-2.323-.03-3.479.005Zm-3.718-3.547c-.309.114-.52.263-.669.566a1.046 1.046 0 0 0-.081.223 1.1 1.1 0 0 0-.033.235c-.001.04 0 .079.002.119a1.214 1.214 0 0 0 .079.346 1 1 0 0 0 .581.571c.136.045.285.049.428.049.329-.135.563-.309.695-.652a1.01 1.01 0 0 0 .059-.214 1.052 1.052 0 0 0 .008-.333 1.308 1.308 0 0 0-.05-.216 1.033 1.033 0 0 0-.597-.63c-.13-.045-.285-.055-.422-.064Zm-32.118 3.548c-.013.418-.153 3.306-.089 3.46.013.029.044.047.065.07.12.003.188.014.283-.078.121-.117.172-.336.216-.492.322-1.149.517-1.857 1.858-2.043.641-.088 1.305-.064 1.951-.06l-.003 7.526c.001 1.135.101 2.668-.028 3.752-.035.289-.123.586-.332.798-.348.355-1.288.308-1.414.603l.025.129c.319.099 5.117.108 5.311.024.08-.112.067-.125.059-.264-.299-.311-1.085-.015-1.59-.628-.338-1.095-.187-3.761-.187-4.992l.002-6.95c.907-.002 2.465-.154 3.158.55.534.544.524 1.98 1.101 2.135l.082-.021-.015-.072c-.009-.063-.006-.138-.009-.201l.091-.032c-.006-.016-.014-.031-.018-.047-.093-.304-.091-2.679-.097-3.164l-10.42-.003Z"/>
  </g>
</svg>
