<svg xmlns="http://www.w3.org/2000/svg" xml:space="preserve" style="fill-rule:evenodd;clip-rule:evenodd;stroke-linejoin:round;stroke-miterlimit:2" viewBox="0 0 100 100">
  <g id="レイヤー1">
    <path d="m37.433.032 2.995-.014 24.188.026 7.439.018c3.948.012 8.019.032 11.863 1.043.223.058.446.119.667.185a19.41 19.41 0 0 1 1.314.433 20.976 20.976 0 0 1 3.732 1.807 20.631 20.631 0 0 1 1.156.762 22.149 22.149 0 0 1 1.102.837c.18.145.356.294.53.445a18.833 18.833 0 0 1 1.015.942c6.012 5.969 6.53 13.107 6.559 21.141l.006 32.213-.001 10.378c-.001 4.315.093 8.783-.893 13.01a21.359 21.359 0 0 1-1.423 4.183 20.325 20.325 0 0 1-1.032 1.957 19.92 19.92 0 0 1-.8 1.24 23.284 23.284 0 0 1-.885 1.181 19.692 19.692 0 0 1-.966 1.115c-.167.181-.337.358-.511.532-5.78 5.805-12.429 6.388-20.214 6.504-3.558.053-7.12.02-10.678.019l-25.444.001-8.286-.002c-4.078-.007-8.324.023-12.307-.957a22.52 22.52 0 0 1-1.353-.373 19.996 19.996 0 0 1-1.326-.462 21.542 21.542 0 0 1-1.923-.856 21.607 21.607 0 0 1-2.413-1.432 20.433 20.433 0 0 1-1.672-1.278 19.381 19.381 0 0 1-1.041-.942C.846 87.829.159 81.03.083 73.061L.013 40.99c-.028-4.076-.011-8.151.051-12.227.047-4.05-.001-8.185.945-12.148a20.178 20.178 0 0 1 .375-1.384 22.625 22.625 0 0 1 .469-1.356 22.514 22.514 0 0 1 .874-1.965 22.613 22.613 0 0 1 .693-1.256 19.23 19.23 0 0 1 .777-1.205 19.942 19.942 0 0 1 1.314-1.702 20.303 20.303 0 0 1 .971-1.056C12.498.579 19.713.089 27.839.063l9.594-.031Zm1.319 23.991-21.304-12.3a3.126 3.126 0 0 0-4.688 2.706V87.5a3.125 3.125 0 0 0 4.688 2.706l63.281-36.535a3.125 3.125 0 0 0 0-5.413l-6.3-3.637c.202-.292.631-.922.853-1.303.353-.606.641-1.113 1.153-2.178.234-.486.761-1.709 1.07-2.381.322-.704.59-1.477.763-2.042.154-.504.433-1.465.48-1.651.111-.438.218-.738.325-1.163.07-.28.294-1.084.324-1.177.127-.405.458-1.13.523-1.297.086-.221.591-1.248.694-1.45.158-.314.577-1.338.704-1.668.167-.431.627-1.396.804-1.832.11-.273.366-.662.729-1.277.347-.588.754-1.164.824-1.315.343-.612.793-1.228 1.162-1.845.197-.33.75-1.199.95-1.509.165-.257.355-.562.682-.977.14-.178.338-.542.599-.807.245-.25.598-.597.91-.885.493-.453 1.199-.981 1.538-1.247.163-.128 1.359-.911 1.682-1.127.249-.166 1.214-.635 1.554-.836.321-.189.575-.31.849-.441.395-.189.858-.343 1.16-.487a28.866 28.866 0 0 1 1.072-.464H55.98l-2.925 5.443s2.024-.043 2.722-.04l5.257-.001c.612.061.873.123 1.048.174.539.157.921.268 1.397.424.259.085.464.157.774.303.192.091.567.29.85.422.099.046.244.129.463.232.126.06.17.103.364.204.339.179.616.347.906.548.304.211.709.547.917.718.28.231.71.564 1.019.899.312.338.606.701.892 1.061.294.489.934 1.586 1.044 1.879.092.247.207.53.284.782.091.292.255.612.364 1.118.062.29.055.37.066.665.023.642-.007 1.757.004 2.49 0 .404-.092.927-.171 1.268-.069.3-.197.754-.365 1.333a61.199 61.199 0 0 0-.505 1.835c-.122.512-.322 1.17-.425 1.597-.145.596-.299 1.314-.526 2.045-.178.575-.299 1.021-.494 1.505-.127.315-.244.647-.387 1.062l-23.34-13.475c.189-.549.344-.963.539-1.525.239-.688.494-1.424.858-2.367.309-.801.957-2.224 1.078-2.564.119-.33.513-1.173.646-1.505.226-.563.487-.965.765-1.459.2-.354.447-.797.692-1.217.241-.413.757-1.21.805-1.272.56-.707.478-.581.884-1.121.289-.384.646-.711.985-1.051.092-.061.59-.41.59-.41-.499.041-1.819.001-1.819.001s-.296.022-.462.069c-1.002.288-2.212.631-2.507.765-.212.096-1.796.938-2.368 1.379-.309.238-.652.429-.962.668-.262.201-2.047 1.768-2.508 2.393-.366.332-1.637 1.888-1.946 2.301-.215.288-1.087 1.881-1.214 2.166-.084.19-.281.572-.517 1.019Zm30.869 25.039 3.296 1.903L19.01 82.087V19.842l17.206 9.933c-.116.408-.215.763-.251.895-.103.379-.392 1.431-.602 2.209a19.32 19.32 0 0 1-.354 1.101c-.02.032-.3.859-.359 1.028-.176.504-.401 1.175-.75 2.087-.264.689-.293.734-.473 1.203-.255.664-.541 1.237-1.047 2.017-.189.291-.397.633-.594.925-.141.211-.412.697-.51.847-.263.403-.702 1.149-.712 1.162-.323.42-.362.483-.745 1.025a15.648 15.648 0 0 1-1.193 1.462c-.237.26-.5.494-.741.749-.295.314-.567.656-.882.949-.46.428-.962.821-1.443 1.225-.314.264-1.103.82-1.16.856-.996.625-1.101.618-1.715.929l-.747.371c-.107.054-.549.236-1.164.513-.243.109-.982.481-.982.481s38.98.042 39.186-.037l3.417-5.469-8.216.09s-.497-.125-1.196-.278c-1.073-.236-1.264-.319-2.14-.652-.666-.253-1.901-.847-2.314-1.136-.586-.409-1.737-1.511-1.96-1.734-.325-.337-1.022-1.235-1.033-1.25-.38-.535-.678-.963-.87-1.38-.266-.566-.446-1.172-.599-2.081-.129-.761-.145-2.438-.133-3.651l22.06 12.737c-.215.393-.443.815-.635 1.205-.076.155-.324.505-.589.867-.327.448-.695.946-.801 1.083-.125.162-.398.503-.618.733-.146.153-.748.896-.748.896l1.231.02s1.151-.176 1.488-.269c.309-.086 1.396-.606 1.827-.87.327-.201.813-.478 1.335-.837.19-.131.666-.418 1.137-.734Z"/>
  </g>
</svg>
