<svg xmlns="http://www.w3.org/2000/svg" xml:space="preserve" style="fill-rule:evenodd;clip-rule:evenodd;stroke-linejoin:round;stroke-miterlimit:2" viewBox="0 0 100 100">
  <g id="レイヤー2">
    <path d="m37.318.032 7.879-.026 19.658.041 7.166.015c4.022.012 8.181.029 12.09 1.094a21.504 21.504 0 0 1 1.957.629 19.267 19.267 0 0 1 1.885.818 19.405 19.405 0 0 1 1.208.646 21.768 21.768 0 0 1 1.727 1.115 20.048 20.048 0 0 1 1.609 1.278 22.169 22.169 0 0 1 1 .937c6.337 6.346 6.496 13.993 6.498 22.427l.002 31.609v9.799c0 4.316.084 8.792-.932 13.014a19.292 19.292 0 0 1-.382 1.408 20.786 20.786 0 0 1-1.052 2.72 20.857 20.857 0 0 1-1.417 2.548c-.133.204-.269.405-.408.605a22.678 22.678 0 0 1-1.347 1.723 20.97 20.97 0 0 1-.994 1.068c-5.817 5.799-12.458 6.368-20.251 6.475-3.48.024-6.96.031-10.441.02l-25.404.001-8.708-.002c-4.024-.011-8.192.008-12.124-.961a19.698 19.698 0 0 1-1.346-.371 21.39 21.39 0 0 1-1.966-.722 21.385 21.385 0 0 1-1.884-.914 20.157 20.157 0 0 1-2.354-1.501 20.804 20.804 0 0 1-1.623-1.324 20.848 20.848 0 0 1-.511-.476C.929 87.966.185 81.358.079 73.491c-.043-3.132-.012-6.265-.025-9.397L.005 41.345c-.029-4.176-.012-8.351.05-12.526.047-4.026-.014-8.149.916-12.089a20.49 20.49 0 0 1 .594-2.084 20.385 20.385 0 0 1 .513-1.351 20.434 20.434 0 0 1 .941-1.953 21.577 21.577 0 0 1 .736-1.243 22.428 22.428 0 0 1 .821-1.19 20.282 20.282 0 0 1 1.378-1.673c.162-.178.328-.353.496-.525C12.445.591 19.698.089 27.813.063l9.505-.031Zm47.177 70.455c.944-1.619.81-3.769.81-3.769l.005-34.778s-.213-1.463-.892-2.457c-.331.332-12.654 12.673-20.476 20.49l20.553 20.514Zm-68.95-40.978c-.857 1.247-.808 2.509-.808 2.509l-.083 34.584s-.229 2.481.986 4.139l20.382-20.76c-6.839-6.83-18.393-18.387-20.477-20.472Zm67.664-1.191c-1.583-1.134-2.963-.94-2.963-.94l-59.977.019s-2.09-.174-3.693 1.035c3.149 3.114 21.885 21.643 26.126 25.812.388.382.799.742 1.229 1.076.475.368 1.111.843 1.618 1.136a7.88 7.88 0 0 0 1.422.62c.522.175 1.159.343 1.709.434a9.087 9.087 0 0 0 1.591.11 7.791 7.791 0 0 0 1.435-.164 9.114 9.114 0 0 0 2.631-1c.38-.209.748-.442 1.098-.698.411-.299.948-.687 1.363-1.097 4.629-4.573 26.411-26.343 26.411-26.343ZM16.863 71.834c1.77 1.064 4.041.909 4.041.909h59.98s1.383-.275 2.497-1.057L62.672 51.242a2084.666 2084.666 0 0 1-4.216 4.204c-.434.431-.96.857-1.387 1.2-.378.303-.769.592-1.174.857-.416.272-.859.556-1.32.773-.471.223-1.006.406-1.505.559-.489.149-1.012.282-1.491.358a9.328 9.328 0 0 1-1.387.097 11.84 11.84 0 0 1-1.558-.082 9.47 9.47 0 0 1-1.58-.331 11.833 11.833 0 0 1-1.721-.695 13.793 13.793 0 0 1-1.657-1.001 18.896 18.896 0 0 1-1.589-1.259 40.04 40.04 0 0 1-1.84-1.725l-2.912-2.904-20.472 20.541Z"/>
  </g>
</svg>
