<svg xmlns="http://www.w3.org/2000/svg" xml:space="preserve" style="fill-rule:evenodd;clip-rule:evenodd;stroke-linejoin:round;stroke-miterlimit:2" viewBox="0 0 100 100">
  <g id="レイヤー1">
    <path d="m22.583.205.005 14.771.002 4.487c0 .812.057 1.666-.044 2.472-.046.366-.248.716-.502.978a1.927 1.927 0 0 1-.478.365 2.014 2.014 0 0 1-.37.156 1.936 1.936 0 0 1-.596.086c-.358-.007-.649-.141-.956-.311-1.505-.837-3.104-2.038-4.553-3.006l-8.152-5.444c-1.208-.806-2.404-1.649-3.63-2.433l-.476-.3-.122-.076c.009-.018.013-.032.016-.04a22.613 22.613 0 0 1 .693-1.256 19.23 19.23 0 0 1 .777-1.205 19.942 19.942 0 0 1 1.314-1.702 20.303 20.303 0 0 1 .971-1.056C11.167 1.931 16.58.582 22.583.205Zm0 0c1.705-.107 3.458-.136 5.256-.142l9.594-.031 2.995-.014 7.868.008.003 22.819c0 4.124-.036 8.252.013 12.375a137.23 137.23 0 0 0-.011 3.455c-6.413-2.733-13.441-3.108-19.969-.475l-1.136.471-.006-2.472.004-36.117c-1.538.011-3.075.051-4.611.123Zm38.45.055a38.882 38.882 0 0 0 .685 7.038c.194 1.025.484 2.031.679 3.053.604 1.897 1.194 3.741 2.011 5.561a35.592 35.592 0 0 0 .702 1.481 41.737 41.737 0 0 0 .764 1.45 38.405 38.405 0 0 0 2.645 4.141 44.762 44.762 0 0 0 .995 1.302 39.854 39.854 0 0 0 1.593 1.873c.183.202.369.403.557.601a35.127 35.127 0 0 0 1.15 1.167c.196.191.394.379.593.566a44.924 44.924 0 0 0 1.222 1.092 38.74 38.74 0 0 0 7.456 5.031c5.426 2.811 11.76 4.443 17.887 4.338l.023-.026.004 20.942-.001 10.378c-.001 4.315-.084 5.839-.086 5.839-7.38-5.006-14.88-9.856-22.317-14.778L66.549 54c-2.046-1.354-4.078-2.743-6.153-4.052-.585-.678-1.141-1.858-1.697-2.651-1.618-2.309-3.582-4.198-5.795-5.928.012-1.554.01-3.108-.005-4.661.095-2.912.004-5.847.021-8.762-.052-1.079-.013-2.176-.013-3.258l.002-6.033.002-18.624 8.121.009v.044l.001.176Zm2.313-.217 1.27.001 7.439.018c1.565.005 3.149.011 4.73.079-.073.732.191 3.982.377 4.723.015.061.034.121.054.18l.017.171c1.212 4.953 3.758 9.224 7.626 12.557l.094.086c3.348 2.716 7.122 4.521 11.396 5.203 1.153.184 2.371.312 3.539.271l.01-.009c.069 1.413.09 2.858.095 4.334l.002 8.991-.014-.006c-.645-.074-1.323-.051-1.973-.083a38.34 38.34 0 0 1-3.245-.312c-6.783-.946-13-3.845-18.281-8.166l-.119-.101c-2.005-1.687-3.905-3.624-5.457-5.739-1.04-1.195-1.928-2.682-2.713-4.055a36.123 36.123 0 0 1-2.056-4.194 38.307 38.307 0 0 1-.669-1.746 36.801 36.801 0 0 1-.834-2.677 35.266 35.266 0 0 1-.44-1.817c-.065-.304-.127-.61-.185-.916a40.25 40.25 0 0 1-.299-1.845c-.042-.309-.08-.618-.114-.928-.146-1.325-.176-2.646-.25-3.974V.043Zm24.562 97.376c-.506.127-7.36 2.443-14.634 2.551-3.558.053-7.12.02-10.678.019l-9.684-.009.005-17.301c.188-.251.557-.466.791-.693.96-.448 3.579-3.409 4.312-4.367l29.888 19.8Zm0 0c.035-.009.039-.007.01.007l-.01-.007ZM78.981.326c1.656.148 3.334.358 4.937.779.223.058.446.119.667.185a19.41 19.41 0 0 1 1.314.433 20.976 20.976 0 0 1 3.732 1.807 20.631 20.631 0 0 1 1.156.762 22.149 22.149 0 0 1 1.102.837c.18.145.356.294.53.445a18.833 18.833 0 0 1 1.015.942c4.299 4.268 5.791 9.134 6.301 14.497a19.139 19.139 0 0 1-.961-.035c-.16-.01-.32-.021-.48-.034a25.954 25.954 0 0 1-.958-.102 18.244 18.244 0 0 1-.953-.145 18.761 18.761 0 0 1-.945-.188 18.781 18.781 0 0 1-.935-.232 18.75 18.75 0 0 1-.924-.274 18.835 18.835 0 0 1-.91-.316 24.432 24.432 0 0 1-.895-.357 28.176 28.176 0 0 1-.441-.194 21.665 21.665 0 0 1-2.132-1.118 21.472 21.472 0 0 1-3.106-2.274c-.12-.106-.239-.214-.357-.323-4.325-3.992-6.516-9.261-6.757-15.095Zm-56.39 99.515c0 .007-2.947-.051-6.032-.81a22.52 22.52 0 0 1-1.353-.373 19.996 19.996 0 0 1-1.326-.462 21.542 21.542 0 0 1-1.923-.856 21.607 21.607 0 0 1-2.413-1.432 20.433 20.433 0 0 1-1.672-1.278 19.381 19.381 0 0 1-1.041-.942C.846 87.829.159 81.03.083 73.061L.013 40.99c-.02-2.937-.009-4.019.01-1.622.374.437 1.742 1.215 2.279 1.572l5.286 3.513 4.919 3.259c.787.519 1.595 1.134 2.425 1.575.144.123.336.216.326.428-.012.265-.671 1.358-.841 1.735a25.87 25.87 0 0 0-1.483 4.242 23.26 23.26 0 0 0-.311 1.39 23.877 23.877 0 0 0-.234 1.404 27.833 27.833 0 0 0-.155 1.416 27.885 27.885 0 0 0-.076 1.422 24.107 24.107 0 0 0 .003 1.424 28.166 28.166 0 0 0 .082 1.421 23.957 23.957 0 0 0 .161 1.415 27.825 27.825 0 0 0 .239 1.404 26.867 26.867 0 0 0 .504 2.075 26.784 26.784 0 0 0 .676 2.027 26.688 26.688 0 0 0 .841 1.962 25.22 25.22 0 0 0 1.002 1.886 25.339 25.339 0 0 0 .754 1.208c.436.644.899 1.268 1.388 1.871.254.317.592.652.8.997.638.669 1.282 1.405 2.001 1.989.609.618 1.344 1.07 1.969 1.658-.002 1.9.013 3.812-.008 5.711-.03 2.657.013 5.313.005 7.97-.003 1.137.017 2.381.016 3.499ZM36.763 41.05a22.338 22.338 0 0 1 1.547-.016 21.946 21.946 0 0 1 1.03.052 21.794 21.794 0 0 1 1.538.173 22.458 22.458 0 0 1 1.016.179 22.643 22.643 0 0 1 1.005.228c.167.042.333.086.499.133.166.046.331.094.495.145.164.05.328.102.491.157a17.598 17.598 0 0 1 .971.35 19.81 19.81 0 0 1 1.883.841c.153.078.305.158.457.239a24.563 24.563 0 0 1 1.334.784 19.907 19.907 0 0 1 1.272.879 21 21 0 0 1 1.967 1.668 17.961 17.961 0 0 1 .729.733 17.886 17.886 0 0 1 .692.768 20.405 20.405 0 0 1 .653.801c.106.136.209.274.312.412a21.333 21.333 0 0 1 2.107 3.551 25.037 25.037 0 0 1 .414.947 21.775 21.775 0 0 1 .685 1.95 21.588 21.588 0 0 1 .49 2.008 21.666 21.666 0 0 1 .289 2.046 22.766 22.766 0 0 1 .069 1.032 21.708 21.708 0 0 1-.042 2.56 21.952 21.952 0 0 1-.355 2.536 22.494 22.494 0 0 1-.362 1.494 21.185 21.185 0 0 1-.47 1.463 21.385 21.385 0 0 1-.576 1.425 19.603 19.603 0 0 1-.442.924 21.627 21.627 0 0 1-1.017 1.779c-.092.144-.186.287-.281.429a24.273 24.273 0 0 1-.594.835c-.102.137-.206.272-.311.407-.106.134-.213.267-.322.399a24.42 24.42 0 0 1-1.021 1.148 20.654 20.654 0 0 1-3.098 2.671 24.32 24.32 0 0 1-.852.569 19.598 19.598 0 0 1-.879.526 21.785 21.785 0 0 1-2.3 1.121 16.26 16.26 0 0 1-.476.19 21.275 21.275 0 0 1-1.452.499 21.28 21.28 0 0 1-1.486.391 22.31 22.31 0 0 1-1.51.28 21.372 21.372 0 0 1-2.038.199l-.033.002a21.392 21.392 0 0 1-1.519.025 21.458 21.458 0 0 1-3.025-.283 21.688 21.688 0 0 1-1.979-.431 20.803 20.803 0 0 1-4.685-1.897 21.546 21.546 0 0 1-1.722-1.067 19.435 19.435 0 0 1-1.219-.907 20.253 20.253 0 0 1-.775-.653 24.489 24.489 0 0 1-.752-.694 20.536 20.536 0 0 1-1.061-1.109 17.507 17.507 0 0 1-.662-.781 24.247 24.247 0 0 1-.622-.812 20.91 20.91 0 0 1-2.279-3.992 21.429 21.429 0 0 1-.558-1.43 19.76 19.76 0 0 1-.312-.975 21.094 21.094 0 0 1-.647-2.999 21.936 21.936 0 0 1-.197-3.601 18.007 18.007 0 0 1 .057-1.036 17.72 17.72 0 0 1 .108-1.032 17.648 17.648 0 0 1 .159-1.026 21.769 21.769 0 0 1 .47-2.021c.047-.166.097-.332.149-.497.051-.165.105-.33.161-.493.055-.164.113-.327.173-.489a20.122 20.122 0 0 1 .812-1.91c.076-.155.153-.31.232-.464.08-.153.161-.306.244-.458a20.134 20.134 0 0 1 .799-1.336 20.354 20.354 0 0 1 1.544-2.082c.112-.133.225-.264.34-.393 3.801-4.298 9.038-6.72 14.738-7.064Zm.875 5.577c-.564.077-1.094.327-1.444.79-.541.714-1.059 2.409-1.402 3.287l-2.114 5.409-4.198 10.729c-.774 1.977-1.611 3.951-2.3 5.959l-.005.045c-.04.517.065 1.01.427 1.397.284.304.657.469 1.073.472.4.002.842-.135 1.166-.367.874-.626 1.658-1.566 2.42-2.33l4.075-4.079c.544-.543 1.067-1.121 1.625-1.647.261-.246.639-.542 1.026-.447.52.127 5.915 5.725 6.761 6.574.639.641 1.287 1.418 2.03 1.935a1.794 1.794 0 0 0 .256.154 1.688 1.688 0 0 0 .421.153 1.738 1.738 0 0 0 .445.054 1.531 1.531 0 0 0 1.131-.473c.291-.314.413-.755.394-1.176-.041-.897-1.647-4.561-2.109-5.736l-3.469-8.834-2.691-6.862c-.462-1.181-.886-2.396-1.401-3.554-.153-.345-.33-.697-.617-.95a2.008 2.008 0 0 0-1.5-.503Z"/>
  </g>
</svg>
