<svg xmlns="http://www.w3.org/2000/svg" xml:space="preserve" style="fill-rule:evenodd;clip-rule:evenodd;stroke-linejoin:round;stroke-miterlimit:2" viewBox="0 0 100 100">
  <g id="レイヤー1">
    <path d="m37.433.032 2.995-.014 24.188.026 7.439.018c3.948.012 8.019.032 11.863 1.043.223.058.446.119.667.185a19.41 19.41 0 0 1 1.314.433 20.976 20.976 0 0 1 3.732 1.807 20.631 20.631 0 0 1 1.156.762 22.149 22.149 0 0 1 1.102.837c.18.145.356.294.53.445a18.833 18.833 0 0 1 1.015.942c6.012 5.969 6.53 13.107 6.559 21.141l.006 32.213-.001 10.378c-.001 4.315.093 8.783-.893 13.01a21.359 21.359 0 0 1-1.423 4.183 20.325 20.325 0 0 1-1.032 1.957 19.92 19.92 0 0 1-.8 1.24 23.284 23.284 0 0 1-.885 1.181 19.692 19.692 0 0 1-.966 1.115c-.167.181-.337.358-.511.532-5.78 5.805-12.429 6.388-20.214 6.504-3.558.053-7.12.02-10.678.019l-25.444.001-8.286-.002c-4.078-.007-8.324.023-12.307-.957a22.52 22.52 0 0 1-1.353-.373 19.996 19.996 0 0 1-1.326-.462 21.542 21.542 0 0 1-1.923-.856 21.607 21.607 0 0 1-2.413-1.432 20.433 20.433 0 0 1-1.672-1.278 19.381 19.381 0 0 1-1.041-.942C.846 87.829.159 81.03.083 73.061L.013 40.99c-.028-4.076-.011-8.151.051-12.227.047-4.05-.001-8.185.945-12.148a20.178 20.178 0 0 1 .375-1.384 22.625 22.625 0 0 1 .469-1.356 22.514 22.514 0 0 1 .874-1.965 22.613 22.613 0 0 1 .693-1.256 19.23 19.23 0 0 1 .777-1.205 19.942 19.942 0 0 1 1.314-1.702 20.303 20.303 0 0 1 .971-1.056C12.498.579 19.713.089 27.839.063l9.594-.031Zm23.352 18.575c-1.316-.495-3.167-.724-4.569-.925a48.433 48.433 0 0 0-1.505-.192 48.227 48.227 0 0 0-1.511-.139 48.068 48.068 0 0 0-1.515-.086 38.127 38.127 0 0 0-1.517-.033 47.662 47.662 0 0 0-2.275.05 47.997 47.997 0 0 0-2.269.17 37.674 37.674 0 0 0-1.506.18 46.796 46.796 0 0 0-1.499.232 48.894 48.894 0 0 0-1.491.284 49.077 49.077 0 0 0-1.479.337 43.895 43.895 0 0 0-5.066 1.582 43.008 43.008 0 0 0-2.104.866 35.972 35.972 0 0 0-9.825 6.464c-.413.381-.819.771-1.212 1.173-.631.644-1.301 1.331-1.817 2.07-.649.424-2.688 3.819-3.154 4.695-5.968 11.221-2.958 23.738 6.131 32.233a35.109 35.109 0 0 0 3.981 3.18c1.056.721 2.393 1.445 3.298 2.335a3.01 3.01 0 0 1 .777 1.3c.794 2.802-2.77 5.33-3.946 7.48-.131.241-.237.445-.158.718a.757.757 0 0 0 .321.14c.66.121 1.511-.113 2.158-.255 1.679-.37 3.367-.989 4.835-1.892 1.894-1.166 3.534-2.774 5.768-3.283 2.384-.543 5.459.245 7.926.388 8.815.51 17.935-1.709 25.302-6.635 6.541-4.372 11.643-10.924 13.191-18.74.041-.209.079-.418.114-.628.036-.21.069-.42.099-.63a22.852 22.852 0 0 0 .152-1.268 26.714 26.714 0 0 0 .101-3.186 27.628 27.628 0 0 0-.204-2.544 27.377 27.377 0 0 0-.318-1.887 26.606 26.606 0 0 0-.458-1.858 25.283 25.283 0 0 0-1.066-3.005 25.215 25.215 0 0 0-1.757-3.397 27.25 27.25 0 0 0-.696-1.07c-3.985-5.921-10.02-10.242-16.634-12.786-1.476-.568-3.05-1.132-4.603-1.438Z"/>
  </g>
</svg>
