<svg xmlns="http://www.w3.org/2000/svg" xml:space="preserve" style="fill-rule:evenodd;clip-rule:evenodd;stroke-linejoin:round;stroke-miterlimit:2" viewBox="0 0 100 100">
  <g id="レイヤー1">
    <path d="m37.433.032 2.995-.014 24.188.026 7.439.018c3.948.012 8.019.032 11.863 1.043.223.058.446.119.667.185a19.41 19.41 0 0 1 1.314.433 20.976 20.976 0 0 1 3.732 1.807 20.631 20.631 0 0 1 1.156.762 22.149 22.149 0 0 1 1.102.837c.18.145.356.294.53.445a18.833 18.833 0 0 1 1.015.942c6.012 5.969 6.53 13.107 6.559 21.141l.006 32.213-.001 10.378c-.001 4.315.093 8.783-.893 13.01a21.359 21.359 0 0 1-1.423 4.183 20.325 20.325 0 0 1-1.032 1.957 19.92 19.92 0 0 1-.8 1.24 23.284 23.284 0 0 1-.885 1.181 19.692 19.692 0 0 1-.966 1.115c-.167.181-.337.358-.511.532-5.78 5.805-12.429 6.388-20.214 6.504-3.558.053-7.12.02-10.678.019l-25.444.001-8.286-.002c-4.078-.007-8.324.023-12.307-.957a22.52 22.52 0 0 1-1.353-.373 19.996 19.996 0 0 1-1.326-.462 21.542 21.542 0 0 1-1.923-.856 21.607 21.607 0 0 1-2.413-1.432 20.433 20.433 0 0 1-1.672-1.278 19.381 19.381 0 0 1-1.041-.942C.846 87.829.159 81.03.083 73.061L.013 40.99c-.028-4.076-.011-8.151.051-12.227.047-4.05-.001-8.185.945-12.148a20.178 20.178 0 0 1 .375-1.384 22.625 22.625 0 0 1 .469-1.356 22.514 22.514 0 0 1 .874-1.965 22.613 22.613 0 0 1 .693-1.256 19.23 19.23 0 0 1 .777-1.205 19.942 19.942 0 0 1 1.314-1.702 20.303 20.303 0 0 1 .971-1.056C12.498.579 19.713.089 27.839.063l9.594-.031ZM26.237 70.365l-.004 5.029c.001 1.454-.041 2.921.042 4.372.28.962.706 1.759 1.633 2.255.556.297 1.092.336 1.712.358 1.258.043 2.528.01 3.788.01l7.008.001h33.111c1.308 0 5.806.155 6.724-.147a3.17 3.17 0 0 0 2.123-2.267c.226-.829.082-3.472.082-4.496l.003-9.687.002-16.278.001-16.26-.001-9.222c.001-1.473.118-3.126-.028-4.574-.005-.052-.012-.104-.019-.156a3.803 3.803 0 0 0-.062-.307 2.601 2.601 0 0 0-.093-.299 3.161 3.161 0 0 0-.194-.428c-.025-.046-.052-.091-.079-.136a2.679 2.679 0 0 0-.178-.258 3.735 3.735 0 0 0-.203-.239 2.879 2.879 0 0 0-.226-.217c-.039-.034-.08-.067-.121-.1-.517-.404-1.126-.611-1.777-.653-1.21-.079-2.458-.022-3.673-.021l-6.655.002-20.832-.003H35.178l-3.808-.006c-.744-.002-1.53-.051-2.266.05-.769.032-1.486.404-2.011.959a2.849 2.849 0 0 0-.744 1.43c-.264 1.303-.117 2.82-.118 4.154l.001 5.46 11.934-.004h3.225c.927.001 1.89-.033 2.804.139 1 .188 1.908.694 2.618 1.418.693.706 1.136 1.524 1.386 2.475.044.167.067.338.068.511.049 5.419.058 10.839.029 16.259v11.008l.006 3.143c.001.749.039 1.564-.078 2.304-.155.983-.714 2.109-1.4 2.814-.799.822-1.882 1.319-2.999 1.507-.642.108-1.372.061-2.024.06l-3.021-.006c-3.507-.007-7.017.031-10.523-.007-.293-.003-1.247-.025-1.435-.03-.19.056-.387.084-.585.083Zm-.118-4.196c.161-.026.344-.045.541-.055.551-.027 1.28.027 1.643.031 3.493.038 6.991 0 10.485.007l3.021.007c.426 0 .905.067 1.325-.003.255-.043.521-.116.704-.303.135-.14.24-.365.27-.559.084-.53.028-1.114.027-1.648l-.005-3.145-.001-11.017v-.011c.029-5.3.021-10.599-.029-15.908a1.213 1.213 0 0 0-.26-.402.8.8 0 0 0-.415-.242c-.663-.125-1.363-.067-2.034-.067h-3.224l-11.934.004-10.136.002c-1.257 0-3.394-.164-4.554.067a.804.804 0 0 0-.414.25 1.09 1.09 0 0 0-.278.627c-.147 1.092-.02 2.316-.019 3.424l.005 7.571v13.62c0 2.16-.094 4.356-.007 6.512.015.377.096.732.376.994.137.128.31.171.492.204 1.026.187 2.526.042 3.602.041l7.964-.008c.895-.001 1.931-.077 2.855.007Z"/>
    <path d="M19.169 39.373c1.408-.026 2.82-.002 4.229 0L32.6 54.296c-.169-1.99-.107-4.003-.108-5.999v-8.923c1.205-.007 2.41-.006 3.615.002l-.001 13.53c0 2.087.071 4.197.009 6.28-.004.158.003.305-.078.447l-.158.021-3.747.001c-.721-1.223-1.503-2.417-2.255-3.622l-4.297-6.882c-.989-1.585-2.018-3.151-2.901-4.798.178 2.036.116 4.112.116 6.155l-.009 9.148-3.611-.002c-.042-2.302-.006-4.611-.007-6.914l.001-13.367Z" style="fill-rule:nonzero"/>
  </g>
</svg>
