<svg xmlns="http://www.w3.org/2000/svg" xml:space="preserve" style="fill-rule:evenodd;clip-rule:evenodd;stroke-linejoin:round;stroke-miterlimit:2" viewBox="0 0 100 100">
  <g id="レイヤー1">
    <path d="m37.433.032 2.995-.014 24.188.026 7.439.018c3.948.012 8.019.032 11.863 1.043.223.058.446.119.667.185a19.41 19.41 0 0 1 1.314.433 20.976 20.976 0 0 1 3.732 1.807 20.631 20.631 0 0 1 1.156.762 22.149 22.149 0 0 1 1.102.837c.18.145.356.294.53.445a18.833 18.833 0 0 1 1.015.942c6.012 5.969 6.53 13.107 6.559 21.141l.006 32.213-.001 10.378c-.001 4.315.093 8.783-.893 13.01a21.359 21.359 0 0 1-1.423 4.183 20.325 20.325 0 0 1-1.032 1.957 19.92 19.92 0 0 1-.8 1.24 23.284 23.284 0 0 1-.885 1.181 19.692 19.692 0 0 1-.966 1.115c-.167.181-.337.358-.511.532-5.78 5.805-12.429 6.388-20.214 6.504-3.558.053-7.12.02-10.678.019l-25.444.001-8.286-.002c-4.078-.007-8.324.023-12.307-.957a22.52 22.52 0 0 1-1.353-.373 19.996 19.996 0 0 1-1.326-.462 21.542 21.542 0 0 1-1.923-.856 21.607 21.607 0 0 1-2.413-1.432 20.433 20.433 0 0 1-1.672-1.278 19.381 19.381 0 0 1-1.041-.942C.846 87.829.159 81.03.083 73.061L.013 40.99c-.028-4.076-.011-8.151.051-12.227.047-4.05-.001-8.185.945-12.148a20.178 20.178 0 0 1 .375-1.384 22.625 22.625 0 0 1 .469-1.356 22.514 22.514 0 0 1 .874-1.965 22.613 22.613 0 0 1 .693-1.256 19.23 19.23 0 0 1 .777-1.205 19.942 19.942 0 0 1 1.314-1.702 20.303 20.303 0 0 1 .971-1.056C12.498.579 19.713.089 27.839.063l9.594-.031Zm2.11 47.761-8.034-8.039-2.857-2.858c-.48-.479-.981-1.076-1.539-1.459-.517-.355-1.24-.558-1.857-.56a3.101 3.101 0 0 0-1.85.598c-.665.471-1.23 1.116-1.805 1.693l-2.466 2.473c-2.602 2.608-5.254 5.175-7.822 7.815-.775.796-1.134 1.548-1.115 2.67.013.686.141 1.176.552 1.736.578.788 1.358 1.466 2.048 2.156l3.608 3.607 6.998 6.995.299.3.217-.73.467-.935c.828-1.318 2.757-3.076 3.902-4.221l7.703-7.702 2.29-2.278 1.261-1.261Zm-12.497 20.46c.468.608 1.139 1.159 1.689 1.703l3.3 3.292 4.975 4.982c.843.846 1.684 1.82 2.609 2.571.458.371.957.645 1.543.753.806.149 1.806-.038 2.475-.538.681-.508 1.276-1.19 1.878-1.792l3.159-3.16 10.851-10.856 19.654-19.653 6.385-6.382c1.104-1.103 2.267-2.179 3.318-3.333.454-.498.814-1.051.894-1.737.121-1.042-.08-1.956-.754-2.78-.601-.735-1.363-1.394-2.039-2.065l-3.805-3.8-4.153-4.157c-.779-.78-1.556-1.682-2.44-2.337-.45-.334-1.04-.521-1.598-.566a3.261 3.261 0 0 0-2.082.551c-.946.656-1.781 1.67-2.597 2.487l-4.715 4.72-16.054 16.051-5.142 5.148c-.86.861-1.7 1.802-2.617 2.596l-.043.036-.07.086c-.353.426-.793.811-1.186 1.201l-2.279 2.268-7.703 7.701c-1.007 1.007-2.739 2.517-3.467 3.675-.31.494-.432 1.159-.39 1.733.043.578.297 1.054.404 1.602Z"/>
  </g>
</svg>
