<svg xmlns="http://www.w3.org/2000/svg" xml:space="preserve" style="fill-rule:evenodd;clip-rule:evenodd;stroke-linejoin:round;stroke-miterlimit:2" viewBox="0 0 100 100">
  <path d="m37.433.032 2.995-.014 24.188.026 7.439.018c3.948.012 8.019.032 11.863 1.043.223.058.446.119.667.185a19.41 19.41 0 0 1 1.314.433 20.976 20.976 0 0 1 3.732 1.807 20.631 20.631 0 0 1 1.156.762 22.149 22.149 0 0 1 1.102.837c.18.145.356.294.53.445a18.833 18.833 0 0 1 1.015.942c6.012 5.969 6.53 13.107 6.559 21.141l.006 32.213-.001 10.378c-.001 4.315.093 8.783-.893 13.01a21.359 21.359 0 0 1-1.423 4.183 20.325 20.325 0 0 1-1.032 1.957 19.92 19.92 0 0 1-.8 1.24 23.284 23.284 0 0 1-.885 1.181 19.692 19.692 0 0 1-.966 1.115c-.167.181-.337.358-.511.532-5.78 5.805-12.429 6.388-20.214 6.504-3.558.053-7.12.02-10.678.019l-25.444.001-8.286-.002c-4.078-.007-8.324.023-12.307-.957a22.52 22.52 0 0 1-1.353-.373 19.996 19.996 0 0 1-1.326-.462 21.542 21.542 0 0 1-1.923-.856 21.607 21.607 0 0 1-2.413-1.432 20.433 20.433 0 0 1-1.672-1.278 19.381 19.381 0 0 1-1.041-.942C.846 87.829.159 81.03.083 73.061L.013 40.99c-.028-4.076-.011-8.151.051-12.227.047-4.05-.001-8.185.945-12.148a20.178 20.178 0 0 1 .375-1.384 22.625 22.625 0 0 1 .469-1.356 22.514 22.514 0 0 1 .874-1.965 22.613 22.613 0 0 1 .693-1.256 19.23 19.23 0 0 1 .777-1.205 19.942 19.942 0 0 1 1.314-1.702 20.303 20.303 0 0 1 .971-1.056C12.498.579 19.713.089 27.839.063l9.594-.031Zm11.71 11.259a38.47 38.47 0 0 0-8.545 1.151 38.406 38.406 0 0 0-8.078 3.012 36.216 36.216 0 0 0-1.691.909 38.074 38.074 0 0 0-4.012 2.628 36.412 36.412 0 0 0-2.24 1.809 39.33 39.33 0 0 0-2.767 2.66 39.43 39.43 0 0 0-2.482 2.912 39.158 39.158 0 0 0-4.849 8.222 40.12 40.12 0 0 0-1.044 2.674c-.105.301-.206.604-.303.908a37.091 37.091 0 0 0-.988 3.696 37.96 37.96 0 0 0-.356 1.881c-.051.315-.099.63-.143.946a43.22 43.22 0 0 0-.215 1.902 37.89 37.89 0 0 0-.146 2.866 38.162 38.162 0 0 0 .479 6.623 37.18 37.18 0 0 0 .344 1.863 41.107 41.107 0 0 0 .435 1.843 36.253 36.253 0 0 0 .524 1.82 41.022 41.022 0 0 0 .613 1.791 39.22 39.22 0 0 0 3.3 6.806 41.421 41.421 0 0 0 1.571 2.366 37.319 37.319 0 0 0 1.142 1.511 41.626 41.626 0 0 0 1.214 1.453 38.337 38.337 0 0 0 1.951 2.064 38.19 38.19 0 0 0 2.089 1.908 37.8 37.8 0 0 0 2.218 1.746 40.995 40.995 0 0 0 1.547 1.073 36.653 36.653 0 0 0 1.597.996 36.626 36.626 0 0 0 1.644.918 34.72 34.72 0 0 0 1.686.837 38.744 38.744 0 0 0 2.6 1.1c.293.112.588.22.884.324a40.552 40.552 0 0 0 2.694.843 36.95 36.95 0 0 0 1.828.452c.306.068.613.132.921.192a35.915 35.915 0 0 0 1.855.318 37.253 37.253 0 0 0 1.869.228 36.666 36.666 0 0 0 1.877.136 36.969 36.969 0 0 0 1.882.046c.314 0 .628-.004.941-.012 1.952-.091 3.875-.252 5.801-.594a41.004 41.004 0 0 0 3.096-.683 39.224 39.224 0 0 0 5.973-2.114 38.964 38.964 0 0 0 4.209-2.209c.226-.137.45-.277.674-.418a47.17 47.17 0 0 0 1.321-.877 41.821 41.821 0 0 0 1.284-.93 37.275 37.275 0 0 0 1.852-1.491c.201-.172.399-.346.596-.523a37.062 37.062 0 0 0 2.276-2.207 37.03 37.03 0 0 0 1.782-2.012A38.329 38.329 0 0 0 83.62 69.2a37.098 37.098 0 0 0 1.318-2.519 39.322 39.322 0 0 0 1.13-2.609 39.36 39.36 0 0 0 .936-2.685 41.1 41.1 0 0 0 .736-2.746 41.268 41.268 0 0 0 .378-1.858 36.42 36.42 0 0 0 .286-1.873 37.72 37.72 0 0 0 .257-2.832 37.469 37.469 0 0 0 .049-2.843 37.277 37.277 0 0 0-.162-2.853 38.166 38.166 0 0 0-.544-3.779 37.843 37.843 0 0 0-.412-1.865 36.843 36.843 0 0 0-.502-1.842 40.11 40.11 0 0 0-1.275-3.599 37.962 37.962 0 0 0-2.081-4.295 40.152 40.152 0 0 0-.977-1.64 39.233 39.233 0 0 0-2.192-3.127 43.196 43.196 0 0 0-1.209-1.478 38.95 38.95 0 0 0-2.628-2.77 36.048 36.048 0 0 0-1.387-1.26 36.034 36.034 0 0 0-2.146-1.729 32.72 32.72 0 0 0-.742-.542 32.732 32.732 0 0 0-.755-.524 32.741 32.741 0 0 0-.767-.506 34.902 34.902 0 0 0-1.568-.957 42.072 42.072 0 0 0-1.613-.881 35.008 35.008 0 0 0-1.653-.804 39.593 39.593 0 0 0-2.545-1.056 37.05 37.05 0 0 0-1.737-.602 42.509 42.509 0 0 0-1.762-.519 38.756 38.756 0 0 0-3.59-.784 39.735 39.735 0 0 0-3.647-.44 40.622 40.622 0 0 0-1.836-.089 40.143 40.143 0 0 0-1.837-.003Z"/>
  <path d="m36.532 42.063.146-.009c.868-.023 1.348.283 1.95.852 3.211 3.038 6.326 6.196 9.48 9.294l3.014 2.956c.536.527 1.154 1.055 1.614 1.65.267.346.392.831.395 1.262.003.513-.115.939-.418 1.354-.437.599-1.042 1.126-1.563 1.656l-2.918 2.972c-3.211 3.271-6.391 6.578-9.638 9.812a2.652 2.652 0 0 1-1.011.508c-.61.151-1.146.036-1.68-.285-.51-.306-2.967-2.702-3.363-3.222a2.387 2.387 0 0 1-.448-.905 2.14 2.14 0 0 1 .235-1.612c.437-.765 1.255-1.435 1.872-2.059l4.202-4.277c.779-.79 1.999-1.851 2.567-2.755.317-.503.453-1.001.245-1.572-.375-1.029-1.623-2.008-2.395-2.761l-4.362-4.276c-.677-.664-1.499-1.338-2.084-2.08-.242-.307-.425-.615-.503-1.003a2.344 2.344 0 0 1-.042-.35c-.002-.039-.003-.079-.002-.118l.003-.117.01-.117c.004-.039.01-.078.016-.117a2.354 2.354 0 0 1 .12-.454c.013-.036.028-.073.044-.109.015-.036.032-.071.049-.106l.055-.104a1.679 1.679 0 0 1 .125-.199c.374-.527.905-.965 1.357-1.424.619-.629 1.232-1.432 1.967-1.922.307-.204.603-.3.961-.363Zm26.546-16.498a2.5 2.5 0 0 1 .971.177c.239.101.453.244.653.409.477.394.907.904 1.343 1.346.524.532 1.123 1.058 1.584 1.642.167.21.308.437.406.688.254.654.154 1.375-.195 1.973-.41.704-1.213 1.302-1.798 1.876l-4.453 4.38c-.732.72-1.541 1.411-2.216 2.183-.225.257-.418.515-.544.837-.192.489-.193.919.031 1.394.424.898 1.362 1.657 2.05 2.359l4.178 4.251c.762.772 1.587 1.525 2.287 2.351.182.214.335.449.437.711.22.567.204 1.23-.061 1.779a2.926 2.926 0 0 1-.453.661c-.359.405-.785.761-1.17 1.142-.575.569-1.139 1.228-1.781 1.717a2.532 2.532 0 0 1-.783.415c-.668.21-1.286.06-1.884-.264l-.062-.043c-.668-.475-1.394-1.354-1.987-1.959l-4.21-4.299-5.34-5.434c-.914-.929-1.965-1.86-2.777-2.877a2.166 2.166 0 0 1-.436-1.168c-.003-.037-.006-.074-.007-.111l-.001-.111a2.06 2.06 0 0 1 .005-.111c.002-.037.006-.074.01-.111a1.908 1.908 0 0 1 .063-.327 2.17 2.17 0 0 1 .157-.415l.052-.098c.019-.032.037-.064.057-.095a1.859 1.859 0 0 1 .128-.182c.595-.766 1.423-1.441 2.117-2.125l4.707-4.621 5.263-5.159c.775-.757 1.536-1.656 2.39-2.315.387-.297.797-.403 1.269-.466Z" style="fill-rule:nonzero"/>
</svg>
