<svg xmlns="http://www.w3.org/2000/svg" xml:space="preserve" style="fill-rule:evenodd;clip-rule:evenodd;stroke-linejoin:round;stroke-miterlimit:2" viewBox="0 0 100 100">
  <path d="m37.433.032 2.995-.014 24.188.026 7.439.018c3.948.012 8.019.032 11.863 1.043.223.058.446.119.667.185a19.41 19.41 0 0 1 1.314.433 20.976 20.976 0 0 1 3.732 1.807 20.631 20.631 0 0 1 1.156.762 22.149 22.149 0 0 1 1.102.837c.18.145.356.294.53.445a18.833 18.833 0 0 1 1.015.942c6.012 5.969 6.53 13.107 6.559 21.141l.006 32.213-.001 10.378c-.001 4.315.093 8.783-.893 13.01a21.359 21.359 0 0 1-1.423 4.183 20.325 20.325 0 0 1-1.032 1.957 19.92 19.92 0 0 1-.8 1.24 23.284 23.284 0 0 1-.885 1.181 19.692 19.692 0 0 1-.966 1.115c-.167.181-.337.358-.511.532-5.78 5.805-12.429 6.388-20.214 6.504-3.558.053-7.12.02-10.678.019l-25.444.001-8.286-.002c-4.078-.007-8.324.023-12.307-.957a22.52 22.52 0 0 1-1.353-.373 19.996 19.996 0 0 1-1.326-.462 21.542 21.542 0 0 1-1.923-.856 21.607 21.607 0 0 1-2.413-1.432 20.433 20.433 0 0 1-1.672-1.278 19.381 19.381 0 0 1-1.041-.942C.846 87.829.159 81.03.083 73.061L.013 40.99c-.028-4.076-.011-8.151.051-12.227.047-4.05-.001-8.185.945-12.148a20.178 20.178 0 0 1 .375-1.384 22.625 22.625 0 0 1 .469-1.356 22.514 22.514 0 0 1 .874-1.965 22.613 22.613 0 0 1 .693-1.256 19.23 19.23 0 0 1 .777-1.205 19.942 19.942 0 0 1 1.314-1.702 20.303 20.303 0 0 1 .971-1.056C12.498.579 19.713.089 27.839.063l9.594-.031Zm14.175 36.936c1.499-.085 3.219-.574 4.261-1.087 2.744-1.351 4.347-3.638 5.306-6.472.241-1.125.31-2.2.3-3.345a6.88 6.88 0 0 0-.022-.251 6.876 6.876 0 0 0-.028-.251 10.736 10.736 0 0 0-.074-.499c-.015-.083-.03-.166-.047-.248a9.708 9.708 0 0 0-.247-.978c-.025-.08-.05-.161-.077-.24a11.294 11.294 0 0 0-.172-.475c-.03-.078-.062-.156-.094-.234a15.989 15.989 0 0 0-.206-.46c-.037-.076-.074-.152-.112-.226a9.522 9.522 0 0 0-.64-1.086l-.144-.208a15.121 15.121 0 0 0-.149-.203l-.154-.2a10.32 10.32 0 0 0-1.79-1.763 14.817 14.817 0 0 0-.404-.294 10.654 10.654 0 0 0-.849-.526c-.073-.04-.146-.08-.22-.118a9.317 9.317 0 0 0-.677-.322 7.979 7.979 0 0 0-.464-.186 9.352 9.352 0 0 0-.472-.163 9.442 9.442 0 0 0-.966-.255 9.646 9.646 0 0 0-.738-.128c-.083-.011-.165-.022-.248-.031a10.478 10.478 0 0 0-1.747-.041l-.249.019a9.88 9.88 0 0 0-1.482.238c-.081.019-.162.04-.243.061a10.824 10.824 0 0 0-.954.303 7.979 7.979 0 0 0-.693.289 9.323 9.323 0 0 0-.888.463 9.337 9.337 0 0 0-.425.264c-.07.045-.139.092-.208.139a10.58 10.58 0 0 0-.405.295c-.066.051-.132.102-.197.155a7.357 7.357 0 0 0-.381.324 9.78 9.78 0 0 0-.366.342l-.176.178-.172.182-.167.186-.163.191a10.276 10.276 0 0 0-.457.595c-.049.068-.096.137-.143.206-.047.069-.092.139-.138.209a9.318 9.318 0 0 0-.498.868l-.111.225-.106.227-.1.229a11.268 11.268 0 0 0-.344.941 13.68 13.68 0 0 0-.137.481l-.059.243a10.742 10.742 0 0 0-.179.985 10.56 10.56 0 0 0-.082.998 10.51 10.51 0 0 0-.005.501l.007.25c.003.084.008.167.013.25l.019.25c.031.314.081.621.146.924h3.314c.926 0 1.89-.033 2.804.139 1 .188 1.907.694 2.618 1.418.693.705 1.136 1.523 1.386 2.475.043.167.066.338.068.51.011 1.246.02 2.492.027 3.737ZM33.931 70.329c.342.894.737 1.764 1.24 2.606.01.025.018.049.029.073.338.677.842 1.364 1.3 1.962a20.912 20.912 0 0 0 .801.984 18.849 18.849 0 0 0 1.322 1.369 17.19 17.19 0 0 0 .955.837 18.616 18.616 0 0 0 3.735 2.386 17.621 17.621 0 0 0 3.301 1.225 16.436 16.436 0 0 0 1.32.299 16.544 16.544 0 0 0 .891.146 21.913 21.913 0 0 0 .897.102 22.693 22.693 0 0 0 .901.058 16.857 16.857 0 0 0 .902.013 16.961 16.961 0 0 0 1.352-.061c.15-.012.3-.027.45-.042.149-.017.299-.034.448-.054.149-.02.298-.041.446-.064a21.736 21.736 0 0 0 1.329-.258 16.524 16.524 0 0 0 .874-.226 16.52 16.52 0 0 0 .862-.268 16.564 16.564 0 0 0 .848-.31c.14-.055.279-.112.418-.17 4.314-1.827 8.159-5.48 9.931-9.86.494.272 1.055.474 1.593.639a14.963 14.963 0 0 0 .563.16 9.048 9.048 0 0 0 .57.133c.095.02.191.038.287.056a14.404 14.404 0 0 0 .578.089c.096.013.193.024.29.035l.291.027c.098.007.195.014.292.019a9.503 9.503 0 0 0 .585.018 9.475 9.475 0 0 0 .585-.011c.097-.005.194-.01.292-.017a9.506 9.506 0 0 0 .582-.055 9.587 9.587 0 0 0 .579-.083 13.213 13.213 0 0 0 .574-.112 13.112 13.112 0 0 0 .849-.221 9.972 9.972 0 0 0 .556-.182 15.202 15.202 0 0 0 .546-.21 10.343 10.343 0 0 0 .535-.236c.088-.042.175-.084.263-.128l.259-.134c2.998-1.607 4.713-4.164 5.68-7.351.434-2.31.302-4.663.301-7.004l-.002-8.471c-.004-1.237-.103-2.56.021-3.787-.065-.807-.36-1.555-.939-2.135a2.853 2.853 0 0 0-1.562-.81c-1.28-.227-3.549-.089-4.949-.088l-9.988-.005c-1.643-.054-3.304-.006-4.949-.005-3.711.001-7.428.045-11.141.017.005 2.755 0 5.511-.015 8.267l.001 11.008.006 3.142c0 .749.038 1.564-.079 2.305-.155.982-.713 2.109-1.399 2.814-.8.821-1.883 1.319-2.999 1.506-.642.108-1.373.062-2.024.061l-3.022-.007c-2.72-.005-5.442.017-8.162.009Zm-4.499-4.158c.161-.026.344-.045.541-.055.551-.027 1.28.027 1.643.031 3.494.038 6.992 0 10.486.007l3.02.006c.427.001.905.068 1.326-.003.255-.042.521-.115.704-.303.135-.139.239-.364.27-.558.083-.53.028-1.114.027-1.648l-.006-3.145V49.474c.029-5.299.02-10.598-.03-15.907a1.21 1.21 0 0 0-.259-.402.808.808 0 0 0-.416-.243c-.662-.124-1.362-.066-2.034-.066h-3.223l-11.935.004-10.136.002c-1.256-.001-3.393-.165-4.553.067a.807.807 0 0 0-.415.25 1.097 1.097 0 0 0-.278.627c-.146 1.091-.02 2.316-.018 3.423l.004 7.571v13.62c0 2.161-.093 4.357-.007 6.513.015.377.096.731.377.994.137.128.309.171.491.204 1.026.186 2.526.041 3.602.041l7.965-.008c.894-.002 1.931-.077 2.854.007Zm36.703-35.777c.359 2.112 1.283 3.917 3.06 5.179a7.557 7.557 0 0 0 1.26.716 7.603 7.603 0 0 0 1.375.456 7.224 7.224 0 0 0 1.8.18 7.305 7.305 0 0 0 1.438-.174 6.952 6.952 0 0 0 .7-.191 8.154 8.154 0 0 0 .678-.259c.111-.048.22-.1.328-.154a6.918 6.918 0 0 0 .935-.556 6.883 6.883 0 0 0 .843-.687c.088-.084.174-.169.258-.256.083-.088.165-.177.244-.268a8.441 8.441 0 0 0 .448-.571c.655-.931 1.005-1.957 1.255-3.058.026-.529.066-1.043.065-1.574a7.09 7.09 0 0 0-.409-2.101 6.793 6.793 0 0 0-.432-.983 6.753 6.753 0 0 0-.366-.615 6.703 6.703 0 0 0-.424-.577 8.721 8.721 0 0 0-.233-.271 6.066 6.066 0 0 0-.247-.26 6.696 6.696 0 0 0-.532-.486 7.824 7.824 0 0 0-.58-.435 8.323 8.323 0 0 0-.306-.196 8.156 8.156 0 0 0-.969-.493 7.374 7.374 0 0 0-3.548-.542 7.13 7.13 0 0 0-1.063.178 6.852 6.852 0 0 0-1.026.331 7.415 7.415 0 0 0-3.107 2.392 6.975 6.975 0 0 0-.41.606 8.367 8.367 0 0 0-.348.644 8.328 8.328 0 0 0-.282.676 8.3 8.3 0 0 0-.116.347 7.099 7.099 0 0 0-.243 1.07 7.38 7.38 0 0 0-.072 1.461c.007.157.016.314.026.471Z"/>
  <path d="M22.566 39.384h16.427c.004 1.097.021 2.196-.013 3.293l-6.215-.007.002 10.75-.002 6.251c-1.33.015-2.66.014-3.991-.003l.002-16.995-6.202-.003-.008-3.286Z" style="fill-rule:nonzero"/>
</svg>
