<svg xmlns="http://www.w3.org/2000/svg" xml:space="preserve" style="fill-rule:evenodd;clip-rule:evenodd;stroke-linejoin:round;stroke-miterlimit:2" viewBox="0 0 100 100">
  <path d="m37.433.032 2.995-.014 24.188.026 7.439.018c3.948.012 8.019.032 11.863 1.043.223.058.446.119.667.185a19.41 19.41 0 0 1 1.314.433 20.976 20.976 0 0 1 3.732 1.807 20.631 20.631 0 0 1 1.156.762 22.149 22.149 0 0 1 1.102.837c.18.145.356.294.53.445a18.833 18.833 0 0 1 1.015.942c6.012 5.969 6.53 13.107 6.559 21.141l.006 32.213-.001 10.378c-.001 4.315.093 8.783-.893 13.01a21.359 21.359 0 0 1-1.423 4.183 20.325 20.325 0 0 1-1.032 1.957 19.92 19.92 0 0 1-.8 1.24 23.284 23.284 0 0 1-.885 1.181 19.692 19.692 0 0 1-.966 1.115c-.167.181-.337.358-.511.532-5.78 5.805-12.429 6.388-20.214 6.504-3.558.053-7.12.02-10.678.019l-25.444.001-8.286-.002c-4.078-.007-8.324.023-12.307-.957a22.52 22.52 0 0 1-1.353-.373 19.996 19.996 0 0 1-1.326-.462 21.542 21.542 0 0 1-1.923-.856 21.607 21.607 0 0 1-2.413-1.432 20.433 20.433 0 0 1-1.672-1.278 19.381 19.381 0 0 1-1.041-.942C.846 87.829.159 81.03.083 73.061L.013 40.99c-.028-4.076-.011-8.151.051-12.227.047-4.05-.001-8.185.945-12.148a20.178 20.178 0 0 1 .375-1.384 22.625 22.625 0 0 1 .469-1.356 22.514 22.514 0 0 1 .874-1.965 22.613 22.613 0 0 1 .693-1.256 19.23 19.23 0 0 1 .777-1.205 19.942 19.942 0 0 1 1.314-1.702 20.303 20.303 0 0 1 .971-1.056C12.498.579 19.713.089 27.839.063l9.594-.031ZM26.119 66.169c.161-.026.344-.045.541-.055.551-.027 1.28.027 1.643.031 3.493.038 6.991 0 10.485.007l3.021.007c.426 0 .905.067 1.325-.003.255-.043.521-.116.704-.303.135-.14.24-.365.27-.559.084-.53.028-1.114.027-1.648l-.005-3.145-.001-11.017v-.011c.029-5.3.021-10.599-.029-15.908a1.213 1.213 0 0 0-.26-.402.8.8 0 0 0-.415-.242c-.663-.125-1.363-.067-2.034-.067h-3.224l-11.934.004-10.136.002c-1.257 0-3.394-.164-4.554.067a.804.804 0 0 0-.414.25 1.09 1.09 0 0 0-.278.627c-.147 1.092-.02 2.316-.019 3.424l.005 7.571v13.62c0 2.16-.094 4.356-.007 6.512.015.377.096.732.376.994.137.128.31.171.492.204 1.026.187 2.526.042 3.602.041l7.964-.008c.895-.001 1.931-.077 2.855.007Zm22.158-.678c-.012.153-.03.305-.053.453-.155.983-.714 2.109-1.4 2.814-.799.822-1.882 1.319-2.999 1.507-.642.108-1.372.061-2.024.06l-3.021-.006c-3.507-.007-7.017.031-10.523-.007-.293-.003-1.247-.025-1.435-.03a2.052 2.052 0 0 1-.598.083c-.004 1.723 0 3.446.01 5.169.002 1.111.064 2.263-.008 3.37.077 1.035.254 1.969 1.073 2.697.509.451 1.141.7 1.813.757.96.082 1.952.036 2.916.036l5.14-.001 16.289-.003h17.497l5.537.001c.451 0 .909.011 1.368.015L53.823 68.663a.17.17 0 0 0-.014-.009l-5.532-3.163Zm34.034 14.677c.026-.074.05-.15.073-.228.208-.836.083-1.932.082-2.802l-.008-5.117-.009-18.64L59.04 66.846l23.071 13.192c.07.04.137.084.2.13Zm-.839-31.031c-.564-.403-1.256-.714-1.745-.992l.002-6.933-.003-15.97.001-3.392c.002-.908.089-1.905-.132-2.79a3.312 3.312 0 0 0-.211-.59 3.267 3.267 0 0 0-.454-.7 3.169 3.169 0 0 0-2.093-1.083c-1.485-.162-3.427-.042-4.959-.041l-9.759.003H42.116c-3.195 0-6.398-.047-9.592-.005-1.02.013-1.977.215-2.704.991-.413.44-.671.997-.799 1.583-.17.773-.094 1.649-.094 2.439l.006 3.581v3.452l9.233-.003h3.225c.927.001 1.89-.033 2.804.139 1 .188 1.908.694 2.618 1.418.693.706 1.136 1.524 1.386 2.475.044.167.067.338.068.511.049 5.419.058 10.839.029 16.259v11.008l.001.206 6.553 3.747 26.56-15.278a1.24 1.24 0 0 1 .062-.035Z"/>
  <path d="M26.434 39.285c2.41-.229 4.886.191 6.864 1.655 2.061 1.525 3.211 3.877 3.565 6.379.422 2.986-.12 6.316-1.973 8.756-1.531 2.015-3.703 3.044-6.17 3.372-2.561.242-5.114-.174-7.191-1.779-2.034-1.573-3.181-3.948-3.485-6.471-.354-2.927.2-6.263 2.061-8.623 1.589-2.015 3.824-3.001 6.329-3.289Zm.357 3.333c-1.406.207-2.549.839-3.408 1.987-1.305 1.742-1.605 4.243-1.288 6.345.251 1.667.998 3.322 2.394 4.33 1.147.829 2.435.968 3.809.841a5.857 5.857 0 0 0 .452-.067 4.224 4.224 0 0 0 .443-.11 4.274 4.274 0 0 0 .431-.153 4.34 4.34 0 0 0 .806-.429 4.16 4.16 0 0 0 .368-.271 5.004 5.004 0 0 0 .497-.472c.052-.056.102-.114.15-.172 1.358-1.623 1.656-4.012 1.47-6.051-.162-1.77-.747-3.64-2.172-4.8-1.076-.874-2.49-1.158-3.851-.993-.034.004-.068.01-.101.015Z"/>
</svg>
