<svg xmlns="http://www.w3.org/2000/svg" xml:space="preserve" style="fill-rule:evenodd;clip-rule:evenodd;stroke-linejoin:round;stroke-miterlimit:2" viewBox="0 0 100 100">
    <path d="M20,0C8.954,0 0,8.954 0,20L0,80C0,91.046 8.954,100 20,100L80,100C91.046,100 100,91.046 100,80L100,20C100,8.954 91.046,0 80,0L20,0Z" fill="#000000"/>
    <g fill="#ffffff">
        <rect x="22" y="28" width="18" height="18"/>
        <rect x="60" y="28" width="18" height="18"/>
        <path d="M41,46L59,46L59,60L68,60L68,78L59,78L59,70L41,70L41,78L32,78L32,60L41,60L41,46Z"/>
    </g>
</svg>