<svg xmlns="http://www.w3.org/2000/svg" xml:space="preserve" style="fill-rule:evenodd;clip-rule:evenodd;stroke-linejoin:round;stroke-miterlimit:2" viewBox="0 0 100 100">
  <g id="レイヤー1">
    <path d="m37.433.032 2.995-.014 24.188.026 7.439.018c3.948.012 8.019.032 11.863 1.043.223.058.446.119.667.185a19.41 19.41 0 0 1 1.314.433 20.976 20.976 0 0 1 3.732 1.807 20.631 20.631 0 0 1 1.156.762 22.149 22.149 0 0 1 1.102.837c.18.145.356.294.53.445a18.833 18.833 0 0 1 1.015.942c6.012 5.969 6.53 13.107 6.559 21.141l.006 32.213-.001 10.378c-.001 4.315.093 8.783-.893 13.01a21.359 21.359 0 0 1-1.423 4.183 20.325 20.325 0 0 1-1.032 1.957 19.92 19.92 0 0 1-.8 1.24 23.284 23.284 0 0 1-.885 1.181 19.692 19.692 0 0 1-.966 1.115c-.167.181-.337.358-.511.532-5.78 5.805-12.429 6.388-20.214 6.504-3.558.053-7.12.02-10.678.019l-25.444.001-8.286-.002c-4.078-.007-8.324.023-12.307-.957a22.52 22.52 0 0 1-1.353-.373 19.996 19.996 0 0 1-1.326-.462 21.542 21.542 0 0 1-1.923-.856 21.607 21.607 0 0 1-2.413-1.432 20.433 20.433 0 0 1-1.672-1.278 19.381 19.381 0 0 1-1.041-.942C.846 87.829.159 81.03.083 73.061L.013 40.99c-.028-4.076-.011-8.151.051-12.227.047-4.05-.001-8.185.945-12.148a20.178 20.178 0 0 1 .375-1.384 22.625 22.625 0 0 1 .469-1.356 22.514 22.514 0 0 1 .874-1.965 22.613 22.613 0 0 1 .693-1.256 19.23 19.23 0 0 1 .777-1.205 19.942 19.942 0 0 1 1.314-1.702 20.303 20.303 0 0 1 .971-1.056C12.498.579 19.713.089 27.839.063l9.594-.031ZM19.864 78c.62 1.356 1.551 2.518 2.793 3.352 2.385 1.601 5.176 1.423 7.873.876 3.074-.623 5.703-2.176 7.079-5.092 1.294-2.744 1.083-5.99 1.08-8.95l-.003-5.157-.005-16.452-.006-4.794c-.006-1.08-.053-2.191.038-3.268.037-.432.123-.908.379-1.267.259-.363.699-.541 1.113-.659 1.309-.373 2.707-.579 4.043-.848l7.566-1.52 10.715-2.148c1.316-.257 2.626-.601 3.951-.804.591-.091 1.274-.146 1.775.245.419.327.492.782.556 1.276l.012 15.074-.001 5.068c0 .922.038 1.859-.021 2.779-.031.471-.077 1.156-.342 1.558-.119.706-.422 1.307-1.015 1.736-.806.584-1.87.761-2.825.955-3.21.653-6.924 1.124-9.332 3.564-.698.708-1.231 1.541-1.778 2.365-.475 1.735-.463 3.591.337 5.235.775 1.697 2.062 3.098 3.763 3.894 2.595 1.215 6.423.729 9.056-.25 2.395-.89 4.07-2.559 5.129-4.864.544-1.127.754-2.547.832-3.784.087-1.357.063-2.72.062-4.079l-.001-5.477-.001-17.414.001-14.568v-4.575c-.001-1.066.025-2.14-.068-3.203-.517-.639-1.152-1.056-1.987-1.151-1.402-.159-3.463.499-4.884.767a781.89 781.89 0 0 0-13.823 2.766l-9.107 1.824c-1.649.327-3.358.581-4.983 1.005-.782.204-1.492.477-2.116 1.003-.145.123-.28.255-.408.395a4.45 4.45 0 0 0-.352.446c-.175 1.095-.12 2.258-.12 3.365v4.45l.001 20.563.001 6.642c0 1.193.051 2.413-.018 3.603-.031.55-.104 1.111-.349 1.612-.132.757-.431 1.327-1.068 1.788-.847.613-2.044.761-3.045.968-2.744.568-5.937 1.024-8.212 2.763-.729.558-1.313 1.212-1.843 1.957-.234.33-.451.728-.742 1.008-.458 1.831-.484 3.672.3 5.422Z"/>
  </g>
</svg>
