<svg xmlns="http://www.w3.org/2000/svg" xml:space="preserve" style="fill-rule:evenodd;clip-rule:evenodd;stroke-linejoin:round;stroke-miterlimit:2" viewBox="0 0 100 100">
  <path d="M.015 62.884V30.127c-.005-2.088.001-4.175.02-6.263.119-7.278.38-13.107 5.999-18.486 1.712-1.638 4.041-3.195 6.281-3.956C17.166-.225 23.818.05 28.957.047c3.032-.002 6.07-.047 9.101.009C46.729-.06 55.418.04 64.09.039l9.675.002c4.191.009 8.494-.082 12.59.945 2.754.69 5.623 2.431 7.652 4.412 5.276 5.151 5.869 10.302 5.941 17.321.028 3.983.035 7.966.02 11.95-.001 2.072.097 4.403-.019 6.442.122 1.922.011 3.907.013 5.837l.002 12.205.002 12.328c-.002 4.723.058 9.457-.801 14.121-.284 1.098-.581 2.187-1.043 3.227-1.528 3.439-4.411 6.542-7.649 8.441-2.413 1.415-5.023 2.101-7.789 2.372-5.428.482-10.913.338-16.358.338H43.147l-15.407-.003c-2.121.011-4.242-.018-6.362-.086-1.071-.034-2.204-.032-3.263-.196-1.807-.094-3.721-.411-5.438-.986-4.634-1.551-8.461-5.18-10.62-9.516-.469-.91-.772-1.895-1.076-2.869-1.02-4.478-.961-9.128-.964-13.699l-.002-9.741ZM61.896 8.272l-31.48 2.326-8.938.662c-1.685.125-3.493.123-5.138.506-1.648.383-3.186 1.209-4.303 2.496-1.106 1.274-1.73 2.846-1.951 4.509-.131.988-.097 1.997-.097 2.992l.002 4.021.001 13.641v18.704L9.99 64.07c0 1.147-.047 2.315.039 3.458.134 1.786.737 3.436 1.594 4.995.832 1.513 1.931 2.859 2.98 4.225l3.675 4.781 3.333 4.342c.985 1.281 1.926 2.667 3.161 3.719 2.646 2.254 5.804 2.17 9.061 1.973l4.216-.26 31.095-1.883 8.62-.522c1.888-.112 3.884-.106 5.732-.511 1.738-.38 3.35-1.159 4.55-2.497 1.14-1.271 1.731-2.858 1.944-4.536.143-1.117.108-2.248.107-3.372l-.001-4.379V30.7c0-1.256.056-2.54-.023-3.792-.108-1.74-.919-3.269-2.223-4.411-1.185-1.038-2.511-1.922-3.796-2.83l-5.158-3.638-5.353-3.773c-1.552-1.094-3.151-2.385-4.926-3.104-2.118-.858-4.399-1.052-6.664-.886l-.057.006Zm.544 3.566c1.664-.082 3.286-.023 4.844.638 1.497.637 2.866 1.754 4.189 2.688l5.143 3.629 5.488 3.865c1.155.815 2.396 1.609 3.444 2.56.681.618.93 1.248.975 2.164.06 1.205.014 2.432.014 3.639l-.002 6.815v39.911c0 .977.041 1.973-.053 2.946-.1 1.032-.411 2.081-1.131 2.856-.778.836-1.92 1.226-3.018 1.414-.781.133-1.58.162-2.371.21l-3.133.188-10.17.616-19.538 1.185c-3.273.197-6.552.451-9.828.588l-3.657.229c-2.289.141-4.804.429-6.649-1.221-.845-.756-1.512-1.747-2.201-2.644l-2.936-3.822-4.138-5.382c-1.081-1.407-2.237-2.791-3.084-4.357-.622-1.151-.978-2.336-1.046-3.643-.058-1.121-.02-2.258-.019-3.381l.002-6.065V25.988l-.002-3.947c-.001-.891-.031-1.79.062-2.678.107-1.028.465-2.041 1.171-2.813.669-.733 1.611-1.163 2.575-1.347.687-.131 1.4-.156 2.098-.207l3.191-.233 10.591-.783 19.106-1.411c3.356-.248 6.723-.572 10.083-.731Zm16.975 17.333-32.932 1.925-10.655.626-3.187.183c-.641.037-1.295.05-1.932.139-.515.072-1.055.253-1.417.645-.453.49-.567 1.172-.61 1.813-.06.887-.021 1.797-.021 2.686l.002 4.804v30.025l-.003 4.845c0 .878-.041 1.775.018 2.65.052.768.216 1.539.819 2.074.412.366.906.526 1.435.632 1.009.138 2.044.04 3.057-.02l3.181-.189 11.596-.672 20.151-1.17 6.49-.375c1.171-.067 2.369-.089 3.535-.223.546-.063 1.11-.221 1.55-.565.643-.503.88-1.25.963-2.034.083-.791.048-1.608.048-2.403V70.72l-.001-12.652.001-17.558.001-5.718c0-1.032.042-2.086-.015-3.116-.037-.656-.145-1.367-.582-1.886-.352-.417-.83-.58-1.362-.615-.044-.002-.087-.004-.13-.004Zm-5.989 8.203c.23-.021.467-.018.698-.025.103.699.186 1.522-.234 2.139-.546.801-2.394.933-3.333 1.112v32.627c-1.907 1.06-4.341 2.006-6.543 1.514-.946-.212-1.623-.76-2.255-1.474-1.088-1.228-1.914-2.606-2.79-3.987l-2.852-4.494-9.977-15.702-.002 22.076c1.54.32 3.073.692 4.608 1.041-.102.597-.306 1.161-.723 1.615-.448.488-1.008.739-1.64.888-1.127.267-2.582.231-3.748.299l-7.587.441-.203-.016a.376.376 0 0 1-.121-.17c-.132-.375.049-1.094.233-1.424a1.44 1.44 0 0 1 .118-.181 1.469 1.469 0 0 1 .303-.306c.058-.044.118-.084.181-.119.658-.377 2.158-.669 2.942-.881L40.5 43.123a74.76 74.76 0 0 1-3.722-.308c-.073-.919.036-1.799.675-2.522.352-.398.759-.628 1.271-.76 1.001-.259 2.75-.265 3.857-.34l7.693-.517L60.4 54.193c1.653 2.532 3.269 5.098 4.97 7.599l.003-20.437c-1.28-.209-2.587-.287-3.873-.46a1.809 1.809 0 0 1-.008-.073c-.064-.727.083-1.435.574-2 .338-.389.783-.638 1.276-.77.992-.266 2.444-.232 3.492-.292l6.592-.386ZM62.912 16.087c-3.177.184-6.352.451-9.526.684l-16.783 1.227-10.028.733c-1.667.122-3.471.167-5.116.391-.4.054-.885.135-1.174.441-.115.122-.2.267-.192.441.017.373.345.622.61.843 1.265 1.057 2.587 2.06 3.88 3.085.919.729 1.838 1.567 2.845 2.167.478.285.989.496 1.535.607 1.393.284 2.895.056 4.301-.003l29.694-1.794 8.346-.503c1.417-.085 2.849-.129 4.262-.256.191-.017.396-.037.563-.136a.429.429 0 0 0-.061-.387c-.131-.211-.318-.383-.51-.538-.511-.41-1.063-.776-1.595-1.157l-2.71-1.966c-1.215-.884-2.686-2.083-3.96-2.819a7.447 7.447 0 0 0-1.72-.738 7.483 7.483 0 0 0-.608-.149 9.48 9.48 0 0 0-2.053-.173Z" style="fill:#080605"/>
</svg>
