<svg xmlns="http://www.w3.org/2000/svg" xml:space="preserve" style="fill-rule:evenodd;clip-rule:evenodd;stroke-linejoin:round;stroke-miterlimit:2" viewBox="0 0 100 100">
  <g id="レイヤー1">
    <path d="m99.529 74.626-99.413.008c-.001 0-.027-.902-.033-1.573L.034 50.729c7.437-.076 14.882-.006 22.32-.005l43.227-.001h30.684c1.227 0 2.504-.079 3.723.01l-.002-1.111c-1.209.119-2.537.017-3.758.015l-7.418-.001H7.497c-2.485 0-4.982.057-7.465-.009L.013 40.99c-.022-3.199-.016-6.398.018-9.598.123-.019.247-.041.362-.091a1.1 1.1 0 0 0 .597-.6 1.012 1.012 0 0 0-.051-.789c-.187-.394-.49-.524-.882-.665l.007-.484.012-1.125 2.007.005h97.219l.535.001.078-.001.078-.001v.015l.001 1.61a1.072 1.072 0 0 0 0 2.142l.005 28.461-.001 10.378c0 1.447.01 2.91-.013 4.377h-.041l-.415.001Zm.431 1.093c-.074 2.543-.282 5.082-.855 7.539a21.359 21.359 0 0 1-1.423 4.183 20.325 20.325 0 0 1-1.032 1.957 19.92 19.92 0 0 1-.8 1.24 23.284 23.284 0 0 1-.885 1.181 19.692 19.692 0 0 1-.966 1.115c-.167.181-.337.358-.511.532-5.78 5.805-12.429 6.388-20.214 6.504-3.558.053-7.12.02-10.678.019l-25.444.001-8.286-.002c-4.078-.007-8.324.023-12.307-.957a22.52 22.52 0 0 1-1.353-.373 19.996 19.996 0 0 1-1.326-.462 21.542 21.542 0 0 1-1.923-.856 21.607 21.607 0 0 1-2.413-1.432 20.433 20.433 0 0 1-1.672-1.278 19.381 19.381 0 0 1-1.041-.942C1.649 88.616.439 82.838.159 76.207l-.001-.006c0-.058-.018-.46-.018-.46s2.793-.026 3.91-.025l6.91.002 21.871.001 66.685-.001.444.001ZM49.698 29.307c-.337.205-.59.381-.698.779a.998.998 0 0 0 .111.803c.151.235.455.442.735.474.151.018.31.007.461 0 .34-.2.602-.393.702-.794a.979.979 0 0 0-.133-.793 1.154 1.154 0 0 0-.677-.46c-.16-.031-.338-.015-.501-.009Zm41.671-.001c-.346.192-.611.378-.716.78a1 1 0 0 0 .127.804c.144.219.405.413.665.465.171.033.364.014.538.004.328-.2.58-.404.678-.791a.976.976 0 0 0-.13-.797 1.138 1.138 0 0 0-.685-.457c-.154-.027-.322-.014-.477-.008Zm-58.345.002c-.34.208-.594.408-.693.812a.984.984 0 0 0 .135.792c.148.217.421.399.681.446.153.027.319.015.474.009.343-.178.608-.377.722-.765a.99.99 0 0 0-.11-.782 1.131 1.131 0 0 0-.677-.499c-.17-.037-.36-.02-.532-.013Zm24.987 0c-.334.21-.591.415-.678.818-.061.278-.027.567.139.804.157.224.421.389.692.431.161.026.335.004.497-.01.328-.195.586-.399.682-.787a.959.959 0 0 0-.123-.768c-.144-.219-.415-.424-.676-.476-.167-.034-.363-.017-.533-.012Zm-54.125-.002c-.344.191-.603.374-.714.771-.073.261-.033.558.11.788.147.235.404.429.677.487.173.037.369.017.545.006.327-.2.576-.405.674-.791a.978.978 0 0 0-.128-.795 1.138 1.138 0 0 0-.685-.457c-.154-.028-.323-.015-.479-.009Zm41.638.002c-.344.209-.601.408-.692.819-.061.276-.024.57.142.803.157.221.423.387.692.431.163.027.341.004.505-.01.326-.199.577-.4.67-.788a.97.97 0 0 0-.132-.788c-.168-.246-.471-.448-.773-.472-.136-.012-.276-.002-.412.005Zm33.307.003c-.35.227-.595.417-.675.847-.053.284-.003.581.172.815.164.22.435.364.707.395.153.018.314-.006.466-.023.31-.179.561-.383.664-.741a.972.972 0 0 0-.1-.77 1.156 1.156 0 0 0-.657-.505c-.177-.047-.395-.031-.577-.018Zm16.676-.003c-.342.214-.594.407-.684.819-.06.276-.023.569.141.803.157.224.421.39.691.432.161.026.336.003.497-.011.33-.195.587-.395.683-.785a.965.965 0 0 0-.122-.769 1.14 1.14 0 0 0-.672-.476c-.168-.035-.364-.019-.534-.013Zm-79.121-.002c-.338.18-.589.361-.707.741a.86.86 0 0 0-.04.202.877.877 0 0 0 .001.205.904.904 0 0 0 .043.201 1.003 1.003 0 0 0 .084.188c.145.252.424.461.713.513.168.03.349.017.519.003.459-.285.612-.508.75-1.024-.096-.338-.203-.688-.523-.881-.265-.159-.542-.162-.84-.148Zm-8.358.003c-.33.205-.585.393-.682.788-.069.283-.04.568.122.815.14.216.402.387.654.44.173.037.373.018.548.001.33-.197.584-.397.682-.786a.97.97 0 0 0-.135-.792c-.159-.229-.457-.444-.743-.467-.147-.013-.299-.004-.446.001Zm66.664-.002c-.323.184-.572.366-.685.736a.998.998 0 0 0 .068.781c.13.242.377.433.639.512.187.056.396.035.589.026.34-.196.599-.394.7-.793a.977.977 0 0 0-.133-.794 1.122 1.122 0 0 0-.701-.461c-.154-.028-.321-.014-.477-.007Zm-37.493 0c-.345.203-.608.399-.704.807a.988.988 0 0 0 .124.775c.143.224.414.414.676.466.165.033.348.015.516.007.34-.195.6-.394.699-.792a.977.977 0 0 0-.133-.794c-.145-.215-.416-.412-.674-.46-.162-.03-.341-.015-.504-.009Zm24.988 0c-.343.204-.605.402-.698.811a.99.99 0 0 0 .138.785c.14.213.414.408.667.454.164.03.347.012.513.005.337-.199.597-.396.697-.793a.97.97 0 0 0-.132-.794 1.137 1.137 0 0 0-.7-.461c-.157-.029-.326-.015-.485-.007Zm25.001.001c-.345.205-.603.4-.701.809a.992.992 0 0 0 .132.785c.154.228.424.409.696.458.157.028.327.011.485.001.34-.196.599-.395.699-.793a.97.97 0 0 0-.131-.793 1.142 1.142 0 0 0-.676-.459c-.161-.03-.34-.014-.504-.008Zm-66.662.003c-.34.205-.596.41-.688.816a1 1 0 0 0 .141.803c.158.223.423.388.693.432.161.025.334.004.495-.01.331-.197.584-.395.681-.785a.978.978 0 0 0-.136-.794c-.157-.228-.456-.444-.74-.466-.147-.012-.298-.002-.446.004Zm49.987-.002c-.339.208-.597.411-.687.818a.993.993 0 0 0 .145.802c.158.221.42.387.689.431.163.027.34.007.503-.005.336-.212.59-.414.681-.819a.97.97 0 0 0-.157-.789c-.165-.227-.472-.423-.756-.442-.139-.01-.28-.002-.418.004Zm-41.634-.002c-.347.194-.611.385-.716.788a1.159 1.159 0 0 0-.031.309 1.216 1.216 0 0 0 .065.302 1.02 1.02 0 0 0 .094.185c.145.219.407.413.668.463.171.033.367.014.541.002.327-.198.577-.402.674-.788a.983.983 0 0 0-.131-.797 1.134 1.134 0 0 0-.683-.457c-.155-.027-.324-.013-.481-.007Zm12.46.004c-.336.212-.585.409-.669.815-.059.285-.02.58.148.821.157.224.425.379.694.417.158.022.339.002.496-.021.312-.173.563-.385.667-.74a1.052 1.052 0 0 0 .036-.196 1.112 1.112 0 0 0-.006-.199 1.04 1.04 0 0 0-.132-.375c-.14-.233-.409-.45-.677-.51-.176-.039-.378-.02-.557-.012Zm-16.638-.004c-.329.194-.577.37-.689.752-.078.264-.056.545.081.786.14.245.43.463.71.513.163.029.344.011.509.003.338-.199.596-.394.697-.791a.98.98 0 0 0-.127-.794 1.135 1.135 0 0 0-.677-.46c-.161-.03-.341-.015-.504-.009Zm58.31.002c-.339.208-.596.411-.686.818a1 1 0 0 0 .142.802c.157.223.421.389.691.432.163.026.339.004.502-.01.329-.196.582-.399.677-.787a.963.963 0 0 0-.123-.768 1.124 1.124 0 0 0-.702-.479c-.161-.031-.337-.016-.501-.008Zm-29.173.002c-.34.214-.585.404-.67.816-.059.284-.019.58.149.821.155.224.424.379.693.416.157.022.338.002.496-.021.459-.262.6-.502.742-1.005-.11-.369-.231-.734-.597-.921-.261-.133-.529-.126-.813-.106Zm-41.642-.005c-.348.21-.608.409-.703.824a1.116 1.116 0 0 0-.023.296 1.12 1.12 0 0 0 .033.195 1.02 1.02 0 0 0 .122.27c.144.224.412.413.675.465.165.032.348.014.515.006.336-.202.596-.396.697-.793a.97.97 0 0 0-.128-.793 1.142 1.142 0 0 0-.675-.46c-.164-.031-.347-.015-.513-.01Zm54.13.006c-.345.227-.588.42-.666.846-.052.284-.003.58.171.813.164.221.436.364.707.396.153.018.313-.005.465-.023.314-.177.563-.379.667-.739a1.073 1.073 0 0 0 .036-.197 1.112 1.112 0 0 0-.006-.2 1.057 1.057 0 0 0-.047-.194.953.953 0 0 0-.086-.181 1.158 1.158 0 0 0-.68-.511c-.177-.041-.38-.019-.561-.01Zm31.302-4.18L.393 25.131l-.283-.005c.061-2.863.235-5.729.899-8.511a20.178 20.178 0 0 1 .375-1.384 22.625 22.625 0 0 1 .469-1.356 22.514 22.514 0 0 1 .874-1.965 22.613 22.613 0 0 1 .693-1.256 19.23 19.23 0 0 1 .777-1.205 19.942 19.942 0 0 1 1.314-1.702 20.303 20.303 0 0 1 .971-1.056C12.498.579 19.713.089 27.839.063l9.594-.031 2.995-.014 24.188.026 7.439.018c3.948.012 8.019.032 11.863 1.043.223.058.446.119.667.185a19.41 19.41 0 0 1 1.314.433 20.976 20.976 0 0 1 3.732 1.807 20.631 20.631 0 0 1 1.156.762 22.149 22.149 0 0 1 1.102.837c.18.145.356.294.53.445a18.833 18.833 0 0 1 1.015.942c5.373 5.334 6.358 11.603 6.527 18.61l-2.333.006Z"/>
  </g>
</svg>
