<svg xmlns="http://www.w3.org/2000/svg" xml:space="preserve" style="fill-rule:evenodd;clip-rule:evenodd;stroke-linejoin:round;stroke-miterlimit:2" viewBox="0 0 100 100">
  <g id="レイヤー1">
    <path d="m37.433.032 2.995-.014 24.188.026 7.439.018c3.948.012 8.019.032 11.863 1.043.223.058.446.119.667.185a19.41 19.41 0 0 1 1.314.433 20.976 20.976 0 0 1 3.732 1.807 20.631 20.631 0 0 1 1.156.762 22.149 22.149 0 0 1 1.102.837c.18.145.356.294.53.445a18.833 18.833 0 0 1 1.015.942c6.012 5.969 6.53 13.107 6.559 21.141l.006 32.213-.001 10.378c-.001 4.315.093 8.783-.893 13.01a21.359 21.359 0 0 1-1.423 4.183 20.325 20.325 0 0 1-1.032 1.957 19.92 19.92 0 0 1-.8 1.24 23.284 23.284 0 0 1-.885 1.181 19.692 19.692 0 0 1-.966 1.115c-.167.181-.337.358-.511.532-5.78 5.805-12.429 6.388-20.214 6.504-3.558.053-7.12.02-10.678.019l-25.444.001-8.286-.002c-4.078-.007-8.324.023-12.307-.957a22.52 22.52 0 0 1-1.353-.373 19.996 19.996 0 0 1-1.326-.462 21.542 21.542 0 0 1-1.923-.856 21.607 21.607 0 0 1-2.413-1.432 20.433 20.433 0 0 1-1.672-1.278 19.381 19.381 0 0 1-1.041-.942C.846 87.829.159 81.03.083 73.061L.013 40.99c-.028-4.076-.011-8.151.051-12.227.047-4.05-.001-8.185.945-12.148a20.178 20.178 0 0 1 .375-1.384 22.625 22.625 0 0 1 .469-1.356 22.514 22.514 0 0 1 .874-1.965 22.613 22.613 0 0 1 .693-1.256 19.23 19.23 0 0 1 .777-1.205 19.942 19.942 0 0 1 1.314-1.702 20.303 20.303 0 0 1 .971-1.056C12.498.579 19.713.089 27.839.063l9.594-.031Zm32.566 8.2-36.662 2.263-10.63.657-2.931.181c-.899.054-1.809.083-2.69.286a8.357 8.357 0 0 0-.688.191 7.944 7.944 0 0 0-.672.243 7.916 7.916 0 0 0-.652.293 9.496 9.496 0 0 0-.627.341 8.576 8.576 0 0 0-.6.388 10.182 10.182 0 0 0-.569.433 10.03 10.03 0 0 0-.787.726 10.746 10.746 0 0 0-.467.517 10.724 10.724 0 0 0-.418.535 7.692 7.692 0 0 0-.379.563 10.665 10.665 0 0 0-.336.59 8.566 8.566 0 0 0-.422.926 9.336 9.336 0 0 0-.402 1.296 9.314 9.314 0 0 0-.128.666c-.163 1.095-.116 2.205-.107 3.308l.005 3.482-.001 13.65v29.147c0 1.329-.05 2.677.026 4.003l.013.206a12.986 12.986 0 0 0 .042.41 6.74 6.74 0 0 0 .062.408l.039.203a7.224 7.224 0 0 0 .093.402l.053.199.059.198.064.196a11.053 11.053 0 0 0 .141.387l.078.191a8.259 8.259 0 0 0 .79 1.446l.119.169.122.166c.042.055.084.109.127.162l.131.16c.044.053.089.105.135.156.045.052.091.103.138.153l.142.149a6.7 6.7 0 0 0 .296.288c.05.047.101.093.153.138 1.877 1.661 3.941 2.139 6.387 2.079.395-.009 1.075-.105 1.428.043.301.126.35.427.371.718.072 1.043-.043 2.104.001 3.149.083 1.958 1.026 3.871 2.483 5.171 1.964 1.755 4.054 2.004 6.578 1.851.11-.006.22-.014.33-.023l37.997-2.3 10.933-.661 3.141-.188c.866-.052 1.753-.08 2.603-.261a6.268 6.268 0 0 0 .523-.136 6.388 6.388 0 0 0 .759-.279 6.86 6.86 0 0 0 .952-.51c.075-.049.15-.099.224-.151.074-.051.146-.105.218-.159a6.764 6.764 0 0 0 .986-.92 7.65 7.65 0 0 0 .326-.391c.051-.068.102-.136.151-.205a7.028 7.028 0 0 0 .406-.647 6.94 6.94 0 0 0 .577-1.412 6.827 6.827 0 0 0 .199-.998c.109-.924.062-1.885.061-2.816l-.002-4.618V29.266c.001-1.345.061-2.724-.022-4.065a7.988 7.988 0 0 0-.084-.693 6.697 6.697 0 0 0-.15-.682 6.42 6.42 0 0 0-.101-.334 6.45 6.45 0 0 0-.248-.653 7.55 7.55 0 0 0-.489-.925 7.011 7.011 0 0 0-.619-.845 6.395 6.395 0 0 0-.479-.508 6.437 6.437 0 0 0-.257-.237c-1.95-1.711-3.897-1.832-6.359-1.681-.624.039-1.345.155-1.962.043-.261-.047-.34-.136-.374-.397-.006-.047-.01-.095-.014-.143-.056-.875.004-1.745-.076-2.623-.181-1.984-1.254-3.907-2.727-5.221-.052-.046-.104-.092-.157-.136a10.326 10.326 0 0 0-.161-.133l-.163-.128a10.309 10.309 0 0 0-.337-.243l-.172-.116a6.487 6.487 0 0 0-.354-.218 6.443 6.443 0 0 0-.181-.102l-.183-.098a8.058 8.058 0 0 0-.756-.344c-.064-.026-.129-.05-.194-.074l-.196-.07-.197-.064a7.52 7.52 0 0 0-.4-.114l-.201-.05-.203-.044a7.32 7.32 0 0 0-.204-.039c-.068-.013-.137-.024-.205-.035l-.206-.029a7.218 7.218 0 0 0-.206-.024l-.207-.019-.207-.014a14.454 14.454 0 0 0-.416-.012 14.285 14.285 0 0 0-.415.009 7.178 7.178 0 0 0-.207.012 6.925 6.925 0 0 0-.203.015Z"/>
    <path d="M70.601 11.592c.969-.016 1.918.203 2.752.707 1.146.693 1.923 1.787 2.234 3.086.181.757.34 2.614-.081 3.264a1 1 0 0 1-.037.053c-.213.3-.684.345-1.028.383-1.081.117-2.189.144-3.276.211l-6.197.388-18.935 1.186-13.348.839-3.817.234c-.889.054-1.809.064-2.68.251-2.411.518-4.318 2.379-5.058 4.708-.449 1.416-.281 4.119-.281 5.706l.001 5.46-.006 25.673V72.1c.001 1.398.069 2.832-.005 4.226-.016.294-.064.6-.226.852-.584.364-1.569.221-2.237.212-1.255-.068-2.457-.369-3.427-1.208a5.546 5.546 0 0 1-.351-.337 5.635 5.635 0 0 1-.315-.37 5.448 5.448 0 0 1-.277-.4 4.395 4.395 0 0 1-.236-.425 5.53 5.53 0 0 1-.192-.446 4.8 4.8 0 0 1-.203-.701 4.79 4.79 0 0 1-.097-.722c-.079-1.222-.027-2.474-.026-3.698l.002-6.664V41.487l-.014-14.592-.003-4.226c0-.89-.047-1.813.059-2.697.142-1.18.693-2.292 1.48-3.176.832-.935 1.974-1.641 3.208-1.889.697-.141 1.424-.153 2.133-.195l3.008-.182 10.684-.661 36.792-2.277Z" style="fill-rule:nonzero"/>
    <path d="M82.696 21.945c.039-.005.078-.009.117-.011 1.038-.063 2.088.266 2.866.969.821.742 1.191 1.738 1.233 2.827.05 1.279.003 2.572.002 3.852l-.001 7.447.001 22.882-.001 14.888.005 4.271c.005.883.059 1.8-.026 2.68-.077.794-.44 1.543-.979 2.125-.541.584-1.225 1.013-2.017 1.147-.728.123-1.502.122-2.241.166l-3.919.233-13.094.794-23.659 1.434-7.862.477c-1.537.093-3.076.208-4.615.262a4.176 4.176 0 0 1-.8-.093 4.382 4.382 0 0 1-.769-.239c-1.115-.461-1.951-1.34-2.411-2.448-.227-.547-.289-1.113-.309-1.702-.035-1.016-.008-2.043-.009-3.06v-5.751L24.207 57.7l.001-18.899.001-6.234c0-1.13-.026-2.266.007-3.395.011-.406.04-.94.204-1.312a4.46 4.46 0 0 1 .709-1.151 3.728 3.728 0 0 1 2.168-1.251c.686-.125 1.411-.132 2.107-.175l3.436-.211 11.193-.702 38.663-2.425Zm-3.812 13.866-32.891 1.975-9.814.589-3.123.184c-.578.035-1.177.038-1.748.133-.563.093-1.064.336-1.451.762-.31.34-.47.751-.506 1.206-.059.751-.026 1.52-.026 2.274l.002 3.856.001 12.265-.002 13.77v4.419c0 .813-.034 1.644.018 2.454.048.741.212 1.452.793 1.965.601.53 1.412.673 2.186.706l31.405-1.823 10.617-.619 3.129-.179c.693-.039 1.402-.054 2.09-.162.545-.085 1.09-.332 1.465-.746.436-.483.643-1.171.701-1.808.074-.818.039-1.66.039-2.481l-.002-3.943-.001-12.556.001-13.662.002-4.298c0-.78.042-1.585-.018-2.362-.047-.6-.201-1.083-.683-1.483-.617-.51-1.427-.521-2.184-.436Z"/>
    <path d="M71.293 42.099c.044.083.047.064.052.139.059.947-.003 1.936-.003 2.888l.003 6.069.03 18.721c1.642.263 3.295.478 4.941.718-.074.796-.209 1.564-.775 2.173-.401.432-1.003.701-1.577.814-.786.155-1.662.135-2.464.171l-4.199.19c-2.75.145-5.495.472-8.243.591l-.111-.407c-.089-.604-.086-1.219.201-1.776.178-.345.457-.624.788-.823.758-.454 3.064-1.059 4.045-1.383a469.637 469.637 0 0 1-.007-4.894l-.02-16.744c-1.065.275-2.225.547-3.325.329-.587-.117-1.141-.393-1.472-.91-.421-.658-.364-1.458-.208-2.186 1.767-.386 3.525-.933 5.259-1.444 2.373-.699 4.753-1.409 7.085-2.236Zm-24.58 2.307c1.597-.147 3.464.143 4.924.806 1.578.716 2.793 1.932 3.4 3.566.618 1.664.621 3.634-.127 5.255-1.011 2.188-2.951 3.423-5.14 4.221 1.498.111 2.96.384 4.29 1.113a6.138 6.138 0 0 1 2.991 3.77c.671 2.369.246 5.303-.953 7.439-1.46 2.604-4.066 4.174-6.882 4.957-3.33.927-8.133 1.194-11.187-.556-1.187-.681-2.144-1.706-2.495-3.052-.281-1.082-.159-2.28.418-3.245.575-.961 1.479-1.545 2.549-1.82a4.743 4.743 0 0 1 1.264-.089c.14 1.169.506 2.315 1.265 3.234.845 1.023 2.057 1.604 3.371 1.713 1.297.109 2.674-.204 3.673-1.072.808-.701 1.252-1.673 1.323-2.734.065-.987-.072-2.042-.753-2.805-1.417-1.588-4.825-1.488-6.816-1.584-.216-1.442-.481-2.879-.718-4.317 1.785-.362 3.871-.795 5.242-2.074.706-.66 1.073-1.519 1.1-2.481.034-1.191-.248-2.475-1.1-3.357-.63-.654-1.477-.975-2.377-.99-.838-.013-1.681.187-2.295.794-1.062 1.053-1.074 2.804-1.084 4.195-.213.059-.431.1-.652.122-.648.066-1.282-.103-1.785-.523-.734-.614-1.036-1.6-1.105-2.524-.128-1.726.437-3.352 1.571-4.656 2.031-2.335 5.122-3.1 8.088-3.306Z" style="fill-rule:nonzero"/>
  </g>
</svg>
