<svg xmlns="http://www.w3.org/2000/svg" xml:space="preserve" style="fill-rule:evenodd;clip-rule:evenodd;stroke-linejoin:round;stroke-miterlimit:2" viewBox="0 0 100 100">
  <g id="レイヤー1">
    <path d="m37.433.032 2.995-.014 24.188.026 7.439.018c3.948.012 8.019.032 11.863 1.043.223.058.446.119.667.185a19.41 19.41 0 0 1 1.314.433 20.976 20.976 0 0 1 3.732 1.807 20.631 20.631 0 0 1 1.156.762 22.149 22.149 0 0 1 1.102.837c.18.145.356.294.53.445a18.833 18.833 0 0 1 1.015.942c6.012 5.969 6.53 13.107 6.559 21.141l.006 32.213-.001 10.378c-.001 4.315.093 8.783-.893 13.01a21.359 21.359 0 0 1-1.423 4.183 20.325 20.325 0 0 1-1.032 1.957 19.92 19.92 0 0 1-.8 1.24 23.284 23.284 0 0 1-.885 1.181 19.692 19.692 0 0 1-.966 1.115c-.167.181-.337.358-.511.532-5.78 5.805-12.429 6.388-20.214 6.504-3.558.053-7.12.02-10.678.019l-25.444.001-8.286-.002c-4.078-.007-8.324.023-12.307-.957a22.52 22.52 0 0 1-1.353-.373 19.996 19.996 0 0 1-1.326-.462 21.542 21.542 0 0 1-1.923-.856 21.607 21.607 0 0 1-2.413-1.432 20.433 20.433 0 0 1-1.672-1.278 19.381 19.381 0 0 1-1.041-.942C.846 87.829.159 81.03.083 73.061L.013 40.99c-.028-4.076-.011-8.151.051-12.227.047-4.05-.001-8.185.945-12.148a20.178 20.178 0 0 1 .375-1.384 22.625 22.625 0 0 1 .469-1.356 22.514 22.514 0 0 1 .874-1.965 22.613 22.613 0 0 1 .693-1.256 19.23 19.23 0 0 1 .777-1.205 19.942 19.942 0 0 1 1.314-1.702 20.303 20.303 0 0 1 .971-1.056C12.498.579 19.713.089 27.839.063l9.594-.031Zm-19.229 81.14-.021.786c.024 1.03.008 2.076.753 2.89.697.714 1.508.887 2.46.95 1.634.108 6.294.206 7.704-.228.394-.121.778-.374 1.08-.652 1.087-.997.852-2.761.885-4.107l-.064.01c.056-.705.02-1.436.021-2.143l.002-3.801c.001-2.337.111-4.972-.022-7.278-.026-.435-.07-.955-.256-1.353a2.696 2.696 0 0 0-1.562-1.41 2.61 2.61 0 0 0-.815-.203c-1.375-.119-2.834-.019-4.218-.014-1.044.004-2.142-.078-3.179.007a3.463 3.463 0 0 0-1.009.228c-.65.261-1.211.762-1.486 1.413a3.561 3.561 0 0 0-.249 1.139c-.154 2.201-.039 4.486-.038 6.696.002 2.313-.094 4.78.014 7.07Zm64.026 2.049c.062-.433.054-.886.069-1.324-.091-1.207-.001-2.5-.001-3.715l.002-7.701.001-24.242.001-6.993c0-1.356.089-2.794-.094-4.135-.078-.581-.279-1.061-.694-1.483-1.051-1.069-2.497-1.035-3.89-1.046l-2.689-.002c-1.503.005-3.53-.156-4.673 1.019-.431.444-.654 1.038-.725 1.645-.162 1.386-.06 2.872-.059 4.27l.001 7.801.006 25.888c-.093 2.951-.004 5.914-.017 8.865-.005.984.021 2.079.779 2.819.375.365.96.666 1.47.792 1.113.274 5.298.187 6.582.144 1.223-.042 2.399-.092 3.296-1.041a2.197 2.197 0 0 0 .267-.338 2.491 2.491 0 0 0 .199-.382 2.447 2.447 0 0 0 .124-.412 2.195 2.195 0 0 0 .045-.429Zm-34.172-6.74c.04-1.935.003-3.879.003-5.816l-.001-11.412.003-6.209c.001-1.204.066-2.46-.071-3.657-.068-.592-.222-1.095-.622-1.557-.604-.699-1.47-.99-2.367-1.039-1.404-.076-6.273-.199-7.54.11a3.085 3.085 0 0 0-.712.276 3.1 3.1 0 0 0-.626.44c-.76.7-.843 1.578-.874 2.545-.161 1.129-.056 2.376-.055 3.521l.008 7.278c.002 1.21.09 2.484-.014 3.686l.023 12.629.003 3.844c.005.73-.028 1.505.088 2.226.094.591.297 1.155.738 1.576.384.367.989.667 1.512.778 1.324.279 5.219.178 6.684.112 1.143-.052 2.269-.12 3.107-1.014.277-.296.461-.631.566-1.021.213-.789.176-1.693.184-2.506.017-1.597-.071-3.219.022-4.811l-.059.021Zm17.119-58.586c-.022-.989-.065-1.931-.825-2.67-.421-.41-.997-.695-1.563-.844-1.296-.342-4.22-.251-5.638-.201-1.409.05-2.972.03-4.029 1.123-.452.466-.649 1.043-.71 1.68-.08.829-.053 1.68-.055 2.512l-.001 3.898.005 12.314.016 39.519c-.092 2.027.006 4.064-.023 6.092-.017 1.167-.127 2.624.749 3.538.883.921 2.144.933 3.325.969 1.491.045 5.356.184 6.67-.199a3.332 3.332 0 0 0 1.333-.777c.488-.48.639-1.062.713-1.719.146-1.286.084-2.624.084-3.917v-6.322l.012-21.568c-.093-2.811-.012-5.647-.012-8.461l.004-15.918.008-5.757c.002-1.075.086-2.23-.063-3.292Z"/>
  </g>
</svg>
