<svg xmlns="http://www.w3.org/2000/svg" xml:space="preserve" style="fill-rule:evenodd;clip-rule:evenodd;stroke-linejoin:round;stroke-miterlimit:2" viewBox="0 0 100 100">
  <path d="M.015 62.884V30.127c-.005-2.088.001-4.175.02-6.263.119-7.278.38-13.107 5.999-18.486 1.712-1.638 4.041-3.195 6.281-3.956C17.166-.225 23.818.05 28.957.047c3.032-.002 6.07-.047 9.101.009C46.729-.06 55.418.04 64.09.039l9.675.002c4.191.009 8.494-.082 12.59.945 2.754.69 5.623 2.431 7.652 4.412 5.276 5.151 5.869 10.302 5.941 17.321.028 3.983.035 7.966.02 11.95-.001 2.072.097 4.403-.019 6.442.122 1.922.011 3.907.013 5.837l.002 12.205.002 12.328c-.002 4.723.058 9.457-.801 14.121-.284 1.098-.581 2.187-1.043 3.227-1.528 3.439-4.411 6.542-7.649 8.441-2.413 1.415-5.023 2.101-7.789 2.372-5.428.482-10.913.338-16.358.338H43.147l-15.407-.003c-2.121.011-4.242-.018-6.362-.086-1.071-.034-2.204-.032-3.263-.196-1.807-.094-3.721-.411-5.438-.986-4.634-1.551-8.461-5.18-10.62-9.516-.469-.91-.772-1.895-1.076-2.869-1.02-4.478-.961-9.128-.964-13.699l-.002-9.741Zm26.579 14.884c.162.19.391.321 1.361 1.353 1.398 1.489 1.007 1.071 1.887 2.015.047.077.444.404 1.083 1.204.528.661 1.238 1.414 1.925 1.925.311.231.63.416.963.601.311.173.711.378 1.083.481.381.106.859.165 1.203.241.106.023 1.078.096 1.323.12.4 0 1.664.103 1.805.121.199-.012 1.238.101 1.444.12.28.005 1.389.101 1.564.12.236.026 1.273.103 1.444.121.24.004.968-.027 1.925.12 1.046.161 2.145.443 3.128.602.156.025 2.552.542 2.767.601 2.171.59 4.43 1.233 6.617 1.925.481.152.999.351 1.444.481.519.152 1.709.435 1.805.482.36.174 1.035.191 1.444.12.102-.018 1.356-.306 1.805-.481.051-.021 1.414-.763 1.684-.963.306-.227.727-.558.962-.842.117-.141.258-.341.361-.481a5.14 5.14 0 0 0 .602-1.083c.02-.052.291-.718.361-.963.064-.221.343-.978.361-1.082.04-.225.076-.989.12-.963.005-.384.069-.706.12-1.083.021-.154.331-1.575.482-2.166.029-.114.343-1.223.481-1.684.066-.22.646-1.746.722-1.925.379-.899.762-1.772 1.203-2.647 1.02-2.018 2.506-3.879 3.73-5.775.348-.539 1.452-2.308 1.684-2.647.204-.297 1.285-2.022 1.324-2.045.303-.62.731-1.225 1.083-1.805.156-.258.388-.695.481-.963.082-.238.106-.457.12-.721-.131-1.963-1.829-3.582-2.887-5.174a3.321 3.321 0 0 0-.482-.722c-3.153-4.739-5.55-9.617-6.015-15.4-.02-.239-.228-1.985-.241-2.647-.009-.448-.081-1.685-.12-2.527-.041-.862-.005-1.841-.121-2.647-.026-.701-.213-1.182-.481-1.804-.262-.609-.745-1.211-1.203-1.805-.883-1.145-.942-1.23-1.354-1.775-.409-.542-1.385-1.676-1.413-1.714-.265-.346-.814-1.045-.843-1.083-3.33-4.358-7.88-10.508-10.347-12.994-1.138-1.148-2.821-1.869-4.451-1.925-1.631-.056-3.013 1.141-4.211 2.165-.252.216-.97.877-1.083.963a7.684 7.684 0 0 0-.782.693c-.556.475-.921.901-1.489 1.386-.256.219-.647.559-1.045.904-2.057 1.787-3.502 3.193-5.618 5.048-2.115 1.855-3.454 3.277-5.775 5.173-2.321 1.898-2.211 5.361-2.739 8.21-.53 2.847-.769 6.616-1.442 9.507-.675 2.904-2.571 5.61-3.637 8.394-1.066 2.784-2.512 5.559-3.822 8.209-.106.213-.152.497-.241.722-.615 1.567-1.636 3.091-2.045 4.693a5.202 5.202 0 0 0 0 2.406c.116.457.285.887.579 1.437.028.051.223.338.417.595a23.735 23.735 0 0 0 2.252 2.54c.117.114.246.231.361.361a71.947 71.947 0 0 0 2.888 3.008c.255.253.315.339.962.962.845.814 1.775 1.669 2.527 2.407Z" style="fill:#080605"/>
</svg>
