<svg xmlns="http://www.w3.org/2000/svg" xml:space="preserve" style="fill-rule:evenodd;clip-rule:evenodd;stroke-linejoin:round;stroke-miterlimit:2" viewBox="0 0 100 100">
  <path d="M.879 16.676c.316-1.089.552-2.185.988-3.238 1.874-4.537 5.538-8.385 9.822-10.726C14.195 1.343 16.904.733 19.716.427c4.275-.465 8.636-.413 12.932-.414L47.194.011l17.595.001c4.416.001 8.856-.062 13.265.224 2.311.151 4.641.408 6.869 1.068 5.286 1.566 9.828 5.687 12.422 10.488 1.039 1.924 1.792 4.207 2.034 6.394.693 5.305.608 10.675.609 16.014l.002 17.428-.002 15.829c-.001 4.83.116 9.827-.654 14.608-.223 1.387-.543 2.763-1.043 4.078-1.442 3.797-4.252 7.237-7.534 9.601-2.652 1.91-5.501 3.079-8.727 3.598-4.933.794-10.099.647-15.082.648l-16.985.002-17.032-.002c-4.933-.001-10.216.136-15.085-.667-5.589-.922-10.365-4.052-13.644-8.645-1.879-2.632-3.023-5.437-3.537-8.633-.752-4.669-.651-9.549-.652-14.267L.011 52.677l.001-18.024c.001-6.009-.12-12.031.867-17.977Zm12.014 48.827a18.2 18.2 0 0 0 .58.793 18.32 18.32 0 0 0 .617.763 18.997 18.997 0 0 0 .654.733 22.628 22.628 0 0 0 .689.699 22.603 22.603 0 0 0 .722.665c.123.108.248.215.374.319a16.048 16.048 0 0 0 .769.611 19.264 19.264 0 0 0 1.623 1.104 19.683 19.683 0 0 0 3.53 1.709 18.07 18.07 0 0 0 1.399.459 23.531 23.531 0 0 0 .95.248 20.476 20.476 0 0 0 .961.201c1.897.351 3.785.336 5.706.336h4.96l16.664-.001H67.49l4.22.002c1.312 0 2.624.022 3.927-.157.318-.043.635-.096.95-.159a16.95 16.95 0 0 0 1.862-.485 17.167 17.167 0 0 0 1.792-.702 16.859 16.859 0 0 0 1.697-.908c.274-.168.542-.344.806-.528 1.988-1.381 4.009-3.456 5.054-5.665 1.005-1.881 1.626-3.815 1.867-5.922.496-4.344-.687-8.497-3.431-11.963a21.27 21.27 0 0 0-.477-.575 16.508 16.508 0 0 0-1.031-1.082 21.622 21.622 0 0 0-.551-.505 16.515 16.515 0 0 0-3.732-2.462c-.112-.054-.225-.106-.338-.158a20.92 20.92 0 0 0-.688-.292 20.968 20.968 0 0 0-.349-.135 20.988 20.988 0 0 0-.706-.245 16.225 16.225 0 0 0-.357-.11c-.12-.035-.239-.07-.36-.102a14.702 14.702 0 0 0-.725-.18 11.27 11.27 0 0 0-.365-.078c-.123-.025-.245-.047-.368-.07-.525-.095-1.071-.123-1.602-.187l-.086-.084c-1.64-5.794-4.952-10.767-9.906-14.249a25.669 25.669 0 0 0-2.638-1.62 28.605 28.605 0 0 0-.55-.285 28.561 28.561 0 0 0-1.121-.527 28.671 28.671 0 0 0-1.146-.472 23.787 23.787 0 0 0-2.353-.771 25.111 25.111 0 0 0-1.809-.425 25.917 25.917 0 0 0-2.451-.356 25.64 25.64 0 0 0-2.474-.113 25.638 25.638 0 0 0-2.474.131 25.722 25.722 0 0 0-1.84.258c-7.02 1.235-12.555 5.144-16.598 10.926-1.152.101-2.259.134-3.404.344a21.324 21.324 0 0 0-1.271.277 21.73 21.73 0 0 0-1.251.359 19.9 19.9 0 0 0-.82.284c-.135.051-.271.102-.405.155-.134.054-.268.108-.402.164-.133.057-.266.114-.398.173A19.935 19.935 0 0 0 17.8 37.57c-.118.084-.236.168-.352.254-.116.086-.232.173-.346.262-.115.088-.228.178-.341.268-.112.091-.224.183-.334.277a17.543 17.543 0 0 0-.651.573 17.85 17.85 0 0 0-.626.601 22.22 22.22 0 0 0-.888.951c-.095.109-.189.219-.282.33-3.494 4.168-5.059 9.433-4.622 14.829.476 3.523 1.478 6.647 3.535 9.588Z"/>
</svg>
