<svg xmlns="http://www.w3.org/2000/svg" xml:space="preserve" style="fill-rule:evenodd;clip-rule:evenodd;stroke-linejoin:round;stroke-miterlimit:2" viewBox="0 0 100 100">
  <g>
    <path d="M44.355 18.141c2.793 8.38-.059 16.838-6.368 18.908-6.309 2.071-13.693-3.047-16.486-11.427-2.794-8.38.058-16.838 6.368-18.908 6.309-2.071 13.693 3.047 16.486 11.427ZM19.723 38.788c3.692 6.329 2.793 13.693-1.992 16.427-4.786 2.735-11.662-.175-15.334-6.504-3.672-6.329-2.813-13.693 1.973-16.428 4.786-2.735 11.661.176 15.334 6.505h.019Zm-6.094 39.575C23.864 50.762 42.05 43.749 50.117 43.749c8.068 0 26.253 7.013 36.489 34.614.703 1.894 1.016 3.926 1.016 5.957v.313a9.12 9.12 0 0 1-9.122 9.122c-2.247 0-4.474-.273-6.642-.82l-17.189-4.298a18.891 18.891 0 0 0-9.103 0l-17.189 4.298c-2.169.547-4.396.82-6.642.82a9.12 9.12 0 0 1-9.122-9.122v-.313c0-2.031.313-4.063 1.016-5.957Zm68.875-23.148c-4.786-2.734-5.684-10.098-1.993-16.427 3.692-6.329 10.549-9.24 15.334-6.505 4.786 2.735 5.685 10.099 1.993 16.428-3.692 6.329-10.548 9.239-15.334 6.504ZM60.685 37.049c-6.309-2.07-9.161-10.528-6.368-18.908C57.11 9.761 64.494 4.643 70.803 6.714c6.31 2.07 9.162 10.528 6.368 18.908-2.793 8.38-10.177 13.498-16.486 11.427Z" style="fill-rule:nonzero"/>
  </g>
</svg>
