<svg xmlns="http://www.w3.org/2000/svg" xml:space="preserve" style="fill-rule:evenodd;clip-rule:evenodd;stroke-linejoin:round;stroke-miterlimit:2" viewBox="0 0 100 100">
  <g id="レイヤー1">
    <path d="m37.433.032 2.995-.014 24.188.026 7.439.018c3.948.012 8.019.032 11.863 1.043.223.058.446.119.667.185a19.41 19.41 0 0 1 1.314.433 20.976 20.976 0 0 1 3.732 1.807 20.631 20.631 0 0 1 1.156.762 22.149 22.149 0 0 1 1.102.837c.18.145.356.294.53.445a18.833 18.833 0 0 1 1.015.942c6.012 5.969 6.53 13.107 6.559 21.141l.006 32.213-.001 10.378c-.001 4.315.093 8.783-.893 13.01a21.359 21.359 0 0 1-1.423 4.183 20.325 20.325 0 0 1-1.032 1.957 19.92 19.92 0 0 1-.8 1.24 23.284 23.284 0 0 1-.885 1.181 19.692 19.692 0 0 1-.966 1.115c-.167.181-.337.358-.511.532-5.78 5.805-12.429 6.388-20.214 6.504-3.558.053-7.12.02-10.678.019l-25.444.001-8.286-.002c-4.078-.007-8.324.023-12.307-.957a22.52 22.52 0 0 1-1.353-.373 19.996 19.996 0 0 1-1.326-.462 21.542 21.542 0 0 1-1.923-.856 21.607 21.607 0 0 1-2.413-1.432 20.433 20.433 0 0 1-1.672-1.278 19.381 19.381 0 0 1-1.041-.942C.846 87.829.159 81.03.083 73.061L.013 40.99c-.028-4.076-.011-8.151.051-12.227.047-4.05-.001-8.185.945-12.148a20.178 20.178 0 0 1 .375-1.384 22.625 22.625 0 0 1 .469-1.356 22.514 22.514 0 0 1 .874-1.965 22.613 22.613 0 0 1 .693-1.256 19.23 19.23 0 0 1 .777-1.205 19.942 19.942 0 0 1 1.314-1.702 20.303 20.303 0 0 1 .971-1.056C12.498.579 19.713.089 27.839.063l9.594-.031Zm-13.138 39.26c-5.578.351-9.999 4.992-9.999 10.658 0 5.651 4.399 10.283 9.956 10.655.149-.169.304-.335.466-.496l8.839-8.839c.478-.478.989-.901 1.527-1.27a10.785 10.785 0 0 1-1.527-1.27l-8.839-8.839.071-.071a11.11 11.11 0 0 1-.494-.528Zm-.043 21.313c-3.695 4.192-3.54 10.6.466 14.606 3.996 3.996 10.381 4.161 14.574.494a10.931 10.931 0 0 1-.021-.68v-12.5c0-.676.062-1.337.182-1.978a10.74 10.74 0 0 1-1.978.182h-12.5v-.1c-.243 0-.484-.008-.723-.024Zm15.04 15.1c.351 5.578 4.992 9.999 10.658 9.999 5.651 0 10.283-4.399 10.655-9.956a10.328 10.328 0 0 1-.496-.466l-8.839-8.839A10.785 10.785 0 0 1 50 64.916a10.785 10.785 0 0 1-1.27 1.527l-8.839 8.839-.071-.071a11.11 11.11 0 0 1-.528.494Zm21.313.043c4.192 3.695 10.6 3.54 14.606-.466 3.996-3.996 4.161-10.381.494-14.574-.225.014-.451.021-.68.021h-12.5a10.74 10.74 0 0 1-1.978-.182c.12.641.182 1.302.182 1.978v12.5h-.1c0 .243-.008.484-.024.723Zm15.1-15.04c5.578-.351 9.999-4.992 9.999-10.658 0-5.651-4.399-10.283-9.956-10.655-.149.169-.304.335-.466.496l-8.839 8.839c-.478.478-.989.901-1.527 1.27.538.369 1.049.792 1.527 1.27l8.839 8.839-.071.071c.172.172.336.348.494.528Zm.043-21.313c3.695-4.192 3.54-10.6-.466-14.606-3.996-3.996-10.381-4.161-14.574-.494.014.225.021.451.021.68v12.5c0 .676-.062 1.337-.182 1.978a10.74 10.74 0 0 1 1.978-.182h12.5v.1c.243 0 .484.008.723.024Zm-15.04-15.1c-.351-5.578-4.992-9.999-10.658-9.999-5.651 0-10.283 4.399-10.655 9.956.169.149.335.304.496.466l8.839 8.839c.478.478.901.989 1.27 1.527.369-.538.792-1.049 1.27-1.527l8.839-8.839.071.071c.172-.172.348-.336.528-.494Zm-21.313-.043c-4.192-3.695-10.6-3.54-14.606.466-3.996 3.996-4.161 10.381-.494 14.574.225-.014.451-.021.68-.021h12.5c.676 0 1.337.062 1.978.182a10.74 10.74 0 0 1-.182-1.978v-12.5h.1c0-.243.008-.484.024-.723ZM35.084 50a10.749 10.749 0 0 0 12.118 0 10.749 10.749 0 0 0-12.118 0Zm12.118 0c.336.23.662.482.976.755a11.11 11.11 0 0 0 0-1.51 10.7 10.7 0 0 1-.976.755Zm.976.755c-.029.414-.081.823-.156 1.223.4-.075.809-.127 1.223-.156a10.653 10.653 0 0 0-1.067-1.067Zm-.156 1.223a10.75 10.75 0 0 0-8.569 8.569 10.75 10.75 0 0 0 8.569-8.569Zm-8.569-12.525a10.75 10.75 0 0 0 8.569 8.569 10.75 10.75 0 0 0-8.569-8.569Zm8.569 8.569c.075.4.127.809.156 1.223a10.653 10.653 0 0 0 1.067-1.067 10.698 10.698 0 0 1-1.223-.156Zm1.223 3.8c.273.314.525.64.755.976a10.7 10.7 0 0 1 .755-.976 11.11 11.11 0 0 0-1.51 0Zm.755.976a10.749 10.749 0 0 0 0 12.118 10.749 10.749 0 0 0 0-12.118Zm.755-.976c.414.029.823.081 1.223.156-.075-.4-.127-.809-.156-1.223a10.653 10.653 0 0 0-1.067 1.067Zm1.223.156a10.75 10.75 0 0 0 8.569 8.569 10.75 10.75 0 0 0-8.569-8.569Zm-.156-1.223a10.7 10.7 0 0 1 .976-.755 10.7 10.7 0 0 1-.976-.755 11.11 11.11 0 0 0 0 1.51Zm.976-.755a10.749 10.749 0 0 0 12.118 0 10.749 10.749 0 0 0-12.118 0Zm-.976-.755c.029-.414.081-.823.156-1.223-.4.075-.809.127-1.223.156a10.653 10.653 0 0 0 1.067 1.067Zm.156-1.223a10.75 10.75 0 0 0 8.569-8.569 10.75 10.75 0 0 0-8.569 8.569Zm-1.223.156a10.7 10.7 0 0 1-.755-.976 10.7 10.7 0 0 1-.755.976 11.11 11.11 0 0 0 1.51 0ZM50 47.202a10.749 10.749 0 0 0 0-12.118 10.749 10.749 0 0 0 0 12.118Z"/>
    <path d="M60.547 60.547c.12.641.182 1.302.182 1.978v12.5h-.1c0 .243-.008.484-.024.723a10.328 10.328 0 0 1-.496-.466l-8.839-8.839A10.785 10.785 0 0 1 50 64.916a10.749 10.749 0 0 0 0-12.118 10.7 10.7 0 0 1 .755-.976c.414.029.823.081 1.223.156a10.75 10.75 0 0 0 8.569 8.569Z" style="fill-opacity:.7"/>
    <path d="M64.916 50c.538.369 1.049.792 1.527 1.27l8.839 8.839-.071.071c.172.172.336.348.494.528-.225.014-.451.021-.68.021h-12.5a10.74 10.74 0 0 1-1.978-.182 10.75 10.75 0 0 0-8.569-8.569c-.075-.4-.127-.809-.156-1.223a10.7 10.7 0 0 1 .976-.755 10.749 10.749 0 0 0 12.118 0Z" style="fill-opacity:.7"/>
    <path d="M60.547 39.453a10.74 10.74 0 0 1 1.978-.182h12.5v.1c.243 0 .484.008.723.024-.149.169-.304.335-.466.496l-8.839 8.839c-.478.478-.989.901-1.527 1.27a10.749 10.749 0 0 0-12.118 0 10.7 10.7 0 0 1-.976-.755c.029-.414.081-.823.156-1.223a10.75 10.75 0 0 0 8.569-8.569Z" style="fill-opacity:.7"/>
    <path d="M50 35.084c.369-.538.792-1.049 1.27-1.527l8.839-8.839.071.071c.172-.172.348-.336.528-.494.014.225.021.451.021.68v12.5c0 .676-.062 1.337-.182 1.978a10.75 10.75 0 0 0-8.569 8.569c-.4.075-.809.127-1.223.156a10.7 10.7 0 0 1-.755-.976 10.749 10.749 0 0 0 0-12.118Z" style="fill-opacity:.7"/>
    <path d="M39.453 39.453a10.74 10.74 0 0 1-.182-1.978v-12.5h.1c0-.243.008-.484.024-.723.169.149.335.304.496.466l8.839 8.839c.478.478.901.989 1.27 1.527a10.749 10.749 0 0 0 0 12.118 10.7 10.7 0 0 1-.755.976 10.698 10.698 0 0 1-1.223-.156 10.75 10.75 0 0 0-8.569-8.569Z" style="fill-opacity:.7"/>
    <path d="M35.084 50a10.785 10.785 0 0 1-1.527-1.27l-8.839-8.839.071-.071a11.11 11.11 0 0 1-.494-.528c.225-.014.451-.021.68-.021h12.5c.676 0 1.337.062 1.978.182a10.75 10.75 0 0 0 8.569 8.569c.075.4.127.809.156 1.223a10.7 10.7 0 0 1-.976.755 10.749 10.749 0 0 0-12.118 0ZM50 64.916a10.785 10.785 0 0 1-1.27 1.527l-8.839 8.839-.071-.071a11.11 11.11 0 0 1-.528.494 10.931 10.931 0 0 1-.021-.68v-12.5c0-.676.062-1.337.182-1.978a10.75 10.75 0 0 0 8.569-8.569c.4-.075.809-.127 1.223-.156.273.314.525.64.755.976a10.749 10.749 0 0 0 0 12.118Z" style="fill-opacity:.7"/>
    <path d="M24.252 60.605c.149-.169.304-.335.466-.496l8.839-8.839c.478-.478.989-.901 1.527-1.27a10.749 10.749 0 0 0 12.118 0c.336.23.662.482.976.755-.029.414-.081.823-.156 1.223a10.75 10.75 0 0 0-8.569 8.569 10.74 10.74 0 0 1-1.978.182h-12.5v-.1c-.243 0-.484-.008-.723-.024Z" style="fill-opacity:.7"/>
  </g>
</svg>
