<svg xmlns="http://www.w3.org/2000/svg" xml:space="preserve" style="fill-rule:evenodd;clip-rule:evenodd;stroke-linejoin:round;stroke-miterlimit:2" viewBox="0 0 100 100">
  <g id="レイヤー1">
    <path d="m37.433.032 2.995-.014 24.188.026 7.439.018c3.948.012 8.019.032 11.863 1.043.223.058.446.119.667.185a19.41 19.41 0 0 1 1.314.433 20.976 20.976 0 0 1 3.732 1.807 20.631 20.631 0 0 1 1.156.762 22.149 22.149 0 0 1 1.102.837c.18.145.356.294.53.445a18.833 18.833 0 0 1 1.015.942c6.012 5.969 6.53 13.107 6.559 21.141l.006 32.213-.001 10.378c-.001 4.315.093 8.783-.893 13.01a21.359 21.359 0 0 1-1.423 4.183 20.325 20.325 0 0 1-1.032 1.957 19.92 19.92 0 0 1-.8 1.24 23.284 23.284 0 0 1-.885 1.181 19.692 19.692 0 0 1-.966 1.115c-.167.181-.337.358-.511.532-5.78 5.805-12.429 6.388-20.214 6.504-3.558.053-7.12.02-10.678.019l-25.444.001-8.286-.002c-4.078-.007-8.324.023-12.307-.957a22.52 22.52 0 0 1-1.353-.373 19.996 19.996 0 0 1-1.326-.462 21.542 21.542 0 0 1-1.923-.856 21.607 21.607 0 0 1-2.413-1.432 20.433 20.433 0 0 1-1.672-1.278 19.381 19.381 0 0 1-1.041-.942C.846 87.829.159 81.03.083 73.061L.013 40.99c-.028-4.076-.011-8.151.051-12.227.047-4.05-.001-8.185.945-12.148a20.178 20.178 0 0 1 .375-1.384 22.625 22.625 0 0 1 .469-1.356 22.514 22.514 0 0 1 .874-1.965 22.613 22.613 0 0 1 .693-1.256 19.23 19.23 0 0 1 .777-1.205 19.942 19.942 0 0 1 1.314-1.702 20.303 20.303 0 0 1 .971-1.056C12.498.579 19.713.089 27.839.063l9.594-.031Zm43.272 19.665-44.271 5.585-15.986 2.017-5.11.647c-.945.12-1.902.277-2.852.344l3.537 30.099 1.604 13.63c.274 2.323.495 4.668.829 6.982 4.328-.597 8.677-1.085 13.013-1.625l3.746-.468c.626-.078 1.282-.123 1.898-.249.678-.867 1.293-1.639 2.159-2.33-1.627.284-3.277.481-4.913.713l-9.702 1.368c-1.424.201-2.858.371-4.277.596l-.446-4.233c-.088-.803-.263-1.684-.22-2.491.032-.597.174-1.214.282-1.801.228-1.247.483-2.488.766-3.723 1.495-6.513 3.641-13.312 7.195-19.01.728-1.167 1.538-2.25 2.379-3.335-2.836.537-6.406 3.589-8.753 5.306-.058.042-.024.033-.105.01-.128-.506.168-1.345.284-1.854-.742.813-1.079 1.696-1.288 2.763-1.178 1.041-2.277 2.064-3.205 3.344a461.975 461.975 0 0 1-.884-7.784c3.932-1.971 8.678-4.191 13.086-4.651a48.902 48.902 0 0 0-5.994-2.597c-1.073-.392-2.431-.754-3.43-1.211.402-.319.859-.549 1.261-.86l-.078.007c-.67.064-1.305.353-1.97.403-.634.047-3.298-.828-4.141-1.019-.206-1.436-.394-2.878-.636-4.308.955-.121 1.923-.291 2.883-.355 1.04.451 2.041 1.066 3.043 1.604a495.29 495.29 0 0 0 5.946 3.136c1.289.664 2.587 1.374 3.94 1.9-.582-2.028-1.72-3.988-2.724-5.836-.316-.581-.671-1.163-.945-1.764 2.084-.255 4.192-.453 6.265-.783.339 1.783.586 3.604.842 5.401.167 1.172.407 2.41.407 3.592 2.397-3.22 4.326-6.773 6.568-10.097l7.962-1.016.188-.003c-.006.143-.149.259-.252.355L37.228 36.741c5.189-2.056 16.353-6.13 21.673-3.846 1.466.629 3.972 3.318 4.769 4.699-2.198-.533-4.415-1.325-6.683-1.48 1.27.52 2.417 1.198 3.519 2.012l-3.48.02c-.661.003-1.425.085-2.066-.056-.925-.203-2.105-.782-3.014-1.138.378.677.728 1.361 1.331 1.869-3.052.004-6.099.011-9.149.148-1.779.08-3.656.137-5.392.56-.494.121-.978.281-1.386.594l.064.04c1.055.653 2.268 1.145 3.389 1.684 3.551 1.709 10.259 4.838 12.618 7.874a4.46 4.46 0 0 1 .821 1.696c.319 1.298.649 3.26-.073 4.447-.433-1.154-1.145-2.132-1.882-3.108.084.459.306 1.246.112 1.677l-.058.032c-.325-.232-1.366-1.165-1.56-1.499-.16-.275-.239-.602-.322-.907-.242-.892-.493-1.677-1.157-2.352.099 1.077.231 2.093.667 3.096a327.15 327.15 0 0 0-7.532-5.948c-1.76-1.347-3.564-2.801-5.528-3.835 2.251 3.806 6.352 11.597 5.165 16.134-.116.44-.288.888-.54 1.269-.587.887-2.489 2.584-3.358 3.367l.008-3.929c.629-.922.969-1.794 1.238-2.874-.255.371-.704 1.117-1.151 1.266l-.072-.022c-.15-.576-.059-1.466-.201-2.156a13.765 13.765 0 0 0-.462-1.667c-.118-.342-.303-.719-.355-1.074-.039-.262.046-.536.173-.763.617-1.108 1.438-1.196 1.482-2.736a24.654 24.654 0 0 1-2.197 2.406c-.202-.841-.337-1.697-.549-2.535a17.262 17.262 0 0 0-.693-2.123 17.178 17.178 0 0 0-.605-1.361 17.986 17.986 0 0 0-1.113-1.936c-.967 1.365-1.871 2.738-2.635 4.229-3.325 6.489-4.073 14.02-4.091 21.214l22.348-.002c1.055-1.152 2.031-2.395 3.035-3.591a534.556 534.556 0 0 1 5.23-6.126c2.008-2.308 4.021-4.631 6.14-6.838 1.923-2.002 3.968-3.913 6.017-5.783 4.201-3.835 8.579-7.493 13.373-10.568-.599-4.107-1.084-8.238-1.62-12.355l-.395-3.067c-.068-.539-.089-1.144-.246-1.661-.089-.054-.045-.045-.13-.041ZM54.306 66.138c-2.081 2.611-4.15 5.263-6.33 7.791 1.621.895 2.824 2.094 3.782 3.674l.853-.688c2.286-1.869 4.536-3.792 6.846-5.63-.181-.48-.374-.932-.654-1.364-.808-1.245-2.585-2.967-3.938-3.579-.175-.078-.37-.17-.559-.204Zm-10.919 8.245c-1.827.237-3.228.998-4.361 2.462a14.845 14.845 0 0 0-1.75 2.814c-.944 2.023-1.442 4.543-4.073 4.907-.801.11-1.545-.06-2.305-.296.58 1.322 1.524 2.015 2.85 2.533.202.077.406.149.612.214-.709.002-1.414-.077-2.116-.161 1.268 1.31 2.951 2.348 4.722 2.82 3.02.878 6.113.36 8.852-1.15 2.307-1.272 4.531-3.5 5.271-6.088.425-1.487.255-3.003-.511-4.352a7.53 7.53 0 0 0-.837-1.185 7.778 7.778 0 0 0-.773-.767 6.842 6.842 0 0 0-.574-.444 6.911 6.911 0 0 0-.937-.555 6.955 6.955 0 0 0-1.357-.513c-.854-.228-1.829-.341-2.713-.239Zm41.205-25.865c-.764.968-1.541 1.925-2.329 2.872a142.874 142.874 0 0 1-4.871 5.563 146.478 146.478 0 0 1-10.556 10.349c-.923.817-1.856 1.622-2.799 2.415 1.779.015 3.559.018 5.338.009.916-.001 1.859-.043 2.772.035-.841.154-1.701.238-2.548.353l-4.651.634c-.772.106-1.72.12-2.454.369-.185.063-.38.274-.527.401-.912.802-1.83 1.597-2.754 2.384 2.548-.281 5.092-.623 7.636-.94l13.165-1.643c2.485-.311 4.969-.666 7.46-.921l-2.072-15.845-.522-4.059c-.081-.628-.096-1.379-.288-1.976Zm4.83-13.494c-1.908.282-4.098 1.772-5.683 2.841-2.583 1.742-5.033 3.695-7.413 5.704-5.083 4.291-9.787 8.948-14.353 13.781a210.944 210.944 0 0 0-4.583 4.967c-.783.88-1.582 1.763-2.308 2.692 1.603.695 2.673 1.712 3.852 2.969.723.794 1.215 1.688 1.718 2.626 3.313-2.698 6.407-5.654 9.477-8.621 6.31-6.098 12.496-12.539 17.492-19.783 1.02-1.48 2.839-4.166 3.014-5.922.033-.332.032-.716-.194-.987-.177-.211-.424-.271-.688-.281a2.147 2.147 0 0 0-.331.014Z"/>
  </g>
</svg>
