<svg xmlns="http://www.w3.org/2000/svg" xml:space="preserve" style="fill-rule:evenodd;clip-rule:evenodd;stroke-linejoin:round;stroke-miterlimit:2" viewBox="0 0 100 100">
  <g id="レイヤー1">
    <path d="m37.433.032 2.995-.014 24.188.026 7.439.018c3.948.012 8.019.032 11.863 1.043.223.058.446.119.667.185a19.41 19.41 0 0 1 1.314.433 20.976 20.976 0 0 1 3.732 1.807 20.631 20.631 0 0 1 1.156.762 22.149 22.149 0 0 1 1.102.837c.18.145.356.294.53.445a18.833 18.833 0 0 1 1.015.942c6.012 5.969 6.53 13.107 6.559 21.141l.006 32.213-.001 10.378c-.001 4.315.093 8.783-.893 13.01a21.359 21.359 0 0 1-1.423 4.183 20.325 20.325 0 0 1-1.032 1.957 19.92 19.92 0 0 1-.8 1.24 23.284 23.284 0 0 1-.885 1.181 19.692 19.692 0 0 1-.966 1.115c-.167.181-.337.358-.511.532-5.78 5.805-12.429 6.388-20.214 6.504-3.558.053-7.12.02-10.678.019l-25.444.001-8.286-.002c-4.078-.007-8.324.023-12.307-.957a22.52 22.52 0 0 1-1.353-.373 19.996 19.996 0 0 1-1.326-.462 21.542 21.542 0 0 1-1.923-.856 21.607 21.607 0 0 1-2.413-1.432 20.433 20.433 0 0 1-1.672-1.278 19.381 19.381 0 0 1-1.041-.942C.846 87.829.159 81.03.083 73.061L.013 40.99c-.028-4.076-.011-8.151.051-12.227.047-4.05-.001-8.185.945-12.148a20.178 20.178 0 0 1 .375-1.384 22.625 22.625 0 0 1 .469-1.356 22.514 22.514 0 0 1 .874-1.965 22.613 22.613 0 0 1 .693-1.256 19.23 19.23 0 0 1 .777-1.205 19.942 19.942 0 0 1 1.314-1.702 20.303 20.303 0 0 1 .971-1.056C12.498.579 19.713.089 27.839.063l9.594-.031Zm5.855 47.89a7.935 7.935 0 0 0 2.263 2.204 8.236 8.236 0 0 0 1.822.885 7.531 7.531 0 0 0 .781.223 7.763 7.763 0 0 0 .799.144c.134.017.269.031.404.042a9.15 9.15 0 0 0 .811.023 7.876 7.876 0 0 0 .81-.058c.134-.016.268-.036.402-.059 2.272-.386 4.083-1.65 5.406-3.506.931-1.443 1.556-3.234 1.184-4.962-.456-2.12-1.974-4.295-3.806-5.45a6.869 6.869 0 0 0-.672-.377 7.376 7.376 0 0 0-.706-.309 7.808 7.808 0 0 0-2.251-.49 8.303 8.303 0 0 0-.771-.014 8.276 8.276 0 0 0-.768.063 8.154 8.154 0 0 0-.758.138c-2.174.498-3.878 1.89-5.041 3.764-.992 1.599-1.542 3.234-1.103 5.103a7.431 7.431 0 0 0 .47 1.376 7.431 7.431 0 0 0 .724 1.26Zm-24.006-2.788c.094-4.906 1.68-9.651 3.947-13.95 2.243-3.846 5.1-7.154 8.698-9.793a33.83 33.83 0 0 1 1.234-.86 32.32 32.32 0 0 1 1.274-.798 32.39 32.39 0 0 1 1.313-.735 28.06 28.06 0 0 1 2.032-.979 32.602 32.602 0 0 1 1.392-.568 31.502 31.502 0 0 1 2.137-.722 31.142 31.142 0 0 1 3.661-.847 30.98 30.98 0 0 1 2.987-.35 31.462 31.462 0 0 1 3.006-.054 31.197 31.197 0 0 1 3.742.348 29.37 29.37 0 0 1 1.977.374 29.444 29.444 0 0 1 1.303.322 29.535 29.535 0 0 1 1.924.588 33.864 33.864 0 0 1 1.26.462 31.06 31.06 0 0 1 5.371 2.74 33.945 33.945 0 0 1 1.658 1.142 30.062 30.062 0 0 1 3.073 2.596 30.296 30.296 0 0 1 1.848 1.945c1.147 1.314 1.978 2.634 2.998 4.029a89.001 89.001 0 0 1 1.772 3.292c.538 1.363 1.114 2.687 1.536 4.094 1.695 5.654 1.858 12.11.381 17.829-.303 1.177-.734 2.313-1.143 3.456a29.025 29.025 0 0 1-.732 1.631 26.49 26.49 0 0 1-.54 1.063 26.46 26.46 0 0 1-.58 1.041 32.933 32.933 0 0 1-1.28 2.011 28.342 28.342 0 0 1-.697.967 32.955 32.955 0 0 1-.734.94c-.125.154-.252.307-.38.459-.129.151-.258.302-.389.451a27.967 27.967 0 0 1-1.219 1.308 27.885 27.885 0 0 1-.854.832 27.99 27.99 0 0 1-.885.799 33.055 33.055 0 0 1-1.384 1.132 28.2 28.2 0 0 1-.476.359 28.277 28.277 0 0 1-1.467 1.022 32.89 32.89 0 0 1-.502.322 27.72 27.72 0 0 1-1.964 1.135c-.749.391-1.814.74-2.411 1.338a2.018 2.018 0 0 0-.397.563c-.242.509-.805 2.45-.662 2.993.041.154.093.186.218.26.194.015.324-.02.507-.08a33.664 33.664 0 0 0 2.555-1.033 42.098 42.098 0 0 0 1.213-.574 37.388 37.388 0 0 0 1.776-.948c.194-.11.387-.223.579-.338a25.8 25.8 0 0 0 .574-.349 36.081 36.081 0 0 0 4.325-3.171 35.398 35.398 0 0 0 2.439-2.302 35.345 35.345 0 0 0 2.21-2.523 35.595 35.595 0 0 0 1.588-2.162c.672-1.001 1.394-2.051 1.891-3.152.509-.814.91-1.735 1.29-2.615a33.415 33.415 0 0 0 1.196-3.178 33.06 33.06 0 0 0 .871-3.283 33.985 33.985 0 0 0 .731-6.744c0-.731.072-1.601-.095-2.313-.085-.358-.19-.716-.24-1.081-.161-1.165-.123-2.394-.425-3.535-.509-1.92-1.082-3.836-1.831-5.677a41.068 41.068 0 0 0-.555-1.304 37.505 37.505 0 0 0-1.262-2.537 37.486 37.486 0 0 0-1.076-1.833 33.497 33.497 0 0 0-1.184-1.765 33.409 33.409 0 0 0-.846-1.137 39.672 39.672 0 0 0-1.353-1.639 33.63 33.63 0 0 0-1.447-1.557 39.443 39.443 0 0 0-1.015-.988 38.915 38.915 0 0 0-1.054-.948 39.613 39.613 0 0 0-1.09-.905 39.788 39.788 0 0 0-1.126-.861 33.591 33.591 0 0 0-6.886-3.918 36.061 36.061 0 0 0-1.582-.626 34.807 34.807 0 0 0-5.74-1.568 34.146 34.146 0 0 0-1.681-.264 34.24 34.24 0 0 0-5.094-.297c-.283.005-.567.013-.85.024a34.627 34.627 0 0 0-6.733.936c-.279.068-.556.139-.833.213a38.936 38.936 0 0 0-1.648.488c-.273.088-.544.18-.814.275a32.344 32.344 0 0 0-2.4.941c-.263.114-.524.232-.784.353a32.342 32.342 0 0 0-1.54.762 34.333 34.333 0 0 0-1.501.837 38.803 38.803 0 0 0-1.459.91 37.055 37.055 0 0 0-2.099 1.496 34.305 34.305 0 0 0-1.984 1.647 38.459 38.459 0 0 0-1.252 1.176 34.913 34.913 0 0 0-3.392 3.879 34.164 34.164 0 0 0-1.473 2.115c-.155.241-.307.484-.456.729-2.882 4.709-4.882 10.311-5.288 15.841-.237 3.236.112 6.601.875 9.749.148.606.311 1.208.49 1.806a35.121 35.121 0 0 0 2.039 5.224c.207.424.411.92.697 1.29.483 1.145 1.293 2.27 1.995 3.29a37.725 37.725 0 0 0 .745 1.037 39.88 39.88 0 0 0 .782 1.009 39.442 39.442 0 0 0 .818.981 38.103 38.103 0 0 0 1.292 1.413 32.108 32.108 0 0 0 .903.903 38.272 38.272 0 0 0 .935.869 38.102 38.102 0 0 0 .966.835c.164.137.329.271.494.405a32.286 32.286 0 0 0 1.01.781 37.697 37.697 0 0 0 1.037.745 37.722 37.722 0 0 0 1.605 1.045 37.71 37.71 0 0 0 1.1.648 30.435 30.435 0 0 0 1.123.608 33.72 33.72 0 0 0 1.724.834 30.381 30.381 0 0 0 1.173.504c.498.202 1 .393 1.505.574l.063.021c.196.055.269.014.434-.084a.729.729 0 0 0 .119-.413c.009-.639-.453-2.748-.872-3.24-.476-.558-2.036-1.134-2.751-1.526a33.12 33.12 0 0 1-2.058-1.227 32.062 32.062 0 0 1-6.135-5.178 33.032 33.032 0 0 1-.855-.974 28.013 28.013 0 0 1-1.203-1.527 31.675 31.675 0 0 1-1.101-1.602 28.15 28.15 0 0 1-.995-1.67 31.388 31.388 0 0 1-.603-1.148 31.265 31.265 0 0 1-1.054-2.367 31.506 31.506 0 0 1-.846-2.45 33.99 33.99 0 0 1-.344-1.25 35.966 35.966 0 0 1-.289-1.264 32.482 32.482 0 0 1-.234-1.274 28.32 28.32 0 0 1-.179-1.284 34.348 34.348 0 0 1-.124-1.29c-.106-1.464-.027-2.942.016-4.407Zm47.314-8.373c1.78 3.244 2.49 6.494 2.556 10.17.035 1.925-.102 3.779-.642 5.638a17.894 17.894 0 0 1-.691 1.948 18.089 18.089 0 0 1-1.44 2.743 17.833 17.833 0 0 1-1.886 2.458c-.519.567-1.36 1.177-1.691 1.868-.131.275-.252 3.703-.152 3.871a.402.402 0 0 0 .306.201c.159.018.272-.051.392-.141 2.912-1.843 5.443-4.804 7.129-7.782.285-.434.529-.937.733-1.414 1.581-3.012 2.454-6.994 2.243-10.393-.031-.509-.228-.958-.283-1.452-.067-.596-.08-1.198-.171-1.791-.115-.751-.364-1.495-.59-2.219a22.746 22.746 0 0 0-.581-1.664 25.86 25.86 0 0 0-.702-1.618 25.74 25.74 0 0 0-.533-1.048 25.695 25.695 0 0 0-.893-1.52 23.031 23.031 0 0 0-1.002-1.45 23.038 23.038 0 0 0-1.105-1.374 23.412 23.412 0 0 0-1.624-1.699 20.373 20.373 0 0 0-.872-.788 26.326 26.326 0 0 0-1.377-1.101 27.614 27.614 0 0 0-1.455-.996 23.126 23.126 0 0 0-1.523-.888 21.944 21.944 0 0 0-1.541-.732 24.286 24.286 0 0 0-2.131-.796 20.141 20.141 0 0 0-1.092-.318 20.29 20.29 0 0 0-1.106-.265 21.103 21.103 0 0 0-1.118-.211 26.228 26.228 0 0 0-1.127-.155 26.439 26.439 0 0 0-1.133-.1 21.375 21.375 0 0 0-1.136-.045 26.993 26.993 0 0 0-1.138.012 21.577 21.577 0 0 0-1.702.121 21.671 21.671 0 0 0-1.127.15 21.958 21.958 0 0 0-2.227.465c-.183.047-.366.097-.548.15-.183.052-.364.106-.545.163-6.04 1.896-10.939 6.236-13.844 11.826-2.797 5.384-3.49 10.958-1.637 16.767.425 1.333 1.061 3.105 1.867 4.236 1.239 2.64 4.782 6.533 7.304 7.992a.578.578 0 0 0 .214.098.27.27 0 0 0 .243-.066c.326-.315.086-3.403.065-4.015-.433-.737-1.202-1.308-1.776-1.937a17.966 17.966 0 0 1-2.769-4.022 17.394 17.394 0 0 1-.784-1.794c-.114-.306-.22-.615-.317-.927-.615-2.014-.823-4.112-.783-6.209.066-3.49.781-6.616 2.427-9.709.234-.516.606-1.055.924-1.522a19.596 19.596 0 0 1 2.126-2.603 19.728 19.728 0 0 1 2.544-2.196 19.39 19.39 0 0 1 2.302-1.427 16.312 16.312 0 0 1 .839-.414 18.403 18.403 0 0 1 1.293-.542 17.788 17.788 0 0 1 .883-.307 19.088 19.088 0 0 1 2.265-.577c.153-.029.306-.056.46-.082a24.538 24.538 0 0 1 .926-.129 18.308 18.308 0 0 1 1.866-.122c.156-.002.312-.003.468-.002a24.424 24.424 0 0 1 .934.031 18.311 18.311 0 0 1 .932.077 17.794 17.794 0 0 1 1.388.2 17.701 17.701 0 0 1 1.821.425c4.715 1.357 8.972 4.636 11.344 8.952ZM49.543 55.913c-2.527.175-5.01.797-6.738 2.781-1.842 2.113-1.441 5.377-1.247 7.979.324 4.116.806 8.214 1.447 12.294.284 1.85.624 4.474 1.318 6.196.271.674.67 1.205 1.22 1.677 1.401 1.201 3.236 1.485 5.022 1.446 1.775-.209 3.438-.695 4.58-2.163.343-.44.552-.945.714-1.476.673-2.206.977-4.575 1.312-6.852.54-3.546.953-7.105 1.239-10.68.121-1.565.331-3.254.134-4.818-.253-2.01-.679-3.296-2.343-4.573-1.898-1.455-4.329-1.82-6.658-1.811Z"/>
  </g>
</svg>
