<svg xmlns="http://www.w3.org/2000/svg" xml:space="preserve" style="fill-rule:evenodd;clip-rule:evenodd;stroke-linejoin:round;stroke-miterlimit:2" viewBox="0 0 100 100">
  <path d="M99.973 35.417c.016 1.873.078 3.897-.024 5.694.122 1.922.011 3.907.013 5.837l.002 12.205.002 12.328c-.002 4.723.058 9.457-.801 14.121-.284 1.098-.581 2.187-1.043 3.227-1.528 3.439-4.411 6.542-7.649 8.441-2.413 1.415-5.023 2.101-7.789 2.372-5.428.482-10.913.338-16.358.338H43.147l-15.407-.003c-2.121.011-4.242-.018-6.362-.086-1.071-.034-2.204-.032-3.263-.196-1.807-.094-3.721-.411-5.438-.986-4.634-1.551-8.461-5.18-10.62-9.516-.469-.91-.772-1.895-1.076-2.869-1.02-4.478-.961-9.128-.964-13.699l-.002-9.741V30.127c-.005-2.088.001-4.175.02-6.263.119-7.278.38-13.107 5.999-18.486 1.712-1.638 4.041-3.195 6.281-3.956C17.166-.225 23.818.05 28.957.047c3.032-.002 6.07-.047 9.101.009C46.729-.06 55.418.04 64.09.039l.509.001c.003 2.602.014 5.205.033 7.808.087 8.533.808 14.795 7.221 21.056 2.467 2.408 5.955 4.525 9.303 5.364 4.979 1.248 10.21 1.138 15.305 1.148l3.512.001ZM71.885 53.729V41.666a3.125 3.125 0 0 0-3.125-3.125h-37.5a3.125 3.125 0 0 0-3.125 3.125v12.063l-8.213 28.746a3.123 3.123 0 0 0 3.004 3.983h54.167a3.125 3.125 0 0 0 3.005-3.983l-8.213-28.746Zm-25.628 3.562h20.146l6.547 22.917H27.069l6.548-22.917h6.14l-4.219 14.767a3.125 3.125 0 0 0 6.009 1.717l4.71-16.484ZM70.874.041l29.101 29.101-2.891-.001c-4.191-.008-8.494.082-12.59-.944-2.754-.691-5.623-2.432-7.652-4.413-5.276-5.151-5.869-10.302-5.941-17.321-.015-2.141-.024-4.282-.027-6.422Z" style="fill:#080605"/>
</svg>
