<svg xmlns="http://www.w3.org/2000/svg" viewBox="0 0 32 32">
  <path d="M16.0,0 C25.75,0.00 25.75,0.00 27.45,0.54 C29.32,1.22 30.78,2.68 31.46,4.55 C32.00,6.25 32.00,6.25 32,16.0 C32.00,25.75 32.00,25.75 31.46,27.45 C30.78,29.32 29.32,30.78 27.45,31.46 C25.75,32.00 25.75,32.00 16.0,32 C6.25,32.00 6.25,32.00 4.55,31.46 C2.68,30.78 1.22,29.32 0.54,27.45 C0.00,25.75 0.00,25.75 0,16.0 C0.00,6.25 0.00,6.25 0.54,4.55 C1.22,2.68 2.68,1.22 4.55,0.54 C6.25,0.00 6.25,0.00 16.0,0 
  M 25,6 a 1,1,90,1,0,-15,15 M 8, 25 a 1,1,90,1,0,15,-15" />
</svg>