<svg xmlns="http://www.w3.org/2000/svg" xml:space="preserve" style="fill-rule:evenodd;clip-rule:evenodd;stroke-linejoin:round;stroke-miterlimit:2" viewBox="0 0 100 100">
  <g id="レイヤー1">
    <path d="m37.433.032 2.995-.014 24.188.026 7.439.018c3.948.012 8.019.032 11.863 1.043.223.058.446.119.667.185a19.41 19.41 0 0 1 1.314.433 20.976 20.976 0 0 1 3.732 1.807 20.631 20.631 0 0 1 1.156.762 22.149 22.149 0 0 1 1.102.837c.18.145.356.294.53.445a18.833 18.833 0 0 1 1.015.942c6.012 5.969 6.53 13.107 6.559 21.141l.006 32.213-.001 10.378c-.001 4.315.093 8.783-.893 13.01a21.359 21.359 0 0 1-1.423 4.183 20.325 20.325 0 0 1-1.032 1.957 19.92 19.92 0 0 1-.8 1.24 23.284 23.284 0 0 1-.885 1.181 19.692 19.692 0 0 1-.966 1.115c-.167.181-.337.358-.511.532-5.78 5.805-12.429 6.388-20.214 6.504-3.558.053-7.12.02-10.678.019l-25.444.001-8.286-.002c-4.078-.007-8.324.023-12.307-.957a22.52 22.52 0 0 1-1.353-.373 19.996 19.996 0 0 1-1.326-.462 21.542 21.542 0 0 1-1.923-.856 21.607 21.607 0 0 1-2.413-1.432 20.433 20.433 0 0 1-1.672-1.278 19.381 19.381 0 0 1-1.041-.942C.846 87.829.159 81.03.083 73.061L.013 40.99c-.028-4.076-.011-8.151.051-12.227.047-4.05-.001-8.185.945-12.148a20.178 20.178 0 0 1 .375-1.384 22.625 22.625 0 0 1 .469-1.356 22.514 22.514 0 0 1 .874-1.965 22.613 22.613 0 0 1 .693-1.256 19.23 19.23 0 0 1 .777-1.205 19.942 19.942 0 0 1 1.314-1.702 20.303 20.303 0 0 1 .971-1.056C12.498.579 19.713.089 27.839.063l9.594-.031ZM50.27 87.313c19.04 0 17.852-8.257 17.852-8.257l-.024-8.555H49.93v-2.566h25.387S87.5 69.318 87.5 50.106s-10.634-18.53-10.634-18.53H70.52v8.914s.342 10.633-10.465 10.633H42.036s-10.125-.164-10.125 9.785v16.451s-1.538 9.954 18.359 9.954Zm10.017-5.751a3.285 3.285 0 0 1-3.267-3.268 3.269 3.269 0 0 1 3.269-3.269 3.27 3.27 0 1 1-.002 6.537ZM49.73 12.704c-19.04 0-17.852 8.258-17.852 8.258l.024 8.554H50.07v2.567H24.68S12.5 30.7 12.5 49.914c0 19.209 10.634 18.53 10.634 18.53h6.346v-8.916s-.342-10.634 10.465-10.634h18.019s10.125.164 10.125-9.785V22.658s1.538-9.954-18.359-9.954Zm-10.019 5.752a3.268 3.268 0 0 1 3.269 3.27 3.269 3.269 0 0 1-3.271 3.269 3.285 3.285 0 0 1-3.268-3.267 3.27 3.27 0 0 1 3.27-3.272Z"/>
  </g>
</svg>
