<svg xmlns="http://www.w3.org/2000/svg" xml:space="preserve" style="fill-rule:evenodd;clip-rule:evenodd;stroke-linejoin:round;stroke-miterlimit:2" viewBox="0 0 100 100">
  <g id="レイヤー1">
    <path d="M.015 62.884V30.127c-.005-2.088.001-4.175.02-6.263.119-7.278.38-13.107 5.999-18.486 1.712-1.638 4.041-3.195 6.281-3.956C17.166-.225 23.818.05 28.957.047c3.032-.002 6.07-.047 9.101.009C46.729-.06 55.418.04 64.09.039l9.675.002c4.191.009 8.494-.082 12.59.945 2.754.69 5.623 2.431 7.652 4.412 5.276 5.151 5.869 10.302 5.941 17.321.028 3.983.035 7.966.02 11.95-.001 2.072.097 4.403-.019 6.442.122 1.922.011 3.907.013 5.837l.002 12.205.002 12.328c-.002 4.723.058 9.457-.801 14.121-.284 1.098-.581 2.187-1.043 3.227-1.528 3.439-4.411 6.542-7.649 8.441-2.413 1.415-5.023 2.101-7.789 2.372-5.428.482-10.913.338-16.358.338H43.147l-15.407-.003c-2.121.011-4.242-.018-6.362-.086-1.071-.034-2.204-.032-3.263-.196-1.807-.094-3.721-.411-5.438-.986-4.634-1.551-8.461-5.18-10.62-9.516-.469-.91-.772-1.895-1.076-2.869-1.02-4.478-.961-9.128-.964-13.699l-.002-9.741Zm56.428 5.068c.759.113 1.641.012 2.421.05.429-1.584.876-3.161 1.338-4.736.261.441.578.859.921 1.239a11.605 11.605 0 0 0 2.462 2.448c.338.251.76.462 1.073.733.944.46 1.937.93 2.986 1.083.065.032.07.036.152.061.581.177 1.288.212 1.892.244 2.721.142 5.49-.282 7.913-1.574 4.2-2.239 6.485-6.475 7.822-10.86.128-.59.27-1.177.385-1.77.873-4.522.749-10.213-.838-14.574-.263-.721-.572-1.523-1.004-2.162-1.339-2.864-4.417-5.329-7.351-6.388-3.515-1.269-7.767-1.243-11.166.365-2.062.975-3.548 2.378-4.981 4.116.057-4.087-.007-8.182-.004-12.27.001-1.891-.098-3.866.07-5.748l-5.936.014.001 49.77c.614-.011 1.231-.012 1.844-.041Zm5.522-26.853c.659-1.305 1.947-2.432 3.159-3.209 1.918-1.23 4.372-1.821 6.642-1.505.692.096 1.347.31 2.026.459 1.143.506 2.161 1.101 2.988 2.057.501.466.898 1.092 1.237 1.683 1.452 2.525 1.98 5.354 2.087 8.231.149 4.06-.637 9.346-3.492 12.386-1.58 1.682-3.655 2.438-5.934 2.491-2.561.058-5.032-.534-6.926-2.349a9.186 9.186 0 0 1-1.549-1.973c-1.066-2.007-1.622-4.104-1.872-6.351-.374-3.36-.33-7.295.904-10.472.188-.482.405-1.041.73-1.448ZM40.406 81.702l.654.02c1.434-.03 2.902-.077 4.334.01-.091-1.841-.008-3.728-.008-5.574l.001-11.147.006-31.748c.001-.443-.005-.887.01-1.329l-4.321-.027c-.382 1.579-.962 3.132-1.27 4.725-.358-.57-.803-1.096-1.243-1.605-1.687-1.95-3.618-3.313-6.161-3.892-3.564-.811-7.732-.228-10.833 1.725-3.932 2.477-6.31 7.068-7.293 11.507-1.235 5.581-.938 13.315 2.187 18.243a13.657 13.657 0 0 0 2.322 2.779c.348.315 1.045.725 1.293 1.074 1.074.689 2.652 1.696 3.906 1.901.911.35 1.945.505 2.912.602 3.698.37 7.417-.471 10.317-2.874.468-.387.932-.818 1.346-1.262.183-.197.569-.787.801-.89.035-.015.075-.017.113-.026l.052.146c-.031.645-.058 1.291-.08 1.936.115 5.234-.087 10.48.012 15.715l.943-.009ZM20.109 46.743c.056-1.136.405-2.446.751-3.518.804-2.496 2.221-4.921 4.638-6.135 1.957-.983 4.504-1.124 6.616-.632.67.156 1.294.408 1.944.622.811.44 1.582.901 2.218 1.581 1.965 1.527 3 5.377 3.298 7.763.518 4.157.466 9.953-2.219 13.361-1.594 2.025-4.091 3.422-6.648 3.717-2.373.274-4.789-.157-6.683-1.677-1.402-1.124-2.241-2.681-2.961-4.293-.199-.809-.541-1.577-.724-2.397-.496-2.229-.569-4.552-.423-6.824.032-.494.043-1.098.193-1.568Z" style="fill:#080605"/>
  </g>
</svg>
