<svg xmlns="http://www.w3.org/2000/svg" xml:space="preserve" style="fill-rule:evenodd;clip-rule:evenodd;stroke-linejoin:round;stroke-miterlimit:2" viewBox="0 0 100 100">
  <g id="レイヤー1">
    <path d="M.015 62.884V30.127c-.005-2.088.001-4.175.02-6.263.119-7.278.38-13.107 5.999-18.486 1.712-1.638 4.041-3.195 6.281-3.956C17.166-.225 23.818.05 28.957.047c3.032-.002 6.07-.047 9.101.009C46.729-.06 55.418.04 64.09.039l9.675.002c4.191.009 8.494-.082 12.59.945 2.754.69 5.623 2.431 7.652 4.412 5.276 5.151 5.869 10.302 5.941 17.321.028 3.983.035 7.966.02 11.95-.001 2.072.097 4.403-.019 6.442.122 1.922.011 3.907.013 5.837l.002 12.205.002 12.328c-.002 4.723.058 9.457-.801 14.121-.284 1.098-.581 2.187-1.043 3.227-1.528 3.439-4.411 6.542-7.649 8.441-2.413 1.415-5.023 2.101-7.789 2.372-5.428.482-10.913.338-16.358.338H43.147l-15.407-.003c-2.121.011-4.242-.018-6.362-.086-1.071-.034-2.204-.032-3.263-.196-1.807-.094-3.721-.411-5.438-.986-4.634-1.551-8.461-5.18-10.62-9.516-.469-.91-.772-1.895-1.076-2.869-1.02-4.478-.961-9.128-.964-13.699l-.002-9.741Zm42.377-44.115a56.896 56.896 0 0 0-4.595.302c-.763.082-1.525.179-2.284.293a55.6 55.6 0 0 0-11.135 2.85c-.718.26-2.119.636-2.621 1.134-.283.7.789 3.187 1.108 3.933 2.11 4.942 5.818 9.099 9.479 12.951 6.251 6.577 13.017 13.054 15.965 21.882 2.524 7.56 1.763 15.563-.529 23.08-.153.501-.884 2.439-.84 2.739.026.179.102.228.229.339.162.034.229.058.38-.039.36-.231 1.067-1.716 1.295-2.134 2.777-5.091 4.746-10.67 5.259-16.47.381-4.3-.016-9.269-1.423-13.367-2.233-7.377-6.675-13.697-11.576-19.543-1.596-1.903-5.113-5.605-5.888-7.718 9.441-4.95 19.726-5.044 29.774-1.915a60.79 60.79 0 0 1 4.046 1.444c.665.264 1.326.539 1.982.827a59.21 59.21 0 0 1 1.953.895 61.402 61.402 0 0 1 7.464 4.243c.324.212 1.162.903 1.552.687a.303.303 0 0 0 .165-.277c.007-.853-3.865-3.825-4.624-4.4a57.886 57.886 0 0 0-3.275-2.322 57.67 57.67 0 0 0-5.197-3.041 50.09 50.09 0 0 0-.896-.453 50.056 50.056 0 0 0-1.814-.86 62.408 62.408 0 0 0-1.843-.796 62.426 62.426 0 0 0-1.87-.731 53.113 53.113 0 0 0-1.894-.666 62.592 62.592 0 0 0-1.916-.599 53.221 53.221 0 0 0-1.936-.533 63.04 63.04 0 0 0-1.953-.464 55.351 55.351 0 0 0-2.958-.569 55.155 55.155 0 0 0-3.981-.517c-1.851-.16-3.746-.259-5.603-.185Z" style="fill:#080605"/>
  </g>
</svg>
