<svg xmlns="http://www.w3.org/2000/svg" xml:space="preserve" style="fill-rule:evenodd;clip-rule:evenodd;stroke-linejoin:round;stroke-miterlimit:2" viewBox="0 0 100 100">
  <path d="m37.395.03 5.583-.024 21.585.035 7.254.019c4.065.011 8.265.011 12.219 1.075a19.139 19.139 0 0 1 1.318.396 20.753 20.753 0 0 1 4.353 2.045 20.423 20.423 0 0 1 1.701 1.172A22.405 22.405 0 0 1 93.48 6.56a20.768 20.768 0 0 1 2.336 2.782 21.945 21.945 0 0 1 1.158 1.849 19.754 19.754 0 0 1 .663 1.295c.103.22.202.441.298.664a20.64 20.64 0 0 1 .751 2.048 21.433 21.433 0 0 1 .381 1.404c1.017 4.217.932 8.682.932 12.993L100 39.06l-.002 30.715c0 8.846.167 17.038-6.535 23.721-5.814 5.796-12.414 6.37-20.222 6.478-3.509.025-7.019.032-10.528.021H37.355l-8.489-.003c-4.084-.007-8.308.027-12.299-.951a22.709 22.709 0 0 1-1.358-.373 20.103 20.103 0 0 1-1.33-.462 24.665 24.665 0 0 1-.652-.264 24.7 24.7 0 0 1-.644-.286 23.041 23.041 0 0 1-1.256-.636 20.557 20.557 0 0 1-2.371-1.517 20.642 20.642 0 0 1-2.147-1.819C.826 87.846.161 81.038.075 73.094L.002 40.935c-.028-4.051-.011-8.102.05-12.153.046-4.036-.003-8.16.932-12.111a23.724 23.724 0 0 1 .373-1.389 20.226 20.226 0 0 1 1.026-2.686c.1-.218.205-.433.313-.647a19.31 19.31 0 0 1 .691-1.261 20.054 20.054 0 0 1 1.195-1.796 20.474 20.474 0 0 1 1.372-1.664c.162-.177.327-.351.495-.522C12.432.606 19.655.095 27.745.061l9.65-.031Zm11.143 6.915c-.356.012-.712.028-1.068.048a47.374 47.374 0 0 0-2.132.176 42.045 42.045 0 0 0-3.174.463 42.216 42.216 0 0 0-5.184 1.292 44.713 44.713 0 0 0-3.02 1.082 40.31 40.31 0 0 0-1.965.844 44.714 44.714 0 0 0-2.862 1.448c-.311.173-.621.35-.929.53a47.274 47.274 0 0 0-1.816 1.128 41.654 41.654 0 0 0-1.759 1.217 44.327 44.327 0 0 0-2.519 1.986 44.534 44.534 0 0 0-1.594 1.426 41.36 41.36 0 0 0-1.52 1.503c-.248.257-.492.517-.732.78a40.695 40.695 0 0 0-1.397 1.596 44.426 44.426 0 0 0-1.317 1.662 43.518 43.518 0 0 0-3.435 5.35 41.896 41.896 0 0 0-1.412 2.851 41.94 41.94 0 0 0-1.196 2.947 39.517 39.517 0 0 0-.675 2.01 44.058 44.058 0 0 0-1.049 4.109 46.607 46.607 0 0 0-.371 2.088 41.463 41.463 0 0 0-.267 2.104 41.463 41.463 0 0 0-.163 2.115 41.532 41.532 0 0 0-.059 2.12 41.702 41.702 0 0 0 .047 2.12 41.085 41.085 0 0 0 .144 2.106 46.015 46.015 0 0 0 .248 2.095 41.887 41.887 0 0 0 .802 4.142 40.235 40.235 0 0 0 .553 2.036 40.417 40.417 0 0 0 .652 2.007 39.129 39.129 0 0 0 .749 1.972 41.591 41.591 0 0 0 1.304 2.884 46.03 46.03 0 0 0 .986 1.865c.172.307.348.612.528.914a39.337 39.337 0 0 0 1.12 1.788 46.19 46.19 0 0 0 1.207 1.731 47.525 47.525 0 0 0 1.291 1.669 40.249 40.249 0 0 0 1.371 1.603 40.338 40.338 0 0 0 1.448 1.535 47.67 47.67 0 0 0 1.522 1.462 42.969 42.969 0 0 0 1.937 1.673 48.516 48.516 0 0 0 1.344 1.051 41.819 41.819 0 0 0 2.81 1.936 45.791 45.791 0 0 0 1.46.883 41.619 41.619 0 0 0 3.021 1.588 45.126 45.126 0 0 0 2.343 1.031c.263.107.528.211.794.312.265.102.532.2.8.296a38.405 38.405 0 0 0 1.617.545 38.437 38.437 0 0 0 1.638.48 38.415 38.415 0 0 0 1.655.415 45.731 45.731 0 0 0 2.511.497 39.883 39.883 0 0 0 2.536.347c1.895.202 3.841.313 5.747.227.108-.005.217-.011.325-.018 11.083-.143 21.896-5.232 29.568-13.115a39.838 39.838 0 0 0 1.422-1.542 43.344 43.344 0 0 0 1.345-1.609 42.686 42.686 0 0 0 5.884-9.883 41.11 41.11 0 0 0 .774-1.949c.122-.328.239-.658.351-.988a43.003 43.003 0 0 0 1.16-4.03 45.709 45.709 0 0 0 .431-2.053 44.613 44.613 0 0 0 .456-3.112c.038-.348.072-.696.102-1.044a45.942 45.942 0 0 0 .125-2.094 40.714 40.714 0 0 0 .024-2.097 47.031 47.031 0 0 0-.024-1.062 46.788 46.788 0 0 0-.127-2.121 41.523 41.523 0 0 0-.232-2.112 41.574 41.574 0 0 0-.336-2.097 39.962 39.962 0 0 0-.439-2.079 40.788 40.788 0 0 0-.85-3.071 44.003 44.003 0 0 0-.692-2.008 42.258 42.258 0 0 0-1.678-3.903 42.046 42.046 0 0 0-1.507-2.807 43.86 43.86 0 0 0-1.711-2.688 43.748 43.748 0 0 0-3.996-4.959 44.283 44.283 0 0 0-4.677-4.321 48.16 48.16 0 0 0-.839-.651 39.904 39.904 0 0 0-2.61-1.827 43.765 43.765 0 0 0-2.738-1.628 42.078 42.078 0 0 0-2.852-1.421 42.102 42.102 0 0 0-2.949-1.206 43.937 43.937 0 0 0-4.055-1.261 45.62 45.62 0 0 0-2.069-.479 46.75 46.75 0 0 0-2.091-.376 41.499 41.499 0 0 0-2.107-.272 41.482 41.482 0 0 0-3.178-.212 41.794 41.794 0 0 0-2.124-.011c-.219.004-.438.005-.656.021ZM22.082 21.769c.356.006.494.137.745.369.383.354 2.141 1.933 2.159 2.402-.055.206-.17.306-.316.451-.311.003-.434-.102-.66-.306-.418-.377-2.204-1.972-2.23-2.479.06-.201.153-.292.302-.437Zm47.445-6.24c.156.049.304.084.423.203a.42.42 0 0 1 .135.341c-.043.333-2.84 5.102-3.193 5.62a1.102 1.102 0 0 1-.377.357c-.161-.052-.341-.108-.455-.244a.427.427 0 0 1-.081-.386c.143-.486 2.81-5.008 3.194-5.564.103-.148.203-.231.354-.327Zm-48.116 50.42c.066.002.128.002.192.018.123.03.311.163.368.283.045.096.065.174.031.275-.057.169-.171.254-.31.354-.634.457-1.379.826-2.057 1.217-1.152.664-2.298 1.345-3.467 1.978-.06.005-.115.011-.177.002-.017-.003-.035-.006-.052-.011a.451.451 0 0 1-.147-.066.446.446 0 0 1-.043-.033c-.014-.011-.027-.024-.04-.037l-.035-.04a.44.44 0 0 1-.03-.045c-.083-.133-.058-.255-.031-.399.296-.483 4.958-3.013 5.798-3.496Zm65.381-29.85c.177.02.35.069.453.228.09.14.089.289.029.439-.053.133-.167.203-.291.266-.674.343-1.471.563-2.185.821l-3.858 1.404c-.068-.014-.142-.026-.206-.054a.62.62 0 0 1-.308-.346.356.356 0 0 1 .02-.272c.086-.156.22-.221.371-.297.634-.318 1.356-.524 2.025-.766l3.95-1.423Zm-62.56 38.843.048-.007c.24-.021.545.004.724.182.097.096.102.22.083.348-.091.631-2.091 2.442-2.638 2.891-.206-.006-.456-.033-.612-.18-.12-.114-.153-.255-.144-.414a.753.753 0 0 1 .105-.379c.236-.365 1.998-2.022 2.434-2.441Zm25.601 7.451h.07c.214.013.345.057.498.214.21.581.11 5.385.088 6.342-.008.359-.04.488-.307.743-.21-.016-.341-.029-.519-.144a.497.497 0 0 1-.116-.293c-.112-.905-.038-1.894-.039-2.81-.001-1.173-.058-2.382.015-3.551.015-.25.136-.346.31-.501Zm38.542-36.241c.271-.026.653-.104.908.001a.425.425 0 0 1 .254.301c.041.169 0 .281-.074.429-.302.302-2.354.357-2.888.403-.33.038-.716.091-1.011-.115-.144-.1-.149-.137-.172-.298a.707.707 0 0 1 .147-.267c.387-.437 2.207-.398 2.836-.454Zm-77.668-.039c.582-.015 3.283.081 3.683.433.112.098.17.192.16.346-.011.176-.15.316-.261.439-.595.01-3.254-.095-3.671-.432-.119-.096-.183-.189-.177-.346.007-.183.148-.317.266-.44Zm25.715-33.438c.154 0 .265.021.411.068.09.071.143.126.194.231.336.691 2.12 5.556 2.212 6.16-.049.208-.155.304-.3.45-.195.008-.377.006-.518-.151-.218-.245-2.328-6.084-2.303-6.35.017-.178.18-.297.304-.408Zm29.956 65.282c.236.067.368.121.51.334.697 1.035 1.284 2.201 1.908 3.284.401.696.976 1.476 1.249 2.222.04.108.029.192.009.303-.101.185-.207.254-.384.364-.215-.051-.356-.1-.488-.292-.667-.971-1.223-2.098-1.814-3.122-.44-.763-1.039-1.602-1.368-2.412a.479.479 0 0 1-.019-.299c.094-.193.225-.268.397-.382ZM19.779 24.313h.055c.136.002.252.013.37.085.763.463 1.503 1.217 2.194 1.795.819.685 2.075 1.593 2.757 2.361.106.119.162.221.137.387-.025.169-.204.305-.323.415-.204.018-.308-.035-.47-.148-.558-.391-4.889-3.957-4.988-4.241-.022-.066-.021-.137-.032-.206.051-.2.163-.304.3-.448Zm46.656-10.382c.203.028.319.066.492.178.071.115.124.17.116.311-.029.492-1.3 3.106-1.661 3.402-.151-.028-.321-.051-.447-.147a.419.419 0 0 1-.167-.337c.017-.434 1.336-3.115 1.667-3.407Zm17.411 15.972c.193.016.399.068.511.243.097.152.079.209.056.378-.344.541-4.93 3.013-5.823 3.526-.064-.002-.127 0-.191-.017a.636.636 0 0 1-.363-.287.348.348 0 0 1-.029-.266c.057-.172.184-.271.325-.374.576-.421 1.259-.757 1.879-1.114l3.635-2.089Zm-1.12 19.617c1.331-.028 2.666-.007 3.997-.013.793-.003 1.662-.076 2.447.019a.734.734 0 0 1 .355.125c.107.08.161.199.156.332-.008.239-.144.36-.313.499l-4.307.009c-.694.002-1.451.062-2.139-.022a.745.745 0 0 1-.415-.163c-.073-.137-.123-.237-.083-.397.048-.195.153-.273.302-.389ZM63.22 12.67c.168.003.337.017.482.113.107.07.185.178.186.311.005.421-1.919 5.561-2.195 6.144a1.059 1.059 0 0 1-.296.371.91.91 0 0 1-.417-.12c-.148-.1-.173-.211-.218-.374.276-1.105.769-2.211 1.159-3.283.336-.925.622-1.962 1.054-2.844.061-.123.147-.223.245-.318ZM14.246 32.93c.461.005 3.144 1.217 3.44 1.536.091.097.104.173.104.303.001.218-.172.36-.318.497-.438-.016-3.028-1.223-3.367-1.534-.117-.107-.121-.209-.138-.359.047-.192.152-.299.279-.443Zm58.146-15.586c.132.026.295.068.405.151.137.103.155.206.187.365-.136.512-1.747 2.772-2.164 3.104-.184-.02-.358-.065-.492-.2a.444.444 0 0 1-.106-.359c.074-.438 1.805-2.784 2.17-3.061ZM10.643 49.52c1.372-.027 2.748-.007 4.12-.014.747-.004 1.621-.093 2.355.027a.783.783 0 0 1 .388.187c.071.137.112.206.078.368-.04.186-.168.283-.305.394l-4.285.008c-.702.002-1.484.07-2.179-.022a.742.742 0 0 1-.392-.164c-.074-.136-.124-.235-.083-.395.049-.192.157-.273.303-.389Zm.562-6.811c.588.027 6.553 1.021 6.765 1.263.091.103.146.217.126.357-.029.193-.174.33-.305.46-1.189-.126-2.391-.395-3.569-.602-.899-.157-2.323-.281-3.13-.631-.102-.131-.19-.208-.176-.388.015-.192.162-.331.289-.459Zm44.307 39.196c.195.002.324.003.499.104a.57.57 0 0 1 .158.269c.193.692 1.148 5.964 1.11 6.422-.013.159-.186.287-.296.391-.193-.014-.334-.014-.497-.132-.236-.317-1.237-5.929-1.245-6.604-.002-.198.143-.318.271-.45Zm15.007-2.849c.162.007.31.012.438.118.333.275 2.021 2.65 2.033 2.975.007.197-.198.36-.331.479-.21-.007-.342-.035-.49-.19-.387-.406-1.963-2.512-1.957-2.982.057-.187.167-.274.307-.4ZM27.418 17.357c.032.005.065.009.097.016.436.083 1.642 1.973 1.96 2.448.173.258.356.474.291.801-.108.178-.217.248-.393.354a.7.7 0 0 1-.443-.258c-.303-.352-1.887-2.477-1.912-2.817-.005-.061.01-.121.015-.182.104-.18.21-.253.385-.362Zm1.709 61.696c.222.012.414.02.568.206a.46.46 0 0 1 .078.36c-.092.422-1.72 2.676-2.132 3.015-.161-.019-.34-.043-.468-.155-.125-.109-.128-.212-.146-.363.215-.641 1.598-2.537 2.1-3.063ZM11.899 39.371c.571-.033 3.095.669 3.61.973.062.093.12.146.13.261.023.242-.126.382-.276.549-.502-.032-3.258-.705-3.576-.97-.121-.1-.142-.194-.164-.343.047-.209.136-.312.276-.47Zm49.268 41.005c.118.036.314.077.406.16.156.14 2.358 6.06 2.31 6.393-.031.208-.241.324-.401.426-.121-.033-.307-.069-.398-.16-.221-.222-2.337-6.095-2.301-6.425.094-.193.211-.273.384-.394ZM88.445 42.74c.116-.022.209-.011.326-.002.134.071.224.143.281.291a.371.371 0 0 1 .03.147c0 .017 0 .033-.002.05-.001.017-.004.033-.007.05-.003.016-.008.032-.013.048a.38.38 0 0 1-.042.092.525.525 0 0 1-.29.225c-.633.224-1.432.282-2.097.397l-4.074.718c-.108.008-.236.026-.34-.016a.727.727 0 0 1-.364-.39.248.248 0 0 1 .036-.211c.116-.176.38-.276.571-.337.732-.234 1.571-.299 2.329-.427 1.221-.207 2.433-.446 3.656-.635ZM44.09 81.896c.171.008.35.013.498.111a.4.4 0 0 1 .171.337c.014.53-.929 5.776-1.122 6.385-.048.151-.13.245-.236.36a1.115 1.115 0 0 1-.496-.105c-.107-.13-.169-.194-.17-.368-.004-.566.913-5.747 1.112-6.359.05-.154.133-.246.243-.361ZM13.057 36.082c.69.116 5.829 2.009 6.432 2.379.052.091.096.139.097.248.001.26-.17.401-.345.565-.771-.155-5.88-2.003-6.46-2.393-.073-.139-.139-.223-.097-.388.05-.191.224-.303.373-.411Zm43.544-25.173c.193.002.375.013.532.139.102.081.139.186.139.316.003.694-.871 5.469-1.089 6.285a.978.978 0 0 1-.275.458c-.177-.007-.412-.019-.544-.155a.458.458 0 0 1-.118-.296c-.017-.545.918-5.744 1.115-6.388.048-.155.13-.244.24-.359Zm25.465 16.077a.847.847 0 0 1 .379.137c.133.095.15.184.174.336-.225.678-2.3 1.919-2.97 2.346-.133-.007-.314-.035-.422-.125-.131-.11-.141-.156-.162-.314.213-.666 2.332-1.971 3.001-2.38ZM15.074 58.869c.07-.007.174.005.245.009.144.076.264.172.311.335.041.143.039.238-.054.36-.303.394-2.723.876-3.302 1.033-.06.012-.103.022-.167.022a.476.476 0 0 1-.388-.191c-.114-.146-.105-.208-.088-.379.436-.63 2.634-.991 3.443-1.189Zm31.65 26.546c.217.035.355.074.521.229.136.26.082.585.06.869-.048.619-.088 2.336-.324 2.802-.053.106-.159.192-.248.268-.165-.012-.358-.041-.482-.162-.272-.268-.084-1.297-.05-1.69.044-.509.04-1.574.241-2 .064-.135.17-.222.282-.316Zm35.483-30.203c1.253.137 2.514.412 3.756.63.918.161 2.097.237 2.948.601.123.157.146.19.175.386-.062.208-.138.309-.286.465-.722-.036-6.386-1.017-6.702-1.215a.459.459 0 0 1-.195-.315c-.018-.238.149-.401.304-.552Zm3.511-2.544c.669-.011 3.216.108 3.656.425.12.086.188.199.183.352-.007.18-.15.322-.264.446-.57.006-3.281-.09-3.679-.439-.112-.098-.174-.192-.164-.346.011-.18.151-.315.268-.438Zm-72.234.036c.216-.022.472-.063.687-.029.153.024.314.159.389.296.078.141.057.184.018.329-.495.521-2.405.502-3.153.562-.231.019-.53.073-.745-.031-.157-.077-.189-.203-.244-.354.013-.109.001-.182.072-.271.398-.494 2.348-.453 2.976-.502Zm61.891 22.283c.024.002.048.003.071.006.477.076 2.297 1.987 2.653 2.444a.467.467 0 0 1 .107.414c-.041.181-.21.292-.349.398a.765.765 0 0 1-.457-.187c-.411-.342-2.226-2.063-2.361-2.445-.021-.06-.01-.127-.015-.19.069-.207.189-.3.351-.44ZM19.116 60.745c.165.051.302.106.395.262.087.145.076.237.051.398a.748.748 0 0 1-.323.287c-.684.342-1.485.567-2.207.829-1.28.464-2.558.945-3.848 1.381-.066-.013-.136-.024-.198-.052a.6.6 0 0 1-.3-.341.346.346 0 0 1 .017-.268c.081-.156.2-.215.351-.288.727-.353 1.554-.594 2.316-.871 1.244-.453 2.486-.93 3.746-1.337ZM85.44 32.938c.069.001.141-.002.209.015.15.036.284.128.354.267.042.081.068.217.028.299-.253.518-2.608 1.434-3.232 1.721a.849.849 0 0 1-.167-.003.805.805 0 0 1-.444-.28c-.045-.065-.039-.153-.018-.226.152-.512 2.693-1.529 3.27-1.793ZM59.232 84.326c.153.018.324.065.44.172.244.226.934 3.098.945 3.5-.068.204-.194.286-.356.413-.136-.026-.281-.057-.398-.136-.256-.173-.97-3.119-.993-3.55.07-.204.195-.279.362-.399ZM17.73 26.983c.534.067 2.268 1.374 2.782 1.775.247.193.386.285.427.609-.064.203-.16.297-.312.443-.537-.009-2.578-1.527-3.036-1.939-.163-.146-.185-.231-.197-.447.07-.207.174-.298.336-.441ZM70.995 74.68c.027.002.054.002.08.005a.608.608 0 0 1 .367.162c.514.453.964 1.092 1.406 1.617.821.975 1.659 1.942 2.456 2.936.172.215.434.458.359.758-.043.169-.23.292-.361.392-.187-.03-.295-.068-.434-.202-.755-.728-1.422-1.646-2.098-2.452-.658-.784-1.422-1.572-1.992-2.416a.559.559 0 0 1-.119-.352c.063-.21.176-.303.336-.448ZM15.894 29.895c.592.062 4.792 2.582 5.577 3.075.271.171.469.257.544.586-.053.219-.15.329-.299.495a.956.956 0 0 1-.412-.083c-1.012-.469-2.001-1.13-2.97-1.689-.843-.486-1.84-.946-2.599-1.546-.116-.091-.149-.161-.157-.31-.012-.25.151-.372.316-.528Zm17.587 48.059c.177.058.372.11.488.267a.388.388 0 0 1 .05.361c-.183.553-2.781 4.97-3.189 5.562a1.048 1.048 0 0 1-.36.325c-.14-.039-.336-.097-.433-.214a.443.443 0 0 1-.104-.398c.087-.361 2.898-5.154 3.212-5.599.096-.137.197-.214.336-.304Zm45.888-7.76c.573.004 2.127 1.236 2.659 1.63.264.195.547.378.596.719-.07.196-.156.294-.304.44-.022.002-.044.006-.067.007-.409.016-2.645-1.609-3.019-1.965-.123-.116-.186-.218-.17-.396.016-.18.183-.318.305-.435Zm-1.041-4.262c.553.055 5.422 2.914 6.027 3.411.043.099.093.161.078.272-.033.251-.197.367-.388.504-.48-.086-5.196-2.834-5.82-3.298-.181-.135-.199-.195-.232-.407.069-.219.174-.323.335-.482ZM53.314 53.951 35.745 65.368l-5.619 3.651c-.95.618-1.975 1.204-2.875 1.891-.946.497-1.857 1.184-2.755 1.769-1.575 1.026-3.169 2.032-4.724 3.089-.056.006-.081.012-.142.005-.197-.021-.301-.163-.424-.301.228-.516.848-1.096 1.268-1.464 2.792-3.109 5.702-6.127 8.553-9.183l17.578-18.843c.488-.4 1.083-.719 1.616-1.064l3.102-2.017 10.504-6.829 10.441-6.785 3.046-1.982c.545-.355 1.101-.776 1.684-1.064l.041-.037c.417-.356 3.039-2.119 3.435-2.091.174.094.222.197.308.366-.255.371-.637.664-.876 1.025-.699.691-1.357 1.427-2.022 2.151-.311.339-.699.873-1.072 1.116-1.195 1.367-2.473 2.674-3.713 3.999l-6.321 6.769-8.522 9.13c-1.643 1.762-3.261 3.558-4.942 5.282ZM20.333 70.2a.934.934 0 0 1 .475.119c.14.081.142.117.173.262-.173.701-2.344 1.97-2.968 2.397-.024.002-.048.006-.073.007-.231.01-.338-.083-.493-.233-.031-.103-.059-.144-.036-.253.123-.591 2.322-1.9 2.922-2.299Zm-2.768-14.958a.55.55 0 0 1 .218.017c.16.052.225.186.299.32.014.193-.009.259-.097.422-.384.346-5.605 1.123-6.5 1.279l-.255-.021a.718.718 0 0 1-.288-.29c-.029-.163-.033-.268.065-.412a.56.56 0 0 1 .306-.207c.658-.22 1.441-.284 2.129-.404 1.372-.241 2.745-.502 4.123-.704Zm25.451-44.334c.152.003.366.017.48.122a.449.449 0 0 1 .151.235c.342 1.182.484 2.595.698 3.818.135.767.424 1.802.424 2.561 0 .193-.159.325-.284.455-.18-.007-.364.005-.507-.123-.114-.101-.136-.221-.171-.362-.157-.642-1.123-5.812-1.084-6.316.012-.16.183-.287.293-.39Zm41.617 47.939c.617.008 3.123.635 3.554.998.134.113.148.2.174.367-.059.211-.14.294-.301.44-.603-.057-3.05-.672-3.51-.963a.397.397 0 0 1-.191-.303c-.026-.227.135-.385.274-.539ZM53.271 10.414c.229.017.392.072.551.243.191.488.001 1.394-.047 1.932-.056.632.008 1.571-.503 1.998-.147-.024-.331-.053-.445-.157-.192-.174-.165-.476-.149-.71.041-.606.124-2.538.319-2.981.063-.14.161-.227.274-.325Zm-35.99 54.323c.147.022.341.106.455.205.119.102.121.138.124.281-.281.636-2.676 1.553-3.384 1.86-.15-.037-.325-.091-.428-.215-.111-.133-.1-.175-.088-.336.371-.639 2.574-1.471 3.321-1.795Zm60.314-42.962c.228-.001.374.036.54.196.037.1.072.15.057.259-.073.536-2.069 2.406-2.582 2.768a.702.702 0 0 1-.508-.211c-.038-.101-.07-.147-.055-.257.078-.554 2.04-2.357 2.548-2.755ZM49.827 10.307c.207.016.336.03.513.142.265.33.156 2.132.156 2.663 0 .612.093 3.829-.046 4.183-.045.114-.179.229-.265.315-.227-.015-.363-.027-.55-.173-.209-.368-.161-5.847-.113-6.628.015-.246.136-.347.305-.502Zm15.211 71.901c.146-.001.27.015.412.045.293.209 1.573 2.9 1.603 3.298.016.224-.164.365-.311.501-.136-.005-.332-.022-.439-.111-.235-.195-1.534-2.984-1.538-3.284-.002-.189.153-.323.273-.449Zm10.084-11.593c.141.036.267.087.388.171.878.615 1.706 1.408 2.529 2.1.775.65 1.702 1.298 2.373 2.047.08.088.124.17.109.29-.031.25-.221.365-.411.497a1 1 0 0 1-.356-.146c-.744-.507-1.445-1.185-2.138-1.765-.869-.728-1.815-1.437-2.625-2.228-.143-.14-.307-.29-.281-.51.026-.226.24-.344.412-.456ZM59.897 11.649c.181-.019.345-.036.512.054a.401.401 0 0 1 .209.304c.055.397-.645 2.819-.839 3.298-.052.127-.13.231-.222.331a.771.771 0 0 1-.539-.119c-.063-.091-.124-.149-.138-.261-.057-.472.722-3.218 1.017-3.607Zm22.696 53.074c.466.103 3.1 1.285 3.354 1.601.068.083.099.143.094.25-.012.242-.173.369-.345.511-.45-.046-3.129-1.256-3.399-1.59a.423.423 0 0 1-.074-.391c.049-.174.23-.283.37-.381ZM38.658 80.377c.147.038.338.089.447.2.113.114.138.262.113.413-.083.512-1.923 5.485-2.198 6.029a.897.897 0 0 1-.291.327c-.229-.027-.372-.079-.537-.242-.049-.139-.079-.173-.053-.325.097-.568 1.912-5.549 2.212-6.1.076-.14.177-.212.307-.302ZM24.651 19.466a.692.692 0 0 1 .343.076c.379.214 4.327 4.967 4.363 5.239.026.197-.186.388-.309.518-.154.006-.304.014-.433-.085-.462-.357-3.699-4.281-4.154-4.924-.07-.098-.132-.199-.138-.323-.011-.226.179-.365.328-.501Zm63.066 19.918a.969.969 0 0 1 .382.029.955.955 0 0 1 .293.356c.004.101.025.156-.033.246-.277.436-2.74.942-3.303 1.099-.063.01-.16.034-.227.027-.153-.016-.304-.074-.393-.209-.098-.148-.085-.206-.062-.37.403-.597 2.595-.978 3.343-1.178Zm-74.995-1.97c.111.036.196.088.295.147.427.253.907.355 1.374.513.917.311 1.79.698 2.563 1.283l-.101.034c-.74-.3-1.494-.55-2.252-.802.003-.02.008-.04.01-.061.004-.03.004-.06.006-.09l.053.001c-.065-.04-.133-.077-.197-.118-.428-.27-.954-.174-1.373-.427-.218-.131-.326-.236-.378-.48Zm27.804 46.912c.155.024.331.052.458.156.114.094.151.22.146.363-.021.535-.623 2.759-.88 3.274a1.02 1.02 0 0 1-.233.286c-.143-.02-.367-.05-.479-.152-.126-.114-.155-.215-.147-.378.023-.483.634-2.838.883-3.28.059-.107.16-.191.252-.269ZM30.334 15.528c.246.068.367.119.514.339.674 1.013 1.248 2.138 1.856 3.193.422.731.973 1.512 1.292 2.288a.501.501 0 0 1 .018.327c-.104.188-.229.265-.407.379-.271-.072-.387-.207-.536-.434-.64-.974-1.196-2.036-1.78-3.048-.432-.747-.949-1.511-1.302-2.295a.555.555 0 0 1-.041-.388c.102-.178.215-.251.386-.361Zm50.475 45.197c.72.185 6.275 2.183 6.438 2.431.077.118.107.243.058.379-.067.19-.242.291-.403.391-.971-.289-5.78-1.97-6.4-2.408-.063-.144-.121-.232-.067-.395.061-.184.222-.294.374-.398ZM39.642 11.641c.188-.013.402-.037.54.123.221.256.982 3.053.958 3.459-.011.183-.15.295-.273.415-.145.022-.335.018-.46-.072-.232-.167-1.046-3.101-1.033-3.488.006-.203.142-.297.268-.437ZM28.77 74.672c.136.029.332.079.434.187.121.128.122.198.139.364-.175.508-3.847 4.816-4.402 5.319-.22-.029-.399-.064-.538-.257a.47.47 0 0 1-.063-.366c.097-.329 4.006-4.937 4.43-5.247Zm46.291-55.215c.212.019.37.056.516.221a.457.457 0 0 1 .094.379c-.086.347-3.995 4.965-4.432 5.273-.145-.03-.335-.076-.441-.189a.442.442 0 0 1-.138-.364c.025-.318 3.815-4.781 4.401-5.32ZM53.045 85.412c.163.029.375.082.479.225.167.231.435 3.235.351 3.574-.044.179-.214.279-.355.382-.147-.03-.308-.062-.421-.168-.211-.199-.486-3.233-.416-3.619.031-.178.227-.292.362-.394ZM33.271 13.944c.143.005.267.014.386.104.326.244 1.541 2.867 1.586 3.306-.045.195-.149.3-.277.444-.157 0-.349 0-.477-.1-.305-.239-1.493-2.901-1.541-3.331.057-.208.167-.29.323-.423Zm1.26 68.271c.178-.007.398-.008.545.109a.45.45 0 0 1 .158.34c-.017.468-1.271 2.992-1.588 3.352-.152.017-.33.047-.464-.048a.435.435 0 0 1-.182-.355c-.028-.483 1.169-2.974 1.531-3.398Zm11.896-71.79c.185.014.361.019.498.164.212.224.449 3.148.4 3.572-.022.187-.185.298-.319.412-.193-.017-.36-.038-.5-.187-.209-.222-.424-3.111-.386-3.554.016-.187.175-.292.307-.407Z"/>
</svg>
