<svg xmlns="http://www.w3.org/2000/svg" xml:space="preserve" style="fill-rule:evenodd;clip-rule:evenodd;stroke-linejoin:round;stroke-miterlimit:2" viewBox="0 0 100 100">
  <g id="レイヤー1">
    <path d="m28.315.056.044-.001c3.568-.03 7.137-.039 10.706-.028h18.297l13.701.022c4.265.047 8.751-.002 12.917 1.018 3.458.847 6.618 2.749 9.165 5.218 6.131 5.945 6.645 12.083 6.77 20.179.16 10.323.05 20.662.049 30.987l-.015 13.381c-.045 4.33.017 8.862-1.008 13.093-.851 3.508-2.77 6.685-5.276 9.263-6.477 6.661-13.334 6.636-22.004 6.756-10.189.112-20.388.022-30.578.021l-12.39-.02c-4.283-.047-8.827-.008-12.996-1.097-3.381-.884-6.458-2.806-8.948-5.236C-.159 86.874.164 79.551.045 70.588c-.049-3.658-.017-7.32-.016-10.979L.026 41.514l.018-12.406c.045-4.392-.018-9.039 1.081-13.317.874-3.398 2.784-6.509 5.227-9.01C12.818.158 19.652.16 28.315.056Zm29.348 84.937c.327.022.677-.025 1.005-.052 6.77-.557 20.764-2.675 25.366-8.165.523-.625.933-1.295 1.115-2.096.222-.977.151-2.042.152-3.039l.001-3.738-.005-3.484c0-.749.03-1.513-.039-2.258-.191.786-.458 1.441-.935 2.098-3.46 4.762-14.216 7.02-19.694 7.848a80.468 80.468 0 0 1-3.633.463c-.857.088-1.731.14-2.581.279l-.056-.001c-1.267-.015-2.564.162-3.832.223a115.81 115.81 0 0 1-6.265.091c-8.588-.082-26.222-1.817-32.347-8.002-.884-.892-1.364-1.776-1.729-2.969-.058 2.415-.025 4.837-.024 7.252 0 1.484-.164 3.942.174 5.291.241.958.78 1.73 1.457 2.435 5.995 6.251 23.605 7.995 31.89 8.124 2.52.043 5.038.002 7.555-.122.763-.038 1.683-.004 2.425-.178ZM46.498 14.615c-7.962.202-25.111 1.982-30.76 7.974-.606.643-1.146 1.409-1.365 2.276-.296 1.17-.143 4.372-.145 5.754-.002 2.512-.08 5.048.01 7.558.06 1.699.813 2.896 2.042 4.035 7.019 6.498 27.115 8.133 36.549 7.694l.049-.003a106.25 106.25 0 0 0 8.879-.64c6.143-.723 17.688-2.787 22.087-7.575.642-.699 1.17-1.517 1.381-2.451.212-.938.135-1.957.135-2.915l-.004-3.744c-.002-2.186.093-4.408-.01-6.588-.078-1.637-.864-2.851-2.066-3.921-1.797-1.6-4.141-2.673-6.379-3.511-8.936-3.347-20.823-4.286-30.403-3.943Zm-3.791 4.084c.498.095.986.25 1.486.345.985.189 2.003.287 3.001.383 1.074.103 2.153.145 3.228.226 1.791.14 3.58.299 5.367.478 3.096.297 7.45.525 10.024 2.392.442.32.891.756.959 1.325.05.414-.113.826-.374 1.143-1.509 1.827-6.803 2.16-9.067 2.103-.837-.021-1.821-.255-2.638-.141-.154.021-.235.039-.336.162l.048.126c.701.489 3.546 1.109 4.503 1.319.405.089.847.137 1.238.268l.102.036a.443.443 0 0 1-.233.131c-.852.198-1.763.284-2.63.422-1.781.292-3.564.567-5.35.826.386-.74.77-1.656.816-2.501.013-.238.023-.457-.142-.645-.052-.015-.102-.048-.156-.045-.302.015-1.834 1.056-2.293 1.262-3.279 1.471-9.656 1.488-13.039.181-.913-.353-2.12-.974-2.514-1.929-1.137-2.756 6.102-5.393 7.632-7.173.172-.201.268-.452.368-.694Zm-11.74 47.077c.654.26 1.853.372 2.566.491a99.755 99.755 0 0 0 12.291 1.216c1.373.049 2.746.071 4.119.064 3.394.004 6.78-.162 10.158-.496 6.566-.655 18.687-2.625 23.535-7.552.703-.714 1.296-1.527 1.557-2.506.317-1.194.16-3.722.16-5.021l-.015-7.657c-.426 1.754-1.417 2.955-2.836 4.043-2.097 1.606-4.661 2.667-7.148 3.507-9.617 3.247-21.425 3.941-31.551 3.382a101.898 101.898 0 0 1-7.361-.677c-1.282-.171-2.553-.414-3.835-.582l-.104-.03c-1.117-.31-2.301-.442-3.431-.715-4.266-1.031-11.851-3.217-14.192-7.219a6.092 6.092 0 0 1-.631-1.565c-.088 2.388-.034 4.8-.033 7.19.001 1.433-.157 4.082.168 5.355.224.879.768 1.664 1.38 2.32 2.828 3.028 8.291 4.789 12.23 5.788.978.248 1.976.51 2.973.664Z"/>
  </g>
</svg>
