<svg xmlns="http://www.w3.org/2000/svg" xml:space="preserve" style="fill-rule:evenodd;clip-rule:evenodd;stroke-linejoin:round;stroke-miterlimit:2" viewBox="0 0 100 100">
  <path d="M99.973 35.417c.016 1.873.078 3.897-.024 5.694.122 1.922.011 3.907.013 5.837l.002 12.205.002 12.328c-.002 4.723.058 9.457-.801 14.121-.284 1.098-.581 2.187-1.043 3.227-1.528 3.439-4.411 6.542-7.649 8.441-2.413 1.415-5.023 2.101-7.789 2.372-5.428.482-10.913.338-16.358.338H43.147l-15.407-.003c-2.121.011-4.242-.018-6.362-.086-1.071-.034-2.204-.032-3.263-.196-1.807-.094-3.721-.411-5.438-.986-4.634-1.551-8.461-5.18-10.62-9.516-.469-.91-.772-1.895-1.076-2.869-1.02-4.478-.961-9.128-.964-13.699l-.002-9.741V30.127c-.005-2.088.001-4.175.02-6.263.119-7.278.38-13.107 5.999-18.486 1.712-1.638 4.041-3.195 6.281-3.956C17.166-.225 23.818.05 28.957.047c3.032-.002 6.07-.047 9.101.009C46.729-.06 55.418.04 64.09.039l.509.001c.003 2.602.014 5.205.033 7.808.087 8.533.808 14.795 7.221 21.056 2.467 2.408 5.955 4.525 9.303 5.364 4.979 1.248 10.21 1.138 15.305 1.148l3.512.001ZM44.627 52.62c-3.123-4.457-8.298-7.377-14.142-7.377-5.822 0-10.978 2.899-14.104 7.328.001-.001-6.333-.001-6.333-.001a2.748 2.748 0 0 0 0 5.493h3.76a17.192 17.192 0 0 0-.58 4.437c0 9.515 7.741 17.257 17.257 17.257 9.516 0 17.257-7.742 17.257-17.257 0-2.164-.4-4.236-1.131-6.146.617.128 1.28.046 1.875-.28a2.34 2.34 0 0 1 3.456 2.053c0 .099.006.197.016.293a17.104 17.104 0 0 0-.49 4.08c0 9.516 7.742 17.257 17.257 17.257 7.145 0 13.636-4.49 16.154-11.173a2.746 2.746 0 1 0-5.141-1.937c-1.716 4.556-6.142 7.617-11.013 7.617-6.486 0-11.763-5.277-11.763-11.764 0-6.486 5.277-11.763 11.763-11.763 5.829 0 10.716 4.17 11.621 9.917a2.746 2.746 0 1 0 5.426-.854 16.657 16.657 0 0 0-.368-1.735l4.567-.001a2.747 2.747 0 0 0 0-5.494h-7.136a17.262 17.262 0 0 0-2.843-3.142 17.254 17.254 0 0 0-11.267-4.185c-5.699 0-10.76 2.778-13.903 7.05a7.798 7.798 0 0 0-5.217-1.997c-1.312 0-2.61.332-3.756.959a2.736 2.736 0 0 0-1.222 1.365ZM30.485 74.263c-6.487 0-11.764-5.277-11.764-11.763 0-6.487 5.277-11.764 11.764-11.764 6.486 0 11.764 5.277 11.764 11.764 0 6.486-5.278 11.763-11.764 11.763ZM70.874.041l29.101 29.101-2.891-.001c-4.191-.008-8.494.082-12.59-.944-2.754-.691-5.623-2.432-7.652-4.413-5.276-5.151-5.869-10.302-5.941-17.321-.015-2.141-.024-4.282-.027-6.422Z" style="fill:#080605"/>
</svg>
