<svg xmlns="http://www.w3.org/2000/svg" xml:space="preserve" style="fill-rule:evenodd;clip-rule:evenodd;stroke-linejoin:round;stroke-miterlimit:2" viewBox="0 0 100 100">
  <path d="M.015 62.884V30.127c-.005-2.088.001-4.175.02-6.263.119-7.278.38-13.107 5.999-18.486 1.712-1.638 4.041-3.195 6.281-3.956C17.166-.225 23.818.05 28.957.047c3.032-.002 6.07-.047 9.101.009C46.729-.06 55.418.04 64.09.039l9.675.002c4.191.009 8.494-.082 12.59.945 2.754.69 5.623 2.431 7.652 4.412 5.276 5.151 5.869 10.302 5.941 17.321.028 3.983.035 7.966.02 11.95-.001 2.072.097 4.403-.019 6.442.122 1.922.011 3.907.013 5.837l.002 12.205.002 12.328c-.002 4.723.058 9.457-.801 14.121-.284 1.098-.581 2.187-1.043 3.227-1.528 3.439-4.411 6.542-7.649 8.441-2.413 1.415-5.023 2.101-7.789 2.372-5.428.482-10.913.338-16.358.338H43.147l-15.407-.003c-2.121.011-4.242-.018-6.362-.086-1.071-.034-2.204-.032-3.263-.196-1.807-.094-3.721-.411-5.438-.986-4.634-1.551-8.461-5.18-10.62-9.516-.469-.91-.772-1.895-1.076-2.869-1.02-4.478-.961-9.128-.964-13.699l-.002-9.741Zm40.722-29.522H22.268c-4.046 0-7.376 3.329-7.376 7.375 0 4.046 3.33 7.376 7.376 7.376h18.469c4.046 0 7.376-3.33 7.376-7.376s-3.33-7.375-7.376-7.375Zm-7.375 25.901v18.469c0 4.046 3.329 7.376 7.375 7.376 4.046 0 7.376-3.33 7.376-7.376V59.263c0-4.046-3.33-7.376-7.376-7.376s-7.375 3.33-7.375 7.376Zm-3.718 0v-7.382h-7.376c-4.046 0-7.376 3.329-7.376 7.375 0 4.047 3.33 7.376 7.376 7.376 4.044 0 7.372-3.325 7.376-7.369Zm11.093-29.619h7.382v-7.376c0-4.046-3.329-7.376-7.375-7.376-4.047 0-7.376 3.33-7.376 7.376 0 4.044 3.325 7.372 7.369 7.376Zm29.619 11.093v7.382h7.376c4.046 0 7.376-3.329 7.376-7.375 0-4.047-3.33-7.376-7.376-7.376-4.044 0-7.372 3.325-7.376 7.369Zm-3.718 0V22.268c0-4.046-3.329-7.376-7.375-7.376-4.046 0-7.376 3.33-7.376 7.376v18.469c0 4.046 3.33 7.376 7.376 7.376s7.375-3.33 7.375-7.376Zm-7.375 25.901h18.469c4.046 0 7.376-3.329 7.376-7.375 0-4.046-3.33-7.376-7.376-7.376H59.263c-4.046 0-7.376 3.33-7.376 7.376s3.33 7.375 7.376 7.375Zm0 3.718h-7.382v7.376c0 4.046 3.329 7.376 7.375 7.376 4.047 0 7.376-3.33 7.376-7.376 0-4.044-3.325-7.372-7.369-7.376Z" style="fill:#080605"/>
</svg>
