<svg xmlns="http://www.w3.org/2000/svg" xml:space="preserve" style="fill-rule:evenodd;clip-rule:evenodd;stroke-linejoin:round;stroke-miterlimit:2" viewBox="0 0 100 100">
  <path d="M.015 62.884V30.127c-.005-2.088.001-4.175.02-6.263.119-7.278.38-13.107 5.999-18.486 1.712-1.638 4.041-3.195 6.281-3.956C17.166-.225 23.818.05 28.957.047c3.032-.002 6.07-.047 9.101.009C46.729-.06 55.418.04 64.09.039l9.675.002c4.191.009 8.494-.082 12.59.945 2.754.69 5.623 2.431 7.652 4.412 5.276 5.151 5.869 10.302 5.941 17.321.028 3.983.035 7.966.02 11.95-.001 2.072.097 4.403-.019 6.442.122 1.922.011 3.907.013 5.837l.002 12.205.002 12.328c-.002 4.723.058 9.457-.801 14.121-.284 1.098-.581 2.187-1.043 3.227-1.528 3.439-4.411 6.542-7.649 8.441-2.413 1.415-5.023 2.101-7.789 2.372-5.428.482-10.913.338-16.358.338H43.147l-15.407-.003c-2.121.011-4.242-.018-6.362-.086-1.071-.034-2.204-.032-3.263-.196-1.807-.094-3.721-.411-5.438-.986-4.634-1.551-8.461-5.18-10.62-9.516-.469-.91-.772-1.895-1.076-2.869-1.02-4.478-.961-9.128-.964-13.699l-.002-9.741ZM48.62 8.617a43.495 43.495 0 0 0-2.045.117 38.575 38.575 0 0 0-2.036.219 38.58 38.58 0 0 0-2.022.318 42.454 42.454 0 0 0-2.998.665 40.976 40.976 0 0 0-3.906 1.23 40.84 40.84 0 0 0-4.678 2.07 39.1 39.1 0 0 0-1.794.988 43.322 43.322 0 0 0-1.743 1.075 40.638 40.638 0 0 0-5.635 4.414 41.215 41.215 0 0 0-2.85 2.935 44.45 44.45 0 0 0-1.937 2.369 44.448 44.448 0 0 0-1.192 1.656 43.101 43.101 0 0 0-1.108 1.713 38.86 38.86 0 0 0-1.023 1.765 43.108 43.108 0 0 0-1.367 2.738 40.655 40.655 0 0 0-1.161 2.832c-.117.319-.23.64-.34.962a45.739 45.739 0 0 0-.608 1.947 40.906 40.906 0 0 0-1.093 4.98 43.041 43.041 0 0 0-.358 3.039 43.48 43.48 0 0 0-.113 2.038 38.555 38.555 0 0 0-.013 2.04 43.416 43.416 0 0 0 .398 5.061 42.578 42.578 0 0 0 .331 2.002 41.727 41.727 0 0 0 1.578 5.876c.112.319.227.637.346.954a42.148 42.148 0 0 0 1.617 3.722 40.432 40.432 0 0 0 .943 1.797 42.563 42.563 0 0 0 2.146 3.444 39.882 39.882 0 0 0 1.197 1.638 40.02 40.02 0 0 0 3.332 3.823 44.107 44.107 0 0 0 1.46 1.41 41.249 41.249 0 0 0 23.984 10.75c1.719.167 3.48.255 5.207.179l.237-.012a41.894 41.894 0 0 0 2.007-.111 41.808 41.808 0 0 0 5.955-.918 46.246 46.246 0 0 0 1.947-.499c.322-.091.643-.186.964-.284a44.348 44.348 0 0 0 1.905-.64 39.437 39.437 0 0 0 2.794-1.131c.306-.137.61-.277.912-.422a37.67 37.67 0 0 0 1.792-.91 41.752 41.752 0 0 0 2.6-1.526 41.874 41.874 0 0 0 3.279-2.323 39.91 39.91 0 0 0 1.551-1.278 43.211 43.211 0 0 0 2.205-2.056 43.333 43.333 0 0 0 2.71-2.987 40.327 40.327 0 0 0 1.837-2.408c.195-.275.386-.552.573-.832a39.647 39.647 0 0 0 2.083-3.459 44.736 44.736 0 0 0 .912-1.802 44.616 44.616 0 0 0 .823-1.844 44.661 44.661 0 0 0 .731-1.883 39.855 39.855 0 0 0 1.183-3.86 42.462 42.462 0 0 0 .449-1.969c.067-.33.13-.661.188-.992a37.633 37.633 0 0 0 .303-1.997c.043-.334.081-.669.115-1.003a37.945 37.945 0 0 0 .156-2.014 42.532 42.532 0 0 0 .058-2.019 42.552 42.552 0 0 0-.288-5.093 43.317 43.317 0 0 0-.29-2.026 42.436 42.436 0 0 0-.624-3.007 42.291 42.291 0 0 0-.845-2.951 39.414 39.414 0 0 0-.684-1.93 39.174 39.174 0 0 0-.779-1.893 40.999 40.999 0 0 0-4.021-7.119 40.6 40.6 0 0 0-3.197-3.993 40.906 40.906 0 0 0-2.146-2.195 43.883 43.883 0 0 0-1.501-1.362 39.926 39.926 0 0 0-1.566-1.287 43.98 43.98 0 0 0-1.628-1.209 39.792 39.792 0 0 0-1.684-1.127 42.564 42.564 0 0 0-1.738-1.043 42.535 42.535 0 0 0-1.788-.957 38.245 38.245 0 0 0-1.832-.868 42.727 42.727 0 0 0-1.872-.777 45.04 45.04 0 0 0-1.908-.684 41.587 41.587 0 0 0-9.916-1.978 42.589 42.589 0 0 0-4.052-.101l-.429.013Zm-6.546 49.657a51.648 51.648 0 0 1 9.409.551 50.527 50.527 0 0 1 3.709.701c.614.14 1.225.291 1.833.452.846.23 1.684.486 2.514.768a42.586 42.586 0 0 1 7.197 3.203c.829.467 1.832.903 2.309 1.771.33.603.414 1.295.221 1.955-.182.624-.593 1.207-1.173 1.518-.589.315-1.22.45-1.882.29-.816-.197-1.611-.807-2.342-1.222-.49-.279-.994-.53-1.503-.774-2.055-.988-4.151-1.758-6.33-2.42-6.918-1.887-14.01-2.015-21.082-.99a65.17 65.17 0 0 0-3.621.621c-.854.177-1.746.445-2.612.523a2.567 2.567 0 0 1-2.199-.886c-.027-.032-.054-.064-.079-.098a2.371 2.371 0 0 1-.143-.207c-.022-.035-.043-.072-.064-.108a3.934 3.934 0 0 1-.111-.226l-.047-.117a4.154 4.154 0 0 1-.041-.119l-.035-.121a2.694 2.694 0 0 1-.029-.122c-.009-.042-.016-.083-.023-.124a2.677 2.677 0 0 1-.017-.125c-.005-.042-.008-.084-.011-.125-.044-.685.208-1.443.684-1.946.259-.274.583-.481.932-.62.898-.36 2.015-.494 2.971-.674a79.64 79.64 0 0 1 11.565-1.329Zm.517-13.524a63.845 63.845 0 0 1 10.895.855 65.124 65.124 0 0 1 4.29.865 56.925 56.925 0 0 1 6.699 2.023 50.64 50.64 0 0 1 7.223 3.338c.57.324 1.179.643 1.686 1.061.075.061.146.126.215.195a2.853 2.853 0 0 1 .372.446 2.985 2.985 0 0 1 .296.536 2.475 2.475 0 0 1 .114.302 3.948 3.948 0 0 1 .082.312 2.96 2.96 0 0 1 .069.641 2.836 2.836 0 0 1-.014.322c-.005.054-.012.107-.019.16a2.776 2.776 0 0 1-.106.472c-.016.051-.032.102-.05.152a3.793 3.793 0 0 1-.194.44c-.025.047-.052.093-.079.139a3.093 3.093 0 0 1-.086.135c-.03.044-.06.088-.092.131a3.048 3.048 0 0 1-.204.247 3.013 3.013 0 0 1-.606.519 2.79 2.79 0 0 1-.276.163 2.363 2.363 0 0 1-.27.128 2.864 2.864 0 0 1-.423.142 2.532 2.532 0 0 1-.145.034 2.533 2.533 0 0 1-.295.048 2.467 2.467 0 0 1-.297.021 3.7 3.7 0 0 1-.298-.007 3.75 3.75 0 0 1-.296-.035 3.797 3.797 0 0 1-.292-.062c-.659-.176-1.248-.592-1.831-.931a29.028 29.028 0 0 0-1.952-1.066c-2.476-1.201-5.014-2.159-7.644-2.966a58.258 58.258 0 0 0-2.953-.774 57.313 57.313 0 0 0-10.571-1.451 59.715 59.715 0 0 0-3.052-.051 55.494 55.494 0 0 0-3.05.112 55.042 55.042 0 0 0-3.041.274c-.505.059-1.01.125-1.513.198a50 50 0 0 0-4.34.864c-.981.241-2.028.666-3.037.718a3.113 3.113 0 0 1-2.375-.93 4.01 4.01 0 0 1-.11-.115 3.877 3.877 0 0 1-.292-.377 3.11 3.11 0 0 1-.403-.863 4.33 4.33 0 0 1-.041-.153c-.012-.052-.024-.104-.033-.156a2.853 2.853 0 0 1-.026-.157c-.008-.053-.013-.106-.018-.158a2.826 2.826 0 0 1-.01-.159c-.003-.054-.004-.108-.003-.162a2.92 2.92 0 0 1 .038-.484c.009-.053.018-.106.029-.159a4.035 4.035 0 0 1 .082-.313c.016-.052.034-.103.053-.153.018-.051.039-.101.06-.151a3.212 3.212 0 0 1 .409-.696 3.115 3.115 0 0 1 .21-.246c.868-.91 2.356-1.164 3.528-1.463 4.584-1.171 9.263-1.682 13.987-1.755Zm1.221-14.258c6.063.073 12.041.574 17.974 1.879 5.051 1.111 10.016 2.735 14.613 5.124 1.197.622 2.62 1.252 3.363 2.434a3.915 3.915 0 0 1 .265.506 3.878 3.878 0 0 1 .308 1.293 4.062 4.062 0 0 1-.008.572 3.94 3.94 0 0 1-.974 2.252 4.366 4.366 0 0 1-.415.4 4.142 4.142 0 0 1-.47.334c-.77.464-1.776.689-2.663.503-1.127-.238-2.131-.972-3.139-1.502a40.398 40.398 0 0 0-2.497-1.186c-2.913-1.276-5.946-2.185-9.028-2.946-1.694-.36-3.376-.72-5.088-.989a75.81 75.81 0 0 0-5.47-.657 76.535 76.535 0 0 0-5.503-.266 76.676 76.676 0 0 0-8.255.334c-.914.086-1.827.188-2.738.306-1.673.23-3.355.518-4.999.905-1.083.256-2.667.859-3.727.886-1.007.025-2.053-.361-2.78-1.066a4.36 4.36 0 0 1-.263-.281 3.434 3.434 0 0 1-.338-.466 3.424 3.424 0 0 1-.266-.511 3.897 3.897 0 0 1-.187-.544c-.017-.062-.031-.125-.045-.187-.013-.063-.024-.126-.035-.189a4.159 4.159 0 0 1-.047-.574 3.803 3.803 0 0 1 1.083-2.74c1.06-1.073 2.74-1.349 4.149-1.698 5.633-1.396 11.395-1.851 17.18-1.926Z" style="fill:#080605"/>
</svg>
