<svg xmlns="http://www.w3.org/2000/svg" xml:space="preserve" style="fill-rule:evenodd;clip-rule:evenodd;stroke-linejoin:round;stroke-miterlimit:2" viewBox="0 0 100 100"><path d="m37.433.032 2.995-.014 24.188.026 7.439.018c3.948.012 8.019.032 11.863 1.043l.667.185.66.206.654.227.646.25.637.27.628.291.618.312.607.332.596.352.584.372.572.39.558.41.544.427.53.445.515.462.5.48c6.012 5.969 6.53 13.107 6.56 21.14l.005 32.214-.001 10.378c0 4.315.093 8.783-.893 13.01a20.762 20.762 0 0 1-.851 2.823 21.083 21.083 0 0 1-4.255 6.853c-.167.18-.337.358-.511.532-5.78 5.805-12.43 6.388-20.214 6.504-3.558.053-7.12.02-10.678.02H37.152l-8.286-.002c-4.078-.007-8.324.023-12.307-.957l-.68-.175-.673-.198-.667-.22-.659-.242-.65-.264-.641-.285-.632-.307-.62-.328-.61-.348-.598-.368-.585-.388-.571-.407-.558-.426-.543-.445-.528-.462-.513-.48C.846 87.83.16 81.03.083 73.061l-.07-32.07a555.75 555.75 0 0 1 .05-12.228c.048-4.05 0-8.185.946-12.148l.176-.695.2-.69.222-.681.246-.674.27-.665.29-.655.314-.645.336-.634.357-.622.378-.609.399-.596.418-.583.439-.567.457-.552.476-.537.495-.52C12.498.58 19.712.09 27.839.064l9.594-.031Zm39.577 7.85c-17.138 4.736-34.262 11.262-51.332 16.183-8.838 2.548-8.549 3.804-8.929 12.616-.082 1.916-.064 6.12-.058 8.08.013 4.324.15 6.84 1.69 8.495.765.821 3.502 1.944 3.502 1.944s6.884 2.466 12.035 4.332c-9.078 2.287-13.41 2.773-15.523 5-1.843 1.944-1.599 4.3-1.599 4.3l-.006 18.572s-.02 2.291 1.844 3.74c.947.737 2.102 1.233 3.1 1 3.9-.91 8.416-2.463 12.288-3.69l19.357-6.163c7.912-2.527 16.507-5.123 24.417-7.828.717-.245 3.614-1.897 4.482-2.904.973-1.129 1.037-4.154 1.037-4.154l-.142-17.666s-.307-2.902-2.568-4.943c-2.727-2.46-7.3-2.354-14.152-5.024 2.628-.736 12.602-4.06 12.602-4.06s2.398-1.075 2.87-1.468c1.638-1.362 1.324-3.048 1.324-3.048l-.066-19.819s.121-1.71-1.918-3.028c-.9-.583-3.091-.636-4.255-.467Zm-1.553 7.837c.287.044.366.206.614.441.348 3.146.159 10.215.164 13.645-7.152 2.025-14.249 4.514-21.436 6.55-4.93-1.43-10.26-3.361-15.154-5.026-2.061-.746-4.395-1.382-6.514-2.006 5.075-2.001 11.245-3.774 16.49-5.43l25.836-8.174ZM23.495 48.355c.042-8.124.098-11.107.154-14.764 1.964.327 6.78 2.013 8.887 2.718l16.754 5.7c8.947 3.046 18.075 5.555 26.928 8.593.12 2.45.267 12.944-.055 14.695A167.59 167.59 0 0 1 68.8 62.98c-14.973-5.068-30.43-9.327-45.305-14.625ZM44.181 63.47c3.345-.598 20.04 5.406 24.122 6.715-8.85 2.676-17.686 5.558-26.49 8.394-5.96 1.865-12.144 4.014-18.15 5.612.007-4.952.096-9.266.007-14.321 5.878-2.214 14.34-4.523 20.511-6.4Z"/></svg>