<svg xmlns="http://www.w3.org/2000/svg" xml:space="preserve" style="fill-rule:evenodd;clip-rule:evenodd;stroke-linejoin:round;stroke-miterlimit:2" viewBox="0 0 100 100">
  <path d="M.015 62.884V30.127c-.005-2.088.001-4.175.02-6.263.119-7.278.38-13.107 5.999-18.486 1.712-1.638 4.041-3.195 6.281-3.956C17.166-.225 23.818.05 28.957.047c3.032-.002 6.07-.047 9.101.009C46.729-.06 55.418.04 64.09.039l9.675.002c4.191.009 8.494-.082 12.59.945 2.754.69 5.623 2.431 7.652 4.412 5.276 5.151 5.869 10.302 5.941 17.321.028 3.983.035 7.966.02 11.95-.001 2.072.097 4.403-.019 6.442.122 1.922.011 3.907.013 5.837l.002 12.205.002 12.328c-.002 4.723.058 9.457-.801 14.121-.284 1.098-.581 2.187-1.043 3.227-1.528 3.439-4.411 6.542-7.649 8.441-2.413 1.415-5.023 2.101-7.789 2.372-5.428.482-10.913.338-16.358.338H43.147l-15.407-.003c-2.121.011-4.242-.018-6.362-.086-1.071-.034-2.204-.032-3.263-.196-1.807-.094-3.721-.411-5.438-.986-4.634-1.551-8.461-5.18-10.62-9.516-.469-.91-.772-1.895-1.076-2.869-1.02-4.478-.961-9.128-.964-13.699l-.002-9.741Zm94.068-11.94c.055-.487.12-1.134.121-1.805 0-.577-.245-1.411-.937-1.877-.503-.342-1.069-.464-1.451-.525-.57-.092-1.14-.177-1.71-.262-.857-.128-1.741-.26-2.601-.411-.044-.18-.08-.383-.118-.594a17.038 17.038 0 0 0-.106-.556 3.078 3.078 0 0 1-.023-.175c-.021-.173-.048-.397-.117-.641l.104-.045c.475-.21.958-.42 1.439-.63a212.27 212.27 0 0 0 2.637-1.164c1.427-.646 1.983-1.842 1.565-3.366l-.069-.259c-.05-.187-.101-.381-.165-.585-.16-.512-.648-2.07-2.574-2.07-.179 0-.371.013-.59.039a581.16 581.16 0 0 0-4.283.534l-.061-.131-.199-.438c-.195-.429-.395-.868-.589-1.306a.682.682 0 0 1 .058-.053c.721-.592 1.471-1.184 2.196-1.758.443-.35.886-.701 1.327-1.054.438-.352 1.029-.922 1.117-1.821.043-.439-.03-1.111-.621-1.813a2.845 2.845 0 0 1-.194-.33 7.663 7.663 0 0 0-.237-.419c-.289-.467-.888-1.437-2.141-1.437-.457 0-.872.136-1.254.283-1.226.473-2.518.98-4.184 1.643l-.105-.129c-.369-.452-.718-.878-1-1.313l-.12-.188.172-.235 1.68-2.282 1.421-1.93.819-1.114-1.007-.947-.444-.416c-.332-.31-.645-.602-.955-.901-.436-.421-1.032-.996-1.937-.996-.762 0-1.333.418-1.75.724-.576.422-1.149.847-1.721 1.272-.614.454-1.227.909-1.843 1.361-.139-.105-.279-.207-.419-.309-.371-.269-.722-.524-1.01-.794a3.342 3.342 0 0 1-.156-.154c.407-1.157.854-2.301 1.326-3.506.202-.516.405-1.036.609-1.565l.467-1.216-1.114-.676c-.143-.087-.293-.18-.449-.277-.392-.244-.838-.52-1.301-.779-.429-.24-.937-.495-1.544-.495-1.072 0-1.701.782-2.004 1.158-.352.437-.698.878-1.044 1.319a99.152 99.152 0 0 1-1.422 1.784c-.091.11-.235.285-.358.411-.5-.132-1.385-.561-1.72-.846l-.023-.046-.011-.019-.01-.02c-.072-.127-.022-.482.026-.827.014-.093.027-.187.039-.28l.179-1.412.334-2.638.158-1.247-1.184-.42a25.374 25.374 0 0 1-.399-.147c-.406-.152-.912-.342-1.446-.494-.395-.113-.821-.218-1.245-.218-1.548 0-2.097 1.27-2.392 1.952-.254.589-.51 1.177-.767 1.766-.308.708-.616 1.415-.922 2.124a29.47 29.47 0 0 1-1.612-.23l-.111-.018-.082-.496c-.147-.885-.3-1.8-.41-2.689a57.729 57.729 0 0 1-.061-.51c-.116-.997-.207-1.785-.848-2.409-.737-.717-1.745-.717-2.634-.717l-.615.003-.031.001c-1.561.013-2.519.832-2.771 2.369-.217 1.323-.414 2.666-.605 3.965l-.069.469-.009.057-.05.005c-.529.05-1.05.108-1.546.171l-.094.011-.033-.074c-.332-.755-.659-1.533-.977-2.285-.217-.515-.434-1.029-.654-1.542-.244-.569-.816-1.901-2.415-1.901-.314 0-.641.05-1.092.168-.312.081-.632.168-.955.261-1.786.507-2.468 1.554-2.207 3.392.16 1.122.296 2.275.427 3.39l.085.715c-.4.156-.786.317-1.118.457-.232.099-.39.16-.5.199a9.141 9.141 0 0 1-.324-.399c-.452-.58-.908-1.155-1.364-1.73a228.68 228.68 0 0 1-1.148-1.453c-.688-.88-1.474-1.065-2.012-1.065-.478 0-.953.146-1.412.432-.161.101-.338.2-.526.305-.315.177-.672.378-1.019.625l-.029.021c-.34.242-1.136.807-1.122 1.845.006.391.134.925.655 1.418l.005.011.774 1.959.587 1.49c.139.351.136.452-.214.72l-.316.239c-.208.158-.417.316-.623.476a5.479 5.479 0 0 1-.287.213 5.52 5.52 0 0 1-.307-.217c-.266-.197-.531-.397-.797-.596-.845-.635-1.719-1.292-2.611-1.915-.365-.255-1.022-.553-1.673-.553-.548 0-.925.21-1.145.385-.619.497-1.154 1.027-1.671 1.54-.166.165-.329.328-.492.485l-1.112 1.073 1.062 1.122c.12.126.223.23.312.32.083.083.177.178.202.211.607.814 1.209 1.633 1.812 2.452l.711.966a.6.6 0 0 1 .118.22.65.65 0 0 1-.123.22 118.068 118.068 0 0 1-1.054 1.377l-.087-.033a276.803 276.803 0 0 1-4.256-1.67 2.912 2.912 0 0 0-1.087-.229c-.754 0-1.426.368-1.843 1.009-.349.54-.663 1.082-.968 1.607-.123.212-.246.424-.369.632l-.688 1.164 1.054.847 1.258 1.009c1.006.806 1.963 1.573 2.917 2.346-.093.262-.174.519-.255.772-.111.35-.216.68-.337.983a6.513 6.513 0 0 1-.088.205 5.215 5.215 0 0 1-.319-.038c-.867-.126-1.741-.226-2.585-.323-.531-.061-1.061-.121-1.59-.189a3.39 3.39 0 0 0-.421-.027c-1.268 0-2.216.775-2.536 2.075-.047.191-.104.389-.165.599-.04.138-.08.277-.118.416-.442 1.615-.038 2.477 1.489 3.178.577.266 1.162.516 1.728.758.289.123.578.247.867.373.187.081.376.159.564.237.39.162.762.315 1.091.489-.054.409-.133.832-.215 1.27-.043.229-.087.463-.128.701-.377.056-.754.11-1.131.163-.808.114-1.643.233-2.474.378-.192.034-.366.059-.522.083-.744.112-1.587.238-2.168 1.003-.55.725-.555 1.628-.502 2.646l-.001.076c.001 1.585.853 2.585 2.398 2.817.574.086 1.151.165 1.727.246.466.065.933.13 1.399.198.165.024.334.044.504.063.329.038.64.073.829.148a.817.817 0 0 1 .124.065c.014.163.008.392.004.586-.005.202-.01.432-.001.668l.013.307c.006.136.012.281.015.406-.149.068-.323.143-.441.194-.401.171-.801.347-1.201.523-.59.259-1.2.527-1.798.773-.884.364-1.651.721-2.081 1.397-.548.864-.272 1.701-.09 2.256.051.155.104.314.153.496.163.603.658 2.441 2.725 2.441.291 0 .567-.033.898-.077 1.526-.199 2.807-.357 4.095-.482l.028-.003.022.048c.259.583.473 1.096.657 1.572.086.22.119.357.132.432a1.058 1.058 0 0 1-.067.055 397.574 397.574 0 0 0-3.667 2.859c-1.059.833-1.27 2.073-.54 3.159.182.269.351.575.531.899l.129.231c.623 1.117 1.541 1.283 2.032 1.283a2.71 2.71 0 0 0 1.059-.229 130.166 130.166 0 0 1 4.211-1.666c.074-.027.131-.045.172-.057.034.034.077.085.133.158.346.445.704.906 1.036 1.372a.831.831 0 0 1 .112.198.81.81 0 0 1-.097.163c-.345.473-.693.942-1.041 1.41-.322.434-.645.868-.964 1.304-.162.222-.305.406-.426.563-.468.604-.951 1.228-.821 2.129.109.753.579 1.229 1.228 1.888.107.107.225.228.356.362.561.578 1.187.871 1.86.871.577 0 1.128-.214 1.684-.651 1.092-.86 2.249-1.702 3.367-2.515l.052-.038c.086-.062.149-.102.195-.129.046.027.112.07.203.137.352.258.709.531 1.055.795l.235.18c.163.124.227.234.125.495a186.517 186.517 0 0 1-1.665 4.147c-.471 1.128-.138 2.222.87 2.856.442.277.906.548 1.383.807.449.245.904.37 1.351.37.492 0 1.423-.163 2.144-1.25.102-.155.214-.307.334-.455.231-.285.469-.568.707-.851.537-.64 1.093-1.301 1.604-2.011l.053-.072c.615.224 1.237.48 1.855.763a.311.311 0 0 1 .033.108l-.012.083c-.204 1.371-.414 2.788-.53 4.215-.053.648-.118 1.455.42 2.144.468.598 1.096.767 1.825.964.037.01.113.038.18.062.276.1.655.236 1.117.236.098 0 .196-.006.292-.019.498-.066 1.706-.327 2.202-1.335.582-1.177 1.092-2.39 1.586-3.563l.257-.611c.053-.123.095-.216.128-.285.065.006.14.015.224.026.118.016.241.031.364.045.212.024.414.048.568.085.141.033.292.064.443.093.104.021.24.048.349.075.038.142.073.325.09.411.205 1.06.39 2.204.565 3.497.116.861.217 1.607.812 2.19.682.669 1.554.669 2.323.669h.12c.145-.001.273-.009.386-.016l.15-.008c1.906-.071 2.423-1.037 2.611-2.466.193-1.455.417-2.874.668-4.216.014-.069.026-.121.037-.158.045-.01.11-.021.2-.032l.536-.058c.303-.032.605-.064.908-.101.153-.019.28-.029.379-.033.039.073.095.184.169.353l.244.555c.498 1.136.995 2.272 1.495 3.407.678 1.546 1.707 1.546 2.045 1.546.177 0 .357-.022.537-.066.657-.16 1.362-.344 2.066-.604.834-.307 1.459-1.258 1.395-2.119-.084-1.103-.19-2.212-.291-3.284-.058-.609-.116-1.218-.17-1.827.35-.163.72-.312 1.111-.468l.505-.204c.112-.047.193-.075.251-.093.042.042.099.105.174.195.34.413.683.847 1.015 1.267.337.428.687.87 1.044 1.305.196.236.352.439.489.618.478.621 1.019 1.325 2.054 1.325.658 0 1.156-.29 1.91-.729.154-.09.329-.192.527-.305 1.254-.714 1.641-1.891 1.061-3.231-.503-1.159-.956-2.387-1.393-3.574l-.246-.667-.009-.025c.127-.091.243-.182.343-.275.132-.125.309-.253.496-.389.141-.103.288-.209.441-.331.194-.154.321-.241.399-.29.085.048.221.136.433.293.339.253.678.503 1.017.753.767.566 1.56 1.151 2.322 1.736.498.382 1.019.577 1.546.577.456 0 1.128-.146 1.751-.842l.127-.144c.184-.207.374-.422.515-.518.609-.415.966-.934 1.064-1.544.15-.932-.383-1.626-.583-1.888-.745-.971-1.484-1.986-2.199-2.967l-.464-.636a4.23 4.23 0 0 1-.082-.118l.076-.102c.108-.141.215-.279.323-.416.267-.34.545-.692.806-1.081.044-.066.082-.12.114-.164.054.019.119.042.197.072l.056.021c1.355.518 2.757 1.054 4.109 1.615.334.139.674.21 1.009.21.527 0 1.298-.177 1.986-1.021.248-.305.403-.613.527-.861.039-.078.076-.154.119-.229.777-1.357.544-2.55-.692-3.544-.453-.363-.906-.723-1.359-1.084-.632-.503-1.287-1.023-1.922-1.537a2.794 2.794 0 0 1-.268-.239c.179-.535.431-1.072.717-1.663l.064-.134.076-.158c.059-.007.133-.011.225-.011.094 0 .197.005.307.014.858.075 1.742.184 2.598.289.505.063 1.012.126 1.519.182.16.018.305.027.443.027 1.299 0 2.218-.854 2.342-2.175a2.09 2.09 0 0 1 .223-.787c.371-.666.456-1.311.249-1.914-.309-.904-1.107-1.246-1.536-1.429l-.083-.036c-.489-.213-.982-.425-1.473-.638-.835-.359-1.699-.732-2.538-1.107-.14-.063-.276-.153-.239-.474.03-.259.064-.516.099-.773.029-.215.057-.43.083-.646l.013-.086.051-.009c1.55-.261 2.945-.489 4.334-.657.672-.082 2.26-.471 2.473-2.331ZM42.2 49.179l.054.416c.191 1.44-.172 2.863-1.144 4.476-.601.998-1.148 2.026-1.676 3.02a93.564 93.564 0 0 1-.993 1.84c-.199.357-.423.71-.659 1.085-.255.404-.518.821-.764 1.265-.405.729-.802 1.471-1.185 2.189-.492.92-1 1.872-1.521 2.784l-.112.198c-.657 1.156-1.278 2.246-2.247 2.845-.239.148-.579.27-.94.398l-.221.079c-.809-.179-1.502-.616-2.207-1.383-1.721-1.866-2.829-3.504-3.49-5.158-.923-2.308-1.739-4.845-2.424-7.541-.555-2.18-.77-4.577-.675-7.547.084-2.665.689-5.428 1.848-8.447l.034-.09c.258-.673.501-1.31.817-1.853l.136-.234c.831-1.431 1.691-2.909 2.642-4.243a9.78 9.78 0 0 1 2.053-2.116c.513-.386 1-.581 1.45-.581.825 0 1.466.669 1.858 1.231.957 1.366 1.829 2.865 2.672 4.314l.482.827a859.25 859.25 0 0 1 5.125 8.904c.309.535.602 1.041.755 1.519.17.53.249 1.148.332 1.803Zm3.13-18.669c-.786-1.385-1.791-3.216-2.597-5.105-.257-.603-.284-1.135-.081-1.581.226-.496.741-.895 1.45-1.123 1.08-.348 2.291-.51 3.334-.623a23.096 23.096 0 0 1 3.596-.136c5.841.245 11.136 2.091 15.736 5.489 3.252 2.401 5.871 5.365 7.783 8.811.656 1.181 1.312 2.45 1.666 3.72.272.974.343 2.092.202 3.149-.061.451-.614.763-1.068.894-.777.223-1.488.342-2.112.355-.983.02-2.059.029-3.386.029-.722 0-1.444-.003-2.166-.006-.726-.002-1.452-.005-2.177-.005-.784 0-1.569.006-2.354.012-.776.006-1.553.013-2.329.013-1.311 0-2.379-.018-3.36-.057-.96-.038-2.016-.26-3.053-.641-1.217-.447-2.214-1.421-3.233-3.159-.474-.809-.95-1.617-1.425-2.424-1.465-2.489-2.981-5.062-4.426-7.612Zm28.71 25.257c1.719.051 2.183.614 2.408 1.157.285.687.349 1.04.235 1.306-.166.392-.222.757-.267 1.049-.01.066-.02.131-.032.195-.563 3.075-2.302 5.628-4.097 7.929-.855 1.098-1.863 2.129-2.821 3.093-2.405 2.417-5.385 4.354-8.858 5.753-2.351.949-4.331 1.48-6.232 1.675-.438.045-.876.098-1.3.149-1.08.13-2.1.253-3.099.253-.14 0-.28-.002-.42-.007l-.305-.012c-1.913-.072-3.72-.139-5.323-.892-1.061-.499-1.284-.948-1.369-1.361-.276-1.345.098-1.985.455-2.392.198-.227.345-.496.425-.782.101-.352.37-.726.681-1.158.223-.31.476-.662.696-1.056 1.225-2.195 2.516-4.41 3.763-6.551.572-.981 1.143-1.961 1.711-2.944.208-.361.4-.723.586-1.074.315-.594.613-1.155.955-1.652 1.23-1.784 2.88-2.664 5.042-2.692 1.001-.013 2.074-.019 3.377-.019.885 0 1.769.003 2.654.005.889.003 1.777.006 2.666.006.841 0 1.682-.006 2.523-.011.834-.005 1.669-.01 2.504-.01 1.338 0 2.431.014 3.442.043Z" style="fill:#080605"/>
</svg>
