<svg xmlns="http://www.w3.org/2000/svg" xml:space="preserve" style="fill-rule:evenodd;clip-rule:evenodd;stroke-linejoin:round;stroke-miterlimit:2" viewBox="0 0 100 100">
  <path d="M.015 62.884V30.127c-.005-2.088.001-4.175.02-6.263.119-7.278.38-13.107 5.999-18.486 1.712-1.638 4.041-3.195 6.281-3.956C17.166-.225 23.818.05 28.957.047c3.032-.002 6.07-.047 9.101.009C46.729-.06 55.418.04 64.09.039l9.675.002c4.191.009 8.494-.082 12.59.945 2.754.69 5.623 2.431 7.652 4.412 5.276 5.151 5.869 10.302 5.941 17.321.028 3.983.035 7.966.02 11.95-.001 2.072.097 4.403-.019 6.442.122 1.922.011 3.907.013 5.837l.002 12.205.002 12.328c-.002 4.723.058 9.457-.801 14.121-.284 1.098-.581 2.187-1.043 3.227-1.528 3.439-4.411 6.542-7.649 8.441-2.413 1.415-5.023 2.101-7.789 2.372-5.428.482-10.913.338-16.358.338H43.147l-15.407-.003c-2.121.011-4.242-.018-6.362-.086-1.071-.034-2.204-.032-3.263-.196-1.807-.094-3.721-.411-5.438-.986-4.634-1.551-8.461-5.18-10.62-9.516-.469-.91-.772-1.895-1.076-2.869-1.02-4.478-.961-9.128-.964-13.699l-.002-9.741Zm87.349-12.092c.047-.41.101-.954.102-1.519 0-.485-.206-1.187-.788-1.579-.424-.288-.9-.39-1.221-.442-.48-.077-.959-.149-1.439-.22a84.134 84.134 0 0 1-2.188-.346 7.874 7.874 0 0 1-.099-.499 16.849 16.849 0 0 0-.089-.468 2.058 2.058 0 0 1-.02-.147c-.018-.146-.04-.334-.098-.54l.087-.038c.4-.177.806-.353 1.211-.53.727-.317 1.479-.645 2.218-.979 1.201-.544 1.669-1.549 1.317-2.832l-.058-.218c-.042-.158-.085-.32-.139-.492-.135-.431-.545-1.742-2.166-1.742-.15 0-.312.011-.495.033-1.121.136-2.297.283-3.497.437l-.107.013-.051-.111-.168-.369c-.164-.36-.332-.73-.495-1.099a.64.64 0 0 1 .048-.044c.607-.498 1.238-.996 1.848-1.479.372-.294.745-.589 1.116-.887.369-.295.866-.775.94-1.532.036-.369-.025-.934-.523-1.525a2.393 2.393 0 0 1-.162-.278c-.058-.106-.122-.227-.2-.352-.243-.393-.747-1.209-1.801-1.209-.385 0-.734.114-1.055.238-1.032.398-2.119.825-3.52 1.382l-.089-.109c-.311-.379-.604-.738-.841-1.104l-.101-.158.145-.198 1.413-1.92 1.196-1.624.689-.937-.848-.797-.374-.35c-.279-.26-.542-.506-.803-.758-.366-.354-.868-.838-1.629-.838-.642 0-1.122.352-1.473.609-.484.356-.966.713-1.448 1.07-.516.383-1.032.765-1.55 1.145a45.712 45.712 0 0 0-.353-.259c-.312-.227-.607-.441-.849-.668a2.805 2.805 0 0 1-.132-.13c.343-.973.719-1.936 1.116-2.95.17-.433.341-.871.512-1.316l.393-1.023-.937-.569-.378-.233c-.33-.205-.705-.438-1.095-.656-.36-.201-.787-.416-1.299-.416-.901 0-1.431.658-1.685.974-.297.368-.588.739-.879 1.11-.39.497-.793 1.011-1.196 1.501a6.302 6.302 0 0 1-.302.346c-.42-.111-1.164-.472-1.446-.712a.72.72 0 0 0-.02-.039l-.009-.016-.009-.016c-.06-.107-.018-.406.023-.696l.032-.236.15-1.188.281-2.22.134-1.048-.997-.354a27.239 27.239 0 0 1-.335-.123 15.57 15.57 0 0 0-1.216-.416c-.333-.095-.691-.184-1.048-.184-1.302 0-1.764 1.069-2.012 1.643-.214.495-.43.99-.646 1.485-.259.596-.518 1.191-.775 1.788a24.336 24.336 0 0 1-1.357-.194l-.093-.015-.069-.417c-.124-.745-.253-1.515-.346-2.263l-.051-.428c-.097-.84-.174-1.503-.713-2.028-.62-.603-1.468-.603-2.216-.603l-.518.003h-.025c-1.314.011-2.12.701-2.332 1.994a192.491 192.491 0 0 0-.509 3.336l-.058.394-.007.048-.042.004a43.49 43.49 0 0 0-1.301.144l-.079.01-.028-.063c-.279-.635-.555-1.289-.822-1.922-.183-.433-.365-.866-.55-1.298-.206-.478-.687-1.599-2.032-1.599-.264 0-.539.042-.919.141-.262.068-.532.142-.803.22-1.503.427-2.077 1.307-1.857 2.854.135.944.249 1.914.359 2.852l.071.602c-.336.131-.661.266-.94.384a6.994 6.994 0 0 1-.421.167 8.384 8.384 0 0 1-.273-.335c-.379-.488-.763-.972-1.147-1.455-.323-.408-.646-.815-.966-1.223-.579-.741-1.24-.896-1.693-.896a2.23 2.23 0 0 0-1.188.363 9.71 9.71 0 0 1-.442.257c-.265.149-.566.317-.858.526l-.024.017c-.286.204-.956.68-.943 1.553.004.329.112.778.551 1.193l.003.009c.218.549.434 1.099.651 1.648l.495 1.254c.116.295.114.38-.181.605l-.265.201c-.176.133-.351.266-.525.401a4.51 4.51 0 0 1-.241.179 4.392 4.392 0 0 1-.258-.182 292.34 292.34 0 0 1-.671-.502c-.711-.534-1.447-1.087-2.197-1.611-.307-.214-.86-.465-1.408-.465-.46 0-.777.176-.962.324-.522.418-.971.864-1.406 1.296-.14.138-.277.275-.414.407l-.936.903.893.944c.101.106.188.193.263.269.07.07.149.15.17.177.511.686 1.018 1.375 1.524 2.064l.599.812c.077.105.098.17.099.185a.53.53 0 0 1-.103.186c-.243.322-.507.668-.831 1.088l-.056.07-.074-.027c-1.21-.461-2.432-.947-3.58-1.405a2.442 2.442 0 0 0-.914-.193c-.635 0-1.2.309-1.551.849-.294.454-.558.91-.814 1.352l-.311.532-.579.979.887.712 1.058.849a573.81 573.81 0 0 1 2.454 1.974c-.078.22-.146.437-.214.65-.093.294-.182.572-.284.826a3.186 3.186 0 0 1-.074.173 4.58 4.58 0 0 1-.268-.032c-.73-.106-1.465-.19-2.175-.272a97.703 97.703 0 0 1-1.338-.159 2.867 2.867 0 0 0-.354-.023c-1.067 0-1.864.653-2.134 1.747-.039.16-.087.327-.139.503-.033.116-.067.233-.099.35-.372 1.359-.032 2.084 1.253 2.674.486.224.978.435 1.454.638.243.103.487.208.729.313.158.069.317.135.475.2.328.136.641.265.918.412-.046.344-.112.699-.181 1.068-.037.193-.073.39-.108.59-.317.047-.634.092-.951.137-.68.096-1.383.196-2.081.318-.162.028-.308.05-.44.07-.626.094-1.335.2-1.824.844-.463.609-.467 1.37-.422 2.226l-.001.064c.001 1.333.717 2.174 2.017 2.369.483.073.968.14 1.453.208.393.054.786.109 1.178.166.138.021.281.037.424.054.276.031.538.061.697.124a.684.684 0 0 1 .104.054c.012.138.007.33.004.493-.004.171-.009.364-.001.563l.011.258c.005.115.01.236.013.342-.126.057-.272.12-.371.162-.338.144-.674.293-1.011.44-.497.219-1.01.444-1.513.651-.744.306-1.389.606-1.751 1.176-.461.726-.229 1.431-.075 1.898.043.13.087.264.128.416.137.508.554 2.054 2.292 2.054.246 0 .478-.028.756-.064 1.284-.167 2.362-.3 3.446-.406l.023-.002a2 2 0 0 1 .683 1.726 335.342 335.342 0 0 0-3.142 2.452c-.891.701-1.069 1.744-.454 2.657.152.227.295.484.446.757l.109.194c.524.94 1.296 1.08 1.71 1.08.29 0 .581-.063.89-.193 1.19-.501 2.406-.969 3.543-1.401.063-.024.11-.039.145-.049.028.029.065.072.112.133.291.375.592.763.872 1.155a.632.632 0 0 1 .093.166.598.598 0 0 1-.081.138c-.29.397-.583.792-.876 1.186-.271.365-.542.73-.811 1.097-.136.187-.256.341-.358.473-.394.508-.8 1.034-.691 1.791.092.634.487 1.035 1.034 1.589.09.09.189.192.299.305.472.486.998.732 1.565.732.485 0 .949-.179 1.417-.548.919-.723 1.892-1.431 2.832-2.115l.044-.032c.072-.052.126-.086.164-.108.039.022.095.058.171.114.296.217.597.447.888.67l.198.151c.137.104.19.197.105.416a157.32 157.32 0 0 1-1.401 3.489c-.396.949-.116 1.87.731 2.403.372.233.763.461 1.164.679a2.36 2.36 0 0 0 1.137.311c.413 0 1.197-.137 1.803-1.051.087-.131.181-.259.281-.383.195-.24.396-.478.596-.716a28.591 28.591 0 0 0 1.394-1.752 20.45 20.45 0 0 1 1.56.642.251.251 0 0 1 .028.091l-.01.069c-.172 1.154-.348 2.346-.446 3.547-.044.545-.099 1.223.354 1.803.393.503.922.646 1.534.811.032.008.096.032.152.052.233.084.551.199.94.199.082 0 .165-.005.246-.016.418-.055 1.435-.275 1.852-1.123.49-.991.919-2.011 1.334-2.998l.217-.514c.044-.104.08-.182.108-.24.055.005.117.013.188.022.1.014.203.026.306.038.179.02.348.04.479.071.118.028.245.054.372.079.087.018.202.04.294.062.031.121.061.274.075.347.173.892.328 1.854.476 2.942.098.724.182 1.352.683 1.842.574.563 1.307.563 1.954.563h.102c.121 0 .229-.007.324-.013l.126-.007c1.604-.06 2.038-.873 2.197-2.075.162-1.224.351-2.418.562-3.547.011-.058.022-.101.031-.133.038-.008.092-.018.168-.026l.451-.049c.255-.028.51-.055.765-.085a3.36 3.36 0 0 1 .318-.028c.033.061.08.154.142.296l.205.468 1.258 2.866c.571 1.301 1.437 1.301 1.721 1.301.149 0 .301-.019.452-.056a15.597 15.597 0 0 0 1.738-.508c.701-.259 1.228-1.058 1.174-1.782-.071-.928-.16-1.862-.246-2.764-.048-.512-.097-1.024-.142-1.537.294-.137.605-.262.935-.394l.424-.171c.094-.039.163-.063.211-.078.035.035.084.088.147.164.286.347.575.712.854 1.066.284.36.578.732.879 1.097.164.199.295.37.411.52.401.523.857 1.116 1.728 1.116.553 0 .972-.245 1.607-.614.129-.076.276-.162.443-.256 1.055-.601 1.381-1.592.893-2.719-.424-.975-.804-2.008-1.172-3.007l-.207-.561-.008-.021c.107-.077.205-.154.288-.232.112-.105.26-.212.418-.326.119-.087.242-.177.371-.279.163-.13.27-.203.336-.244.071.04.185.114.364.247l.856.632c.645.477 1.312.969 1.953 1.461.42.322.857.486 1.301.486.384 0 .949-.123 1.473-.709l.107-.121c.155-.174.314-.355.433-.436.512-.348.813-.785.896-1.298.125-.785-.323-1.369-.491-1.589-.627-.817-1.249-1.671-1.85-2.496l-.39-.535a2.46 2.46 0 0 1-.069-.1l.063-.085c.091-.119.181-.235.272-.35.225-.286.458-.582.678-.91.037-.055.069-.101.096-.138.046.016.101.035.166.06l.047.018c1.14.436 2.319.887 3.458 1.359a2.2 2.2 0 0 0 .848.177c.443 0 1.092-.149 1.671-.859.209-.257.339-.516.443-.725.033-.065.065-.13.1-.192.654-1.142.458-2.146-.582-2.982l-1.143-.912c-.532-.423-1.083-.861-1.617-1.293a2.432 2.432 0 0 1-.226-.201c.151-.45.363-.902.604-1.399l.053-.113.064-.133c.05-.006.113-.009.189-.009.08 0 .167.004.259.012a59.31 59.31 0 0 1 2.185.243c.426.053.853.105 1.279.153.135.015.257.022.373.022 1.092 0 1.865-.718 1.97-1.83.022-.244.092-.49.187-.661.313-.561.384-1.103.21-1.611-.26-.761-.931-1.048-1.292-1.202l-.07-.031-1.24-.536c-.702-.303-1.429-.616-2.134-.932-.119-.053-.233-.128-.201-.399.024-.218.053-.434.082-.65.025-.18.049-.362.071-.543l.01-.072a78.318 78.318 0 0 1 3.69-.561c.565-.069 1.901-.396 2.08-1.961Zm-43.651-1.485.046.35c.16 1.212-.145 2.409-.963 3.766-.506.839-.965 1.704-1.41 2.541-.271.511-.552 1.04-.836 1.547-.167.301-.355.598-.554.913-.214.34-.436.691-.643 1.064-.34.614-.674 1.238-.997 1.843-.414.773-.841 1.574-1.279 2.342l-.095.167c-.553.972-1.075 1.889-1.89 2.393-.201.124-.488.227-.791.335l-.186.066c-.681-.15-1.264-.518-1.857-1.163-1.448-1.57-2.38-2.948-2.936-4.34a50.986 50.986 0 0 1-2.04-6.345c-.467-1.834-.647-3.851-.567-6.349.071-2.242.579-4.567 1.554-7.107l.029-.076c.217-.566.422-1.101.687-1.559l.115-.197c.699-1.203 1.423-2.447 2.223-3.569a8.232 8.232 0 0 1 1.727-1.781c.431-.324.842-.489 1.22-.489.694 0 1.233.564 1.563 1.036.805 1.15 1.539 2.41 2.248 3.63l.406.696a733.181 733.181 0 0 1 4.166 7.239l.145.252c.261.45.507.876.636 1.278.143.446.209.966.279 1.517Zm26.788 5.543c1.446.043 1.837.516 2.026.973.24.578.294.875.198 1.099-.14.33-.187.637-.225.883-.009.055-.016.11-.027.164-.474 2.586-1.936 4.734-3.446 6.67-.72.924-1.568 1.792-2.374 2.603-2.023 2.034-4.531 3.663-7.453 4.84-1.978.798-3.644 1.245-5.243 1.409-.368.038-.737.083-1.093.126-.909.109-1.768.213-2.608.213a8.36 8.36 0 0 1-.354-.007l-.256-.01c-1.609-.06-3.13-.117-4.478-.75-.893-.42-1.081-.798-1.152-1.145-.233-1.132.083-1.67.383-2.013.166-.191.29-.417.357-.658.086-.296.312-.61.574-.974.187-.261.4-.557.585-.888 1.03-1.847 2.116-3.71 3.166-5.512.481-.825.961-1.65 1.439-2.477.175-.303.337-.608.494-.903.265-.5.515-.972.803-1.391 1.035-1.5 2.423-2.241 4.242-2.264.842-.011 1.745-.016 2.841-.016.744 0 1.489.002 2.233.004.748.002 1.495.005 2.243.005.707 0 1.415-.005 2.122-.009.703-.004 1.405-.009 2.107-.009 1.126 0 2.046.012 2.896.037ZM46.346 33.6c-.661-1.165-1.506-2.706-2.184-4.295-.217-.508-.24-.955-.069-1.331.191-.417.624-.752 1.22-.944.909-.293 1.928-.429 2.805-.524a21.23 21.23 0 0 1 2.285-.129c.25 0 .499.005.741.015 4.914.206 9.369 1.759 13.239 4.618 2.736 2.02 4.939 4.513 6.548 7.412.552.994 1.104 2.062 1.402 3.131.228.818.289 1.759.17 2.648-.051.38-.516.643-.899.752-.654.188-1.251.288-1.777.299-.827.017-1.732.025-2.848.025-.607 0-1.215-.003-1.823-.005-.61-.002-1.221-.004-1.832-.004-.659 0-1.319.005-1.98.01-.653.005-1.306.01-1.959.01a72.35 72.35 0 0 1-2.827-.047c-.808-.033-1.696-.219-2.569-.54-1.023-.375-1.862-1.195-2.72-2.658l-1.199-2.039a447.967 447.967 0 0 1-3.724-6.404Z" style="fill:#080605"/>
</svg>
