<svg xmlns="http://www.w3.org/2000/svg" xmlns:xlink="http://www.w3.org/1999/xlink" xml:space="preserve" style="fill-rule:evenodd;clip-rule:evenodd;stroke-linejoin:round;stroke-miterlimit:2" viewBox="0 0 100 100">
  <defs>
    <path id="path-3_14_" d="m52.918 26.935 1.1.155 1.203-2.973c.359-.959.564-.818.55.077l-.103 3.128c.33.046.755.218 1.085.264l1.518-2.816c.454-.834.674-.803.535.187l-.543 3.066c.314.156.739.328 1.069.375l1.817-2.55c.564-.819.768-.678.519.297l-.873 3.019c.315.157.739.328 1.038.595l2.022-2.409c.658-.693.863-.552.519.298l-1.203 2.972c.299.267.614.423.913.689l2.321-2.142c.768-.677.973-.536.504.408l-1.503 2.706c.299.266.599.533.788.784l2.604-1.766c.753-.568.958-.427.394.392l-1.958 2.754c.299.266.488.517.772.894l2.778-1.405c.847-.442 1.052-.301.378.502l-2.116 2.283c.189.251.473.628.647.989l2.967-1.154c.942-.316 1.021-.081.268.487l-2.415 2.016.521 1.083 3.031-.808c.926-.206 1.005.029.268.487l-2.605 1.765c.174.361.238.707.411 1.068l3.095-.463c.911-.096 1.1.155.143.581l-2.778 1.405c.063.346.237.707.285 1.162l3.033-.022c1.005.029.975.249.142.581l-2.841 1.059c.063.346.112.801.175 1.147l3.096.323c.991.139.96.359.033.565l-3.015.699c.063.345.002.785-.045 1.115l2.925.748c.974.249.943.469-.078.55l-3.079.353-.17 1.21 2.894.968c.959.359.928.579-.078.55l-3.032.023c-.062.44-.219.754-.281 1.194l2.722 1.393c.834.454.803.674-.187.534l-2.971-.417c-.157.315-.218.755-.375 1.069l2.565 1.707c.819.564.678.769-.187.535l-2.924-.748c-.157.315-.329.74-.485 1.054l2.299 2.006c.693.659.662.879-.298.52l-2.768-1.063c-.266.299-.438.724-.705 1.023l2.048 2.196c.693.658.537.973-.407.503l-2.77-1.848-.799.898 1.796 2.384c.568.753.427.958-.391.394l-2.456-1.692c-.266.3-.533.599-.894.772l1.546 2.574c.442.848.301 1.052-.502.378l-2.299-2.006c-.376.284-.627.473-.988.647l1.185 2.747c.426.957.191 1.036-.487.268l-2.047-2.195-1.084.521.824 2.921c.317.942.081 1.021-.486.268l-1.672-2.479a9.691 9.691 0 0 1-1.193.505l.479 2.985c.206.927-.03 1.006-.582.143l-1.42-2.668c-.345.063-.816.221-1.162.285l.148 2.938c.081 1.021-.249.975-.581.143l-1.106-2.512c-.345.064-.801.112-1.146.176l-.198 3.001c-.029 1.006-.359.96-.565.033l-.824-2.921c-.346.064-.786.002-1.241.05l-.638 2.94c-.139.99-.469.944-.566.033l-.242-3.064c-.44-.062-.77-.108-1.226-.06l-.968 2.894c-.359.959-.579.928-.55-.078l-.022-3.032c-.441-.062-.771-.109-1.195-.28l-1.283 2.737c-.343.849-.673.803-.534-.188l.307-2.986c-.424-.172-.755-.218-1.069-.375l-1.707 2.566c-.454.833-.784.787-.535-.188l.638-2.94c-.315-.156-.739-.328-1.054-.484l-1.912 2.424c-.563.818-.878.662-.519-.298l.968-2.893c-.315-.156-.614-.423-1.039-.595l-2.21 2.158c-.659.693-.863.552-.52-.297l1.393-2.722c-.299-.266-.599-.533-.913-.689l-2.4 1.906c-.753.568-.958.427-.394-.391l1.707-2.566c-.299-.266-.598-.533-.772-.894l-2.542 1.326c-.863.552-1.053.301-.394-.392l1.911-2.424c-.299-.266-.472-.628-.662-.878l-2.762 1.294c-.848.442-1.037.191-.378-.502l2.21-2.157c-.173-.361-.363-.612-.536-.973l-2.937.933c-.942.317-1.021.081-.268-.486l2.51-1.892c-.174-.361-.347-.722-.411-1.067l-3 .588c-.926.206-1.006-.029-.143-.581l2.684-1.53c-.174-.361-.237-.707-.301-1.052l-3.284.211c-1.021.081-1.1-.154-.142-.581l2.857-1.169c-.064-.346-.112-.801-.176-1.147l-3.127-.103c-1.006-.029-.975-.249-.033-.565l2.937-.934c-.064-.346-.002-.786-.066-1.131l-3.065-.543c-.99-.139-.944-.47-.033-.566l3.11-.573c.047-.33-.002-.785.045-1.115l-3.019-.873c-.975-.25-.929-.58.077-.551l3.158-.117.155-1.1-2.863-1.188c-.849-.344-.802-.674.188-.535l3.112.213c.046-.33.218-.754.374-1.069L25.2 41.329c-.834-.454-.803-.674.187-.535l3.066.543c.156-.315.328-.739.485-1.054l-2.55-1.817c-.819-.564-.678-.768.297-.519l3.004.983c.156-.315.423-.614.579-.928l-2.283-2.117c-.693-.658-.552-.863.297-.519l2.847 1.298c.267-.299.423-.614.69-.913l-2.017-2.415c-.678-.769-.427-.958.392-.394l2.69 1.612c.267-.299.518-.488.784-.787l-1.75-2.714c-.552-.863-.317-.943.392-.394l2.534 1.927c.267-.299.628-.473.894-.772l-1.358-3.108c-.442-.848-.191-1.037.502-.379l2.267 2.227c.251-.19.612-.363.973-.537l-1.043-2.952c-.317-.942-.081-1.021.486-.268l2.001 2.525c.361-.173.722-.347.973-.536l-.682-3.126c-.207-.926.029-1.005.596-.252l1.641 2.699c.361-.174.706-.238 1.052-.301l-.338-3.189c-.08-1.022.155-1.101.582-.143l1.279 2.873 1.036-.191.103-3.128c.03-1.005.25-.974.566-.032l.918 3.046c.346-.064.801-.112 1.132-.065l.448-3.191c.139-.99.359-.96.566-.033l.682 3.126c.33.046.786-.002 1.116.044l.763-3.034c.249-.975.469-.944.55.077l.369 2.969ZM47.34 69.013c10.453 1.469 20.116-5.813 21.585-16.266 1.469-10.452-5.812-20.115-16.265-21.584-10.453-1.47-20.21 5.687-21.679 16.139-1.47 10.453 5.907 20.242 16.359 21.711Z" style="fill-rule:nonzero"/>
  </defs>
  <g id="Symbols_8_">
    <g id="Graphics-_x2F_-App-Icons-_x2F_-Settings-">
      <g id="Settings-Icon">
        <path id="Background_9_" d="M65.111 0c10 0 15 0 20.445 1.667a21.022 21.022 0 0 1 12.666 12.666C100 19.778 100 24.889 100 34.889v30.222c0 10 0 15-1.667 20.445a21.022 21.022 0 0 1-12.666 12.666C80.111 100 75.111 100 65.111 100H34.889c-10 0-15 0-20.445-1.667-6-2.222-10.555-6.777-12.777-12.777C0 80.222 0 75.222 0 65.111V34.889c0-10 0-15 1.667-20.445C3.889 8.556 8.444 3.889 14.444 1.778 19.778 0 24.778 0 34.889 0h30.222ZM50 6.667C26.084 6.667 6.667 26.084 6.667 50c0 23.916 19.417 43.333 43.333 43.333 23.916 0 43.333-19.417 43.333-43.333C93.333 26.084 73.916 6.667 50 6.667Z" style="fill:url(#_Linear1)"/>
        <g id="Shape_3_">
          <g>
            <use xlink:href="#path-3_14_" style="fill-rule:nonzero"/>
          </g>
          <g>
            <use xlink:href="#path-3_14_" id="path-3_4_" style="fill:#7f7f7f;fill-rule:nonzero"/>
          </g>
          <g>
            <use xlink:href="#path-3_14_" id="path-3_15_" style="fill:#777;fill-rule:nonzero"/>
          </g>
        </g>
        <g id="Shape_1_">
          <g>
            <path d="M76 51.889H54.778c-1.778 0-4.111 1.222-5 2.889L38.889 73.667c-1.222 2-.222 4.444 2.111 5.555C44.444 81.111 53.444 81 60.333 79c5.334-1.889 9.889-5.222 13.445-9.444 4.666-5.889 6.111-11.889 6.111-13.667 0-2-1.556-4-3.889-4Z" style="fill:none;fill-rule:nonzero"/>
            <circle cx="50" cy="50" r="1.667" style="fill:none"/>
            <path d="M89 52c1.444-.222 1.444-.556 0-.889l-4.111-.778v-2l4-1c1.444-.333 1.333-.777-.111-.889l-4.111-.333c-.111-.667-.111-1.222-.223-1.889l3.889-1.444c1.334-.556 1.334-.889-.111-.889L84.111 42c-.111-.667-.333-1.222-.444-1.889l3.666-1.889c1.334-.666 1.111-1-.222-.778L83 38.111c-.222-.555-.444-1.222-.667-1.778L85.778 34c1.222-.889 1-1.222-.334-.778l-4 1.111c-.333-.555-.555-1.111-.888-1.666l3.111-2.778c1.111-1 .889-1.333-.445-.778l-3.778 1.556c-.333-.556-.777-1.111-1.111-1.556L81.111 26c1-1.111.778-1.333-.555-.667l-3.889 2c-.445-.444-.778-1-1.223-1.444l2.445-3.445c.889-1.222.555-1.444-.667-.666l-3.333 2.444c-.445-.444-.889-.889-1.445-1.222l2-3.667c.667-1.333.334-1.555-.666-.555l-3 2.778c-.556-.334-1-.778-1.556-1.112l1.556-3.888C71.333 15.222 71 15 70 16.111l-2.667 3.111c-.555-.333-1.111-.555-1.666-.889l1-4c.333-1.444 0-1.555-.778-.333l-2.222 3.444c-.556-.222-1.223-.444-1.778-.666l.555-4.111c.223-1.445-.111-1.556-.777-.223l-1.889 3.667c-.556-.222-1.222-.333-1.889-.444L58 11.556c0-1.445-.333-1.556-.889-.112l-1.444 3.889c-.667-.111-1.223-.222-1.889-.222l-.667-4C53 9.667 52.556 9.667 52.222 11l-1 4h-1.889l-.889-4.111c-.333-1.445-.666-1.445-.888 0L47.111 15c-.667 0-1.222.111-1.889.222l-1.444-3.889c-.445-1.333-.889-1.333-.889.111L43 15.556c-.667.111-1.222.222-1.889.444l-1.778-3.778c-.666-1.333-1-1.222-.889.222l.445 4.112c-.556.222-1.222.444-1.778.666l-2.222-3.444c-.778-1.222-1.111-1.111-.778.333l1 4c-.555.222-1.111.556-1.667.889l-2.666-3.222c-.889-1.111-1.222-.889-.778.444l1.444 3.889c-.555.333-1.111.667-1.555 1l-3-2.889c-1.111-1-1.333-.778-.667.556l1.889 3.666c-.444.445-1 .778-1.444 1.223l-3.334-2.445c-1.222-.889-1.444-.555-.666.556L25 25.222c-.444.445-.889.889-1.333 1.445l-3.556-2.111c-1.222-.778-1.555-.445-.555.666l2.666 3.111c-.333.445-.778 1-1.111 1.556l-3.778-1.667C16 27.667 15.778 28 16.889 29L20 31.778c-.333.555-.667 1.111-.889 1.666l-4-1.111c-1.444-.444-1.555 0-.333.778l3.333 2.333c-.222.556-.555 1.112-.778 1.778l-4.111-.666c-1.444-.223-1.555.111-.333.777l3.667 2c-.223.556-.334 1.223-.556 1.778L11.889 41c-1.445 0-1.556.333-.222.889l3.889 1.444c-.112.667-.223 1.223-.334 1.889l-4.111.556c-1.444.111-1.444.444-.111.889l4 1.111c0 .666-.111 1.222-.111 1.889l-4.111.777c-1.445.223-1.445.667 0 .889l4.111.556c0 .667.111 1.222.111 1.889L11 55c-1.444.444-1.333.778.111.889l4.111.111c.111.667.222 1.222.334 1.889l-3.778 1.778c-1.334.666-1.222 1 .222.889l4.111-.445c.222.667.333 1.222.556 1.889l-3.556 2.111c-1.222.778-1.111 1.111.333.778L17.556 64c.222.556.555 1.111.777 1.778l-3.222 2.555c-1.111.889-1 1.223.445.778l3.888-1.333 1 1.666-2.666 2.667c-1 1-.778 1.333.444.667L22 71c.333.556.778 1 1.222 1.444l-2.555 3.223c-.889 1.111-.667 1.444.555.666l3.445-2.222L26 75.444 23.889 79c-.778 1.222-.445 1.444.667.556l3.222-2.667c.444.444 1 .778 1.555 1.222l-1.777 3.778c-.667 1.333-.334 1.555.666.444l2.889-3 1.667 1-1.334 3.889c-.444 1.334-.111 1.556.778.445l2.556-3.334c.555.223 1.111.556 1.778.778l-.778 4.111c-.334 1.445.111 1.556.778.334L38.667 83c.555.222 1.222.444 1.777.556L40 87.778c-.111 1.444.222 1.555.889.222l1.667-3.778c.666.111 1.222.222 1.888.334l.223 4.111c.111 1.444.444 1.444.889.111l1.111-4c.666.111 1.333.111 1.889.111L49.222 89c.222 1.444.556 1.444.889 0l.778-4.111c.667 0 1.222 0 1.889-.111l1.111 4c.444 1.444.778 1.333.889-.111L55 84.556c.667-.112 1.222-.223 1.889-.334L58.444 88c.556 1.333.889 1.222.889-.222l-.444-3.889c.667-.111 1.222-.333 1.778-.556l2.111 3.556c.778 1.222 1.111 1.111.778-.333l-.778-4.112c.555-.222 1.222-.444 1.778-.777L67 85c.889 1.222 1.222 1 .778-.444l-1.111-3.778 1.666-1 2.778 3c1 1.111 1.333.889.778-.445l-1.667-3.777c.556-.334 1-.778 1.556-1.112L75 80.111c1.111.889 1.444.667.667-.555L73.556 76l1.333-1.333 3.444 2.222c1.223.778 1.445.555.556-.667L76.333 73c.445-.444.778-1 1.223-1.444l3.777 1.888c1.334.667 1.556.334.556-.666l-3-3c.333-.556.667-1 1-1.556l3.889 1.334c1.333.444 1.555.111.444-.778L81 66.222c.333-.555.556-1.111.889-1.778l4 .889c1.444.334 1.555 0 .333-.777l-3.555-2.223c.222-.555.444-1.222.666-1.777l4.111.444c1.445.111 1.556-.222.223-.889l-3.778-1.778c.111-.666.333-1.222.444-1.889l4.111-.111c1.445 0 1.556-.444.112-.889l-3.889-1c.111-.666.111-1.222.222-1.888L89 52ZM35.444 71.556c-1.111 2-4 2.222-5.777 1.222-1.223-.667-4.111-3.445-6.778-7.778-2.445-4.444-3.778-9.444-3.778-14.889C19.111 41 23 32.889 29.333 27.222c2-1.111 4.778-.889 5.889 1l11 18.889c.889 1.556.889 4.556-.111 6.111L35.444 71.556Zm38.334-2c-3.556 4.222-8.111 7.555-13.445 9.444-6.889 2-15.889 2.111-19.333.222-2.333-1.111-3.222-3.555-2.111-5.555l10.889-18.889c.889-1.556 3.222-2.889 5-2.889H76c2.333 0 3.889 2 3.889 4 0 1.778-1.445 7.889-6.111 13.667ZM48.333 50c0-.889.778-1.667 1.667-1.667s1.667.778 1.667 1.667-.778 1.667-1.667 1.667-1.667-.778-1.667-1.667Zm28.111-2H54.222c-1.889-.111-4.111-1.667-5-3.333L38.667 26.333c-1.111-2 .111-4.222 1.889-5.222 1.222-.667 5.111-1.889 10.222-1.889 14.555.334 26.555 10.889 29.333 24.667.333 2.333-1.667 4.111-3.667 4.111Z" style="fill:url(#_Linear2);fill-rule:nonzero"/>
          </g>
        </g>
      </g>
    </g>
  </g>
  <defs>
    <linearGradient id="_Linear1" x1="0" x2="1" y1="0" y2="0" gradientTransform="rotate(90 24.977 25.008) scale(99.9667)" gradientUnits="userSpaceOnUse">
      <stop offset="0" style="stop-color:#d3d7dd;stop-opacity:1"/>
      <stop offset="1" style="stop-color:#888c90;stop-opacity:1"/>
    </linearGradient>
    <linearGradient id="_Linear2" x1="0" x2="1" y1="0" y2="0" gradientTransform="rotate(90 20.019 29.96) scale(80.2304)" gradientUnits="userSpaceOnUse">
      <stop offset="0" style="stop-color:#d9dadb;stop-opacity:1"/>
      <stop offset="1" style="stop-color:#7d8082;stop-opacity:1"/>
    </linearGradient>
  </defs>
</svg>
