<svg xmlns="http://www.w3.org/2000/svg" xml:space="preserve" style="fill-rule:evenodd;clip-rule:evenodd;stroke-linejoin:round;stroke-miterlimit:2" viewBox="0 0 100 100">
  <path d="m37.433.032 2.995-.014 24.188.026 7.439.018c3.948.012 8.019.032 11.863 1.043.223.058.446.119.667.185a19.41 19.41 0 0 1 1.314.433 20.976 20.976 0 0 1 3.732 1.807 20.631 20.631 0 0 1 1.156.762 22.149 22.149 0 0 1 1.102.837c.18.145.356.294.53.445a18.833 18.833 0 0 1 1.015.942c6.012 5.969 6.53 13.107 6.559 21.141l.006 32.213-.001 10.378c-.001 4.315.093 8.783-.893 13.01a21.359 21.359 0 0 1-1.423 4.183 20.325 20.325 0 0 1-1.032 1.957 19.92 19.92 0 0 1-.8 1.24 23.284 23.284 0 0 1-.885 1.181 19.692 19.692 0 0 1-.966 1.115c-.167.181-.337.358-.511.532-5.78 5.805-12.429 6.388-20.214 6.504-3.558.053-7.12.02-10.678.019l-25.444.001-8.286-.002c-4.078-.007-8.324.023-12.307-.957a22.52 22.52 0 0 1-1.353-.373 19.996 19.996 0 0 1-1.326-.462 21.542 21.542 0 0 1-1.923-.856 21.607 21.607 0 0 1-2.413-1.432 20.433 20.433 0 0 1-1.672-1.278 19.381 19.381 0 0 1-1.041-.942C.846 87.829.159 81.03.083 73.061L.013 40.99c-.028-4.076-.011-8.151.051-12.227.047-4.05-.001-8.185.945-12.148a20.178 20.178 0 0 1 .375-1.384 22.625 22.625 0 0 1 .469-1.356 22.514 22.514 0 0 1 .874-1.965 22.613 22.613 0 0 1 .693-1.256 19.23 19.23 0 0 1 .777-1.205 19.942 19.942 0 0 1 1.314-1.702 20.303 20.303 0 0 1 .971-1.056C12.498.579 19.713.089 27.839.063l9.594-.031Zm35.805 66.656c-2.149.183-4.104 1.139-5.506 2.836a7.35 7.35 0 0 0-.476.638 8.331 8.331 0 0 0-.412.683 7.965 7.965 0 0 0-.726 1.859 7.627 7.627 0 0 0-.162.786 8.792 8.792 0 0 0-.085.797 8.993 8.993 0 0 0-.007.803 8.85 8.85 0 0 0 .069.798c.018.132.039.264.064.395a7.541 7.541 0 0 0 .183.777 8.4 8.4 0 0 0 .257.755 7.918 7.918 0 0 0 .329.726 8.35 8.35 0 0 0 .62 1.017 8.47 8.47 0 0 0 .761.913 9.209 9.209 0 0 0 .577.54c1.494 1.259 3.574 2.007 5.519 1.837.021-.001.041-.004.062-.007 2.152-.189 4.1-1.137 5.507-2.836a7.655 7.655 0 0 0 .893-1.326 7.998 7.998 0 0 0 .345-.724 8.547 8.547 0 0 0 .382-1.144 8.608 8.608 0 0 0 .16-.789 8.918 8.918 0 0 0 .082-.802 7.739 7.739 0 0 0-.023-1.208 7.451 7.451 0 0 0-.108-.786 8.344 8.344 0 0 0-.439-1.521 9.034 9.034 0 0 0-.327-.72 7.764 7.764 0 0 0-.616-1.01 7.196 7.196 0 0 0-.488-.617 8.126 8.126 0 0 0-.838-.826c-1.494-1.271-3.584-2.023-5.534-1.852l-.063.008ZM49.195 42.154c-2.135.204-4.084 1.169-5.469 2.866a7.382 7.382 0 0 0-.474.642 8.383 8.383 0 0 0-.41.687 7.48 7.48 0 0 0-.341.724 8.514 8.514 0 0 0-.377 1.144 8.552 8.552 0 0 0-.206 1.187 7.765 7.765 0 0 0-.042.804 8.986 8.986 0 0 0 .037.804 8.682 8.682 0 0 0 .196 1.176 7.543 7.543 0 0 0 .224.763 8.318 8.318 0 0 0 .47 1.092 7.823 7.823 0 0 0 .399.684 8.962 8.962 0 0 0 .463.64 8.11 8.11 0 0 0 1.098 1.126c1.505 1.256 3.601 2.012 5.553 1.821l.059-.007c2.114-.183 4.062-1.153 5.444-2.816a8.245 8.245 0 0 0 .893-1.317 7.406 7.406 0 0 0 .347-.719 8.449 8.449 0 0 0 .477-1.526 8.793 8.793 0 0 0 .125-.792 7.665 7.665 0 0 0 .048-.8 7.647 7.647 0 0 0-.029-.802 8.905 8.905 0 0 0-.103-.791 8.745 8.745 0 0 0-.297-1.158 7.923 7.923 0 0 0-.29-.741 7.86 7.86 0 0 0-.565-1.049 7.87 7.87 0 0 0-.976-1.243 8.152 8.152 0 0 0-.573-.541c-1.482-1.263-3.662-2.088-5.606-1.868l-.075.01Zm.001 24.533c-2.137.205-4.084 1.169-5.47 2.867a8.292 8.292 0 0 0-.688.98 7.429 7.429 0 0 0-.196.349 7.48 7.48 0 0 0-.341.724 8.514 8.514 0 0 0-.377 1.144 8.552 8.552 0 0 0-.206 1.187 7.765 7.765 0 0 0-.041.804 7.701 7.701 0 0 0 .037.804 7.459 7.459 0 0 0 .111.788 8.357 8.357 0 0 0 .447 1.523 9.065 9.065 0 0 0 .331.72 7.823 7.823 0 0 0 .399.684 8.962 8.962 0 0 0 .463.64 8.11 8.11 0 0 0 .804.865c.096.089.194.176.295.26 1.504 1.256 3.599 2.014 5.551 1.822l.058-.007c2.116-.183 4.063-1.153 5.446-2.816a7.405 7.405 0 0 0 .48-.639 8.409 8.409 0 0 0 .416-.684 7.49 7.49 0 0 0 .348-.723 8.057 8.057 0 0 0 .476-1.534 8.626 8.626 0 0 0 .124-.795 9.07 9.07 0 0 0 .046-.805 7.745 7.745 0 0 0-.032-.805 7.601 7.601 0 0 0-.106-.79 8.42 8.42 0 0 0-.3-1.156 8.327 8.327 0 0 0-.859-1.785 8.152 8.152 0 0 0-1.554-1.778c-1.479-1.254-3.65-2.071-5.587-1.853l-.075.009Zm24.026-49.068c-2.149.187-4.108 1.155-5.505 2.855a8.26 8.26 0 0 0-.885 1.325 7.445 7.445 0 0 0-.342.722 7.4 7.4 0 0 0-.271.754 7.393 7.393 0 0 0-.197.778 7.592 7.592 0 0 0-.121.794 8.857 8.857 0 0 0-.044.802 8.91 8.91 0 0 0 .08 1.199 8.776 8.776 0 0 0 .148.785 8.42 8.42 0 0 0 .362 1.14 7.875 7.875 0 0 0 .73 1.411 7.938 7.938 0 0 0 .719.947 8.168 8.168 0 0 0 .847.827c1.498 1.252 3.573 1.998 5.516 1.822l.055-.007c2.171-.193 4.13-1.159 5.538-2.883a9.012 9.012 0 0 0 .47-.638 8.25 8.25 0 0 0 1.011-2.151 8.376 8.376 0 0 0 .343-1.961 7.532 7.532 0 0 0 .003-.798 8.805 8.805 0 0 0-.137-1.192 8.818 8.818 0 0 0-.186-.779 8.008 8.008 0 0 0-.594-1.482 7.926 7.926 0 0 0-1.123-1.638 7.407 7.407 0 0 0-.554-.567 8.176 8.176 0 0 0-.297-.262c-1.487-1.248-3.578-1.985-5.508-1.81l-.058.007Zm-.033 24.535c-2.138.194-4.1 1.168-5.485 2.865a8.257 8.257 0 0 0-1.755 3.968 8.931 8.931 0 0 0-.082.797 7.667 7.667 0 0 0-.011.401 7.681 7.681 0 0 0 .034.8 8.805 8.805 0 0 0 .11.792 7.298 7.298 0 0 0 .185.776c.038.128.078.255.121.381a9.195 9.195 0 0 0 .47 1.097 9.078 9.078 0 0 0 .4.688 8.202 8.202 0 0 0 .988 1.236 7.326 7.326 0 0 0 .578.538c1.487 1.243 3.627 2.034 5.562 1.821l.048-.007c2.149-.194 4.109-1.174 5.499-2.881a7.41 7.41 0 0 0 .474-.644 7.413 7.413 0 0 0 .409-.689c.063-.118.123-.238.179-.359a8.514 8.514 0 0 0 .305-.743 8.543 8.543 0 0 0 .385-1.561 9.083 9.083 0 0 0 .077-.802 9.064 9.064 0 0 0-.001-.806 8.834 8.834 0 0 0-.144-1.191 8.71 8.71 0 0 0-.19-.773 8.33 8.33 0 0 0-.791-1.816 7.243 7.243 0 0 0-.209-.336 7.255 7.255 0 0 0-.465-.639 7.386 7.386 0 0 0-.526-.589 7.317 7.317 0 0 0-.579-.533c-1.483-1.231-3.614-2.009-5.537-1.798a.385.385 0 0 0-.049.007ZM25.28 17.619c-2.144.182-4.087 1.135-5.492 2.82a9.368 9.368 0 0 0-.477.636 7.327 7.327 0 0 0-.414.681 7.91 7.91 0 0 0-.493 1.091 7.337 7.337 0 0 0-.128.379 8.498 8.498 0 0 0-.274 1.169 8.948 8.948 0 0 0-.088.797 8.95 8.95 0 0 0-.009.802 8.75 8.75 0 0 0 .128 1.191 7.28 7.28 0 0 0 .18.776 8.376 8.376 0 0 0 .253.755 9.106 9.106 0 0 0 .325.725c.06.118.123.235.189.349a7.295 7.295 0 0 0 .426.669 7.911 7.911 0 0 0 .754.913 8.183 8.183 0 0 0 .573.542c1.477 1.26 3.607 2.058 5.544 1.868l.074-.008c2.155-.193 4.093-1.137 5.503-2.837a8.31 8.31 0 0 0 .893-1.326 8.016 8.016 0 0 0 .619-1.48 7.447 7.447 0 0 0 .198-.781 8.621 8.621 0 0 0 .122-.796 9.06 9.06 0 0 0 .043-.805 7.74 7.74 0 0 0-.035-.805 8.838 8.838 0 0 0-.108-.786 8.35 8.35 0 0 0-.956-2.588 8.168 8.168 0 0 0-.663-.978 8.22 8.22 0 0 0-1.089-1.129c-1.495-1.271-3.584-2.02-5.536-1.851l-.062.007Zm-.048 24.535c-2.139.193-4.1 1.168-5.486 2.866a6.94 6.94 0 0 0-.244.315 7.392 7.392 0 0 0-.443.665 7.429 7.429 0 0 0-.196.349 7.48 7.48 0 0 0-.341.725 8.02 8.02 0 0 0-.377 1.143 9.113 9.113 0 0 0-.157.788 8.909 8.909 0 0 0-.079.801 7.705 7.705 0 0 0-.003.804 9.05 9.05 0 0 0 .14 1.19 9.075 9.075 0 0 0 .187.773c.038.127.078.253.121.378a9.065 9.065 0 0 0 .471 1.092 8.943 8.943 0 0 0 .398.684 8.962 8.962 0 0 0 .463.64 8.11 8.11 0 0 0 1.098 1.126c1.498 1.252 3.606 2.017 5.552 1.822l.058-.008c2.149-.193 4.109-1.175 5.498-2.88a8.1 8.1 0 0 0 1.368-2.436 8.107 8.107 0 0 0 .317-1.164 7.474 7.474 0 0 0 .116-.797 7.757 7.757 0 0 0 .038-.805 7.715 7.715 0 0 0-.04-.805 8.947 8.947 0 0 0-.114-.789 8.71 8.71 0 0 0-.312-1.151 8.35 8.35 0 0 0-.668-1.438 8.991 8.991 0 0 0-.209-.337 8.98 8.98 0 0 0-.466-.638 7.386 7.386 0 0 0-.256-.301 8.143 8.143 0 0 0-.849-.821c-1.493-1.24-3.593-1.992-5.526-1.799a1.05 1.05 0 0 0-.059.008ZM49.203 17.62c-2.165.209-4.125 1.187-5.518 2.918a7.369 7.369 0 0 0-.468.645 7.969 7.969 0 0 0-.404.689 8.503 8.503 0 0 0-.598 1.484 9.595 9.595 0 0 0-.104.388 7.424 7.424 0 0 0-.15.788 7.74 7.74 0 0 0-.075.8 8.939 8.939 0 0 0 .035 1.204 7.724 7.724 0 0 0 .119.792 8.51 8.51 0 0 0 .195.777 8.448 8.448 0 0 0 .61 1.476 9.084 9.084 0 0 0 .409.684c.073.11.15.219.228.326a7.479 7.479 0 0 0 .504.614c.088.099.179.194.273.288a8.154 8.154 0 0 0 .586.532c1.562 1.275 3.671 1.965 5.669 1.734a8.287 8.287 0 0 0 .768-.109 7.986 7.986 0 0 0 1.486-.447 7.547 7.547 0 0 0 .704-.333 7.036 7.036 0 0 0 .669-.402c.108-.072.214-.148.319-.225a8.842 8.842 0 0 0 .604-.498 9.05 9.05 0 0 0 .553-.556 9.158 9.158 0 0 0 .5-.614 9.171 9.171 0 0 0 .442-.667 9.204 9.204 0 0 0 .375-.709 9.3 9.3 0 0 0 .304-.743 8.543 8.543 0 0 0 .384-1.561 7.757 7.757 0 0 0 .086-1.205 7.77 7.77 0 0 0-.04-.804 8.56 8.56 0 0 0-.201-1.177 7.249 7.249 0 0 0-.227-.763 8.295 8.295 0 0 0-.475-1.091 7.789 7.789 0 0 0-.626-1.008 8.126 8.126 0 0 0-1.344-1.436c-1.467-1.224-3.634-2.018-5.541-1.799a.9.9 0 0 0-.051.008ZM25.278 66.687c-2.149.183-4.101 1.143-5.504 2.838a8.475 8.475 0 0 0-.691.974 8.357 8.357 0 0 0-.924 2.205 8.84 8.84 0 0 0-.161.786 7.56 7.56 0 0 0-.085.797 7.709 7.709 0 0 0-.007.803 8.85 8.85 0 0 0 .069.798 8.769 8.769 0 0 0 .146.787 7.555 7.555 0 0 0 .22.767A7.984 7.984 0 0 0 19 78.893a7.3 7.3 0 0 0 .431.668 8.204 8.204 0 0 0 .762.912 8.178 8.178 0 0 0 .577.539c1.504 1.261 3.566 2.004 5.519 1.837l.064-.007c2.184-.197 4.142-1.165 5.554-2.903a7.335 7.335 0 0 0 .471-.642 7.931 7.931 0 0 0 .583-1.045 9.241 9.241 0 0 0 .302-.741 8.45 8.45 0 0 0 .429-1.953 7.638 7.638 0 0 0 .037-.802 8.943 8.943 0 0 0-.04-.801 8.56 8.56 0 0 0-.201-1.178 7.555 7.555 0 0 0-.227-.763 7.26 7.26 0 0 0-.299-.736 7.353 7.353 0 0 0-.369-.703 8.21 8.21 0 0 0-.931-1.277 8.11 8.11 0 0 0-.553-.562 7.31 7.31 0 0 0-.296-.259c-1.488-1.238-3.547-1.963-5.472-1.797l-.063.007Z"/>
</svg>
