<svg xmlns="http://www.w3.org/2000/svg" xml:space="preserve" style="fill-rule:evenodd;clip-rule:evenodd;stroke-linejoin:round;stroke-miterlimit:2" viewBox="0 0 100 100">
  <g id="レイヤー1">
    <path d="m37.433.032 2.995-.014 24.188.026 7.439.018c3.948.012 8.019.032 11.863 1.043.223.058.446.119.667.185a19.41 19.41 0 0 1 1.314.433 20.976 20.976 0 0 1 3.732 1.807 20.631 20.631 0 0 1 1.156.762 22.149 22.149 0 0 1 1.102.837c.18.145.356.294.53.445a18.833 18.833 0 0 1 1.015.942c6.012 5.969 6.53 13.107 6.559 21.141l.006 32.213-.001 10.378c-.001 4.315.093 8.783-.893 13.01a21.359 21.359 0 0 1-1.423 4.183 20.325 20.325 0 0 1-1.032 1.957 19.92 19.92 0 0 1-.8 1.24 23.284 23.284 0 0 1-.885 1.181 19.692 19.692 0 0 1-.966 1.115c-.167.181-.337.358-.511.532-5.78 5.805-12.429 6.388-20.214 6.504-3.558.053-7.12.02-10.678.019l-25.444.001-8.286-.002c-4.078-.007-8.324.023-12.307-.957a22.52 22.52 0 0 1-1.353-.373 19.996 19.996 0 0 1-1.326-.462 21.542 21.542 0 0 1-1.923-.856 21.607 21.607 0 0 1-2.413-1.432 20.433 20.433 0 0 1-1.672-1.278 19.381 19.381 0 0 1-1.041-.942C.846 87.829.159 81.03.083 73.061L.013 40.99c-.028-4.076-.011-8.151.051-12.227.047-4.05-.001-8.185.945-12.148a20.178 20.178 0 0 1 .375-1.384 22.625 22.625 0 0 1 .469-1.356 22.514 22.514 0 0 1 .874-1.965 22.613 22.613 0 0 1 .693-1.256 19.23 19.23 0 0 1 .777-1.205 19.942 19.942 0 0 1 1.314-1.702 20.303 20.303 0 0 1 .971-1.056C12.498.579 19.713.089 27.839.063l9.594-.031Zm10.438 8.874c-11.289.795-21.236 5.511-28.7 14.092a37.053 37.053 0 0 0-1.293 1.559 39.742 39.742 0 0 0-1.215 1.62 42.532 42.532 0 0 0-1.135 1.677 38.421 38.421 0 0 0-1.052 1.731 40.142 40.142 0 0 0-1.845 3.605 42.665 42.665 0 0 0-.788 1.865 40.046 40.046 0 0 0-.697 1.902A41.548 41.548 0 0 0 9.02 47.858a42.812 42.812 0 0 0-.069 2.024 42.743 42.743 0 0 0 .255 5.046 42.716 42.716 0 0 0 .273 1.998 42.072 42.072 0 0 0 .373 1.981 41.052 41.052 0 0 0 1.038 3.896 39.678 39.678 0 0 0 .663 1.904 42.48 42.48 0 0 0 .758 1.869 39.757 39.757 0 0 0 1.789 3.613 39.56 39.56 0 0 0 2.139 3.417 39.408 39.408 0 0 0 1.822 2.414 36.799 36.799 0 0 0 1.313 1.531 39.923 39.923 0 0 0 2.845 2.856c.249.226.5.449.755.669 8.174 7.064 18.633 10.451 29.383 9.972 11.295-.837 21.156-5.632 28.58-14.245.225-.26.447-.522.666-.787a45.284 45.284 0 0 0 1.271-1.621 45.485 45.485 0 0 0 1.755-2.544 39.754 39.754 0 0 0 1.065-1.765 41.378 41.378 0 0 0 1.431-2.738 39.626 39.626 0 0 0 .841-1.881 41.398 41.398 0 0 0 2.201-6.86 41.86 41.86 0 0 0 1.053-10.224 44.188 44.188 0 0 0-.091-2.058 35.968 35.968 0 0 0-.08-.985 35.557 35.557 0 0 0-.233-1.963 39.692 39.692 0 0 0-2.603-9.51 40.66 40.66 0 0 0-1.232-2.697 38.105 38.105 0 0 0-1.429-2.597 36.606 36.606 0 0 0-1.058-1.67 41.842 41.842 0 0 0-1.14-1.615 41.703 41.703 0 0 0-1.857-2.311 38.458 38.458 0 0 0-2.733-2.855 38.118 38.118 0 0 0-2.088-1.841 43.54 43.54 0 0 0-1.268-1.001 43.42 43.42 0 0 0-1.972-1.406 41.174 41.174 0 0 0-7.852-4.117 43.187 43.187 0 0 0-2.279-.823 40.399 40.399 0 0 0-2.322-.688 42.725 42.725 0 0 0-2.359-.55 42.68 42.68 0 0 0-2.387-.412 42.742 42.742 0 0 0-2.407-.272c-1.951-.172-3.974-.245-5.928-.11l-.031.004Zm-7.654 27.103.02.017c.011.035.033.067.033.103 0 .175-3.225 7.834-3.624 8.814 3.357.077 6.731.009 10.09.009l17.063-.007c-1.198-3.007-2.464-5.991-3.7-8.983 1.192.55 2.357 1.18 3.53 1.773l6.405 3.244 17.759 8.999c-3.192 1.663-6.426 3.255-9.637 4.881l-17.971 9.098c-.02-.382 3.126-7.755 3.607-8.938l-27.142.002c1.135 3.026 2.46 6.003 3.669 9.002-3.121-1.7-6.363-3.229-9.537-4.832l-18.251-9.219c3.231-1.565 6.422-3.233 9.628-4.85l18.058-9.113Z"/>
  </g>
</svg>
