<svg xmlns="http://www.w3.org/2000/svg" xml:space="preserve" style="fill-rule:evenodd;clip-rule:evenodd;stroke-linejoin:round;stroke-miterlimit:2" viewBox="0 0 100 100">
  <g id="レイヤー1">
    <path d="m98.27 14.138.048.107c.944 2.173 1.301 5.179 1.468 7.526.288 4.042.202 8.137.202 12.187l-.001 17.169-.001 15.954c-.001 3.926.08 7.908-.253 11.821-.225 2.64-.719 5.236-1.72 7.698a21.578 21.578 0 0 1-.868 1.856 19.574 19.574 0 0 1-1.333 2.186 19.824 19.824 0 0 1-1.253 1.621c-.111.13-.223.258-.338.385a20.66 20.66 0 0 1-5.608 4.417 19.553 19.553 0 0 1-.913.464 21.6 21.6 0 0 1-.936.419c-2.345.982-4.845 1.497-7.369 1.738-4.102.391-8.299.298-12.417.299l-16.498.001-16.988-.001c-4.198-.001-8.457.089-12.64-.286-2.543-.228-5.071-.738-7.437-1.716a24.971 24.971 0 0 1-.943-.416 24.763 24.763 0 0 1-.921-.463 19.827 19.827 0 0 1-1.337-.777 24.556 24.556 0 0 1-.857-.573 20.085 20.085 0 0 1-1.23-.936A20.998 20.998 0 0 1 6.6 93.433a24.923 24.923 0 0 1-.71-.747 24.82 24.82 0 0 1-.672-.782 21.037 21.037 0 0 1-1.225-1.657 22.715 22.715 0 0 1-.55-.873 21.753 21.753 0 0 1-.742-1.356 19.79 19.79 0 0 1-.438-.933 21.77 21.77 0 0 1-.201-.475C1.08 84.226.593 81.702.358 79.142.02 75.465.129 71.746.102 68.058L.015 50.755c-.003-7.409-.112-14.838.08-22.243.062-2.397.022-4.789.221-7.182.209-2.528.616-5.144 1.598-7.499 1.679-4.857 5.765-9.02 10.334-11.246C14.796 1.343 17.558.69 20.366.394c4.028-.425 8.15-.306 12.197-.315L47.941.011l18.117.063c4.212.013 8.476-.1 12.677.227 2.338.183 4.659.584 6.878 1.353 5.38 1.863 9.561 5.824 12.026 10.912.233.482.514 1.051.631 1.572ZM3.8 17.098a36.315 36.315 0 0 0-.673 5.354c-.244 4.576-.202 9.191-.204 13.773v17.558l.058 13.725c.008 4.441-.244 11.356.867 15.511 1.24 4.639 4.28 8.832 8.474 11.219 2.414 1.374 4.901 2.161 7.657 2.486 3.921.462 7.938.352 11.881.353l15.418.001H65.58c2.831.012 5.662.003 8.492-.028 2.968-.05 6.179-.066 9.058-.862 4.698-1.299 8.8-4.327 11.206-8.592 1.345-2.386 2.093-4.877 2.404-7.596.428-3.752.339-7.575.341-11.347l.001-14.591-.001-19.273c-.001-3.896.106-7.832-.106-11.722-.126-2.31-.333-4.56-.958-6.793-1.88-5.211-4.721-8.888-9.822-11.276-2.204-1.032-4.44-1.527-6.854-1.754-3.861-.364-7.776-.262-11.651-.272L51.885 2.92l-18.684.049c-3.821.018-7.667-.08-11.479.196-2.141.156-4.203.437-6.231 1.173C10.868 6.016 7.135 9.31 5.046 13.78c-.33.705-.598 1.425-.851 2.161-.122.357-.216.834-.395 1.157Z"/>
    <path d="m26.084 9.991.248-.006c3.87-.079 7.753-.021 11.624-.022h32.073c3.264.002 6.691-.106 9.915.463 2.366.417 4.538 1.382 6.275 3.066 3.534 3.428 3.705 7.927 3.791 12.523.076 4.056.027 8.119.027 12.177v32.007c0 3.22.102 6.595-.464 9.773-.42 2.354-1.402 4.536-3.079 6.263-3.398 3.499-8.034 3.698-12.597 3.766l-.207.007c-3.853.097-7.721.027-11.576.027l-20.951.001-11.269-.001c-3.202-.001-6.589.105-9.753-.443-2.333-.404-4.528-1.34-6.254-2.989-3.477-3.32-3.78-7.543-3.881-12.049-.093-4.144-.04-8.297-.04-12.443V30.015c.001-3.332-.114-6.814.488-10.101.424-2.317 1.39-4.414 3.034-6.119 3.409-3.537 8.008-3.708 12.596-3.804Zm8.626 25.933.001 2.797 13.96-.002v-2.796l-13.961.001ZM18.455 17.617l-.003 3.488 6.648 3.341c.4.201 1.839.846 2.085 1.062.066.057.068.071.104.137-.033.145-.033.129-.151.205-.834.535-1.817.941-2.706 1.387-1.993 1.002-4 1.985-5.983 3.008l.006 3.506 2.217-1.236c3.307-1.823 6.659-3.594 9.926-5.487l-.004-2.718-8.632-4.766c-1.146-.626-2.312-1.414-3.507-1.927Z" style="fill:#272627"/>
  </g>
</svg>
