<svg xmlns="http://www.w3.org/2000/svg" xml:space="preserve" style="fill-rule:evenodd;clip-rule:evenodd;stroke-linejoin:round;stroke-miterlimit:2" viewBox="0 0 100 100">
  <g id="レイヤー1">
    <path d="m37.433.032 2.995-.014 24.188.026 7.439.018c3.948.012 8.019.032 11.863 1.043.223.058.446.119.667.185a19.41 19.41 0 0 1 1.314.433 20.976 20.976 0 0 1 3.732 1.807 20.631 20.631 0 0 1 1.156.762 22.149 22.149 0 0 1 1.102.837c.18.145.356.294.53.445a18.833 18.833 0 0 1 1.015.942c6.012 5.969 6.53 13.107 6.559 21.141l.006 32.213-.001 10.378c-.001 4.315.093 8.783-.893 13.01a21.359 21.359 0 0 1-1.423 4.183 20.325 20.325 0 0 1-1.032 1.957 19.92 19.92 0 0 1-.8 1.24 23.284 23.284 0 0 1-.885 1.181 19.692 19.692 0 0 1-.966 1.115c-.167.181-.337.358-.511.532-5.78 5.805-12.429 6.388-20.214 6.504-3.558.053-7.12.02-10.678.019l-25.444.001-8.286-.002c-4.078-.007-8.324.023-12.307-.957a22.52 22.52 0 0 1-1.353-.373 19.996 19.996 0 0 1-1.326-.462 21.542 21.542 0 0 1-1.923-.856 21.607 21.607 0 0 1-2.413-1.432 20.433 20.433 0 0 1-1.672-1.278 19.381 19.381 0 0 1-1.041-.942C.846 87.829.159 81.03.083 73.061L.013 40.99c-.028-4.076-.011-8.151.051-12.227.047-4.05-.001-8.185.945-12.148a20.178 20.178 0 0 1 .375-1.384 22.625 22.625 0 0 1 .469-1.356 22.514 22.514 0 0 1 .874-1.965 22.613 22.613 0 0 1 .693-1.256 19.23 19.23 0 0 1 .777-1.205 19.942 19.942 0 0 1 1.314-1.702 20.303 20.303 0 0 1 .971-1.056C12.498.579 19.713.089 27.839.063l9.594-.031Zm10.425 6.043c-2.483.167-4.921.449-7.355.985a40.74 40.74 0 0 0-1.674.407 39.194 39.194 0 0 0-1.658.472 41.053 41.053 0 0 0-1.637.536 46.019 46.019 0 0 0-2.414.923 45.998 45.998 0 0 0-3.126 1.449 46.274 46.274 0 0 0-1.519.815 42.392 42.392 0 0 0-1.485.874 38.838 38.838 0 0 0-1.45.931 47.108 47.108 0 0 0-1.412.987 44.174 44.174 0 0 0-12.636 14.321 43.959 43.959 0 0 0-2.323 4.904 44.117 44.117 0 0 0-2.591 9.402 42.704 42.704 0 0 0-.287 2.152 43.413 43.413 0 0 0-.23 3.249c-.012.362-.019.724-.023 1.086-.003.362-.001.724.004 1.085a43.451 43.451 0 0 0 .171 3.24 42.419 42.419 0 0 0 .402 3.193 42.394 42.394 0 0 0 .634 3.154 46.589 46.589 0 0 0 .864 3.1 40.429 40.429 0 0 0 .701 2.028 44.86 44.86 0 0 0 .799 1.991 42.89 42.89 0 0 0 1.379 2.907 42.95 42.95 0 0 0 1.036 1.879 43.028 43.028 0 0 0 1.723 2.718 40.734 40.734 0 0 0 1.257 1.738 45.573 45.573 0 0 0 1.341 1.675 41.615 41.615 0 0 0 2.16 2.385 45.203 45.203 0 0 0 1.535 1.499c.262.244.527.484.794.721 8.872 7.745 19.569 11.485 31.335 11.021a42.799 42.799 0 0 0 4.274-.419 42.475 42.475 0 0 0 2.116-.366 41.707 41.707 0 0 0 2.096-.469 41.736 41.736 0 0 0 3.095-.894 44.937 44.937 0 0 0 3.02-1.119 45.078 45.078 0 0 0 1.965-.868 42.981 42.981 0 0 0 3.79-2.019 47.699 47.699 0 0 0 1.816-1.146 44.68 44.68 0 0 0 5.083-3.952 45.075 45.075 0 0 0 3.043-3.03 45.915 45.915 0 0 0 2.095-2.472 45.265 45.265 0 0 0 1.294-1.731 45.17 45.17 0 0 0 1.207-1.792c.193-.303.383-.609.569-.918a41.253 41.253 0 0 0 1.072-1.876 43.495 43.495 0 0 0 2.644-5.912 45.574 45.574 0 0 0 .988-3.086 42.24 42.24 0 0 0 .531-2.095 47.187 47.187 0 0 0 .428-2.118 47.323 47.323 0 0 0 .322-2.136 42.93 42.93 0 0 0 .287-3.228 43.225 43.225 0 0 0 .011-4.32 43.43 43.43 0 0 0-.271-3.233 43.146 43.146 0 0 0-.73-4.264 47.313 47.313 0 0 0-.522-2.1 45.767 45.767 0 0 0-.975-3.095 47.762 47.762 0 0 0-1.202-3.015 43.587 43.587 0 0 0-1.941-3.865 41.406 41.406 0 0 0-.545-.935 41.398 41.398 0 0 0-1.156-1.829A45.381 45.381 0 0 0 84 22.125a46.056 46.056 0 0 0-2.15-2.43 45.99 45.99 0 0 0-1.531-1.529 39.444 39.444 0 0 0-.793-.736 41.906 41.906 0 0 0-2.469-2.082 45.005 45.005 0 0 0-2.616-1.894 45.01 45.01 0 0 0-1.818-1.154 45.243 45.243 0 0 0-3.795-2.035 48.155 48.155 0 0 0-1.968-.875 43.333 43.333 0 0 0-4.052-1.456 46.86 46.86 0 0 0-2.074-.578 46.927 46.927 0 0 0-2.101-.475 42.738 42.738 0 0 0-3.188-.518 42.685 42.685 0 0 0-3.217-.283 48.352 48.352 0 0 0-1.076-.042 48.346 48.346 0 0 0-2.154-.004c-.358.008-.717.021-1.076.038l-.064.003Z"/>
    <path d="M71.107 15.543c1.864 1.097 3.623 2.426 5.262 3.834a39.888 39.888 0 0 1 1.152 1.03c.188.176.375.353.561.531a46.849 46.849 0 0 1 1.091 1.095 39.962 39.962 0 0 1 2.052 2.309 39.854 39.854 0 0 1 4.311 6.398 37.117 37.117 0 0 1 .711 1.372 44.526 44.526 0 0 1 .659 1.398 44.54 44.54 0 0 1 .604 1.422c.096.239.19.478.282.719a44.767 44.767 0 0 1 .762 2.189 48.307 48.307 0 0 1 .437 1.482 39.803 39.803 0 0 1 .637 2.682c.066.324.127.65.184.975.058.326.111.653.16.98.05.327.095.655.136.983.042.328.079.657.112.986a40.845 40.845 0 0 1 .102 6.937 40.755 40.755 0 0 1-.32 2.96 40.794 40.794 0 0 1-3.005 10.46c-.133.303-.27.604-.411.903a43.255 43.255 0 0 1-.887 1.776 40.722 40.722 0 0 1-1.494 2.577 40.925 40.925 0 0 1-4.201 5.541 42.247 42.247 0 0 1-1.369 1.443 42.328 42.328 0 0 1-1.438 1.374 38.928 38.928 0 0 1-1.504 1.302 42.154 42.154 0 0 1-2.371 1.81 38.39 38.39 0 0 1-2.498 1.631 40.86 40.86 0 0 1-4.407 2.296 38.662 38.662 0 0 1-1.837.764 38.542 38.542 0 0 1-1.871.673 38.708 38.708 0 0 1-2.864.835 39.863 39.863 0 0 1-5.865 1.018 41.22 41.22 0 0 1-1.981.147 40.9 40.9 0 0 1-6.938-.256 41.473 41.473 0 0 1-3.912-.679 39.863 39.863 0 0 1-1.926-.483 39.897 39.897 0 0 1-5.605-2.006 43.09 43.09 0 0 1-1.795-.849 43.231 43.231 0 0 1-1.751-.936 40.776 40.776 0 0 1-2.538-1.566 38.389 38.389 0 0 1-1.626-1.147 42.263 42.263 0 0 1-1.567-1.225 39.083 39.083 0 0 1-1.506-1.301 38.904 38.904 0 0 1-1.44-1.374 42.484 42.484 0 0 1-2.029-2.188 42.303 42.303 0 0 1-2.444-3.139 38.4 38.4 0 0 1-1.624-2.503 40.989 40.989 0 0 1-2.675-5.331 38.674 38.674 0 0 1-.714-1.858 43.419 43.419 0 0 1-.621-1.89 40.05 40.05 0 0 1-.957-3.856 39.883 39.883 0 0 1-.653-4.915 41.05 41.05 0 0 1-.086-3.966 40.898 40.898 0 0 1 .191-2.97 40.718 40.718 0 0 1 .801-4.893 39.832 39.832 0 0 1 1.069-3.821 40.023 40.023 0 0 1 1.045-2.787 38.45 38.45 0 0 1 1.247-2.702 36.719 36.719 0 0 1 .94-1.748 38.993 38.993 0 0 1 2.047-3.222 37.963 37.963 0 0 1 1.12-1.515 37.913 37.913 0 0 1 1.189-1.462 37.932 37.932 0 0 1 1.256-1.405 37.971 37.971 0 0 1 1.319-1.345 41.502 41.502 0 0 1 3.56-3.082c.657-.51 1.556-1.263 2.295-1.629.286-.313 1.544-.994 1.946-1.229.54-.313 1.085-.617 1.637-.907a42.134 42.134 0 0 1 1.678-.83 41.396 41.396 0 0 1 3.462-1.421 39.728 39.728 0 0 1 5.403-1.515 39.962 39.962 0 0 1 3.303-.542 44.377 44.377 0 0 1 2.202-.207 36.3 36.3 0 0 1 1.473-.072c.246-.007.492-.013.738-.015.246-.003.491-.004.737-.003a45.406 45.406 0 0 1 1.475.037 35.888 35.888 0 0 1 1.472.089 45.557 45.557 0 0 1 2.2.236 35.611 35.611 0 0 1 1.458.223 46.12 46.12 0 0 1 1.449.277 35.528 35.528 0 0 1 1.438.329 43.94 43.94 0 0 1 2.834.815 35.977 35.977 0 0 1 2.083.745 40.711 40.711 0 0 1 2.039.858c1.32.598 3.245 1.504 4.409 2.349ZM56.757 52.74l.002.06c-.01 0 .074.27.256.34.569.22 1.763.155 2.333-.058.047-.088.172-.234.172-.234l.002-.112-.002-.098h-.011l-.069-.513-.774-6.214c-.106-.85-.351-2.012-.308-2.833-.517-.077-1.106-.024-1.632-.023l-3.296.004-11.375.002c-.13-2.59-.456-5.181-.638-7.769-.488-.126-1.403-.037-1.955-.037l-4.244.003-11.103.002c-1.913.001-3.832-.031-5.744.008-.194 3.243-.604 6.475-.798 9.717.048.164.054.2.054.207.165.209.367.22.615.249.41.048 1.575.132 1.906-.117a.311.311 0 0 0 .137-.234c.001-.024-.007-.047-.01-.07.1-.392.108-.817.144-1.219.102-1.136.743-3.67.76-3.561.118-.274.279-.551.499-.756 1.136-1.059 4.181-.844 5.646-.772.062-.139.109 1.34.107 2.199l-.003 5.136.001 7.415c.001 1.342.057 2.713-.021 4.052l-.067.074c-.528.133-1.062.161-1.604.187-.484.023-3.168-.041-3.39.093l.019.37c-.007.82-.069 1.714.016 2.526.022.21.174.32.174.32.061.041.054.041.135.072.292.113 3.353-.052 3.903-.058 2.337-.032 4.674-.032 7.011 0 .714.011 1.429.029 2.143.053.404.013.873.078 1.269.015a.606.606 0 0 0 .409-.255l.031-.047c-.041-.941.01-1.892-.012-2.835l.01-.207c-1.658-.102-3.353.13-4.992-.231l-.079-.099.008-13.105-.001-4.068c-.002-.676.086-1.547.086-1.547 1.324-.291 4.337-.194 5.473.547.113.073.724.561.736.564.453.858.505 2.101.629 3.062l-.052.088c-.736.123-1.593.02-2.346.032.008.956.093 1.988-.002 2.936.099.199.188.284.402.349.681.208 1.541.033 2.253.085.241.018.645.184.861.133.027-.152.109.599.107 1.102l-.009 2.72v10.511l-.006 3.195c-.002.46-.052.979-.007 1.434-1.249.228-2.464-.005-3.607.169l.005.41c-.025.832.013 2.569.003 2.57l.034.006s.795.346 1.028.353c1.53.051 3.078-.002 4.609-.003l8.903.003h4.569c.747-.001 1.585.078 2.32-.048.169-.066.317-.114.399-.289a.4.4 0 0 0-.05-.007v-.073h.034c.361-1.75.585-3.553.872-5.318.098-.602.175-1.217.308-1.811.093-.126 1.523-.411 1.845-.415.864-.009 3.512.238 4.089.082.181-.049.24-.138.327-.29-.072-1.011.079-2.045-.018-3.055-.338-.003-.681 0-1.018-.025-.394-.029-.8-.108-1.066-.421.028-.016.056-.031.084-.049.429-.274 2.679-3.862 3.115-4.533.208-.32.852-1.679 1-1.918l.053-.006c.41.508 4.346 6.476 4.411 6.712l-.056.008.055.037.003.038c-.642.134-1.262.11-1.905.182l-.019.049c-.056.399-.085 2.698.052 2.953l.198.276c.606.169 1.288.022 1.912.005a130.05 130.05 0 0 1 2.498-.039c1.265.002 2.529.026 3.793.072.619.017 2.325.176 2.788-.06.1-.051.25-2.256.232-3.123l-.002-.111c-.211-.136-2.448-.042-2.973-.153-.295-.062-.629-.189-.841-.412-.295-.309-.53-.736-.766-1.092L76.338 54.1l-4.971-7.508c.703-.329 3.842-5.908 5.057-7.014 1.446-1.314 3.826-.759 4.392-1.283.072-.066.048-2.102.038-3.004a.54.54 0 0 0-.029-.205c-.5-.117-4.238.082-4.995.084-.918.002-1.844.018-2.761-.019-.808-.033-1.615-.117-2.423-.133.015.991.018 1.982.007 2.973.022.152.017.201.138.307.384.338 1.358.14 1.917.614-.258.506-.671 1.009-.994 1.485a355.771 355.771 0 0 0-2.233 3.317c-1.192-1.669-2.296-3.422-3.437-5.127.467-.093 1.33-.024 1.699-.31.086-.067.169.084.182-.295.03-.911.005-1.822-.005-2.732l-.007-.168c-.09-.067-.125-.078-.243-.08-.238-.005-.488.058-.727.077-.507.04-1.02.058-1.528.072-1.849.032-3.698.027-5.547-.014-.805-.028-1.61-.049-2.415-.063-.254-.006-.568-.063-.816-.02-.085.015-.118.022-.177.08l-.015.164c-.004.626-.095 2.158.015 2.687-.046.123-.053.173-.02.3.116.164.263.201.452.233 1.313.224 2.643-.357 3.577.922.545.747.942 1.609 1.519 2.333 0 0 1.311 1.448 1.615 1.919.527.804 1.061 1.603 1.6 2.399.407.612.796 1.244 1.23 1.838-.042.121-.095.226-.075.355-1.092 1.756-2.326 3.451-3.488 5.163-.547.805-1.602 2.55-2.239 3.158-.535.51-1.156.819-1.87.99-.901.216-1.867.22-2.79.212-.033.983-.02 1.981-.001 2.964.316-.02 1.044-.135 1.298.017-.426 1.401-.694 2.591-1.729 3.697a4.881 4.881 0 0 1-1.756.883c-1.407.378-2.935.3-4.381.298l-3.529-.002c-.122-.015-.243-.04-.364-.063-.088-.8-.026-1.666-.024-2.473.004-2.09.084-4.216-.027-6.302 1.133-.003 3.364-.187 4.33.327.854.454.719 2.16.715 2.99-.001.209-.038.509.029.707l.022.062c.147.102.146.261.252.331.305.201 1.509.142 1.881.077.17-.03.371-.074.489-.212a.35.35 0 0 0 .083-.165c.051-2.32.008-4.651.008-6.972 0-1.371.092-2.802-.009-4.166l-2.746.003c.017.926.211 2.877-.482 3.559-.191.188-.438.296-.694.364-.863.227-2.791.217-3.742.166-.075-.004-.05 0-.12-.038.046-1.808.014-3.623.01-5.432-.001-.789.031-2.088.051-1.933.104.011.14-.005.241-.031.769-.198 6.089-.067 7 .075.636.099 1.286.273 1.839.612.173.105.335.223.487.356.017-.075.484.297.602.418.966.976.916 3.595 1.053 4.816Z"/>
  </g>
</svg>
