<svg xmlns="http://www.w3.org/2000/svg" xml:space="preserve" style="fill-rule:evenodd;clip-rule:evenodd;stroke-linejoin:round;stroke-miterlimit:2" viewBox="0 0 100 100"><path d="m37.433.032 2.995-.014 24.188.026 7.439.018c3.948.012 8.019.032 11.863 1.043l.667.185.66.206.654.227.646.25.637.27.628.291.618.312.607.332.596.352.584.372.572.39.558.41.544.427.53.445.515.462.5.48c6.012 5.969 6.53 13.107 6.56 21.14l.005 32.214-.001 10.378c0 4.315.093 8.783-.893 13.01a20.762 20.762 0 0 1-.851 2.823 21.083 21.083 0 0 1-4.255 6.853c-.167.18-.337.358-.511.532-5.78 5.805-12.43 6.388-20.214 6.504-3.558.053-7.12.02-10.678.02H37.152l-8.286-.002c-4.078-.007-8.324.023-12.307-.957l-.68-.175-.673-.198-.667-.22-.659-.242-.65-.264-.641-.285-.632-.307-.62-.328-.61-.348-.598-.368-.585-.388-.571-.407-.558-.426-.543-.445-.528-.462-.513-.48C.846 87.83.16 81.03.083 73.061l-.07-32.07a555.75 555.75 0 0 1 .05-12.228c.048-4.05 0-8.185.946-12.148l.176-.695.2-.69.222-.681.246-.674.27-.665.29-.655.314-.645.336-.634.357-.622.378-.609.399-.596.418-.583.439-.567.457-.552.476-.537.495-.52C12.498.58 19.712.09 27.839.064l9.594-.031Zm-9.246 10.215c-5.286.125-10.224.039-14.135 4.197-1.84 1.957-2.868 4.04-3.336 6.692-.582 3.293-.492 6.855-.489 10.193l.002 10.948-.002 20.233c0 3.842-.038 7.69.039 11.526.093 4.692.7 8.774 4.255 12.136 4.362 4.127 10.4 3.707 15.96 3.69l10.264-.019 20.513.003c3.53.004 7.077.085 10.603.013 5.24-.07 10.093-.016 14.024-4.039 4.37-4.473 3.962-10.524 3.962-16.326V59.388c0-10.907.016-21.839-.03-32.749-.061-2.05-.186-4.347-.61-6.343-.979-4.605-5.098-8.64-9.728-9.526-3.109-.596-7.192-.569-10.381-.57l-10.196.003c-10.125.001-20.51-.186-30.609.041l-.106.003ZM76.834 84.24l-38.807-.01-10.814.005c-2.325.001-4.731.06-7.046-.16-.852-.082-2.067-.62-2.68-1.192-1.165-1.084-1.489-2.994-1.516-4.533-.07-3.94-.017-7.921-.01-11.864l.002-21.694-.002-15.496c0-2.845-.057-5.666.103-8.508.259-4.575 3.809-4.703 7.4-4.798l.218-.007c3.115-.096 6.916.068 10.125.072l23.395.007 14.358-.022c2.71-.008 5.489-.08 8.17.083 1.938.1 4.002 1.642 4.183 3.72.43 4.913.254 10.398.256 15.34l.015 23.227-.016 13.625c-.007 2.453.045 4.892-.113 7.34-.298 4.589-3.469 4.85-7.221 4.865ZM73.68 27.655c-3.551 2.86-8.082 7.683-11.294 10.99-5.04 5.19-10.428 10.802-15.04 16.36-3.486-3.166-7.138-6.575-10.755-9.562-1.402 1.383-3.122 3.104-4.405 4.595 1.604 1.914 3.911 4.362 5.674 6.168 3.211 3.31 8.327 9.32 11.673 12.01.704-.806 1.464-1.735 2.031-2.642 7.409-11.832 15.68-23.302 24.902-33.791-.459-.78-2.104-3.64-2.786-4.128Z"/></svg>