<svg xmlns="http://www.w3.org/2000/svg" xml:space="preserve" style="fill-rule:evenodd;clip-rule:evenodd;stroke-linejoin:round;stroke-miterlimit:2" viewBox="0 0 100 100">
  <path d="M.015 62.884V30.127c-.005-2.088.001-4.175.02-6.263.119-7.278.38-13.107 5.999-18.486 1.712-1.638 4.041-3.195 6.281-3.956C17.166-.225 23.818.05 28.957.047c3.032-.002 6.07-.047 9.101.009C46.729-.06 55.418.04 64.09.039l9.675.002c4.191.009 8.494-.082 12.59.945 2.754.69 5.623 2.431 7.652 4.412 5.276 5.151 5.869 10.302 5.941 17.321.028 3.983.035 7.966.02 11.95-.001 2.072.097 4.403-.019 6.442.122 1.922.011 3.907.013 5.837l.002 12.205.002 12.328c-.002 4.723.058 9.457-.801 14.121-.284 1.098-.581 2.187-1.043 3.227-1.528 3.439-4.411 6.542-7.649 8.441-2.413 1.415-5.023 2.101-7.789 2.372-5.428.482-10.913.338-16.358.338H43.147l-15.407-.003c-2.121.011-4.242-.018-6.362-.086-1.071-.034-2.204-.032-3.263-.196-1.807-.094-3.721-.411-5.438-.986-4.634-1.551-8.461-5.18-10.62-9.516-.469-.91-.772-1.895-1.076-2.869-1.02-4.478-.961-9.128-.964-13.699l-.002-9.741Zm49.942-47.295c-19.049-.468-34.313 15.712-34.436 34.436-.124 18.724 15.714 34.553 34.436 34.437 18.722-.117 34.915-15.397 34.437-34.437h-7.761c.345 14.684-12.232 26.582-26.676 26.676-14.444.095-26.761-12.222-26.676-26.676.085-14.454 11.995-27.02 26.676-26.676v-7.76ZM34.028 48.784c1.908 1.38 9.483 7.673 11.261 9.305 1.78 1.632 4.508 3.759 6.924 2.437 2.417-1.322 3.16-3.453 4.838-5.347 1.675-1.895 3.029-3.694 4.603-5.583 1.573-1.889 2.902-3.849 4.491-5.694 1.588-1.846 2.968-3.846 4.486-5.699 1.518-1.853 3.126-3.757 4.608-5.578 1.479-1.824 3.18-3.854 3.18-3.854s-4.44-3.613-7.031-5.694c-7.405 8.915-14.75 17.738-21.673 26.706-1.897-1.363-3.953-3.245-5.76-4.669a250.99 250.99 0 0 1-4.233-3.432s-3.751 4.764-5.694 7.102Z" style="fill:#080605"/>
</svg>
