<svg xmlns="http://www.w3.org/2000/svg" xml:space="preserve" style="fill-rule:evenodd;clip-rule:evenodd;stroke-linejoin:round;stroke-miterlimit:2" viewBox="0 0 100 100">
  <g id="レイヤー1">
    <path d="M.02 29.516c-.024-2.075.054-4.176.153-6.249.315-6.627 1.396-11.639 6.176-16.518 2.055-2.097 4.588-3.911 7.336-4.969C18.589-.108 25.237.061 30.456.015L58.663.004C62.915-.01 67.168 0 71.42.035c4.233.054 8.677.029 12.802 1.085 3.451.883 6.558 2.792 9.087 5.283 4.952 4.878 6.174 9.804 6.51 16.563.115 2.506.172 5.013.171 7.522l.007 28.403c.014 4.206.004 8.412-.029 12.618-.055 4.223-.035 8.661-1.1 12.773-.889 3.436-2.81 6.535-5.296 9.051-4.93 4.989-9.923 6.172-16.727 6.491-2.585.115-5.171.171-7.759.166l-28.281.005c-4.074.012-8.147.003-12.221-.026-4.285-.051-8.811-.036-12.979-1.132-3.417-.899-6.495-2.843-8.991-5.319-4.23-4.196-5.75-8.452-6.278-14.3a84.09 84.09 0 0 1-.279-6.846c-.001-.254-.01-.512.005-.765-.086-.514-.063-1.128-.042-1.65l.076.784 9.433 5.454 4.4 2.544c1.379.791 3.114 2.01 4.674 2.32.727.145 1.536-.018 2.206-.316.722-.321 1.415-.756 2.102-1.145l3.656-2.081 9.848-5.63 11.808-6.783 3.835-2.205c.69-.396 1.412-.77 2.073-1.211l.092-.073c.623-.48 1.399-.854 2.082-1.247l3.853-2.198c.582-.328 1.323-.645 1.821-1.086.252-.224.432-.516.475-.854.052-.41-.103-.821-.367-1.131-.407-.479-3.356-2.129-4.05-2.415a3.451 3.451 0 0 0-1.122-.274 3.035 3.035 0 0 0-1.438.267c-1.047.454-2.066 1.145-3.056 1.718l-5.523 3.176-18.646 10.725-4.8 2.761c-.889.511-1.812 1.138-2.765 1.516a3.94 3.94 0 0 1-.789.226c-.09.017-.18.03-.271.04a4.18 4.18 0 0 1-1.093-.024 3.98 3.98 0 0 1-1.077-.328c-.723-.344-1.413-.778-2.105-1.18l-3.317-1.93C8.033 67.048 4.053 64.66.014 62.398l.005-8.509c.272.175.628.252.923.391.343.161.67.383.997.574l8.518 4.964 3.941 2.293c1.231.71 2.628 1.717 4.032 2.014a3.56 3.56 0 0 0 .587.077c.099.006.198.007.297.004a3.624 3.624 0 0 0 .878-.126 3.842 3.842 0 0 0 .559-.197c.698-.312 1.364-.726 2.028-1.103l3.249-1.86 9.95-5.707L54.658 44.5l4.801-2.781c.891-.514 1.814-1.001 2.673-1.566a3.91 3.91 0 0 0 .137-.275c.177-.391.229-.827.065-1.233-.118-.293-.336-.523-.584-.712-.424-.32-3.334-1.965-3.858-2.162-.709-.266-1.422-.308-2.138-.045-.981.361-1.924 1.008-2.829 1.528l-4.813 2.771-18.639 10.711-5.417 3.121c-1.053.611-2.132 1.337-3.248 1.816-.809.346-1.754.452-2.609.225-1.314-.348-2.88-1.458-4.067-2.15L4.227 47.99l-2.828-1.644c-.41-.238-.863-.564-1.304-.733-.026-.011-.053-.02-.08-.03l.009-8.554.115.038c1.208.378 2.66 1.412 3.779 2.066l8.701 5.076c1.492.869 2.993 1.87 4.553 2.603.579.272 1.203.499 1.846.538.72.044 1.405-.159 2.044-.474 1.189-.586 2.332-1.309 3.483-1.968l6.458-3.702 19.342-11.118 7.624-4.421c1.321-.763 3.242-1.682 4.357-2.675.074-.368.135-.733.037-1.103a1.27 1.27 0 0 0-.392-.625c-.526-.475-2.506-1.508-3.229-1.913-.802-.45-1.633-.79-2.569-.583-1.115.247-2.221 1.056-3.205 1.622l-3.31 1.906-20.644 11.869-5.089 2.926c-1.101.633-2.45 1.593-3.668 1.929a3.88 3.88 0 0 1-.914.148 4.006 4.006 0 0 1-.924-.068 3.868 3.868 0 0 1-.596-.165c-.805-.288-1.547-.783-2.283-1.212l-3.056-1.781c-4.136-2.402-8.248-4.863-12.42-7.2l-.044.774Z"/>
  </g>
</svg>
