<svg xmlns="http://www.w3.org/2000/svg" xml:space="preserve" style="fill-rule:evenodd;clip-rule:evenodd;stroke-linejoin:round;stroke-miterlimit:2" viewBox="0 0 100 100">
  <path d="M.015 62.884V30.127c-.005-2.088.001-4.175.02-6.263.119-7.278.38-13.107 5.999-18.486 1.712-1.638 4.041-3.195 6.281-3.956C17.166-.225 23.818.05 28.957.047c3.032-.002 6.07-.047 9.101.009C46.729-.06 55.418.04 64.09.039l9.675.002c4.191.009 8.494-.082 12.59.945 2.754.69 5.623 2.431 7.652 4.412 5.276 5.151 5.869 10.302 5.941 17.321.028 3.983.035 7.966.02 11.95-.001 2.072.097 4.403-.019 6.442.122 1.922.011 3.907.013 5.837l.002 12.205.002 12.328c-.002 4.723.058 9.457-.801 14.121-.284 1.098-.581 2.187-1.043 3.227-1.528 3.439-4.411 6.542-7.649 8.441-2.413 1.415-5.023 2.101-7.789 2.372-5.428.482-10.913.338-16.358.338H43.147l-15.407-.003c-2.121.011-4.242-.018-6.362-.086-1.071-.034-2.204-.032-3.263-.196-1.807-.094-3.721-.411-5.438-.986-4.634-1.551-8.461-5.18-10.62-9.516-.469-.91-.772-1.895-1.076-2.869-1.02-4.478-.961-9.128-.964-13.699l-.002-9.741ZM53.634 6.412c-4.603-.445-10.383.363-14.538 1.342-4.154.979-7.66 2.663-11.197 4.683-3.539 2.018-6.072 3.989-8.965 6.915-2.892 2.928-4.823 5.489-6.843 9.039-2.018 3.548-3.457 7.252-4.53 11.348-1.074 4.097-1.455 10.103-1.001 14.474.453 4.372 1.491 8.895 3.154 12.726 1.664 3.831 3.417 6.791 5.884 9.996 2.467 3.206 4.792 5.436 8.003 7.877 3.211 2.442 6.259 4.194 10.126 5.755 3.866 1.562 8.367 2.68 12.755 3.004 4.388.323 10.349-.106 14.423-1.215 4.073-1.11 7.752-2.583 11.246-4.634 3.495-2.05 6.029-4.073 8.91-6.971 2.88-2.898 4.794-5.519 6.849-9.031 2.053-3.513 3.491-7.273 4.524-11.356 1.034-4.081 1.524-10.165 1.056-14.528-.468-4.363-1.58-8.839-3.209-12.672-1.631-3.831-3.462-6.805-5.887-9.993-2.424-3.19-4.821-5.504-8-7.88-3.18-2.376-6.365-4.233-10.126-5.754-3.76-1.523-8.526-2.728-12.634-3.125Zm-3.758 48.004c-1.836 2.198-3.634 4.203-5.788 6.213-2.155 2.009-4.239 3.808-6.789 5.333-2.548 1.525-5.79 3.471-9.009 2.282-3.218-1.188-3.622-5.767-2.903-8.739.717-2.974 2.239-5.728 3.76-8.362-.902.68-2.561 2.506-2.818 2.758-.971.948-2.426 2.694-3.148 2.239-.854-.538.477-2.636 1.208-3.452.732-.815 1.776-2.186 2.606-3.091.831-.904 1.713-2.06 2.546-3.03.833-.97 1.77-1.968 2.606-2.97.837-1.002 1.637-2.048 2.546-3.031.91-.983 1.706-2.081 2.606-3.091.9-1.011 1.615-1.981 2.607-2.97.992-.988 1.962-1.79 3.311-2.264 1.351-.473 3.226-.935 4.608-.019 1.382.917.67 2.683-.282 3.738-.964 1.067-1.815 1.823-2.728 2.848-.994 1.117-1.645 2.033-2.485 3.092-.842 1.062-1.635 2.029-2.485 3.091-.851 1.061-1.553 2.217-2.364 3.333a56.29 56.29 0 0 0-2.245 3.332c-.755 1.203-1.402 2.134-2.125 3.451-.724 1.315-1.131 2.202-1.876 3.7-.745 1.498-1.231 3.218-1.239 4.458-.013 1.955 1.66 2.074 3.178 1.481 2.416-.941 3.222-1.544 3.695-1.881a47.118 47.118 0 0 0 3.152-2.424c1.073-.899 1.935-1.822 2.915-2.782.981-.959 1.869-1.836 2.728-2.849.858-1.014 1.753-1.959 2.606-2.97.855-1.011 1.79-1.931 2.606-2.97.816-1.039 1.646-2.137 2.506-3.192.82-1.006 1.55-2.031 2.424-3.152a60.593 60.593 0 0 1 2.528-3.048c.89-1 1.766-2.032 2.664-3.033.9-1 1.802-1.821 2.789-2.788.986-.968 1.972-1.837 3.384-2.192 1.412-.354 3.054.173 4.071 1.343s.53 2.799-.303 4c-.569.82-2.105 2.723-2.425 3.152-.839 1.126-1.68 1.989-2.545 3.031-.867 1.04-1.761 1.943-2.546 3.03-.786 1.088-1.729 2.101-2.506 3.192-.776 1.091-1.724 2.021-2.404 3.172-.681 1.152-1.51 2.268-2.127 3.449-.618 1.18-1.451 2.516-1.774 3.803-.321 1.289-1.105 3.588.083 4.628s3.821-.609 4.161-.748c.613-.25 2.925-1.87 3.395-2.182 1.081-.718 2.317-1.893 3.051-2.525.999-.86 1.945-1.84 2.97-2.727 1.025-.888 1.795-1.796 2.848-2.728 1.054-.932 2.453-2.524 2.73-2.846.685-.796 2.378-2.662 2.826-2.751 1.681-.332.687 2.617.384 2.93-1.328 1.374-1.746 1.962-2.667 2.91-.972 1.001-1.787 1.859-2.727 2.848-.991 1.044-2.076 2.172-2.788 2.788-1.02.883-1.966 1.804-2.97 2.728-1.004.924-2.583 2.113-3.091 2.485-1.113.814-2.179 1.48-3.368 2.209-1.188.729-2.647 1.383-4.118 1.458-1.471.074-3.367-.273-4.57-1.127-1.202-.855-2.024-1.774-2.337-3.239-.312-1.467.044-3.521.359-4.971.315-1.451 1.058-2.991 1.093-4.361Z" style="fill:#080605"/>
</svg>
