<svg xmlns="http://www.w3.org/2000/svg" xml:space="preserve" style="fill-rule:evenodd;clip-rule:evenodd;stroke-linejoin:round;stroke-miterlimit:2" viewBox="0 0 100 100">
  <g id="レイヤー1">
    <path d="m37.433.032 2.995-.014 24.188.026 7.439.018c3.948.012 8.019.032 11.863 1.043.223.058.446.119.667.185a19.41 19.41 0 0 1 1.314.433 20.976 20.976 0 0 1 3.732 1.807 20.631 20.631 0 0 1 1.156.762 22.149 22.149 0 0 1 1.102.837c.18.145.356.294.53.445a18.833 18.833 0 0 1 1.015.942c6.012 5.969 6.53 13.107 6.559 21.141l.006 32.213-.001 10.378c-.001 4.315.093 8.783-.893 13.01a21.359 21.359 0 0 1-1.423 4.183 20.325 20.325 0 0 1-1.032 1.957 19.92 19.92 0 0 1-.8 1.24 23.284 23.284 0 0 1-.885 1.181 19.692 19.692 0 0 1-.966 1.115c-.167.181-.337.358-.511.532-5.78 5.805-12.429 6.388-20.214 6.504-3.558.053-7.12.02-10.678.019l-25.444.001-8.286-.002c-4.078-.007-8.324.023-12.307-.957a22.52 22.52 0 0 1-1.353-.373 19.996 19.996 0 0 1-1.326-.462 21.542 21.542 0 0 1-1.923-.856 21.607 21.607 0 0 1-2.413-1.432 20.433 20.433 0 0 1-1.672-1.278 19.381 19.381 0 0 1-1.041-.942C.846 87.829.159 81.03.083 73.061L.013 40.99c-.028-4.076-.011-8.151.051-12.227.047-4.05-.001-8.185.945-12.148a20.178 20.178 0 0 1 .375-1.384 22.625 22.625 0 0 1 .469-1.356 22.514 22.514 0 0 1 .874-1.965 22.613 22.613 0 0 1 .693-1.256 19.23 19.23 0 0 1 .777-1.205 19.942 19.942 0 0 1 1.314-1.702 20.303 20.303 0 0 1 .971-1.056C12.498.579 19.713.089 27.839.063l9.594-.031Zm4.513 70.248c.38-.486.637-1.154.929-1.701l.002.039c.012.719-.21 1.437-.216 2.159-.004.613-.021 1.238.017 1.849.136 2.165.708 4.429 1.671 6.378.189.382.374.866.653 1.186.159.33.383.638.591.938a15.698 15.698 0 0 0 .93 1.196 15.052 15.052 0 0 0 1.604 1.607 15.744 15.744 0 0 0 1.195.932 14.662 14.662 0 0 0 .93.602 18.409 18.409 0 0 0 .613.341 18.374 18.374 0 0 0 .629.31 14.83 14.83 0 0 0 1.968.743c.112.033.225.064.337.095a21.19 21.19 0 0 0 .682.166 13.086 13.086 0 0 0 .689.132 13.15 13.15 0 0 0 1.043.136 13.743 13.743 0 0 0 1.051.059c.117.002.233.003.35.002l.351-.006a13.727 13.727 0 0 0 1.05-.07 13.724 13.724 0 0 0 1.386-.211 12.724 12.724 0 0 0 1.016-.246 12.64 12.64 0 0 0 .663-.204l.327-.114a18.095 18.095 0 0 0 .646-.253 15.226 15.226 0 0 0 .633-.284c.105-.049.208-.101.311-.153a12.897 12.897 0 0 0 .91-.505c.099-.06.197-.121.295-.183a18.103 18.103 0 0 0 .575-.388 14.318 14.318 0 0 0 2.092-1.817 19.172 19.172 0 0 0 .464-.516 14.205 14.205 0 0 0 2.112-3.297c.044-.093.086-.186.127-.28l.121-.283.115-.286a12.248 12.248 0 0 0 .211-.578 9.98 9.98 0 0 0 .097-.292c.031-.098.062-.196.091-.294a14.364 14.364 0 0 0 .235-.893 16.102 16.102 0 0 0 .179-.905 15.983 15.983 0 0 0 .088-.609c.013-.102.025-.204.035-.306.01-.102.02-.204.028-.307.008-.102.016-.204.022-.307a15.765 15.765 0 0 0 .013-1.538 15.773 15.773 0 0 0-.039-.614l-.029-.306c-.098-.903-.308-1.785-.515-2.667.675.06 1.396.122 2.073.109 3.38-.069 6.897-1.09 9.556-3.241 3.327-2.692 5.06-5.923 5.507-10.197.083-.791.03-1.581-.054-2.369-.299-2.822-1.319-5.453-3.124-7.664a12.827 12.827 0 0 0-.482-.551 15.776 15.776 0 0 0-.507-.527 15.82 15.82 0 0 0-1.09-.976 15.012 15.012 0 0 0-8.012-3.281c-3.619-.348-7.038.389-10.276 2.01-.769.384-1.614.82-2.279 1.37-.045.029-.086.051-.123.091-1.025.511-2.825 2.418-3.545 3.309-.5-.638-2.169-1.94-2.898-2.435l-.484-.366c-.237-.208-.544-.427-.643-.738l-.033-.179c.067-.247.177-.448.305-.666.045-.033.086-.105.121-.151a17.767 17.767 0 0 0 1.491-2.033c1.406-1.982 2.802-6.163 2.933-8.561.009-.034.013-.046.02-.086.065-.42.075-.861.105-1.286.258-3.713-.515-7.99-2.63-11.119-2.178-3.309-5.39-5.651-9.301-6.449-.932-.19-1.85-.25-2.8-.251-2.964-.002-5.509.787-7.977 2.432-3.16 2.106-5.253 5.491-5.984 9.183-.968 4.885.477 10.085 3.22 14.175.127.19.261.391.413.561.391.716 2.26 2.954 2.935 3.358.992 1.063 2.296 1.87 3.554 2.583.185.106.396.261.595.331.167.138.479.346.528.567-.047.161-.089.326-.154.481-.104.248-.206.498-.323.741-.236.29-.415.674-.604.998-.944 1.627-1.694 3.29-2.383 5.036l-.031.057c-.716-.323-1.353-.755-2.094-1.04-.467-.272-1.071-.431-1.589-.592-4.756-1.542-10.67-1.054-15.124 1.22-3.757 1.918-6.544 5.021-7.849 9.044-1.143 3.519-.71 7.502.971 10.774a17.705 17.705 0 0 0 .334.601 17.752 17.752 0 0 0 .363.585 17.752 17.752 0 0 0 .391.565 14.082 14.082 0 0 0 .862 1.072 14.072 14.072 0 0 0 1.217 1.212 13.347 13.347 0 0 0 1.075.858 17.816 17.816 0 0 0 .567.389 14.284 14.284 0 0 0 1.189.691 11.015 11.015 0 0 0 .618.302 12.486 12.486 0 0 0 .632.271 12.43 12.43 0 0 0 .971.348c4.259 1.35 8.614.692 12.533-1.341 2.786-1.445 5.396-3.819 7.208-6.374.275-.388.653-.868.828-1.308Z"/>
    <path d="m47.723 32.245 2.748 13.917c4.294 0 7.873 3.087 8.636 7.161l9.259-.361a5.401 5.401 0 0 1 5.205-3.967 5.399 5.399 0 0 1 5.396 5.396 5.399 5.399 0 0 1-5.396 5.396 5.403 5.403 0 0 1-5.156-3.799l-9.254.26a8.792 8.792 0 0 1-4.002 6.129l1.963 4.979c1.158-.117 2.536.394 3.446 1.056 1.136.827 1.948 2.155 2.15 3.55a5.981 5.981 0 0 1 .057.81 6.174 6.174 0 0 1-.029.541 5.943 5.943 0 0 1-.082.535 5.577 5.577 0 0 1-.429 1.282 5.44 5.44 0 0 1-.56.925c-.908 1.194-2.242 1.917-3.724 2.106-1.362.174-2.821-.264-3.901-1.101-1.176-.911-1.882-2.235-2.068-3.704-.167-1.318.252-2.782 1.066-3.829a7.153 7.153 0 0 1 1.039-1.07l.056-.038-1.853-4.876a8.778 8.778 0 0 1-9.041-3.597l-11.65 4.925a5.327 5.327 0 0 1-5.272 6.068 5.327 5.327 0 0 1-5.325-5.325 5.327 5.327 0 0 1 5.325-5.324c1.656 0 3.137.758 4.114 1.946l11.519-5.107a8.82 8.82 0 0 1-.273-2.182c0-3.795 2.411-7.031 5.784-8.258l-2.765-13.852a5.479 5.479 0 0 1-1.365-.313 5.645 5.645 0 0 1-.484-.204 5.156 5.156 0 0 1-.462-.251 5.223 5.223 0 0 1-.84-.63 5.47 5.47 0 0 1-.992-1.22c-.717-1.233-.959-2.725-.589-4.114a5.828 5.828 0 0 1 .161-.513 4.875 4.875 0 0 1 .335-.735c.043-.079.089-.157.136-.233a4.839 4.839 0 0 1 .304-.445 5.514 5.514 0 0 1 1.604-1.418 4.94 4.94 0 0 1 .732-.349 5.516 5.516 0 0 1 1.041-.289 5.96 5.96 0 0 1 .537-.065 4.868 4.868 0 0 1 .541-.011 4.88 4.88 0 0 1 .539.042 4.811 4.811 0 0 1 .533.096c.088.02.175.043.262.067 1.331.375 2.521 1.277 3.197 2.488.705 1.261.926 2.755.53 4.153-.419 1.479-1.373 2.605-2.703 3.352Zm-2.689-5.408c-.272.091-.474.2-.607.466a.904.904 0 0 0 .045.87.88.88 0 0 0 .261.285 1.038 1.038 0 0 0 .169.097c.195.09.38.092.59.075.262-.078.453-.149.596-.399a.963.963 0 0 0 .026-.851.879.879 0 0 0-.043-.087c-.016-.029-.034-.056-.052-.083a1.113 1.113 0 0 0-.128-.146 1.135 1.135 0 0 0-.155-.117 1.018 1.018 0 0 0-.086-.046c-.208-.1-.392-.083-.616-.064Zm5.509 26.841a1.418 1.418 0 1 0 0 2.836 1.418 1.418 0 0 0 0-2.836Zm22.77-.219c-.327.076-.582.17-.767.474a.891.891 0 0 0-.113.677.937.937 0 0 0 .476.582 1.2 1.2 0 0 0 .445.119c.31-.034.588-.104.785-.367a.852.852 0 0 0 .137-.674c-.036-.199-.155-.391-.262-.561-.227-.111-.447-.217-.701-.25Zm-16.098 18.19c-.374.031-.636.29-.794.657a.78.78 0 0 0-.07.334c0 .029.002.057.004.086a.836.836 0 0 0 .014.085c.005.028.013.055.021.083.009.027.019.054.03.08.109.246.344.417.595.498.151.049.317.05.474.049.272-.071.485-.18.637-.426.015-.026.029-.052.042-.079.013-.027.024-.055.035-.083a.829.829 0 0 0 .025-.085c.008-.029.013-.059.018-.088a.919.919 0 0 0-.021-.356.984.984 0 0 0-.462-.601c-.153-.086-.205-.183-.548-.154Zm-30.805-7.09c-.25.072-.436.153-.572.386a.887.887 0 0 0-.043.782 1.066 1.066 0 0 0 .092.176.912.912 0 0 0 .127.153.919.919 0 0 0 .242.172c.21.105.391.106.619.078.269-.089.477-.195.61-.46a.879.879 0 0 0 .022-.707c-.113-.286-.315-.412-.562-.572-.177-.008-.359-.025-.535-.008Z"/>
  </g>
</svg>
