<svg xmlns="http://www.w3.org/2000/svg" xml:space="preserve" style="fill-rule:evenodd;clip-rule:evenodd;stroke-linejoin:round;stroke-miterlimit:2" viewBox="0 0 100 100">
  <g id="レイヤー1">
    <path d="M.015 62.884V30.127c-.005-2.088.001-4.175.02-6.263.119-7.278.38-13.107 5.999-18.486 1.712-1.638 4.041-3.195 6.281-3.956C17.166-.225 23.818.05 28.957.047c3.032-.002 6.07-.047 9.101.009C46.729-.06 55.418.04 64.09.039l9.675.002c4.191.009 8.494-.082 12.59.945 2.754.69 5.623 2.431 7.652 4.412 5.276 5.151 5.869 10.302 5.941 17.321.028 3.983.035 7.966.02 11.95-.001 2.072.097 4.403-.019 6.442.122 1.922.011 3.907.013 5.837l.002 12.205.002 12.328c-.002 4.723.058 9.457-.801 14.121-.284 1.098-.581 2.187-1.043 3.227-1.528 3.439-4.411 6.542-7.649 8.441-2.413 1.415-5.023 2.101-7.789 2.372-5.428.482-10.913.338-16.358.338H43.147l-15.407-.003c-2.121.011-4.242-.018-6.362-.086-1.071-.034-2.204-.032-3.263-.196-1.807-.094-3.721-.411-5.438-.986-4.634-1.551-8.461-5.18-10.62-9.516-.469-.91-.772-1.895-1.076-2.869-1.02-4.478-.961-9.128-.964-13.699l-.002-9.741Zm76.303-39.422c-14.609-14.587-38.313-14.587-52.944 0s-14.609 38.225 0 52.79c14.609 14.565 38.313 14.587 52.944 0a37.246 37.246 0 0 0 10.973-26.395c0-9.904-3.952-19.41-10.973-26.395ZM74.077 40.62a31627.07 31627.07 0 0 0-18.519 32.117c-1.142 1.999-2.812 3.186-5.097 3.361-2.548.176-4.569-.9-5.865-3.097-3.911-6.7-7.777-13.445-11.643-20.167-2.351-4.086-4.724-8.172-7.074-12.28-2.351-4.108.307-9.161 5.052-9.403 2.505-.132 4.438 1.033 5.712 3.208 1.736 2.965 3.449 5.975 5.185 8.963 1.252 2.153 2.46 4.327 3.734 6.436 1.846 3.098 4.57 4.833 8.195 5.053 5.259.31 9.904-3.596 10.5-8.831.044-.396.066-.813.088-1.011a10.216 10.216 0 0 0-1.054-4.635c-1.911-3.823.132-8.106 4.284-9.029 3.383-.747 6.898 1.735 7.337 5.162a6.267 6.267 0 0 1-.835 4.153Z" style="fill:#080605"/>
  </g>
</svg>
