<svg xmlns="http://www.w3.org/2000/svg" xml:space="preserve" style="fill-rule:evenodd;clip-rule:evenodd;stroke-linejoin:round;stroke-miterlimit:2" viewBox="0 0 100 100">
    <path id="background" d="M18,0h64c9.941,0 18,8.059 18,18v64c0,9.941 -8.059,18 -18,18h-64c-9.941,0 -18,-8.059 -18,-18v-64c0,-9.941 8.059,-18 18,-18Z" fill="#000000"/>
    <g transform="scale(0.2437)" fill="#ffffff" stroke="#ffffff" stroke-width="15">
        <path d="M323.14,148.583c-5.523,0 -10,4.477 -10,10v53.789c0,63.615 -55.755,86.282 -107.934,86.282s-107.933,-22.667 -107.933,-86.282v-53.789c0,-5.523 -4.477,-10 -10,-10s-10,4.477 -10,10v53.789c0,33.888 13.334,61.751 38.561,80.58c20.407,15.231 47.703,23.932 79.373,25.441v72.022h-61.52c-5.523,0 -10,4.477 -10,10s4.477,10 10,10h143.039c5.523,0 10,-4.477 10,-10s-4.477,-10 -10,-10h-61.52v-72.022c31.67,-1.508 58.966,-10.21 79.373,-25.441c25.227,-18.828 38.561,-46.692 38.561,-80.58v-53.789c0,-5.523 -4.477,-10 -10,-10Z"/>
        <path d="M138.642,267.736c16.35,10.689 38.746,16.109 66.565,16.109s50.215,-5.42 66.565,-16.109c19.517,-12.76 29.833,-33.036 29.833,-58.637v-123.526c0,-50.384 -39.641,-85.573 -96.398,-85.573c-56.758,0 -96.398,35.189 -96.398,85.573v123.526c0,25.601 10.317,45.877 29.833,58.637Zm66.565,-247.736c38.028,0 76.399,20.276 76.399,65.573v9.207h-40.312c-5.523,0 -10,4.477 -10,10s4.477,10 10,10h40.312v23.305h-40.312c-5.523,0 -10,4.477 -10,10s4.477,10 10,10h40.312v23.305h-40.312c-5.523,0 -10,4.477 -10,10s4.477,10 10,10h40.312v7.71c0,19.052 -6.796,32.756 -20.778,41.897c-12.857,8.406 -32.091,12.849 -55.621,12.849s-42.763,-4.443 -55.621,-12.849c-13.981,-9.141 -20.777,-22.845 -20.777,-41.897v-7.71h40.312c5.523,0 10,-4.477 10,-10s-4.477,-10 -10,-10h-40.312v-23.305h40.312c5.523,0 10,-4.477 10,-10s-4.477,-10 -10,-10h-40.312v-23.305h40.312c5.523,0 10,-4.477 10,-10s-4.477,-10 -10,-10h-40.312v-9.207c0,-45.297 38.371,-65.573 76.399,-65.573Z"/>
    </g>
</svg>