<svg xmlns="http://www.w3.org/2000/svg" xml:space="preserve" style="fill-rule:evenodd;clip-rule:evenodd;stroke-linejoin:round;stroke-miterlimit:2" viewBox="0 0 100 100">
  <g id="レイヤー1">
    <path d="M28.027.066c.108-.004.215-.007.323-.008A967.8 967.8 0 0 1 38.991.033h18.55c4.589 0 9.18-.034 13.768.023 4.179.051 8.568.013 12.65 1.013 3.473.851 6.641 2.758 9.196 5.241 6.409 6.227 6.66 12.672 6.773 21.072.137 10.243.037 20.498.036 30.742-.001 4.459.033 8.922-.024 13.381-.054 4.128-.027 8.445-1.017 12.477-.855 3.481-2.773 6.654-5.268 9.211-6.41 6.568-13.089 6.632-21.702 6.742l-.278.007c-3.605.026-7.21.034-10.814.024H42.294c-4.578 0-9.16.036-13.737-.023-4.161-.054-8.514-.024-12.577-1.025-3.449-.85-6.607-2.763-9.145-5.229C.057 87.103.172 80.179.053 71.376.027 67.699.019 64.022.03 60.345l.001-18.488c-.014-4.463-.005-8.926.027-13.389.052-4.122.024-8.438 1.018-12.463.859-3.477 2.774-6.649 5.267-9.204C12.731.255 19.461.164 28.027.066Zm6.583 58.289 18.415 16.808 5.54 5.056c.837.764 3.758 3.642 4.577 3.966.335.245.774.391 1.179.475.676.141 1.456.147 2.121-.053.999-.299 1.985-.867 2.924-1.32l10.076-4.85c.95-.457 2.008-.868 2.873-1.47 1.103-.768 1.544-1.958 1.762-3.229-.047-1.299-.003-2.616-.002-3.917l.001-7.661V38.955l.002-8.421c.001-1.483.107-3.046-.056-4.516-.084-.759-.374-1.454-.808-2.08-.343-.493-.887-.903-1.402-1.205-.713-.417-1.5-.75-2.245-1.107l-4.118-1.975-4.996-2.407c-1.282-.622-3.063-1.678-4.412-1.923-.993-.181-2.178-.035-3.02.553-.929.492-2.177 1.833-2.984 2.571l-4.747 4.332-20.685 18.874c-2.464-2-5.077-3.862-7.607-5.781l-2.937-2.23c-.598-.454-1.194-.957-1.84-1.338-.626-.37-1.497-.428-2.191-.245-.365.097-.662.315-.959.54-.834.633-4.203 3.627-4.601 4.35-.401.728-.438 1.535-.219 2.325.16.402.335.709.626 1.034.534.596 1.169 1.122 1.76 1.661l2.87 2.615 3.892 3.548c.68.62 1.349 1.281 2.059 1.865l-1.269 1.164-6.537 5.957c-.885.807-2.305 1.938-2.994 2.815-.339.432-.533 1.102-.548 1.64-.01.344.049.712.156 1.039.099.227.208.469.355.668.529.719 4.033 3.902 4.794 4.38.312.196.657.314 1.021.365.551.078 1.054.039 1.555-.209 1.174-.581 3.253-2.335 4.381-3.191 2.747-2.085 5.521-4.143 8.238-6.268Zm12.545-7.204c.02-.079.011-.028.009-.153a1.873 1.873 0 0 1-.465-.37c.631-.643 1.522-1.168 2.24-1.721l6.563-4.983 6.545-4.969c1.092-.833 2.197-1.804 3.36-2.526.329-.204.64-.265 1.023-.28-.004.205-.048.496.054.677.068 5.917.012 11.841.012 17.759v7.194c0 1.348.034 2.707-.016 4.055L54.778 56.96c-2.539-1.928-5.146-3.803-7.623-5.809Z"/>
  </g>
</svg>
