<svg xmlns="http://www.w3.org/2000/svg" xml:space="preserve" style="fill-rule:evenodd;clip-rule:evenodd;stroke-linejoin:round;stroke-miterlimit:2" viewBox="0 0 100 100">
  <g id="レイヤー1">
    <path d="M38.009.03a155.64 155.64 0 0 1 2.647-.02l25.061.035c5.593.043 12.629-.368 17.985 1.002a19.588 19.588 0 0 1 1.359.386 21.972 21.972 0 0 1 1.331.477 19.464 19.464 0 0 1 1.295.564 20.68 20.68 0 0 1 3.048 1.779 21.314 21.314 0 0 1 2.198 1.774c.173.16.343.322.51.488 6.262 6.238 6.544 13.705 6.553 22.05l.001 31.746v9.948c.001 4.331.095 8.824-.907 13.063a21.919 21.919 0 0 1-.377 1.424 19.75 19.75 0 0 1-.476 1.395 21.25 21.25 0 0 1-1.242 2.67 21.121 21.121 0 0 1-1.171 1.873 21.618 21.618 0 0 1-.889 1.176 19.62 19.62 0 0 1-.475.563 19.65 19.65 0 0 1-1.007 1.075c-6.144 6.142-13.497 6.488-21.694 6.497l-9.774.001-24.776.001-8.153-.001c-4.188-.003-8.567.044-12.653-.987a20.87 20.87 0 0 1-2.03-.616 21.88 21.88 0 0 1-1.959-.815 20.733 20.733 0 0 1-3.054-1.779 20.817 20.817 0 0 1-2.204-1.772c-.173-.16-.344-.323-.512-.488C-.115 86.836.067 78.568.062 69.688L.007 57.339.003 37.13c-.024-2.895-.006-5.79.052-8.684.043-4.173.008-8.458 1.113-12.514a21.22 21.22 0 0 1 .626-1.942 20.304 20.304 0 0 1 .522-1.257 21.63 21.63 0 0 1 .933-1.816 21.368 21.368 0 0 1 1.105-1.716A21.39 21.39 0 0 1 6.55 6.607C12.75.381 20.193.062 28.488.054L38.009.03Zm9.56 28.78a2.08 2.08 0 0 1 1.516 2.525l-8.579 34.392-.344 1.383c.866.003 1.732-.001 2.596-.026h.095c3.354.055 6.716.011 10.071.01a2.082 2.082 0 0 1 2.084 2.083l13.793.001 4.284.004c1.19.001 2.436.075 3.606-.169a7.752 7.752 0 0 0 1.527-.501 7.39 7.39 0 0 0 1.387-.811 7.985 7.985 0 0 0 .815-.697c1.606-1.569 2.331-3.587 2.352-5.804V40.184l.001-6.06c-.001-1.306.099-2.712-.137-3.999a9.216 9.216 0 0 0-.125-.555 6.566 6.566 0 0 0-.166-.544 7.693 7.693 0 0 0-.733-1.538c-.051-.08-.102-.16-.155-.239a7.466 7.466 0 0 0-.517-.679 7.531 7.531 0 0 0-1.229-1.152 8.009 8.009 0 0 0-.943-.602 7.702 7.702 0 0 0-2.098-.758c-1.199-.236-2.487-.156-3.706-.155l-5.213.004-18.973-.006c-.357 1.643-.789 3.275-1.209 4.909Zm4.856 42.451c-3.182.005-6.369.04-9.549-.011h-.046c-1.773.051-3.555.014-5.329.013a2.084 2.084 0 0 1-2.021-2.585l.983-3.958 8.453-33.89-13.52-.005-4.284-.005c-1.241-.002-2.529-.081-3.748.179a7.934 7.934 0 0 0-1.081.31 7.879 7.879 0 0 0-2.41 1.424c-.142.123-.279.25-.411.383-.996.992-1.79 2.368-2.074 3.751-.261 1.27-.159 2.695-.159 3.99l-.001 5.515.003 21.499c.007 2.354.653 4.315 2.351 5.996 1.029 1.018 2.451 1.795 3.874 2.075 1.15.226 2.386.154 3.553.154l4.779-.003c6.468-.006 12.954-.102 19.42-.001.403-1.61.819-3.219 1.217-4.831Z"/>
  </g>
</svg>
