<svg xmlns="http://www.w3.org/2000/svg" xml:space="preserve" style="fill-rule:evenodd;clip-rule:evenodd;stroke-linejoin:round;stroke-miterlimit:2" viewBox="0 0 100 100">
  <g>
    <path d="M18.962.038c.031-.004.061-.009.092-.011 1.193-.096 2.449-.024 3.648-.023l6.89.003L51.707.006 71.811.004h5.723c2.009 0 3.999-.036 5.986.313a19.695 19.695 0 0 1 3.885 1.111 19.91 19.91 0 0 1 2.43 1.168 19.847 19.847 0 0 1 3.293 2.34c4.166 3.662 6.471 8.648 6.814 14.154.097 1.557.042 3.139.043 4.698l.001 8.098-.008 24.822.004 16.346.002 4.748c0 1.936.01 3.875-.337 5.787a19.525 19.525 0 0 1-1.127 3.897 19.836 19.836 0 0 1-3.884 6.094 19.054 19.054 0 0 1-1.406 1.379 18.678 18.678 0 0 1-1.14.94 18.357 18.357 0 0 1-1.207.852 22.479 22.479 0 0 1-1.268.759 22.668 22.668 0 0 1-1.32.663 19.897 19.897 0 0 1-2.299.879 19.64 19.64 0 0 1-1.907.494 19.61 19.61 0 0 1-2.437.347c-.164.013-.327.024-.491.033-.059.007-.118.014-.177.019-1.319.101-2.685.032-4.01.031l-7.394-.003-23.323.001-18.566.001-5.374.002c-1.972 0-3.916.025-5.866-.319a19.715 19.715 0 0 1-3.873-1.111A19.83 19.83 0 0 1 7.91 95.9a19.736 19.736 0 0 1-1.409-1.18 19.007 19.007 0 0 1-1.385-1.399 19.116 19.116 0 0 1-.944-1.135 22.36 22.36 0 0 1-.581-.794 18.243 18.243 0 0 1-.542-.822 20.5 20.5 0 0 1-1.171-2.164 18.055 18.055 0 0 1-.392-.903 19.687 19.687 0 0 1-.647-1.858 18.488 18.488 0 0 1-.462-1.914 19.652 19.652 0 0 1-.22-1.46 19.817 19.817 0 0 1-.087-.981c-.11-1.585-.057-3.194-.057-4.782L.012 68.96l.003-23.998L.011 27.45.01 22.212c0-1.93-.013-3.831.322-5.74a20.332 20.332 0 0 1 1.117-3.898A20.054 20.054 0 0 1 3.33 8.982a20.219 20.219 0 0 1 1.642-2.151C8.575 2.714 13.54.402 18.962.038ZM53.634 27.14c.009 1.134.113 2.266.168 3.399.137 2.929.3 5.857.49 8.783a827.28 827.28 0 0 0 1.643 22.857c.308 3.557.732 7.104 1.034 10.66l8.116.003 3.943-15.29c.567-2.197 1.204-4.397 1.698-6.611 1.272 5.188 2.777 10.338 4.179 15.494l1.106 4.073c.21.771.452 1.552.607 2.336l8.265-.007a657.648 657.648 0 0 0 2.805-34.403c.193-2.732.348-5.467.464-8.203.05-1.029.151-2.06.185-3.089-2.635.005-5.274.033-7.908-.002l-.763 22.038c-.089 3.48-.225 6.959-.407 10.435-.034.553.005 1.569-.14 2.048l-.078.017c-.118-.141-.167-.293-.222-.467-.237-.766-.409-1.562-.618-2.337l-1.376-5.109c-1.149-4.29-2.333-8.576-3.432-12.879-1.51-.057-3.024.025-4.533-.035l-3.155 12.581c-.269 1.085-1.839 7.84-2.129 8.275l-.085-.007c-.099-.141-.115-.301-.131-.469-.095-1.008-.101-2.036-.159-3.048l-.446-9.089-.473-10.353a403.854 403.854 0 0 1-.46-11.591c-2.727-.002-5.462.038-8.188-.01Zm-20.977-5.81c-.419 2.754-1.029 5.509-1.348 8.272-4.725.401-10.302 1.454-13.518 5.271-1.333 1.582-2.06 3.68-1.87 5.753.256 2.784 2.402 5.037 4.458 6.727 2.227 1.83 4.769 3.452 7.299 4.829-.409 2.629-.93 5.249-1.403 7.868-.21 1.164-.521 2.389-.602 3.566-3.207-.298-6.493-.597-9.643-1.287-.481 2.547-1.032 5.095-1.449 7.653 1.724.151 3.443.345 5.169.468 1.175.084 2.355.1 3.532.168-.528 2.65-1.137 5.298-1.59 7.961l5.726.07c.493.004.987.018 1.479.008.45-2.775 1.004-5.55 1.369-8.335 4.654-.456 10.394-1.563 13.534-5.359 1.309-1.583 2.046-3.641 1.846-5.706-.296-3.045-2.717-5.479-4.977-7.319-2.114-1.722-4.458-3.22-6.805-4.606.456-2.153.834-4.327 1.241-6.49.274-1.455.616-2.926.8-4.393 1.797.178 3.605.448 5.383.766 1.014.181 2.045.442 3.067.555l.598-4.694c.12-.962.282-1.942.325-2.91-2.328-.329-4.663-.48-7.004-.671.585-2.676 1.172-5.366 1.651-8.063-2.418-.095-4.848-.091-7.268-.102Z" style="fill:url(#_Linear1)"/>
    <path d="m30.984 36.26.068.001c.131.384-1.308 7.222-1.409 8.427a44.775 44.775 0 0 1-2.864-2.115l-.084-.072c-.894-.768-1.98-1.859-2.049-3.111a2.202 2.202 0 0 1 .623-1.689c1.33-1.36 3.945-1.416 5.715-1.441Zm1.031 18.552c1.529.861 3.787 2.555 4.562 4.121.337.681.471 1.429.205 2.161-.351.963-1.203 1.471-2.085 1.868-1.35.547-2.819.682-4.258.793.53-2.978 1.11-5.954 1.576-8.943Z" style="fill:#010101;fill-rule:nonzero"/>
  </g>
  <defs>
    <linearGradient id="_Linear1" x1="0" x2="1" y1="0" y2="0" gradientTransform="rotate(-90.056 74.905 24.935) scale(99.83845)" gradientUnits="userSpaceOnUse">
      <stop offset="0" style="stop-color:#182024;stop-opacity:1"/>
      <stop offset="1" style="stop-color:#2b3940;stop-opacity:1"/>
    </linearGradient>
  </defs>
</svg>
