<svg xmlns="http://www.w3.org/2000/svg" xml:space="preserve" style="fill-rule:evenodd;clip-rule:evenodd;stroke-linejoin:round;stroke-miterlimit:2" viewBox="0 0 100 100">
    <path d="M20,0C8.954,0 0,8.954 0,20L0,80C0,91.046 8.954,100 20,100L80,100C91.046,100 100,91.046 100,80L100,20C100,8.954 91.046,0 80,0L20,0Z" fill="#000000"/>
    <path d="M19.09,30 L40.5,72.82 C43.2,78.22 50.8,78.22 53.5,72.82 C56.2,67.42 61.6,56.62 67,56.62 C72.4,56.62 76.45,67.42 79.15,72.82 L79.15,30 L92,30 L92,72.82 C92,85.42 77.8,92.52 69.7,79.02 C67,74.52 64.3,69.12 61.6,69.12 C58.9,69.12 56.2,74.52 53.5,79.02 C45.4,92.52 31.2,85.42 27.6,78.22 L8,39.02 L19.09,30 Z" style="fill:#ffffff;"/>
</svg>
