<svg xmlns="http://www.w3.org/2000/svg" xml:space="preserve" style="fill-rule:evenodd;clip-rule:evenodd;stroke-linejoin:round;stroke-miterlimit:2" viewBox="0 0 100 100">
  <g id="レイヤー1">
    <path d="m37.433.032 2.995-.014 24.188.026 7.439.018c3.948.012 8.019.032 11.863 1.043.223.058.446.119.667.185a19.41 19.41 0 0 1 1.314.433 20.976 20.976 0 0 1 3.732 1.807 20.631 20.631 0 0 1 1.156.762 22.149 22.149 0 0 1 1.102.837c.18.145.356.294.53.445a18.833 18.833 0 0 1 1.015.942c6.012 5.969 6.53 13.107 6.559 21.141l.006 32.213-.001 10.378c-.001 4.315.093 8.783-.893 13.01a21.359 21.359 0 0 1-1.423 4.183 20.325 20.325 0 0 1-1.032 1.957 19.92 19.92 0 0 1-.8 1.24 23.284 23.284 0 0 1-.885 1.181 19.692 19.692 0 0 1-.966 1.115c-.167.181-.337.358-.511.532-5.78 5.805-12.429 6.388-20.214 6.504-3.558.053-7.12.02-10.678.019l-25.444.001-8.286-.002c-4.078-.007-8.324.023-12.307-.957a22.52 22.52 0 0 1-1.353-.373 19.996 19.996 0 0 1-1.326-.462 21.542 21.542 0 0 1-1.923-.856 21.607 21.607 0 0 1-2.413-1.432 20.433 20.433 0 0 1-1.672-1.278 19.381 19.381 0 0 1-1.041-.942C.846 87.829.159 81.03.083 73.061L.013 40.99c-.028-4.076-.011-8.151.051-12.227.047-4.05-.001-8.185.945-12.148a20.178 20.178 0 0 1 .375-1.384 22.625 22.625 0 0 1 .469-1.356 22.514 22.514 0 0 1 .874-1.965 22.613 22.613 0 0 1 .693-1.256 19.23 19.23 0 0 1 .777-1.205 19.942 19.942 0 0 1 1.314-1.702 20.303 20.303 0 0 1 .971-1.056C12.498.579 19.713.089 27.839.063l9.594-.031ZM13.586 70.218a.788.788 0 0 0 .095.299c.366.603 2.211 2.382 2.817 2.828.034.025.071.049.107.073 1.393 1.171 2.81 2.254 4.348 3.231.29.184.624.443.944.558-1.086 1.261-2.06 2.655-3.071 3.977-.734.961-1.586 1.922-2.223 2.942l-.006 1.097c.017.06.003.022.057.109.833.221 4.75.179 5.702.067 1.543-1.815 2.866-3.832 4.37-5.682a54.675 54.675 0 0 0 9.351 3.107c1.068.251 2.142.469 3.223.654 1.271.213 2.558.422 3.843.525.541.089 1.072.137 1.618.161.826.022 1.645.134 2.471.173 1.389.065 2.785.043 4.175.039.751-.002 1.839.053 2.566-.089.112-.021 1.068-.11 1.466-.115.495-.015.979-.043 1.459-.17l.864-.077c.257.01.523-.064.773-.12.203-.023.406-.054.609-.082.255-.008.497-.062.746-.114.157-.019.314-.052.469-.079.387-.012.815-.129 1.197-.201 1.119-.213 2.224-.481 3.338-.717.451.694 1.55 2.332 2.11 2.849 3.588.122 7.192.035 10.782.032l2.828.008c.515.002 1.125.056 1.627-.048.447-.006 1.368.074 1.679-.238.048-.356.018-.726.007-1.084-.572-.887-1.226-1.737-1.841-2.596l-3.365-4.712a33.57 33.57 0 0 0 2.956-2.004 33.396 33.396 0 0 0 2.519-2.115c.402-.373.794-.757 1.178-1.148.351-.356.992-.88 1.084-1.388 1.006-.935 2.614-3.468 3.285-4.745a22.233 22.233 0 0 0 .672-1.391c.103-.235.202-.473.297-.712.094-.24.184-.481.27-.724a21.569 21.569 0 0 0 .806-2.979 19.507 19.507 0 0 0 .235-1.526 19.945 19.945 0 0 0 .121-1.539 19.884 19.884 0 0 0 .007-1.544 21.98 21.98 0 0 0-.109-1.541c-.061-.611-.046-1.259-.23-1.85-.17-1.095-.454-2.338-.911-3.351-.032-.199-.129-.405-.202-.594-2.487-6.48-8.387-11.472-14.346-14.683-1.638-.883-3.333-1.588-5.029-2.344.045-.209 8.947-11.759 9.831-12.925.549-.725 2.033-2.418 2.268-3.197-.002-.366.002-.732.01-1.098-1.868 0-3.738-.021-5.606.002L68.519 25.58l-2.212 2.883c-.388.504-.974 1.099-1.22 1.682l-.048-.069c.037-.106.044-.212.057-.322-.034-.353-.014-.726-.017-1.081-5.261-1.448-11.594-1.902-17.066-1.707-1.389.049-2.779.182-4.165.289 0 .369-.002.737-.008 1.105.019.253.091.417.232.627.557.827 1.209 1.608 1.813 2.402l3.58 4.716 2.603 3.479c.438.578.87 1.23 1.386 1.737.005-.23.034-.487-.012-.713-.013-.244.006-.565-.073-.795-.241-.706-.715-1.4-1.102-2.036-1.111-1.829-2.407-3.569-3.203-5.567-.042-.095-.039-.064-.044-.168-.02-.377.417-.786.648-1.044.332-.082.605-.289.89-.469.375-.186.796-.279 1.2-.381.675-.102 1.361-.078 2.038-.161.581.012 1.214.076 1.79.021.394.185.776.206 1.205.24 1.485.12 2.954.278 4.424.521.951.156 1.896.397 2.852.506.074.009.05.007.134.045-.507.453-.91 1.078-1.323 1.618l-1.919 2.514-6.928 9.053a1.788 1.788 0 0 1-.279-.271c.076-.212.127-.395.142-.621.019-.359.009-.717.001-1.075-.836-1.229-1.733-2.423-2.604-3.627-1.54-2.147-3.1-4.279-4.682-6.395-.772-1.03-1.57-2.042-2.328-3.081-.372-.51-.661-1.076-1.03-1.591l-6.378-8.79c-1.352-1.864-2.674-3.761-4.072-5.59l-16.98-.015v1.148c.701 1.372 1.761 2.656 2.659 3.911l6.057 8.461 1.83 2.557c.308.43.675.871.934 1.331.078.137.115.201.091.355-7.472 3.109-14.832 8.575-17.998 16.257-.283.687-.709 1.643-.792 2.364a13.02 13.02 0 0 0-.603 3.437c-.213.743-.197 1.602-.19 2.371a21.08 21.08 0 0 0 .054 1.329 21.166 21.166 0 0 0 .491 3.286 20.267 20.267 0 0 0 .535 1.922 22.145 22.145 0 0 0 .712 1.864c.088.203.18.405.275.605a22.025 22.025 0 0 0 .605 1.185c.861 1.551 1.909 3.074 3.105 4.386ZM70.52 31.746c-.003.313-.012.627-.009.94-.006.155.061.611.061.611.165.164.432.221.646.301 1.234.464 2.457 1.086 3.617 1.711.826.445 1.661.919 2.443 1.44.502.334.99.743 1.512 1.039.409.314.821.625 1.216.955.381.318.753.702 1.187.945.619.635 1.369 1.518 2.106 1.994.553.556 1.011 1.18 1.473 1.812 2.194 3.007 3.78 6.744 3.79 10.512.003 1.122-.144 2.25-.361 3.348a19.348 19.348 0 0 1-.832 2.685c-.195.488-.435.963-.622 1.452-.505.875-.953 1.75-1.523 2.589-2.388 3.513-5.827 6.461-9.533 8.509-.472-.735-1.017-1.44-1.525-2.152l-2.962-4.151-8.565-12.004c-1.507-2.111-3.074-4.199-4.521-6.351.326-.595 1.073-1.434 1.505-1.998l3.471-4.538 4.999-6.555c.586-.774 1.179-1.544 1.78-2.308.204-.261.379-.556.604-.797l.043.011ZM46.021 54.969c-.035.324-.125.864-.027 1.165.032.164.084.277.173.419.409.656.902 1.283 1.354 1.91l2.533 3.521 9.519 13.094c.375.524.737 1.066 1.132 1.575.203.262.451.502.64.772.082.116.126.267.157.404-.088-.107-.127-.197-.277-.212-.376-.037-.836.129-1.214.184-.551.08-1.107.136-1.661.195-9.107.974-18.564-.561-26.72-4.775-.031-.034-.013-.009-.021-.091.522-.444.933-1.113 1.347-1.659l2.045-2.696 6.815-8.974c1.283-1.689 2.524-3.469 3.914-5.07.097.072.215.142.291.238ZM29.687 35.664c.01-.38.061-.836-.071-1.196.075-.029.128-.08.204-.036.256.149 8.792 12.2 9.6 13.328.584.815 1.755 2.637 2.415 3.26.049.046.034.022.053.076-.535.55-.983 1.209-1.449 1.819l-2.296 3.008-7.276 9.515-2.366 3.098c-.464.607-.914 1.242-1.416 1.818-4.664-3.604-8.041-7.896-9.235-13.761-.09-.889-.315-1.826-.273-2.718.02-.418.093-.838.146-1.253.417-3.256 1.651-6.213 3.537-8.892.436-.618.888-1.289 1.449-1.797.749-.498 1.56-1.495 2.239-2.137.915-.864 1.971-1.655 3.004-2.373.301-.209 1.526-.921 1.677-1.117.026-.033.028-.079.041-.118l-.087-.162c.023-.021.048-.041.068-.064.09-.104.053-.173.036-.298Z"/>
  </g>
</svg>
