<svg xmlns="http://www.w3.org/2000/svg" xml:space="preserve" style="fill-rule:evenodd;clip-rule:evenodd;stroke-linejoin:round;stroke-miterlimit:2" viewBox="0 0 100 100"><path d="m37.433.032 2.995-.014 24.188.026 7.439.018c3.948.012 8.019.032 11.863 1.043l.667.185.66.206.654.227.646.25.637.27.628.291.618.312.607.332.596.352.584.372.572.39.558.41.544.427.53.445.515.462.5.48c6.012 5.969 6.53 13.107 6.56 21.14l.005 32.214-.001 10.378c0 4.315.093 8.783-.893 13.01a20.762 20.762 0 0 1-.851 2.823 21.083 21.083 0 0 1-4.255 6.853c-.167.18-.337.358-.511.532-5.78 5.805-12.43 6.388-20.214 6.504-3.558.053-7.12.02-10.678.02H37.152l-8.286-.002c-4.078-.007-8.324.023-12.307-.957l-.68-.175-.673-.198-.667-.22-.659-.242-.65-.264-.641-.285-.632-.307-.62-.328-.61-.348-.598-.368-.585-.388-.571-.407-.558-.426-.543-.445-.528-.462-.513-.48C.846 87.83.16 81.03.083 73.061l-.07-32.07a555.75 555.75 0 0 1 .05-12.228c.048-4.05 0-8.185.946-12.148l.176-.695.2-.69.222-.681.246-.674.27-.665.29-.655.314-.645.336-.634.357-.622.378-.609.399-.596.418-.583.439-.567.457-.552.476-.537.495-.52C12.498.58 19.712.09 27.839.064l9.594-.031Zm10.978 13.77c-20.237.866-35.931 17.771-35.057 37.76.875 19.99 17.988 35.494 38.224 34.632 20.24-.862 35.939-17.768 35.064-37.76-.875-19.992-17.992-35.498-38.231-34.632Zm.177 14.409c12.18-.761 22.676 8.38 23.437 20.411.76 12.032-8.502 22.392-20.683 23.134-12.167.742-22.641-8.395-23.402-20.413-.76-12.018 8.482-22.371 20.648-23.132Zm1.27 2.77c-10.61.068-19.16 8.608-19.112 19.087.048 10.48 8.675 18.942 19.284 18.916 10.64-.026 19.237-8.578 19.189-19.087-.048-10.509-8.723-18.984-19.362-18.916Zm-6.986 8.583c1.854.957 4.245 2.41 6.102 3.469l12.408 7.063c-2.139 1.3-4.631 2.653-6.826 3.908L42.943 60.64l-.071-21.076Z"/></svg>