<svg xmlns="http://www.w3.org/2000/svg" xml:space="preserve" style="fill-rule:evenodd;clip-rule:evenodd;stroke-linejoin:round;stroke-miterlimit:2" viewBox="0 0 100 100"><path d="m37.433.032 2.995-.014 24.188.026 7.439.018c3.948.012 8.019.032 11.863 1.043l.667.185.66.206.654.227.646.25.637.27.628.291.618.312.607.332.596.352.584.372.572.39.558.41.544.427.53.445.515.462.5.48c6.012 5.969 6.53 13.107 6.56 21.14l.005 32.214-.001 10.378c0 4.315.093 8.783-.893 13.01a20.762 20.762 0 0 1-.851 2.823 21.083 21.083 0 0 1-4.255 6.853c-.167.18-.337.358-.511.532-5.78 5.805-12.43 6.388-20.214 6.504-3.558.053-7.12.02-10.678.02H37.152l-8.286-.002c-4.078-.007-8.324.023-12.307-.957l-.68-.175-.673-.198-.667-.22-.659-.242-.65-.264-.641-.285-.632-.307-.62-.328-.61-.348-.598-.368-.585-.388-.571-.407-.558-.426-.543-.445-.528-.462-.513-.48C.846 87.83.16 81.03.083 73.061l-.07-32.07a555.75 555.75 0 0 1 .05-12.228c.048-4.05 0-8.185.946-12.148l.176-.695.2-.69.222-.681.246-.674.27-.665.29-.655.314-.645.336-.634.357-.622.378-.609.399-.596.418-.583.439-.567.457-.552.476-.537.495-.52C12.498.58 19.712.09 27.839.064l9.594-.031Zm8.35 24.16c-5.953.116-11.917.177-17.856.645-2.245.177-4.86.308-7.004.995A9.116 9.116 0 0 0 17.14 28.2a9.122 9.122 0 0 0-2.03 3.246c-.67 1.877-.91 3.995-1.133 5.966-.557 4.931-.737 9.989-.627 14.95.091 4.092.393 12.683 1.838 16.41a9.14 9.14 0 0 0 2.19 3.274 9.193 9.193 0 0 0 3.946 2.242c1.856.508 3.874.648 5.786.808 3.314.279 6.637.422 9.96.52 5.714.168 11.463.34 17.178.188l.094-.003c7.021-.09 14.167-.233 21.162-.965 2.917-.305 5.15-.828 7.326-2.995 2.469-2.46 2.747-5.817 3.177-9.095.901-8.511.876-17.164-.022-25.674-.461-3.727-.883-7.299-4.096-9.752-2.335-1.877-5.46-2.106-8.362-2.362-6.122-.54-12.33-.644-18.477-.75a254 254 0 0 0-8.984-.022l-.284.008Zm-3.281 14.91c1.65.879 3.39 1.919 5.028 2.851l9.226 5.25c1.515.863 3.43 2.022 4.946 2.795-.781.398-1.711.96-2.486 1.4l-4.589 2.61c-1.265.66-2.762 1.572-4.026 2.291l-8.111 4.616c.062-1.76.006-3.91.006-5.698l-.001-10.972c-.002-1.625-.06-3.548.007-5.142Z"/></svg>