<svg xmlns="http://www.w3.org/2000/svg" xml:space="preserve" style="fill-rule:evenodd;clip-rule:evenodd;stroke-linejoin:round;stroke-miterlimit:2" viewBox="0 0 100 100">
  <g id="レイヤー1">
    <path d="m37.433.032 2.995-.014 24.188.026 7.439.018c3.948.012 8.019.032 11.863 1.043.223.058.446.119.667.185a19.41 19.41 0 0 1 1.314.433 20.976 20.976 0 0 1 3.732 1.807 20.631 20.631 0 0 1 1.156.762 22.149 22.149 0 0 1 1.102.837c.18.145.356.294.53.445a18.833 18.833 0 0 1 1.015.942c6.012 5.969 6.53 13.107 6.559 21.141l.006 32.213-.001 10.378c-.001 4.315.093 8.783-.893 13.01a21.359 21.359 0 0 1-1.423 4.183 20.325 20.325 0 0 1-1.032 1.957 19.92 19.92 0 0 1-.8 1.24 23.284 23.284 0 0 1-.885 1.181 19.692 19.692 0 0 1-.966 1.115c-.167.181-.337.358-.511.532-5.78 5.805-12.429 6.388-20.214 6.504-3.558.053-7.12.02-10.678.019l-25.444.001-8.286-.002c-4.078-.007-8.324.023-12.307-.957a22.52 22.52 0 0 1-1.353-.373 19.996 19.996 0 0 1-1.326-.462 21.542 21.542 0 0 1-1.923-.856 21.607 21.607 0 0 1-2.413-1.432 20.433 20.433 0 0 1-1.672-1.278 19.381 19.381 0 0 1-1.041-.942C.846 87.829.159 81.03.083 73.061L.013 40.99c-.028-4.076-.011-8.151.051-12.227.047-4.05-.001-8.185.945-12.148a20.178 20.178 0 0 1 .375-1.384 22.625 22.625 0 0 1 .469-1.356 22.514 22.514 0 0 1 .874-1.965 22.613 22.613 0 0 1 .693-1.256 19.23 19.23 0 0 1 .777-1.205 19.942 19.942 0 0 1 1.314-1.702 20.303 20.303 0 0 1 .971-1.056C12.498.579 19.713.089 27.839.063l9.594-.031ZM25.944 83.173c3.501.098 7.028.01 10.533.009l20.401-.002h13.476c2.321.001 4.707.131 7.018-.031 1.602-.113 3.087-.768 4.155-1.989.007-.005.015-.01.021-.017.765-.738 1.295-1.9 1.496-2.934.331-1.695.138-4.434.138-6.237l-.001-12.403c.067-1.613-.025-12.427-.025-12.427l-4.107.525s-.005.921-.014 3.242l-.027 11.999-.009 9.328c-.001 1.528-.112 3.157.027 4.675-.03.788-.274 1.202-.838 1.742l-.05.046c-.357.174-.64.266-1.035.298-1.484.122-3.026.041-4.514.041l-8.408-.001-34.636-.01c-1.42.001-2.87-.057-4.286.008l-1.353-.016c2.397-2.417 4.788-4.86 7.241-7.221 1.84-.1 3.729-.023 5.575-.027 2.171.069 4.361.005 6.536.004l12.946-.003 7.455.006c1.311.001 2.698.094 3.998-.049.044.003.088.007.133.007 1.016.015 2.01-.436 2.729-1.144.494-.486.899-1.091 1.071-1.768.386-1.515.191-3.735.19-5.342l-.008-8.332c.001-1.444-.074-6.373-.074-6.373s-1.919.369-4.052.599c-.003 2.781-.015.633-.017 3.374-.001 2.946-.052 5.9.01 8.845a448.299 448.299 0 0 0-.004 6.026l-.973.015c-1.946-.088-3.932-.01-5.882-.01l-11.479-.001-8.442-.005c-1.473-.001-3.008-.092-4.472.036-.348-.061-.733-.035-1.087-.039 2.415-2.32 4.701-4.774 7.121-7.089 1.687-.132 3.443-.042 5.14-.053 2.312.063 4.683.077 6.994-.002.923.04 1.94.089 2.858-.008.892-.094 1.71-.422 2.281-1.142.861-1.087.773-3.463.639-4.809.032-.814.029-1.627.027-2.441l-4.128.013c-.008 1.245-.156 3.103.022 4.282-1.137-.019-2.277-.006-3.414-.007-1.045-.003-2.143-.084-3.18.015a94.424 94.424 0 0 0-3.103-.017l23.619-23.611 7.24-7.231c1.198-1.196 2.577-2.385 3.629-3.702.458-.573.686-1.159.677-1.898a2.92 2.92 0 0 0-.018-.323 2.752 2.752 0 0 0-.089-.475 2.749 2.749 0 0 0-.161-.456 3.889 3.889 0 0 0-.146-.288 3.865 3.865 0 0 0-.175-.271 3.945 3.945 0 0 0-.202-.251 3.067 3.067 0 0 0-.228-.229c-.525-.484-1.143-.731-1.85-.79-1.001-.083-2.038-.032-3.043-.032l-5.443.001-17.329.004H32.946l-6.492-.005c-1.236-.001-2.497-.052-3.73.026-1.747.111-3.305.86-4.451 2.193-.753.876-1.224 1.997-1.378 3.138-.225 1.659-.091 3.469-.089 5.145l.005 9.373V68.67l4.156-.003V36.803l-.003-9.448c0-1.505-.136-3.172.041-4.662.05-.417.247-.798.54-1.097a1.961 1.961 0 0 1 1.264-.602c1.963-.178 4.037-.031 6.016-.03h12.183l22.693-.001c4.132 0 8.268-.039 12.398.013l-4.825 4.813c-.804.804-1.589 1.653-2.43 2.417l-25.702.006-7.259-.006c-1.357-.002-2.817-.108-4.159.083a3.986 3.986 0 0 0-2.307 1.166c-.64.647-.963 1.342-1.104 2.232-.176 1.108-.102 2.297-.102 3.417v5.289l.006 17.895 4.155-.003.001-25.915c10.77-.001 21.555-.12 32.324.008-2.426 2.395-4.769 4.917-7.26 7.239l-10.415.003c-1.478-.001-3.563-.165-4.965.1a3.132 3.132 0 0 0-.421.116 2.968 2.968 0 0 0-.766.415 2.818 2.818 0 0 0-.328.288c-.333.337-.619.777-.75 1.236-.377 1.317-.167 4.614-.159 6.154l4.141-.004.001-4.153 9.522.007-23.333 23.32-7.308 7.311c-1.228 1.226-2.635 2.424-3.719 3.77a2.88 2.88 0 0 0-.651 1.858c.004.841.277 1.64.887 2.234 1.126 1.096 2.716.93 4.156.923l2.615-.022Z"/>
  </g>
</svg>
