<svg xmlns="http://www.w3.org/2000/svg" xml:space="preserve" style="fill-rule:evenodd;clip-rule:evenodd;stroke-linejoin:round;stroke-miterlimit:2" viewBox="0 0 100 100">
  <g id="レイヤー1">
    <path d="m37.433.032 2.995-.014 24.188.026 7.439.018c3.948.012 8.019.032 11.863 1.043.223.058.446.119.667.185a19.41 19.41 0 0 1 1.314.433 20.976 20.976 0 0 1 3.732 1.807 20.631 20.631 0 0 1 1.156.762 22.149 22.149 0 0 1 1.102.837c.18.145.356.294.53.445a18.833 18.833 0 0 1 1.015.942c6.012 5.969 6.53 13.107 6.559 21.141l.006 32.213-.001 10.378c-.001 4.315.093 8.783-.893 13.01a21.359 21.359 0 0 1-1.423 4.183 20.325 20.325 0 0 1-1.032 1.957 19.92 19.92 0 0 1-.8 1.24 23.284 23.284 0 0 1-.885 1.181 19.692 19.692 0 0 1-.966 1.115c-.167.181-.337.358-.511.532-5.78 5.805-12.429 6.388-20.214 6.504-3.558.053-7.12.02-10.678.019l-25.444.001-8.286-.002c-4.078-.007-8.324.023-12.307-.957a22.52 22.52 0 0 1-1.353-.373 19.996 19.996 0 0 1-1.326-.462 21.542 21.542 0 0 1-1.923-.856 21.607 21.607 0 0 1-2.413-1.432 20.433 20.433 0 0 1-1.672-1.278 19.381 19.381 0 0 1-1.041-.942C.846 87.829.159 81.03.083 73.061L.013 40.99c-.028-4.076-.011-8.151.051-12.227.047-4.05-.001-8.185.945-12.148a20.178 20.178 0 0 1 .375-1.384 22.625 22.625 0 0 1 .469-1.356 22.514 22.514 0 0 1 .874-1.965 22.613 22.613 0 0 1 .693-1.256 19.23 19.23 0 0 1 .777-1.205 19.942 19.942 0 0 1 1.314-1.702 20.303 20.303 0 0 1 .971-1.056C12.498.579 19.713.089 27.839.063l9.594-.031Zm16.435 42.11c-2.115.171-4.039 1.095-5.42 2.728a8.925 8.925 0 0 0-.481.622 7.718 7.718 0 0 0-.766 1.372 8.139 8.139 0 0 0-.479 1.496 8.452 8.452 0 0 0-.125.776 7.31 7.31 0 0 0-.048.785 8.585 8.585 0 0 0 .031.786 8.44 8.44 0 0 0 .107.769 7.967 7.967 0 0 0 .3 1.125 7.941 7.941 0 0 0 2.111 3.213 7.832 7.832 0 0 0 .905.718 6.846 6.846 0 0 0 .655.401 7.32 7.32 0 0 0 .69.335 7.794 7.794 0 0 0 2.988.627 8.195 8.195 0 0 0 .767-.029c2.084-.188 4.036-1.12 5.388-2.74 1.337-1.601 2.051-3.702 1.859-5.79-.19-2.076-1.216-4.105-2.839-5.426-1.625-1.322-3.556-1.914-5.643-1.768Zm.24 3.087c1.049-.131 2.314.283 3.159.902.985.722 1.702 1.865 1.881 3.077.194 1.313-.089 2.613-.888 3.68-.858 1.146-2.05 1.682-3.435 1.889-1.003.145-2.272-.282-3.087-.855a4.344 4.344 0 0 1-.37-.287 5.203 5.203 0 0 1-.499-.496 5.31 5.31 0 0 1-.288-.369 4.148 4.148 0 0 1-.252-.396 5.832 5.832 0 0 1-.21-.418 4.512 4.512 0 0 1-.237-.663 5.781 5.781 0 0 1-.101-.457 4.629 4.629 0 0 1-.073-.712 4.68 4.68 0 0 1 .034-.714 4.62 4.62 0 0 1 .289-1.154 4.686 4.686 0 0 1 .43-.85c.043-.067.088-.133.134-.198.878-1.212 2.074-1.744 3.513-1.979Zm-38.837-2.905c.093.933.336 1.744 1.085 2.373a3.232 3.232 0 0 0 .639.414 3.19 3.19 0 0 0 .72.247c.861.185 1.844.095 2.723.093l4.062-.002c-1.998 1.95-3.959 3.938-5.934 5.911-.855.855-2.258 2.079-2.917 3.009-.218.307-.32.724-.327 1.096a2.237 2.237 0 0 0 .153.847 2.334 2.334 0 0 0 .198.384 2.18 2.18 0 0 0 .27.338c.31.315.688.497 1.12.573 1.252.218 3.052.085 4.375.084l8.463-.006c-.099-.939-.358-1.776-1.11-2.407a3.04 3.04 0 0 0-1.384-.649c-.887-.174-1.921-.076-2.825-.075l-4.841-.001c1.963-1.89 3.868-3.849 5.795-5.777.922-.922 2.306-2.122 3.035-3.133.238-.33.354-.733.356-1.139a2.195 2.195 0 0 0-.167-.84 2.303 2.303 0 0 0-.334-.55 2.143 2.143 0 0 0-1.28-.737c-1.133-.182-2.929-.055-4.13-.054-2.581.001-5.165-.029-7.745.001Zm21.577-.183c-2.103.183-4.017 1.097-5.394 2.723a8.046 8.046 0 0 0-1.081 1.636 7.683 7.683 0 0 0-.553 1.47 8.483 8.483 0 0 0-.164.769 7.267 7.267 0 0 0-.087.781 8.598 8.598 0 0 0-.008.786 8.149 8.149 0 0 0 .207 1.531 8.105 8.105 0 0 0 .498 1.452 7.353 7.353 0 0 0 .353.683c.064.111.131.221.201.328a6.853 6.853 0 0 0 .449.624 7.84 7.84 0 0 0 1.069 1.103 7.71 7.71 0 0 0 .612.468 7.439 7.439 0 0 0 .996.586 7.89 7.89 0 0 0 4.116.787l.013-.002c2.096-.18 4.06-1.114 5.421-2.743 1.347-1.612 2.059-3.748 1.849-5.848a8.513 8.513 0 0 0-.115-.78 7.139 7.139 0 0 0-.191-.766 7.15 7.15 0 0 0-.266-.743 8.257 8.257 0 0 0-.338-.713 7.748 7.748 0 0 0-.634-.998 8.123 8.123 0 0 0-1.658-1.651 7.329 7.329 0 0 0-.95-.598 8.07 8.07 0 0 0-.677-.321 8.712 8.712 0 0 0-.705-.253 7.747 7.747 0 0 0-2.214-.341 7.817 7.817 0 0 0-.749.03Zm.286 3.091c1.038-.128 2.295.294 3.132.899.984.711 1.696 1.852 1.883 3.054.201 1.3-.081 2.62-.868 3.681-.882 1.189-2.098 1.7-3.522 1.919-1.027.094-2.262-.309-3.09-.913a4.106 4.106 0 0 1-.363-.292 5.182 5.182 0 0 1-.333-.327 4.302 4.302 0 0 1-.436-.547 5.044 5.044 0 0 1-.244-.398 4.522 4.522 0 0 1-.203-.42 5.753 5.753 0 0 1-.161-.438 5.774 5.774 0 0 1-.117-.452 4.43 4.43 0 0 1-.074-.463 4.556 4.556 0 0 1-.013-.941 4.523 4.523 0 0 1 .063-.467 4.739 4.739 0 0 1 .354-1.121 5.16 5.16 0 0 1 .474-.813c.893-1.218 2.058-1.744 3.518-1.961Zm32.19-3.092c-1.62.16-3.016.866-4.064 2.127-.078.094-.154.19-.226.289a5.755 5.755 0 0 0-.399.614 5.884 5.884 0 0 0-.325.656 5.898 5.898 0 0 0-.245.69 6.38 6.38 0 0 0-.092.355c-.365 1.62-.193 3.879-.191 5.566.002 1.752-.061 3.53.028 5.279 1.036-.159 1.898-.425 2.542-1.323a3.2 3.2 0 0 0 .536-1.267c.156-.812.098-1.687.094-2.511l-.013-3.178c-.002-.755-.05-1.541.185-2.27.324-1.002 1.088-1.678 2.119-1.882.771-.153 1.622.01 2.264.47.667.477 1.048 1.248 1.17 2.045.108.709.056 1.467.054 2.184l-.012 3.364c-.003.78-.063 1.596.187 2.347a2.944 2.944 0 0 0 1.031 1.393c.564.422 1.203.564 1.88.686.013-1.812.016-3.623.008-5.435 0-1.218-.151-3.892.15-4.964a2.853 2.853 0 0 1 .29-.689 2.963 2.963 0 0 1 .457-.593 3.282 3.282 0 0 1 .329-.278 2.456 2.456 0 0 1 .24-.157 3.922 3.922 0 0 1 .255-.132 2.482 2.482 0 0 1 .267-.106 2.402 2.402 0 0 1 .277-.079 3.156 3.156 0 0 1 .282-.052c.048-.006.095-.011.143-.015.048-.004.096-.006.144-.008.048-.001.095-.002.143-.001a2.862 2.862 0 0 1 2.014.873c.357.379.584.847.71 1.349.29 1.151.118 4.42.112 5.76-.011 2.526.19 4.062 3.092 4.559l.004-6.719c-.001-1.359.16-2.906-.162-4.229a6.461 6.461 0 0 0-1.366-2.636 5.733 5.733 0 0 0-.29-.314c-1.151-1.169-2.614-1.798-4.256-1.793-1.782.006-3.15.73-4.415 1.939-1.289-1.247-2.701-1.963-4.524-1.935a7.58 7.58 0 0 0-.427.021Z"/>
  </g>
</svg>
