<svg xmlns="http://www.w3.org/2000/svg" xml:space="preserve"
  style="fill-rule:evenodd;clip-rule:evenodd;stroke-linejoin:round;stroke-miterlimit:2"
  viewBox="0 0 100 100">
  <!-- 中央のZ文字と装飾（背景から中抜き） -->
  <path d="M 22 2 H 78 A 20 20 0 0 1 98 22 V 78 A 20 20 0 0 1 78 98 H 22 A 20 20 0 0 1 2 78 V 22 A 20 20 0 0 1 22 2 Z M 33 40 L 52 40 L 28 65 L 28 75 L 72 75 L 72 60 L 48 60 L 72 35 L 72 25 L 33 25 Z M 33 0 L 33 10 L 63 10 L 63 0 Z M 0 40 L 0 70 L 10 70 L 10 40 Z M 90 25 L 90 55 L 100 55 L 100 25 Z" fill="black"/>
  </svg>