<svg
    xmlns="http://www.w3.org/2000/svg"
    xml:space="preserve"
    style="fill-rule:evenodd;clip-rule:evenodd;stroke-linejoin:round;stroke-miterlimit:2"
    viewBox="0 0 100 100"
>
<path
        d="M20,0C8.954,0 0,8.954 0,20L0,80C0,91.046 8.954,100 20,100L80,100C91.046,100 100,91.046 100,80L100,20C100,8.954 91.046,0 80,0L20,0Z"
        fill="#000000"
    />
  <path
        d="M18,25 L42,25 C53,25 58,32 58,41.5 C58,51 53,56.5 42,56.5 L31,56.5 L31,75 L18,75 L18,25 Z M31,35.5 L31,46 L41,46 C44,46 45.5,45 45.5,41 C45.5,37 44,35.5 41,35.5 L31,35.5 Z M69,41.5 C75,41.5 79.5,43.5 82.5,47.5 L76.5,51.5 C74.5,49.5 72.5,48 69.5,48 C66.5,48 65,49 65,51 C65,52.5 66,53.5 69,54 L74,55 C80,56.5 83.5,59.5 83.5,65.5 C83.5,72 78,76 69.5,76 C62.5,76 57.5,73 55,68.5 L60.5,63.5 C62.5,66.5 65.5,69 69,69 C72,69 74,68 74,66 C74,64.5 73,63.5 69,62.5 L64,61.5 C58.5,60 55.5,57 55.5,51 C55.5,45 60.5,41.5 69,41.5 Z"
        fill="#ffffff"
    />
</svg>
