<svg xmlns="http://www.w3.org/2000/svg" xml:space="preserve" style="fill-rule:evenodd;clip-rule:evenodd;stroke-linejoin:round;stroke-miterlimit:2" viewBox="0 0 100 100">
    <rect x="0" y="0" width="100" height="100" rx="22" style="fill:#000000"/>
    <path d="M55.5,22 V29.2 C62.1,30.5 66.8,33.8 69.8,37.1 L65.3,43.2 C62.2,40.8 59.1,39.1 55.6,39.1 C51.8,39.1 49.9,40.6 49.9,42.7 C49.9,44.8 52.1,46.1 56.5,47.3 C65.4,49.8 71.5,53.8 71.5,61.9 C71.5,69.7 65.2,74.6 55.5,75.9 V82 H44.5 V75.6 C38.1,74.4 33.1,71.2 30.2,67.6 L34.7,61.4 C38.1,64.2 41.5,66.2 45.4,66.2 C49.6,66.2 51.6,64.7 51.6,62.3 C51.6,59.9 49.1,58.5 44.5,57.2 C35.9,54.7 29.9,50.7 29.9,42.8 C29.9,35.6 35.8,30.8 44.5,29.3 V22 H55.5 Z" style="fill:#ffffff"/>
</svg>
